G04 #@! TF.GenerationSoftware,KiCad,Pcbnew,8.0.2*
G04 #@! TF.CreationDate,2024-08-30T13:40:58-03:00*
G04 #@! TF.ProjectId,Comunication Board,436f6d75-6e69-4636-9174-696f6e20426f,rev?*
G04 #@! TF.SameCoordinates,Original*
G04 #@! TF.FileFunction,Paste,Top*
G04 #@! TF.FilePolarity,Positive*
%FSLAX46Y46*%
G04 Gerber Fmt 4.6, Leading zero omitted, Abs format (unit mm)*
G04 Created by KiCad (PCBNEW 8.0.2) date 2024-08-30 13:40:58*
%MOMM*%
%LPD*%
G01*
G04 APERTURE LIST*
G04 Aperture macros list*
%AMRoundRect*
0 Rectangle with rounded corners*
0 $1 Rounding radius*
0 $2 $3 $4 $5 $6 $7 $8 $9 X,Y pos of 4 corners*
0 Add a 4 corners polygon primitive as box body*
4,1,4,$2,$3,$4,$5,$6,$7,$8,$9,$2,$3,0*
0 Add four circle primitives for the rounded corners*
1,1,$1+$1,$2,$3*
1,1,$1+$1,$4,$5*
1,1,$1+$1,$6,$7*
1,1,$1+$1,$8,$9*
0 Add four rect primitives between the rounded corners*
20,1,$1+$1,$2,$3,$4,$5,0*
20,1,$1+$1,$4,$5,$6,$7,0*
20,1,$1+$1,$6,$7,$8,$9,0*
20,1,$1+$1,$8,$9,$2,$3,0*%
G04 Aperture macros list end*
%ADD10R,1.250000X1.000000*%
%ADD11RoundRect,0.277273X0.347727X-0.332727X0.347727X0.332727X-0.347727X0.332727X-0.347727X-0.332727X0*%
%ADD12R,1.170000X0.600000*%
%ADD13R,1.450000X0.300000*%
%ADD14R,1.140000X0.600000*%
%ADD15RoundRect,0.200000X-0.275000X0.200000X-0.275000X-0.200000X0.275000X-0.200000X0.275000X0.200000X0*%
%ADD16RoundRect,0.375000X-1.625000X-0.375000X1.625000X-0.375000X1.625000X0.375000X-1.625000X0.375000X0*%
%ADD17RoundRect,1.000000X-1.000000X-2.800000X1.000000X-2.800000X1.000000X2.800000X-1.000000X2.800000X0*%
%ADD18RoundRect,0.225000X-0.250000X0.225000X-0.250000X-0.225000X0.250000X-0.225000X0.250000X0.225000X0*%
%ADD19RoundRect,0.225000X0.250000X-0.225000X0.250000X0.225000X-0.250000X0.225000X-0.250000X-0.225000X0*%
%ADD20RoundRect,0.218750X-0.218750X-0.256250X0.218750X-0.256250X0.218750X0.256250X-0.218750X0.256250X0*%
%ADD21RoundRect,0.225000X-0.225000X-0.250000X0.225000X-0.250000X0.225000X0.250000X-0.225000X0.250000X0*%
%ADD22RoundRect,0.218750X-0.256250X0.218750X-0.256250X-0.218750X0.256250X-0.218750X0.256250X0.218750X0*%
%ADD23RoundRect,0.225000X0.225000X0.250000X-0.225000X0.250000X-0.225000X-0.250000X0.225000X-0.250000X0*%
%ADD24RoundRect,0.200000X0.275000X-0.200000X0.275000X0.200000X-0.275000X0.200000X-0.275000X-0.200000X0*%
%ADD25R,1.500000X0.900000*%
%ADD26R,0.900000X1.500000*%
%ADD27R,0.900000X0.900000*%
%ADD28RoundRect,0.200000X0.200000X0.275000X-0.200000X0.275000X-0.200000X-0.275000X0.200000X-0.275000X0*%
G04 APERTURE END LIST*
D10*
X129525000Y-81125000D03*
X135775000Y-81125000D03*
X129525000Y-84625000D03*
X135775000Y-84625000D03*
X129350000Y-72900000D03*
X135600000Y-72900000D03*
X129350000Y-76400000D03*
X135600000Y-76400000D03*
D11*
X140900000Y-95450000D03*
X140900000Y-92470000D03*
D12*
X135187500Y-87602500D03*
X135187500Y-88402500D03*
D13*
X135047500Y-89552500D03*
X135047500Y-90552500D03*
X135047500Y-91052500D03*
X135047500Y-92052500D03*
D12*
X135187500Y-93202500D03*
D14*
X135202500Y-94002500D03*
X135202500Y-94002500D03*
D12*
X135187500Y-93202500D03*
D13*
X135047500Y-92552500D03*
X135047500Y-91552500D03*
X135047500Y-90052500D03*
X135047500Y-89052500D03*
D12*
X135187500Y-88402500D03*
X135187500Y-87602500D03*
D15*
X160940000Y-68120000D03*
X160940000Y-69770000D03*
D16*
X146130000Y-97530000D03*
X146130000Y-99830000D03*
D17*
X154430000Y-99830000D03*
D16*
X146130000Y-102130000D03*
D15*
X138075000Y-92425000D03*
X138075000Y-94075000D03*
D18*
X134290000Y-97880000D03*
X134290000Y-99430000D03*
D15*
X136395000Y-77920000D03*
X136395000Y-79570000D03*
D19*
X134315000Y-71070000D03*
X134315000Y-69520000D03*
D15*
X130275000Y-77945000D03*
X130275000Y-79595000D03*
D20*
X150520000Y-94300000D03*
X152095000Y-94300000D03*
D15*
X159165000Y-68120000D03*
X159165000Y-69770000D03*
D21*
X146730000Y-94260000D03*
X148280000Y-94260000D03*
D22*
X134805000Y-77977500D03*
X134805000Y-79552500D03*
D19*
X134355000Y-67810000D03*
X134355000Y-66260000D03*
D23*
X132470000Y-71080000D03*
X130920000Y-71080000D03*
D21*
X143460000Y-94260000D03*
X145010000Y-94260000D03*
D15*
X135970000Y-69480000D03*
X135970000Y-71130000D03*
D19*
X128600000Y-79550000D03*
X128600000Y-78000000D03*
D24*
X138360000Y-88540000D03*
X138360000Y-86890000D03*
D25*
X138270000Y-66905000D03*
X138270000Y-68175000D03*
X138270000Y-69445000D03*
X138270000Y-70715000D03*
X138270000Y-71985000D03*
X138270000Y-73255000D03*
X138270000Y-74525000D03*
X138270000Y-75795000D03*
X138270000Y-77065000D03*
X138270000Y-78335000D03*
X138270000Y-79605000D03*
X138270000Y-80875000D03*
X138270000Y-82145000D03*
X138270000Y-83415000D03*
D26*
X140035000Y-84665000D03*
X141305000Y-84665000D03*
X142575000Y-84665000D03*
X143845000Y-84665000D03*
X145115000Y-84665000D03*
X146385000Y-84665000D03*
X147655000Y-84665000D03*
X148925000Y-84665000D03*
X150195000Y-84665000D03*
X151465000Y-84665000D03*
X152735000Y-84665000D03*
X154005000Y-84665000D03*
D25*
X155770000Y-83415000D03*
X155770000Y-82145000D03*
X155770000Y-80875000D03*
X155770000Y-79605000D03*
X155770000Y-78335000D03*
X155770000Y-77065000D03*
X155770000Y-75795000D03*
X155770000Y-74525000D03*
X155770000Y-73255000D03*
X155770000Y-71985000D03*
X155770000Y-70715000D03*
X155770000Y-69445000D03*
X155770000Y-68175000D03*
X155770000Y-66905000D03*
D27*
X145520000Y-74625000D03*
X144120000Y-74625000D03*
X146920000Y-74625000D03*
X144120000Y-76025000D03*
X145520000Y-76025000D03*
X146920000Y-76025000D03*
X144120000Y-73225000D03*
X145520000Y-73225000D03*
X146920000Y-73225000D03*
D28*
X155610000Y-94260000D03*
X153960000Y-94260000D03*
D19*
X135960000Y-67810000D03*
X135960000Y-66260000D03*
D18*
X132660000Y-97880000D03*
X132660000Y-99430000D03*
M02*
