M48
; DRILL file {KiCad 8.0.2} date 2024-08-30T13:41:32-0300
; FORMAT={-:-/ absolute / metric / decimal}
; #@! TF.CreationDate,2024-08-30T13:41:32-03:00
; #@! TF.GenerationSoftware,Kicad,Pcbnew,8.0.2
; #@! TF.FileFunction,Plated,1,2,PTH
FMAT,2
METRIC
; #@! TA.AperFunction,Plated,PTH,ComponentDrill
T1C0.300
; #@! TA.AperFunction,Plated,PTH,ViaDrill
T2C0.400
; #@! TA.AperFunction,Plated,PTH,ComponentDrill
T3C0.600
; #@! TA.AperFunction,Plated,PTH,ComponentDrill
T4C1.000
; #@! TA.AperFunction,Plated,PTH,ComponentDrill
T5C2.200
%
G90
G05
T1
X144.12Y-73.925
X144.12Y-75.325
X144.82Y-73.225
X144.82Y-74.625
X144.82Y-76.025
X145.52Y-73.925
X145.52Y-75.325
X146.22Y-73.225
X146.22Y-74.625
X146.22Y-76.025
X146.92Y-73.925
X146.92Y-75.325
T2
X129.575Y-97.4
X129.685Y-71.275
X131.405Y-79.66
X131.485Y-77.645
X133.425Y-67.225
X133.55Y-68.925
X133.7Y-77.7
X136.825Y-95.3
X137.085Y-85.995
X137.582Y-87.715
X138.0Y-96.45
X138.4Y-91.05
X139.325Y-92.025
X139.85Y-88.675
X141.825Y-86.05
X143.475Y-92.675
X145.025Y-90.15
X145.495Y-88.28
X146.825Y-86.875
X147.67Y-93.07
X148.716Y-86.176
X149.375Y-97.525
X150.525Y-97.55
X155.77Y-84.405
X159.165Y-66.77
X159.175Y-71.45
X159.825Y-101.925
X161.95Y-73.4
X162.05Y-66.4
T4
X138.095Y-101.075
X140.595Y-101.075
X160.645Y-76.095
X160.645Y-78.635
X160.645Y-81.175
X160.645Y-83.715
X160.645Y-86.255
X160.645Y-88.795
X160.645Y-91.335
X160.645Y-93.875
X163.185Y-76.095
X163.185Y-78.635
X163.185Y-81.175
X163.185Y-83.715
X163.185Y-86.255
X163.185Y-88.795
X163.185Y-91.335
X163.185Y-93.875
T5
X130.321Y-67.984
X130.321Y-101.73
X164.611Y-67.984
X164.611Y-101.725
T3
X130.752Y-86.483G85X130.153Y-86.483
G05
X130.752Y-95.123G85X130.153Y-95.123
G05
X135.183Y-86.483G85X134.082Y-86.483
G05
X135.183Y-95.123G85X134.082Y-95.123
G05
M30
