G04 #@! TF.GenerationSoftware,KiCad,Pcbnew,8.0.2*
G04 #@! TF.CreationDate,2024-08-30T13:40:58-03:00*
G04 #@! TF.ProjectId,Comunication Board,436f6d75-6e69-4636-9174-696f6e20426f,rev?*
G04 #@! TF.SameCoordinates,Original*
G04 #@! TF.FileFunction,Copper,L2,Bot*
G04 #@! TF.FilePolarity,Positive*
%FSLAX46Y46*%
G04 Gerber Fmt 4.6, Leading zero omitted, Abs format (unit mm)*
G04 Created by KiCad (PCBNEW 8.0.2) date 2024-08-30 13:40:58*
%MOMM*%
%LPD*%
G01*
G04 APERTURE LIST*
G04 Aperture macros list*
%AMRoundRect*
0 Rectangle with rounded corners*
0 $1 Rounding radius*
0 $2 $3 $4 $5 $6 $7 $8 $9 X,Y pos of 4 corners*
0 Add a 4 corners polygon primitive as box body*
4,1,4,$2,$3,$4,$5,$6,$7,$8,$9,$2,$3,0*
0 Add four circle primitives for the rounded corners*
1,1,$1+$1,$2,$3*
1,1,$1+$1,$4,$5*
1,1,$1+$1,$6,$7*
1,1,$1+$1,$8,$9*
0 Add four rect primitives between the rounded corners*
20,1,$1+$1,$2,$3,$4,$5,0*
20,1,$1+$1,$4,$5,$6,$7,0*
20,1,$1+$1,$6,$7,$8,$9,0*
20,1,$1+$1,$8,$9,$2,$3,0*%
G04 Aperture macros list end*
G04 #@! TA.AperFunction,ComponentPad*
%ADD10O,2.100000X1.000000*%
G04 #@! TD*
G04 #@! TA.AperFunction,ComponentPad*
%ADD11O,1.600000X1.000000*%
G04 #@! TD*
G04 #@! TA.AperFunction,ComponentPad*
%ADD12RoundRect,0.250000X-0.600000X-0.600000X0.600000X-0.600000X0.600000X0.600000X-0.600000X0.600000X0*%
G04 #@! TD*
G04 #@! TA.AperFunction,ComponentPad*
%ADD13C,1.700000*%
G04 #@! TD*
G04 #@! TA.AperFunction,ComponentPad*
%ADD14C,3.800000*%
G04 #@! TD*
G04 #@! TA.AperFunction,ComponentPad*
%ADD15RoundRect,0.250000X0.600000X0.750000X-0.600000X0.750000X-0.600000X-0.750000X0.600000X-0.750000X0*%
G04 #@! TD*
G04 #@! TA.AperFunction,ComponentPad*
%ADD16O,1.700000X2.000000*%
G04 #@! TD*
G04 #@! TA.AperFunction,ComponentPad*
%ADD17C,0.400000*%
G04 #@! TD*
G04 #@! TA.AperFunction,ViaPad*
%ADD18C,0.800000*%
G04 #@! TD*
G04 #@! TA.AperFunction,Conductor*
%ADD19C,0.250000*%
G04 #@! TD*
G04 #@! TA.AperFunction,Conductor*
%ADD20C,0.300000*%
G04 #@! TD*
G04 #@! TA.AperFunction,Conductor*
%ADD21C,1.000000*%
G04 #@! TD*
G04 #@! TA.AperFunction,Conductor*
%ADD22C,2.000000*%
G04 #@! TD*
G04 APERTURE END LIST*
D10*
X134632500Y-86482500D03*
D11*
X130452500Y-86482500D03*
D10*
X134632500Y-95122500D03*
D11*
X130452500Y-95122500D03*
D12*
X160645000Y-76095000D03*
D13*
X163185000Y-76095000D03*
X160645000Y-78635000D03*
X163185000Y-78635000D03*
X160645000Y-81175000D03*
X163185000Y-81175000D03*
X160645000Y-83715000D03*
X163185000Y-83715000D03*
X160645000Y-86255000D03*
X163185000Y-86255000D03*
X160645000Y-88795000D03*
X163185000Y-88795000D03*
X160645000Y-91335000D03*
X163185000Y-91335000D03*
X160645000Y-93875000D03*
X163185000Y-93875000D03*
D14*
X130321000Y-101730000D03*
X164611100Y-101725000D03*
X164611100Y-67983700D03*
X130321000Y-67983700D03*
D15*
X140595000Y-101075000D03*
D16*
X138095000Y-101075000D03*
D17*
X145520000Y-73925000D03*
X144120000Y-73925000D03*
X146920000Y-73925000D03*
X144120000Y-75325000D03*
X145520000Y-75325000D03*
X146920000Y-75325000D03*
X144820000Y-73225000D03*
X146220000Y-73225000D03*
X144820000Y-74625000D03*
X146220000Y-74625000D03*
X144820000Y-76025000D03*
X146220000Y-76025000D03*
D18*
X145025000Y-90150000D03*
X146825000Y-86875000D03*
X148715563Y-86176225D03*
X145494669Y-88280331D03*
X136825000Y-95300000D03*
X155770000Y-84405000D03*
X131405000Y-79660000D03*
X133425000Y-67225000D03*
X147670000Y-93070000D03*
X131485000Y-77645000D03*
X159165000Y-66770000D03*
X137085000Y-85995000D03*
X138400000Y-91050000D03*
X159825000Y-101925000D03*
X138000000Y-96450000D03*
X133700000Y-77700000D03*
X129685000Y-71275000D03*
X129575000Y-97400000D03*
X161950000Y-73400000D03*
X159175000Y-71450000D03*
X141825000Y-86050000D03*
X143475000Y-92675000D03*
X162050000Y-66400000D03*
X150525000Y-97550000D03*
X133550000Y-68925000D03*
X139850000Y-88675000D03*
X149375000Y-97525000D03*
X139325000Y-92025000D03*
X137581888Y-87715001D03*
D19*
X136825000Y-94525000D02*
X139325000Y-92025000D01*
X136825000Y-95300000D02*
X136825000Y-94525000D01*
D20*
X155215000Y-84405000D02*
X154165000Y-83355000D01*
X135685000Y-79660000D02*
X131405000Y-79660000D01*
X139380000Y-83355000D02*
X135685000Y-79660000D01*
X155770000Y-84405000D02*
X155215000Y-84405000D01*
X154165000Y-83355000D02*
X139380000Y-83355000D01*
D21*
X148660635Y-93070000D02*
X157750000Y-83980635D01*
X157750000Y-68575000D02*
X159165000Y-67160000D01*
X133645635Y-80760000D02*
X130949365Y-80760000D01*
X157750000Y-83980635D02*
X157750000Y-68575000D01*
X147670000Y-93070000D02*
X148660635Y-93070000D01*
X159165000Y-67160000D02*
X159165000Y-66770000D01*
X130305000Y-78825000D02*
X131485000Y-77645000D01*
X134650000Y-74500000D02*
X134650000Y-68450000D01*
X130949365Y-80760000D02*
X130305000Y-80115635D01*
X131485000Y-77645000D02*
X131505000Y-77645000D01*
X131505000Y-77645000D02*
X134650000Y-74500000D01*
X145955635Y-93070000D02*
X133645635Y-80760000D01*
X147670000Y-93070000D02*
X145955635Y-93070000D01*
X134650000Y-68450000D02*
X133425000Y-67225000D01*
X130305000Y-80115635D02*
X130305000Y-78825000D01*
D22*
X153585000Y-100935000D02*
X140735000Y-100935000D01*
X140735000Y-100935000D02*
X140595000Y-101075000D01*
X160645000Y-93875000D02*
X153585000Y-100935000D01*
D20*
X135060000Y-95140000D02*
X130880000Y-95140000D01*
X135060000Y-86500000D02*
X130880000Y-86500000D01*
X139325000Y-89458113D02*
X137581888Y-87715001D01*
X139325000Y-92025000D02*
X139325000Y-89458113D01*
G04 #@! TA.AperFunction,Conductor*
G36*
X135555495Y-80030185D02*
G01*
X135576137Y-80046819D01*
X139164788Y-83635470D01*
X139244712Y-83681614D01*
X139333856Y-83705500D01*
X153968456Y-83705500D01*
X154035495Y-83725185D01*
X154056137Y-83741819D01*
X154499283Y-84184964D01*
X154934531Y-84620212D01*
X154999788Y-84685469D01*
X154999791Y-84685470D01*
X154999794Y-84685473D01*
X155079706Y-84731611D01*
X155079707Y-84731611D01*
X155079712Y-84731614D01*
X155168856Y-84755500D01*
X155220884Y-84755500D01*
X155287923Y-84775185D01*
X155319257Y-84804010D01*
X155341718Y-84833282D01*
X155467159Y-84929536D01*
X155519208Y-84951095D01*
X155538443Y-84959063D01*
X155592846Y-85002904D01*
X155614911Y-85069199D01*
X155597632Y-85136898D01*
X155578671Y-85161305D01*
X148406797Y-92333181D01*
X148345474Y-92366666D01*
X148319116Y-92369500D01*
X146297154Y-92369500D01*
X146230115Y-92349815D01*
X146209473Y-92333181D01*
X134098474Y-80222181D01*
X134064989Y-80160858D01*
X134069973Y-80091166D01*
X134111845Y-80035233D01*
X134177309Y-80010816D01*
X134186155Y-80010500D01*
X135488456Y-80010500D01*
X135555495Y-80030185D01*
G37*
G04 #@! TD.AperFunction*
G04 #@! TA.AperFunction,Conductor*
G36*
X164611888Y-65444012D02*
G01*
X164757923Y-65446123D01*
X164771052Y-65447013D01*
X165061840Y-65482311D01*
X165076562Y-65485008D01*
X165360110Y-65554888D01*
X165374398Y-65559340D01*
X165647447Y-65662888D01*
X165661089Y-65669027D01*
X165919681Y-65804741D01*
X165932472Y-65812474D01*
X166091630Y-65922330D01*
X166172811Y-65978364D01*
X166184599Y-65987600D01*
X166403172Y-66181239D01*
X166413760Y-66191827D01*
X166607399Y-66410400D01*
X166616635Y-66422188D01*
X166782522Y-66662522D01*
X166790261Y-66675323D01*
X166925966Y-66933897D01*
X166932111Y-66947552D01*
X167035657Y-67220597D01*
X167040112Y-67234894D01*
X167109990Y-67518434D01*
X167112688Y-67533163D01*
X167147985Y-67823936D01*
X167148876Y-67837087D01*
X167150986Y-67983082D01*
X167150999Y-67984911D01*
X167141000Y-101813502D01*
X167140964Y-101816439D01*
X167137206Y-101973103D01*
X167136061Y-101987203D01*
X167092651Y-102299465D01*
X167089393Y-102315272D01*
X167006062Y-102618281D01*
X167000779Y-102633530D01*
X166878802Y-102923147D01*
X166871583Y-102937582D01*
X166713022Y-103208907D01*
X166703989Y-103222282D01*
X166511531Y-103470716D01*
X166500839Y-103482803D01*
X166277746Y-103704138D01*
X166265573Y-103714735D01*
X166015633Y-103905214D01*
X166002188Y-103914141D01*
X165729606Y-104070556D01*
X165715114Y-104077660D01*
X165424550Y-104197338D01*
X165409259Y-104202501D01*
X165105592Y-104283433D01*
X165089760Y-104286565D01*
X164777173Y-104327501D01*
X164763066Y-104328535D01*
X164605921Y-104331062D01*
X164603941Y-104331078D01*
X130290598Y-104334894D01*
X130286004Y-104333545D01*
X130078305Y-104331157D01*
X130064162Y-104330184D01*
X129750189Y-104290448D01*
X129734297Y-104287371D01*
X129429168Y-104207335D01*
X129413811Y-104202215D01*
X129121693Y-104083105D01*
X129107134Y-104076027D01*
X129104590Y-104074578D01*
X129059901Y-104049120D01*
X128833032Y-103919883D01*
X128819520Y-103910970D01*
X128643263Y-103777412D01*
X128568086Y-103720446D01*
X128555857Y-103709856D01*
X128438899Y-103594365D01*
X128331384Y-103488199D01*
X128320633Y-103476098D01*
X128126952Y-103227097D01*
X128117868Y-103213698D01*
X127958270Y-102941580D01*
X127951010Y-102927112D01*
X127828224Y-102636532D01*
X127822912Y-102621248D01*
X127739023Y-102317138D01*
X127735747Y-102301289D01*
X127725501Y-102227793D01*
X127692048Y-101987838D01*
X127690898Y-101973731D01*
X127687102Y-101816439D01*
X127687067Y-101813481D01*
X127687092Y-101730000D01*
X128215592Y-101730000D01*
X128235201Y-102016680D01*
X128293666Y-102298034D01*
X128293667Y-102298037D01*
X128389894Y-102568793D01*
X128389893Y-102568793D01*
X128522098Y-102823935D01*
X128687812Y-103058700D01*
X128772923Y-103149831D01*
X128883947Y-103268708D01*
X129106853Y-103450055D01*
X129344159Y-103594365D01*
X129352382Y-103599365D01*
X129539237Y-103680526D01*
X129615942Y-103713844D01*
X129892642Y-103791371D01*
X130140945Y-103825500D01*
X130177321Y-103830500D01*
X130177322Y-103830500D01*
X130464679Y-103830500D01*
X130501055Y-103825500D01*
X130749358Y-103791371D01*
X131026058Y-103713844D01*
X131139015Y-103664779D01*
X131289617Y-103599365D01*
X131289620Y-103599363D01*
X131289625Y-103599361D01*
X131535147Y-103450055D01*
X131758053Y-103268708D01*
X131954189Y-103058698D01*
X132119901Y-102823936D01*
X132252104Y-102568797D01*
X132348334Y-102298032D01*
X132406798Y-102016686D01*
X132426408Y-101730000D01*
X132406798Y-101443314D01*
X132348334Y-101161968D01*
X132252105Y-100891206D01*
X132252106Y-100891206D01*
X132214564Y-100818753D01*
X136745000Y-100818753D01*
X136745000Y-100825000D01*
X137661988Y-100825000D01*
X137629075Y-100882007D01*
X137595000Y-101009174D01*
X137595000Y-101140826D01*
X137629075Y-101267993D01*
X137661988Y-101325000D01*
X136745000Y-101325000D01*
X136745000Y-101331246D01*
X136778242Y-101541127D01*
X136778242Y-101541130D01*
X136843904Y-101743217D01*
X136940379Y-101932557D01*
X137065272Y-102104459D01*
X137065276Y-102104464D01*
X137215535Y-102254723D01*
X137215540Y-102254727D01*
X137387442Y-102379620D01*
X137576782Y-102476095D01*
X137778871Y-102541757D01*
X137845000Y-102552231D01*
X137845000Y-101508012D01*
X137902007Y-101540925D01*
X138029174Y-101575000D01*
X138160826Y-101575000D01*
X138287993Y-101540925D01*
X138345000Y-101508012D01*
X138345000Y-102552230D01*
X138411126Y-102541757D01*
X138411129Y-102541757D01*
X138613217Y-102476095D01*
X138802557Y-102379620D01*
X138974459Y-102254727D01*
X138974464Y-102254723D01*
X139124723Y-102104464D01*
X139124727Y-102104459D01*
X139249620Y-101932557D01*
X139310015Y-101814028D01*
X139357990Y-101763232D01*
X139425811Y-101746437D01*
X139491946Y-101768974D01*
X139535397Y-101823690D01*
X139544500Y-101870323D01*
X139544500Y-101879269D01*
X139547353Y-101909699D01*
X139547353Y-101909701D01*
X139584788Y-102016680D01*
X139592207Y-102037882D01*
X139672850Y-102147150D01*
X139782118Y-102227793D01*
X139824845Y-102242744D01*
X139910299Y-102272646D01*
X139940730Y-102275500D01*
X139940734Y-102275500D01*
X141249270Y-102275500D01*
X141279699Y-102272646D01*
X141279701Y-102272646D01*
X141343790Y-102250219D01*
X141407882Y-102227793D01*
X141500105Y-102159729D01*
X141565733Y-102135759D01*
X141573738Y-102135500D01*
X153679486Y-102135500D01*
X153866118Y-102105940D01*
X153870676Y-102104459D01*
X154045832Y-102047547D01*
X154214199Y-101961760D01*
X154367074Y-101850690D01*
X154492764Y-101725000D01*
X162505692Y-101725000D01*
X162525301Y-102011680D01*
X162583766Y-102293034D01*
X162583767Y-102293037D01*
X162679994Y-102563793D01*
X162679993Y-102563793D01*
X162812198Y-102818935D01*
X162977912Y-103053700D01*
X163063023Y-103144831D01*
X163174047Y-103263708D01*
X163396953Y-103445055D01*
X163642482Y-103594365D01*
X163829337Y-103675526D01*
X163906042Y-103708844D01*
X164182742Y-103786371D01*
X164433020Y-103820771D01*
X164467421Y-103825500D01*
X164467422Y-103825500D01*
X164754779Y-103825500D01*
X164785470Y-103821281D01*
X165039458Y-103786371D01*
X165316158Y-103708844D01*
X165429115Y-103659779D01*
X165579717Y-103594365D01*
X165579720Y-103594363D01*
X165579725Y-103594361D01*
X165825247Y-103445055D01*
X166048153Y-103263708D01*
X166244289Y-103053698D01*
X166410001Y-102818936D01*
X166542204Y-102563797D01*
X166638434Y-102293032D01*
X166696898Y-102011686D01*
X166716508Y-101725000D01*
X166696898Y-101438314D01*
X166638434Y-101156968D01*
X166542205Y-100886206D01*
X166542206Y-100886206D01*
X166410001Y-100631064D01*
X166244287Y-100396299D01*
X166165654Y-100312105D01*
X166048153Y-100186292D01*
X165825247Y-100004945D01*
X165825246Y-100004944D01*
X165579717Y-99855634D01*
X165316163Y-99741158D01*
X165316161Y-99741157D01*
X165316158Y-99741156D01*
X165162777Y-99698181D01*
X165039464Y-99663630D01*
X165039459Y-99663629D01*
X165039458Y-99663629D01*
X164897118Y-99644064D01*
X164754779Y-99624500D01*
X164754778Y-99624500D01*
X164467422Y-99624500D01*
X164467421Y-99624500D01*
X164182742Y-99663629D01*
X164182735Y-99663630D01*
X164004752Y-99713499D01*
X163906042Y-99741156D01*
X163906039Y-99741156D01*
X163906036Y-99741158D01*
X163906035Y-99741158D01*
X163642482Y-99855634D01*
X163396953Y-100004944D01*
X163174050Y-100186289D01*
X162977912Y-100396299D01*
X162812198Y-100631064D01*
X162679994Y-100886206D01*
X162583767Y-101156962D01*
X162583766Y-101156965D01*
X162525301Y-101438319D01*
X162505692Y-101725000D01*
X154492764Y-101725000D01*
X161560690Y-94657073D01*
X161671760Y-94504199D01*
X161757547Y-94335832D01*
X161815940Y-94156118D01*
X161827848Y-94080932D01*
X161845500Y-93969486D01*
X161845500Y-93780512D01*
X161815940Y-93593885D01*
X161815940Y-93593882D01*
X161757547Y-93414168D01*
X161671760Y-93245801D01*
X161560690Y-93092926D01*
X161427074Y-92959310D01*
X161274199Y-92848240D01*
X161257438Y-92839700D01*
X161105834Y-92762454D01*
X161105833Y-92762453D01*
X161105832Y-92762453D01*
X160926118Y-92704060D01*
X160926116Y-92704059D01*
X160926114Y-92704059D01*
X160739487Y-92674500D01*
X160739482Y-92674500D01*
X160550519Y-92674500D01*
X160550514Y-92674500D01*
X160363881Y-92704059D01*
X160184163Y-92762454D01*
X160015800Y-92848240D01*
X159944879Y-92899768D01*
X159862927Y-92959310D01*
X159862925Y-92959312D01*
X159862924Y-92959312D01*
X153124055Y-99698181D01*
X153062732Y-99731666D01*
X153036374Y-99734500D01*
X142852519Y-99734500D01*
X142785480Y-99714815D01*
X142739725Y-99662011D01*
X142729781Y-99592853D01*
X142752875Y-99540433D01*
X142751265Y-99539357D01*
X142833497Y-99416288D01*
X142833497Y-99416287D01*
X142833499Y-99416285D01*
X142887811Y-99285162D01*
X142915500Y-99145963D01*
X142915500Y-99004037D01*
X142915500Y-99004034D01*
X142887812Y-98864844D01*
X142887811Y-98864838D01*
X142833499Y-98733715D01*
X142833497Y-98733713D01*
X142833497Y-98733711D01*
X142754649Y-98615708D01*
X142754646Y-98615704D01*
X142654295Y-98515353D01*
X142654291Y-98515350D01*
X142536288Y-98436502D01*
X142536285Y-98436501D01*
X142405163Y-98382189D01*
X142405155Y-98382187D01*
X142265965Y-98354500D01*
X142265963Y-98354500D01*
X142124037Y-98354500D01*
X142124035Y-98354500D01*
X141984844Y-98382187D01*
X141984836Y-98382189D01*
X141853714Y-98436501D01*
X141853711Y-98436502D01*
X141735708Y-98515350D01*
X141735704Y-98515353D01*
X141635353Y-98615704D01*
X141635350Y-98615708D01*
X141556502Y-98733711D01*
X141556501Y-98733714D01*
X141502189Y-98864836D01*
X141502187Y-98864844D01*
X141474500Y-99004034D01*
X141474500Y-99004037D01*
X141474500Y-99145963D01*
X141474500Y-99145965D01*
X141474499Y-99145965D01*
X141502187Y-99285155D01*
X141502189Y-99285163D01*
X141556501Y-99416285D01*
X141556502Y-99416288D01*
X141638735Y-99539357D01*
X141637017Y-99540504D01*
X141660648Y-99596151D01*
X141648853Y-99665018D01*
X141601699Y-99716576D01*
X141537481Y-99734500D01*
X140640514Y-99734500D01*
X140453881Y-99764059D01*
X140274163Y-99822454D01*
X140198545Y-99860985D01*
X140142250Y-99874500D01*
X139940730Y-99874500D01*
X139910300Y-99877353D01*
X139910298Y-99877353D01*
X139782119Y-99922206D01*
X139782117Y-99922207D01*
X139672850Y-100002850D01*
X139592207Y-100112117D01*
X139592206Y-100112119D01*
X139547353Y-100240298D01*
X139547353Y-100240300D01*
X139544500Y-100270730D01*
X139544500Y-100279676D01*
X139524815Y-100346715D01*
X139472011Y-100392470D01*
X139402853Y-100402414D01*
X139339297Y-100373389D01*
X139310015Y-100335971D01*
X139249620Y-100217442D01*
X139124727Y-100045540D01*
X139124723Y-100045535D01*
X138974464Y-99895276D01*
X138974459Y-99895272D01*
X138802557Y-99770379D01*
X138613215Y-99673903D01*
X138411124Y-99608241D01*
X138345000Y-99597768D01*
X138345000Y-100641988D01*
X138287993Y-100609075D01*
X138160826Y-100575000D01*
X138029174Y-100575000D01*
X137902007Y-100609075D01*
X137845000Y-100641988D01*
X137845000Y-99597768D01*
X137844999Y-99597768D01*
X137778875Y-99608241D01*
X137576784Y-99673903D01*
X137387442Y-99770379D01*
X137215540Y-99895272D01*
X137215535Y-99895276D01*
X137065276Y-100045535D01*
X137065272Y-100045540D01*
X136940379Y-100217442D01*
X136843904Y-100406782D01*
X136778242Y-100608869D01*
X136778242Y-100608872D01*
X136745000Y-100818753D01*
X132214564Y-100818753D01*
X132119901Y-100636064D01*
X131954187Y-100401299D01*
X131840598Y-100279676D01*
X131758053Y-100191292D01*
X131535147Y-100009945D01*
X131535146Y-100009944D01*
X131289617Y-99860634D01*
X131026063Y-99746158D01*
X131026061Y-99746157D01*
X131026058Y-99746156D01*
X130896578Y-99709877D01*
X130749364Y-99668630D01*
X130749359Y-99668629D01*
X130749358Y-99668629D01*
X130607018Y-99649064D01*
X130464679Y-99629500D01*
X130464678Y-99629500D01*
X130177322Y-99629500D01*
X130177321Y-99629500D01*
X129892642Y-99668629D01*
X129892635Y-99668630D01*
X129721515Y-99716576D01*
X129615942Y-99746156D01*
X129615939Y-99746156D01*
X129615936Y-99746158D01*
X129615935Y-99746158D01*
X129352382Y-99860634D01*
X129106853Y-100009944D01*
X128883950Y-100191289D01*
X128687812Y-100401299D01*
X128522098Y-100636064D01*
X128389894Y-100891206D01*
X128293667Y-101161962D01*
X128293666Y-101161965D01*
X128235201Y-101443319D01*
X128215592Y-101730000D01*
X127687092Y-101730000D01*
X127689025Y-95191495D01*
X129451999Y-95191495D01*
X129478918Y-95326822D01*
X129478921Y-95326832D01*
X129531721Y-95454304D01*
X129531728Y-95454317D01*
X129608385Y-95569041D01*
X129608388Y-95569045D01*
X129705954Y-95666611D01*
X129705958Y-95666614D01*
X129820682Y-95743271D01*
X129820695Y-95743278D01*
X129948167Y-95796078D01*
X129948172Y-95796080D01*
X129948176Y-95796080D01*
X129948177Y-95796081D01*
X130083504Y-95823000D01*
X130083507Y-95823000D01*
X130821495Y-95823000D01*
X130912541Y-95804889D01*
X130956828Y-95796080D01*
X131084311Y-95743275D01*
X131199042Y-95666614D01*
X131296614Y-95569042D01*
X131304891Y-95556654D01*
X131312272Y-95545609D01*
X131365885Y-95500804D01*
X131415374Y-95490500D01*
X133419626Y-95490500D01*
X133486665Y-95510185D01*
X133522728Y-95545609D01*
X133538385Y-95569041D01*
X133538388Y-95569045D01*
X133635954Y-95666611D01*
X133635958Y-95666614D01*
X133750682Y-95743271D01*
X133750695Y-95743278D01*
X133878167Y-95796078D01*
X133878172Y-95796080D01*
X133878176Y-95796080D01*
X133878177Y-95796081D01*
X134013504Y-95823000D01*
X134013507Y-95823000D01*
X135251495Y-95823000D01*
X135342541Y-95804889D01*
X135386828Y-95796080D01*
X135514311Y-95743275D01*
X135629042Y-95666614D01*
X135726614Y-95569042D01*
X135803275Y-95454311D01*
X135856080Y-95326828D01*
X135861417Y-95299998D01*
X136219318Y-95299998D01*
X136219318Y-95300001D01*
X136239955Y-95456760D01*
X136239956Y-95456762D01*
X136286463Y-95569041D01*
X136300464Y-95602841D01*
X136396718Y-95728282D01*
X136522159Y-95824536D01*
X136668238Y-95885044D01*
X136746619Y-95895363D01*
X136824999Y-95905682D01*
X136825000Y-95905682D01*
X136825001Y-95905682D01*
X136877254Y-95898802D01*
X136981762Y-95885044D01*
X137127841Y-95824536D01*
X137253282Y-95728282D01*
X137349536Y-95602841D01*
X137410044Y-95456762D01*
X137430682Y-95300000D01*
X137410044Y-95143238D01*
X137349536Y-94997159D01*
X137253282Y-94871718D01*
X137253280Y-94871716D01*
X137253279Y-94871715D01*
X137199012Y-94830074D01*
X137157810Y-94773646D01*
X137150500Y-94731699D01*
X137150500Y-94711188D01*
X137170185Y-94644149D01*
X137186814Y-94623512D01*
X139153316Y-92657009D01*
X139214637Y-92623526D01*
X139257181Y-92621753D01*
X139324999Y-92630682D01*
X139325000Y-92630682D01*
X139325001Y-92630682D01*
X139377254Y-92623802D01*
X139481762Y-92610044D01*
X139627841Y-92549536D01*
X139753282Y-92453282D01*
X139849536Y-92327841D01*
X139910044Y-92181762D01*
X139930682Y-92025000D01*
X139929047Y-92012583D01*
X139910044Y-91868239D01*
X139910044Y-91868238D01*
X139849536Y-91722159D01*
X139753282Y-91596718D01*
X139753279Y-91596716D01*
X139753278Y-91596714D01*
X139724013Y-91574258D01*
X139682811Y-91517830D01*
X139675500Y-91475883D01*
X139675500Y-89411971D01*
X139675500Y-89411969D01*
X139651614Y-89322825D01*
X139605470Y-89242901D01*
X138218012Y-87855443D01*
X138184527Y-87794120D01*
X138182754Y-87751580D01*
X138187570Y-87715001D01*
X138166932Y-87558239D01*
X138106424Y-87412160D01*
X138010170Y-87286719D01*
X137884729Y-87190465D01*
X137801716Y-87156080D01*
X137738650Y-87129957D01*
X137738648Y-87129956D01*
X137581889Y-87109319D01*
X137581887Y-87109319D01*
X137425127Y-87129956D01*
X137425125Y-87129957D01*
X137279048Y-87190464D01*
X137153606Y-87286719D01*
X137057351Y-87412161D01*
X136996844Y-87558238D01*
X136996843Y-87558240D01*
X136976206Y-87714999D01*
X136976206Y-87715002D01*
X136996843Y-87871761D01*
X136996844Y-87871763D01*
X137038011Y-87971150D01*
X137057352Y-88017842D01*
X137153606Y-88143283D01*
X137279047Y-88239537D01*
X137425126Y-88300045D01*
X137581888Y-88320683D01*
X137618465Y-88315867D01*
X137687497Y-88326632D01*
X137722330Y-88351125D01*
X138938181Y-89566976D01*
X138971666Y-89628299D01*
X138974500Y-89654657D01*
X138974500Y-91475883D01*
X138954815Y-91542922D01*
X138925987Y-91574258D01*
X138896721Y-91596714D01*
X138800463Y-91722160D01*
X138739956Y-91868237D01*
X138739955Y-91868239D01*
X138719318Y-92024998D01*
X138719318Y-92025001D01*
X138728246Y-92092817D01*
X138717480Y-92161852D01*
X138692988Y-92196683D01*
X136564537Y-94325135D01*
X136564535Y-94325138D01*
X136521682Y-94399359D01*
X136517638Y-94414453D01*
X136515616Y-94422000D01*
X136515616Y-94422001D01*
X136515615Y-94422000D01*
X136499500Y-94482145D01*
X136499500Y-94731699D01*
X136479815Y-94798738D01*
X136450988Y-94830074D01*
X136396720Y-94871715D01*
X136300463Y-94997160D01*
X136239956Y-95143237D01*
X136239955Y-95143239D01*
X136219318Y-95299998D01*
X135861417Y-95299998D01*
X135883000Y-95191493D01*
X135883000Y-95053507D01*
X135883000Y-95053504D01*
X135856081Y-94918177D01*
X135856080Y-94918176D01*
X135856080Y-94918172D01*
X135836837Y-94871715D01*
X135803278Y-94790695D01*
X135803271Y-94790682D01*
X135726614Y-94675958D01*
X135726611Y-94675954D01*
X135629045Y-94578388D01*
X135629041Y-94578385D01*
X135514317Y-94501728D01*
X135514304Y-94501721D01*
X135386832Y-94448921D01*
X135386822Y-94448918D01*
X135251495Y-94422000D01*
X135251493Y-94422000D01*
X134013507Y-94422000D01*
X134013505Y-94422000D01*
X133878177Y-94448918D01*
X133878167Y-94448921D01*
X133750695Y-94501721D01*
X133750682Y-94501728D01*
X133635958Y-94578385D01*
X133635954Y-94578388D01*
X133538388Y-94675954D01*
X133538385Y-94675958D01*
X133499342Y-94734391D01*
X133445730Y-94779196D01*
X133396240Y-94789500D01*
X131438760Y-94789500D01*
X131371721Y-94769815D01*
X131335658Y-94734391D01*
X131296614Y-94675958D01*
X131296611Y-94675954D01*
X131199045Y-94578388D01*
X131199041Y-94578385D01*
X131084317Y-94501728D01*
X131084304Y-94501721D01*
X130956832Y-94448921D01*
X130956822Y-94448918D01*
X130821495Y-94422000D01*
X130821493Y-94422000D01*
X130083507Y-94422000D01*
X130083505Y-94422000D01*
X129948177Y-94448918D01*
X129948167Y-94448921D01*
X129820695Y-94501721D01*
X129820682Y-94501728D01*
X129705958Y-94578385D01*
X129705954Y-94578388D01*
X129608388Y-94675954D01*
X129608385Y-94675958D01*
X129531728Y-94790682D01*
X129531721Y-94790695D01*
X129478921Y-94918167D01*
X129478918Y-94918177D01*
X129452000Y-95053504D01*
X129452000Y-95053507D01*
X129452000Y-95191493D01*
X129452000Y-95191495D01*
X129451999Y-95191495D01*
X127689025Y-95191495D01*
X127689485Y-93633849D01*
X133687000Y-93633849D01*
X133687000Y-93751150D01*
X133717360Y-93864458D01*
X133723447Y-93875000D01*
X133776011Y-93966043D01*
X133858957Y-94048989D01*
X133960543Y-94107640D01*
X134073849Y-94138000D01*
X134073851Y-94138000D01*
X134191149Y-94138000D01*
X134191151Y-94138000D01*
X134304457Y-94107640D01*
X134406043Y-94048989D01*
X134488989Y-93966043D01*
X134547640Y-93864457D01*
X134578000Y-93751151D01*
X134578000Y-93633849D01*
X134547640Y-93520543D01*
X134488989Y-93418957D01*
X134406043Y-93336011D01*
X134323839Y-93288550D01*
X134304458Y-93277360D01*
X134247804Y-93262180D01*
X134191151Y-93247000D01*
X134073849Y-93247000D01*
X133960541Y-93277360D01*
X133858957Y-93336011D01*
X133858954Y-93336013D01*
X133776013Y-93418954D01*
X133776011Y-93418957D01*
X133717360Y-93520541D01*
X133687000Y-93633849D01*
X127689485Y-93633849D01*
X127691194Y-87853849D01*
X133687000Y-87853849D01*
X133687000Y-87971150D01*
X133717360Y-88084458D01*
X133746685Y-88135250D01*
X133776011Y-88186043D01*
X133858957Y-88268989D01*
X133960543Y-88327640D01*
X134073849Y-88358000D01*
X134073851Y-88358000D01*
X134191149Y-88358000D01*
X134191151Y-88358000D01*
X134304457Y-88327640D01*
X134406043Y-88268989D01*
X134488989Y-88186043D01*
X134547640Y-88084457D01*
X134578000Y-87971151D01*
X134578000Y-87853849D01*
X134547640Y-87740543D01*
X134488989Y-87638957D01*
X134406043Y-87556011D01*
X134355250Y-87526685D01*
X134304458Y-87497360D01*
X134247804Y-87482180D01*
X134191151Y-87467000D01*
X134073849Y-87467000D01*
X133960541Y-87497360D01*
X133858957Y-87556011D01*
X133858954Y-87556013D01*
X133776013Y-87638954D01*
X133776011Y-87638957D01*
X133717360Y-87740541D01*
X133687000Y-87853849D01*
X127691194Y-87853849D01*
X127691579Y-86551495D01*
X129451999Y-86551495D01*
X129478918Y-86686822D01*
X129478921Y-86686832D01*
X129531721Y-86814304D01*
X129531728Y-86814317D01*
X129608385Y-86929041D01*
X129608388Y-86929045D01*
X129705954Y-87026611D01*
X129705958Y-87026614D01*
X129820682Y-87103271D01*
X129820695Y-87103278D01*
X129891691Y-87132685D01*
X129948172Y-87156080D01*
X129948176Y-87156080D01*
X129948177Y-87156081D01*
X130083504Y-87183000D01*
X130083507Y-87183000D01*
X130821495Y-87183000D01*
X130912541Y-87164889D01*
X130956828Y-87156080D01*
X131055424Y-87115240D01*
X131084304Y-87103278D01*
X131084304Y-87103277D01*
X131084311Y-87103275D01*
X131199042Y-87026614D01*
X131296614Y-86929042D01*
X131304891Y-86916654D01*
X131312272Y-86905609D01*
X131365885Y-86860804D01*
X131415374Y-86850500D01*
X133419626Y-86850500D01*
X133486665Y-86870185D01*
X133522728Y-86905609D01*
X133538385Y-86929041D01*
X133538388Y-86929045D01*
X133635954Y-87026611D01*
X133635958Y-87026614D01*
X133750682Y-87103271D01*
X133750695Y-87103278D01*
X133821691Y-87132685D01*
X133878172Y-87156080D01*
X133878176Y-87156080D01*
X133878177Y-87156081D01*
X134013504Y-87183000D01*
X134013507Y-87183000D01*
X135251495Y-87183000D01*
X135342541Y-87164889D01*
X135386828Y-87156080D01*
X135485424Y-87115240D01*
X135514304Y-87103278D01*
X135514304Y-87103277D01*
X135514311Y-87103275D01*
X135629042Y-87026614D01*
X135726614Y-86929042D01*
X135803275Y-86814311D01*
X135856080Y-86686828D01*
X135883000Y-86551493D01*
X135883000Y-86413507D01*
X135883000Y-86413504D01*
X135856081Y-86278177D01*
X135856080Y-86278176D01*
X135856080Y-86278172D01*
X135846482Y-86255000D01*
X135803278Y-86150695D01*
X135803271Y-86150682D01*
X135726614Y-86035958D01*
X135726611Y-86035954D01*
X135629045Y-85938388D01*
X135629041Y-85938385D01*
X135514317Y-85861728D01*
X135514304Y-85861721D01*
X135386832Y-85808921D01*
X135386822Y-85808918D01*
X135251495Y-85782000D01*
X135251493Y-85782000D01*
X134013507Y-85782000D01*
X134013505Y-85782000D01*
X133878177Y-85808918D01*
X133878167Y-85808921D01*
X133750695Y-85861721D01*
X133750682Y-85861728D01*
X133635958Y-85938385D01*
X133635954Y-85938388D01*
X133538388Y-86035954D01*
X133538385Y-86035958D01*
X133499342Y-86094391D01*
X133445730Y-86139196D01*
X133396240Y-86149500D01*
X131438760Y-86149500D01*
X131371721Y-86129815D01*
X131335658Y-86094391D01*
X131296614Y-86035958D01*
X131296611Y-86035954D01*
X131199045Y-85938388D01*
X131199041Y-85938385D01*
X131084317Y-85861728D01*
X131084304Y-85861721D01*
X130956832Y-85808921D01*
X130956822Y-85808918D01*
X130821495Y-85782000D01*
X130821493Y-85782000D01*
X130083507Y-85782000D01*
X130083505Y-85782000D01*
X129948177Y-85808918D01*
X129948167Y-85808921D01*
X129820695Y-85861721D01*
X129820682Y-85861728D01*
X129705958Y-85938385D01*
X129705954Y-85938388D01*
X129608388Y-86035954D01*
X129608385Y-86035958D01*
X129531728Y-86150682D01*
X129531721Y-86150695D01*
X129478921Y-86278167D01*
X129478918Y-86278177D01*
X129452000Y-86413504D01*
X129452000Y-86413507D01*
X129452000Y-86551493D01*
X129452000Y-86551495D01*
X129451999Y-86551495D01*
X127691579Y-86551495D01*
X127693461Y-80184631D01*
X129604499Y-80184631D01*
X129631418Y-80319957D01*
X129631421Y-80319967D01*
X129684222Y-80447442D01*
X129760887Y-80562180D01*
X130502819Y-81304112D01*
X130617557Y-81380777D01*
X130745032Y-81433578D01*
X130745037Y-81433580D01*
X130745041Y-81433580D01*
X130745042Y-81433581D01*
X130880368Y-81460500D01*
X130880371Y-81460500D01*
X130880372Y-81460500D01*
X133304116Y-81460500D01*
X133371155Y-81480185D01*
X133391797Y-81496819D01*
X145509088Y-93614111D01*
X145509089Y-93614112D01*
X145623827Y-93690777D01*
X145751302Y-93743578D01*
X145751307Y-93743580D01*
X145751311Y-93743580D01*
X145751312Y-93743581D01*
X145886638Y-93770500D01*
X145886641Y-93770500D01*
X148729631Y-93770500D01*
X148820675Y-93752389D01*
X148864963Y-93743580D01*
X148928704Y-93717177D01*
X148992442Y-93690777D01*
X148992443Y-93690776D01*
X148992446Y-93690775D01*
X149107178Y-93614114D01*
X151386292Y-91335000D01*
X159589417Y-91335000D01*
X159609699Y-91540932D01*
X159623235Y-91585553D01*
X159669768Y-91738954D01*
X159767315Y-91921450D01*
X159767317Y-91921452D01*
X159898589Y-92081410D01*
X159986364Y-92153444D01*
X160058550Y-92212685D01*
X160241046Y-92310232D01*
X160439066Y-92370300D01*
X160439065Y-92370300D01*
X160457529Y-92372118D01*
X160645000Y-92390583D01*
X160850934Y-92370300D01*
X161048954Y-92310232D01*
X161231450Y-92212685D01*
X161391410Y-92081410D01*
X161522685Y-91921450D01*
X161620232Y-91738954D01*
X161640406Y-91672446D01*
X161678702Y-91614010D01*
X161742514Y-91585553D01*
X161811581Y-91596112D01*
X161863975Y-91642336D01*
X161878841Y-91676349D01*
X161911567Y-91798486D01*
X161911570Y-91798492D01*
X162011400Y-92012579D01*
X162011402Y-92012583D01*
X162070072Y-92096373D01*
X162070073Y-92096373D01*
X162702037Y-91464409D01*
X162719075Y-91527993D01*
X162784901Y-91642007D01*
X162877993Y-91735099D01*
X162992007Y-91800925D01*
X163055590Y-91817962D01*
X162423625Y-92449925D01*
X162507421Y-92508599D01*
X162721507Y-92608429D01*
X162721516Y-92608433D01*
X162843649Y-92641158D01*
X162903310Y-92677523D01*
X162933839Y-92740369D01*
X162925545Y-92809745D01*
X162881059Y-92863623D01*
X162847552Y-92879593D01*
X162781046Y-92899767D01*
X162669648Y-92959312D01*
X162598550Y-92997315D01*
X162598548Y-92997316D01*
X162598547Y-92997317D01*
X162438589Y-93128589D01*
X162307317Y-93288547D01*
X162209769Y-93471043D01*
X162149699Y-93669067D01*
X162129417Y-93875000D01*
X162149699Y-94080932D01*
X162179734Y-94179944D01*
X162209768Y-94278954D01*
X162307315Y-94461450D01*
X162340364Y-94501721D01*
X162438589Y-94621410D01*
X162505052Y-94675954D01*
X162598550Y-94752685D01*
X162781046Y-94850232D01*
X162979066Y-94910300D01*
X162979065Y-94910300D01*
X162997529Y-94912118D01*
X163185000Y-94930583D01*
X163390934Y-94910300D01*
X163588954Y-94850232D01*
X163771450Y-94752685D01*
X163931410Y-94621410D01*
X164062685Y-94461450D01*
X164160232Y-94278954D01*
X164220300Y-94080934D01*
X164240583Y-93875000D01*
X164220300Y-93669066D01*
X164160232Y-93471046D01*
X164062685Y-93288550D01*
X164010702Y-93225209D01*
X163931410Y-93128589D01*
X163771452Y-92997317D01*
X163771453Y-92997317D01*
X163771450Y-92997315D01*
X163588954Y-92899768D01*
X163522447Y-92879593D01*
X163464009Y-92841296D01*
X163435553Y-92777484D01*
X163446113Y-92708417D01*
X163492337Y-92656023D01*
X163526350Y-92641158D01*
X163648483Y-92608433D01*
X163648492Y-92608429D01*
X163862578Y-92508600D01*
X163862582Y-92508598D01*
X163946373Y-92449926D01*
X163946373Y-92449925D01*
X163314409Y-91817962D01*
X163377993Y-91800925D01*
X163492007Y-91735099D01*
X163585099Y-91642007D01*
X163650925Y-91527993D01*
X163667962Y-91464410D01*
X164299925Y-92096373D01*
X164299926Y-92096373D01*
X164358598Y-92012582D01*
X164358600Y-92012578D01*
X164458429Y-91798492D01*
X164458433Y-91798483D01*
X164519567Y-91570326D01*
X164519569Y-91570315D01*
X164540157Y-91335001D01*
X164540157Y-91334998D01*
X164519569Y-91099684D01*
X164519567Y-91099673D01*
X164458433Y-90871516D01*
X164458429Y-90871507D01*
X164358600Y-90657423D01*
X164358599Y-90657421D01*
X164299925Y-90573626D01*
X164299925Y-90573625D01*
X163667962Y-91205589D01*
X163650925Y-91142007D01*
X163585099Y-91027993D01*
X163492007Y-90934901D01*
X163377993Y-90869075D01*
X163314410Y-90852037D01*
X163946373Y-90220073D01*
X163946373Y-90220072D01*
X163862583Y-90161402D01*
X163862579Y-90161400D01*
X163648492Y-90061570D01*
X163648486Y-90061567D01*
X163526349Y-90028841D01*
X163466689Y-89992476D01*
X163436160Y-89929629D01*
X163444455Y-89860253D01*
X163488940Y-89806375D01*
X163522444Y-89790407D01*
X163588954Y-89770232D01*
X163771450Y-89672685D01*
X163931410Y-89541410D01*
X164062685Y-89381450D01*
X164160232Y-89198954D01*
X164220300Y-89000934D01*
X164240583Y-88795000D01*
X164220300Y-88589066D01*
X164160232Y-88391046D01*
X164062685Y-88208550D01*
X163960846Y-88084458D01*
X163931410Y-88048589D01*
X163771452Y-87917317D01*
X163771453Y-87917317D01*
X163771450Y-87917315D01*
X163588954Y-87819768D01*
X163390934Y-87759700D01*
X163390932Y-87759699D01*
X163390934Y-87759699D01*
X163185000Y-87739417D01*
X162979067Y-87759699D01*
X162781043Y-87819769D01*
X162714303Y-87855443D01*
X162598550Y-87917315D01*
X162598548Y-87917316D01*
X162598547Y-87917317D01*
X162438589Y-88048589D01*
X162307317Y-88208547D01*
X162209769Y-88391043D01*
X162149699Y-88589067D01*
X162129417Y-88795000D01*
X162149699Y-89000932D01*
X162149700Y-89000934D01*
X162209768Y-89198954D01*
X162307315Y-89381450D01*
X162307317Y-89381452D01*
X162438589Y-89541410D01*
X162535209Y-89620702D01*
X162598550Y-89672685D01*
X162781046Y-89770232D01*
X162847551Y-89790405D01*
X162905989Y-89828702D01*
X162934446Y-89892514D01*
X162923887Y-89961581D01*
X162877663Y-90013975D01*
X162843650Y-90028841D01*
X162721514Y-90061567D01*
X162721507Y-90061570D01*
X162507419Y-90161401D01*
X162423625Y-90220072D01*
X163055590Y-90852037D01*
X162992007Y-90869075D01*
X162877993Y-90934901D01*
X162784901Y-91027993D01*
X162719075Y-91142007D01*
X162702037Y-91205590D01*
X162070072Y-90573625D01*
X162011401Y-90657419D01*
X161911570Y-90871507D01*
X161911567Y-90871514D01*
X161878841Y-90993650D01*
X161842476Y-91053310D01*
X161779629Y-91083839D01*
X161710253Y-91075544D01*
X161656375Y-91031059D01*
X161640406Y-90997553D01*
X161620232Y-90931046D01*
X161522685Y-90748550D01*
X161470702Y-90685209D01*
X161391410Y-90588589D01*
X161231452Y-90457317D01*
X161231453Y-90457317D01*
X161231450Y-90457315D01*
X161048954Y-90359768D01*
X160850934Y-90299700D01*
X160850932Y-90299699D01*
X160850934Y-90299699D01*
X160645000Y-90279417D01*
X160439067Y-90299699D01*
X160241043Y-90359769D01*
X160130898Y-90418643D01*
X160058550Y-90457315D01*
X160058548Y-90457316D01*
X160058547Y-90457317D01*
X159898589Y-90588589D01*
X159767317Y-90748547D01*
X159669769Y-90931043D01*
X159609699Y-91129067D01*
X159589417Y-91335000D01*
X151386292Y-91335000D01*
X153926292Y-88795000D01*
X159589417Y-88795000D01*
X159609699Y-89000932D01*
X159609700Y-89000934D01*
X159669768Y-89198954D01*
X159767315Y-89381450D01*
X159767317Y-89381452D01*
X159898589Y-89541410D01*
X159995209Y-89620702D01*
X160058550Y-89672685D01*
X160241046Y-89770232D01*
X160439066Y-89830300D01*
X160439065Y-89830300D01*
X160457529Y-89832118D01*
X160645000Y-89850583D01*
X160850934Y-89830300D01*
X161048954Y-89770232D01*
X161231450Y-89672685D01*
X161391410Y-89541410D01*
X161522685Y-89381450D01*
X161620232Y-89198954D01*
X161680300Y-89000934D01*
X161700583Y-88795000D01*
X161680300Y-88589066D01*
X161620232Y-88391046D01*
X161522685Y-88208550D01*
X161420846Y-88084458D01*
X161391410Y-88048589D01*
X161231452Y-87917317D01*
X161231453Y-87917317D01*
X161231450Y-87917315D01*
X161048954Y-87819768D01*
X160850934Y-87759700D01*
X160850932Y-87759699D01*
X160850934Y-87759699D01*
X160645000Y-87739417D01*
X160439067Y-87759699D01*
X160241043Y-87819769D01*
X160174303Y-87855443D01*
X160058550Y-87917315D01*
X160058548Y-87917316D01*
X160058547Y-87917317D01*
X159898589Y-88048589D01*
X159767317Y-88208547D01*
X159669769Y-88391043D01*
X159609699Y-88589067D01*
X159589417Y-88795000D01*
X153926292Y-88795000D01*
X156466292Y-86255000D01*
X159589417Y-86255000D01*
X159609699Y-86460932D01*
X159609700Y-86460934D01*
X159669768Y-86658954D01*
X159767315Y-86841450D01*
X159790897Y-86870185D01*
X159898589Y-87001410D01*
X159929301Y-87026614D01*
X160058550Y-87132685D01*
X160241046Y-87230232D01*
X160439066Y-87290300D01*
X160439065Y-87290300D01*
X160457529Y-87292118D01*
X160645000Y-87310583D01*
X160850934Y-87290300D01*
X161048954Y-87230232D01*
X161231450Y-87132685D01*
X161391410Y-87001410D01*
X161522685Y-86841450D01*
X161620232Y-86658954D01*
X161680300Y-86460934D01*
X161700583Y-86255000D01*
X162129417Y-86255000D01*
X162149699Y-86460932D01*
X162149700Y-86460934D01*
X162209768Y-86658954D01*
X162307315Y-86841450D01*
X162330897Y-86870185D01*
X162438589Y-87001410D01*
X162469301Y-87026614D01*
X162598550Y-87132685D01*
X162781046Y-87230232D01*
X162979066Y-87290300D01*
X162979065Y-87290300D01*
X162997529Y-87292118D01*
X163185000Y-87310583D01*
X163390934Y-87290300D01*
X163588954Y-87230232D01*
X163771450Y-87132685D01*
X163931410Y-87001410D01*
X164062685Y-86841450D01*
X164160232Y-86658954D01*
X164220300Y-86460934D01*
X164240583Y-86255000D01*
X164220300Y-86049066D01*
X164160232Y-85851046D01*
X164062685Y-85668550D01*
X164010702Y-85605209D01*
X163931410Y-85508589D01*
X163771452Y-85377317D01*
X163771453Y-85377317D01*
X163771450Y-85377315D01*
X163588954Y-85279768D01*
X163390934Y-85219700D01*
X163390932Y-85219699D01*
X163390934Y-85219699D01*
X163185000Y-85199417D01*
X162979067Y-85219699D01*
X162781043Y-85279769D01*
X162670898Y-85338643D01*
X162598550Y-85377315D01*
X162598548Y-85377316D01*
X162598547Y-85377317D01*
X162438589Y-85508589D01*
X162307317Y-85668547D01*
X162209769Y-85851043D01*
X162149699Y-86049067D01*
X162129417Y-86255000D01*
X161700583Y-86255000D01*
X161680300Y-86049066D01*
X161620232Y-85851046D01*
X161522685Y-85668550D01*
X161470702Y-85605209D01*
X161391410Y-85508589D01*
X161231452Y-85377317D01*
X161231453Y-85377317D01*
X161231450Y-85377315D01*
X161048954Y-85279768D01*
X160850934Y-85219700D01*
X160850932Y-85219699D01*
X160850934Y-85219699D01*
X160645000Y-85199417D01*
X160439067Y-85219699D01*
X160241043Y-85279769D01*
X160130898Y-85338643D01*
X160058550Y-85377315D01*
X160058548Y-85377316D01*
X160058547Y-85377317D01*
X159898589Y-85508589D01*
X159767317Y-85668547D01*
X159669769Y-85851043D01*
X159609699Y-86049067D01*
X159589417Y-86255000D01*
X156466292Y-86255000D01*
X158294114Y-84427178D01*
X158370775Y-84312446D01*
X158423580Y-84184964D01*
X158436710Y-84118954D01*
X158450500Y-84049628D01*
X158450500Y-83715000D01*
X159589417Y-83715000D01*
X159609699Y-83920932D01*
X159621995Y-83961467D01*
X159669768Y-84118954D01*
X159767315Y-84301450D01*
X159776339Y-84312446D01*
X159898589Y-84461410D01*
X159995209Y-84540702D01*
X160058550Y-84592685D01*
X160241046Y-84690232D01*
X160439066Y-84750300D01*
X160439065Y-84750300D01*
X160457529Y-84752118D01*
X160645000Y-84770583D01*
X160850934Y-84750300D01*
X161048954Y-84690232D01*
X161231450Y-84592685D01*
X161391410Y-84461410D01*
X161522685Y-84301450D01*
X161620232Y-84118954D01*
X161680300Y-83920934D01*
X161700583Y-83715000D01*
X162129417Y-83715000D01*
X162149699Y-83920932D01*
X162161995Y-83961467D01*
X162209768Y-84118954D01*
X162307315Y-84301450D01*
X162316339Y-84312446D01*
X162438589Y-84461410D01*
X162535209Y-84540702D01*
X162598550Y-84592685D01*
X162781046Y-84690232D01*
X162979066Y-84750300D01*
X162979065Y-84750300D01*
X162997529Y-84752118D01*
X163185000Y-84770583D01*
X163390934Y-84750300D01*
X163588954Y-84690232D01*
X163771450Y-84592685D01*
X163931410Y-84461410D01*
X164062685Y-84301450D01*
X164160232Y-84118954D01*
X164220300Y-83920934D01*
X164240583Y-83715000D01*
X164220300Y-83509066D01*
X164160232Y-83311046D01*
X164062685Y-83128550D01*
X163980483Y-83028386D01*
X163931410Y-82968589D01*
X163771452Y-82837317D01*
X163771453Y-82837317D01*
X163771450Y-82837315D01*
X163588954Y-82739768D01*
X163390934Y-82679700D01*
X163390932Y-82679699D01*
X163390934Y-82679699D01*
X163185000Y-82659417D01*
X162979067Y-82679699D01*
X162781043Y-82739769D01*
X162670898Y-82798643D01*
X162598550Y-82837315D01*
X162598548Y-82837316D01*
X162598547Y-82837317D01*
X162438589Y-82968589D01*
X162307317Y-83128547D01*
X162209769Y-83311043D01*
X162149699Y-83509067D01*
X162129417Y-83715000D01*
X161700583Y-83715000D01*
X161680300Y-83509066D01*
X161620232Y-83311046D01*
X161522685Y-83128550D01*
X161440483Y-83028386D01*
X161391410Y-82968589D01*
X161231452Y-82837317D01*
X161231453Y-82837317D01*
X161231450Y-82837315D01*
X161048954Y-82739768D01*
X160850934Y-82679700D01*
X160850932Y-82679699D01*
X160850934Y-82679699D01*
X160645000Y-82659417D01*
X160439067Y-82679699D01*
X160241043Y-82739769D01*
X160130898Y-82798643D01*
X160058550Y-82837315D01*
X160058548Y-82837316D01*
X160058547Y-82837317D01*
X159898589Y-82968589D01*
X159767317Y-83128547D01*
X159669769Y-83311043D01*
X159609699Y-83509067D01*
X159589417Y-83715000D01*
X158450500Y-83715000D01*
X158450500Y-81175000D01*
X159589417Y-81175000D01*
X159609699Y-81380932D01*
X159609700Y-81380934D01*
X159669768Y-81578954D01*
X159767315Y-81761450D01*
X159767317Y-81761452D01*
X159898589Y-81921410D01*
X159995209Y-82000702D01*
X160058550Y-82052685D01*
X160241046Y-82150232D01*
X160439066Y-82210300D01*
X160439065Y-82210300D01*
X160457529Y-82212118D01*
X160645000Y-82230583D01*
X160850934Y-82210300D01*
X161048954Y-82150232D01*
X161231450Y-82052685D01*
X161391410Y-81921410D01*
X161522685Y-81761450D01*
X161620232Y-81578954D01*
X161680300Y-81380934D01*
X161700583Y-81175000D01*
X162129417Y-81175000D01*
X162149699Y-81380932D01*
X162149700Y-81380934D01*
X162209768Y-81578954D01*
X162307315Y-81761450D01*
X162307317Y-81761452D01*
X162438589Y-81921410D01*
X162535209Y-82000702D01*
X162598550Y-82052685D01*
X162781046Y-82150232D01*
X162979066Y-82210300D01*
X162979065Y-82210300D01*
X162997529Y-82212118D01*
X163185000Y-82230583D01*
X163390934Y-82210300D01*
X163588954Y-82150232D01*
X163771450Y-82052685D01*
X163931410Y-81921410D01*
X164062685Y-81761450D01*
X164160232Y-81578954D01*
X164220300Y-81380934D01*
X164240583Y-81175000D01*
X164220300Y-80969066D01*
X164160232Y-80771046D01*
X164062685Y-80588550D01*
X163946885Y-80447446D01*
X163931410Y-80428589D01*
X163799047Y-80319963D01*
X163771450Y-80297315D01*
X163588954Y-80199768D01*
X163390934Y-80139700D01*
X163390932Y-80139699D01*
X163390934Y-80139699D01*
X163185000Y-80119417D01*
X162979067Y-80139699D01*
X162781043Y-80199769D01*
X162670898Y-80258643D01*
X162598550Y-80297315D01*
X162598548Y-80297316D01*
X162598547Y-80297317D01*
X162438589Y-80428589D01*
X162307317Y-80588547D01*
X162209769Y-80771043D01*
X162149699Y-80969067D01*
X162129417Y-81175000D01*
X161700583Y-81175000D01*
X161680300Y-80969066D01*
X161620232Y-80771046D01*
X161522685Y-80588550D01*
X161406885Y-80447446D01*
X161391410Y-80428589D01*
X161259047Y-80319963D01*
X161231450Y-80297315D01*
X161048954Y-80199768D01*
X160850934Y-80139700D01*
X160850932Y-80139699D01*
X160850934Y-80139699D01*
X160645000Y-80119417D01*
X160439067Y-80139699D01*
X160241043Y-80199769D01*
X160130898Y-80258643D01*
X160058550Y-80297315D01*
X160058548Y-80297316D01*
X160058547Y-80297317D01*
X159898589Y-80428589D01*
X159767317Y-80588547D01*
X159669769Y-80771043D01*
X159609699Y-80969067D01*
X159589417Y-81175000D01*
X158450500Y-81175000D01*
X158450500Y-78635000D01*
X159589417Y-78635000D01*
X159609699Y-78840932D01*
X159609700Y-78840934D01*
X159669768Y-79038954D01*
X159767315Y-79221450D01*
X159767317Y-79221452D01*
X159898589Y-79381410D01*
X159995209Y-79460702D01*
X160058550Y-79512685D01*
X160241046Y-79610232D01*
X160439066Y-79670300D01*
X160439065Y-79670300D01*
X160457529Y-79672118D01*
X160645000Y-79690583D01*
X160850934Y-79670300D01*
X161048954Y-79610232D01*
X161231450Y-79512685D01*
X161391410Y-79381410D01*
X161522685Y-79221450D01*
X161620232Y-79038954D01*
X161680300Y-78840934D01*
X161700583Y-78635000D01*
X162129417Y-78635000D01*
X162149699Y-78840932D01*
X162149700Y-78840934D01*
X162209768Y-79038954D01*
X162307315Y-79221450D01*
X162307317Y-79221452D01*
X162438589Y-79381410D01*
X162535209Y-79460702D01*
X162598550Y-79512685D01*
X162781046Y-79610232D01*
X162979066Y-79670300D01*
X162979065Y-79670300D01*
X162997529Y-79672118D01*
X163185000Y-79690583D01*
X163390934Y-79670300D01*
X163588954Y-79610232D01*
X163771450Y-79512685D01*
X163931410Y-79381410D01*
X164062685Y-79221450D01*
X164160232Y-79038954D01*
X164220300Y-78840934D01*
X164240583Y-78635000D01*
X164220300Y-78429066D01*
X164160232Y-78231046D01*
X164062685Y-78048550D01*
X164010702Y-77985209D01*
X163931410Y-77888589D01*
X163771452Y-77757317D01*
X163771453Y-77757317D01*
X163771450Y-77757315D01*
X163588954Y-77659768D01*
X163390934Y-77599700D01*
X163390932Y-77599699D01*
X163390934Y-77599699D01*
X163185000Y-77579417D01*
X162979067Y-77599699D01*
X162781043Y-77659769D01*
X162670898Y-77718643D01*
X162598550Y-77757315D01*
X162598548Y-77757316D01*
X162598547Y-77757317D01*
X162438589Y-77888589D01*
X162307317Y-78048547D01*
X162209769Y-78231043D01*
X162149699Y-78429067D01*
X162129417Y-78635000D01*
X161700583Y-78635000D01*
X161680300Y-78429066D01*
X161620232Y-78231046D01*
X161522685Y-78048550D01*
X161470702Y-77985209D01*
X161391410Y-77888589D01*
X161231452Y-77757317D01*
X161231453Y-77757317D01*
X161231450Y-77757315D01*
X161048954Y-77659768D01*
X160850934Y-77599700D01*
X160850932Y-77599699D01*
X160850934Y-77599699D01*
X160645000Y-77579417D01*
X160439067Y-77599699D01*
X160241043Y-77659769D01*
X160130898Y-77718643D01*
X160058550Y-77757315D01*
X160058548Y-77757316D01*
X160058547Y-77757317D01*
X159898589Y-77888589D01*
X159767317Y-78048547D01*
X159669769Y-78231043D01*
X159609699Y-78429067D01*
X159589417Y-78635000D01*
X158450500Y-78635000D01*
X158450500Y-75440730D01*
X159594500Y-75440730D01*
X159594500Y-76749269D01*
X159597353Y-76779699D01*
X159597353Y-76779701D01*
X159642206Y-76907880D01*
X159642207Y-76907882D01*
X159722850Y-77017150D01*
X159832118Y-77097793D01*
X159874845Y-77112744D01*
X159960299Y-77142646D01*
X159990730Y-77145500D01*
X159990734Y-77145500D01*
X161299270Y-77145500D01*
X161329699Y-77142646D01*
X161329701Y-77142646D01*
X161393790Y-77120219D01*
X161457882Y-77097793D01*
X161567150Y-77017150D01*
X161647793Y-76907882D01*
X161671052Y-76841410D01*
X161692646Y-76779701D01*
X161692646Y-76779699D01*
X161695500Y-76749269D01*
X161695500Y-76095000D01*
X162129417Y-76095000D01*
X162149699Y-76300932D01*
X162167884Y-76360879D01*
X162209768Y-76498954D01*
X162307315Y-76681450D01*
X162307317Y-76681452D01*
X162438589Y-76841410D01*
X162519584Y-76907880D01*
X162598550Y-76972685D01*
X162781046Y-77070232D01*
X162979066Y-77130300D01*
X162979065Y-77130300D01*
X162997529Y-77132118D01*
X163185000Y-77150583D01*
X163390934Y-77130300D01*
X163588954Y-77070232D01*
X163771450Y-76972685D01*
X163931410Y-76841410D01*
X164062685Y-76681450D01*
X164160232Y-76498954D01*
X164220300Y-76300934D01*
X164240583Y-76095000D01*
X164220300Y-75889066D01*
X164160232Y-75691046D01*
X164062685Y-75508550D01*
X163982052Y-75410298D01*
X163931410Y-75348589D01*
X163771452Y-75217317D01*
X163771453Y-75217317D01*
X163771450Y-75217315D01*
X163588954Y-75119768D01*
X163390934Y-75059700D01*
X163390932Y-75059699D01*
X163390934Y-75059699D01*
X163185000Y-75039417D01*
X162979067Y-75059699D01*
X162781043Y-75119769D01*
X162681737Y-75172850D01*
X162598550Y-75217315D01*
X162598548Y-75217316D01*
X162598547Y-75217317D01*
X162438589Y-75348589D01*
X162307317Y-75508547D01*
X162209769Y-75691043D01*
X162149699Y-75889067D01*
X162129417Y-76095000D01*
X161695500Y-76095000D01*
X161695500Y-75440730D01*
X161692646Y-75410300D01*
X161692646Y-75410298D01*
X161659006Y-75314163D01*
X161647793Y-75282118D01*
X161567150Y-75172850D01*
X161457882Y-75092207D01*
X161457880Y-75092206D01*
X161329700Y-75047353D01*
X161299270Y-75044500D01*
X161299266Y-75044500D01*
X159990734Y-75044500D01*
X159990730Y-75044500D01*
X159960300Y-75047353D01*
X159960298Y-75047353D01*
X159832119Y-75092206D01*
X159832117Y-75092207D01*
X159722850Y-75172850D01*
X159642207Y-75282117D01*
X159642206Y-75282119D01*
X159597353Y-75410298D01*
X159597353Y-75410300D01*
X159594500Y-75440730D01*
X158450500Y-75440730D01*
X158450500Y-68916519D01*
X158470185Y-68849480D01*
X158486819Y-68828838D01*
X159331957Y-67983700D01*
X162505692Y-67983700D01*
X162525301Y-68270380D01*
X162525301Y-68270384D01*
X162525302Y-68270386D01*
X162546142Y-68370672D01*
X162583766Y-68551734D01*
X162583767Y-68551737D01*
X162679994Y-68822493D01*
X162679993Y-68822493D01*
X162812198Y-69077635D01*
X162977912Y-69312400D01*
X163063023Y-69403531D01*
X163174047Y-69522408D01*
X163396953Y-69703755D01*
X163642482Y-69853065D01*
X163829337Y-69934226D01*
X163906042Y-69967544D01*
X164182742Y-70045071D01*
X164433020Y-70079471D01*
X164467421Y-70084200D01*
X164467422Y-70084200D01*
X164754779Y-70084200D01*
X164785470Y-70079981D01*
X165039458Y-70045071D01*
X165316158Y-69967544D01*
X165429115Y-69918479D01*
X165579717Y-69853065D01*
X165579720Y-69853063D01*
X165579725Y-69853061D01*
X165825247Y-69703755D01*
X166048153Y-69522408D01*
X166244289Y-69312398D01*
X166410001Y-69077636D01*
X166542204Y-68822497D01*
X166638434Y-68551732D01*
X166696898Y-68270386D01*
X166716508Y-67983700D01*
X166696898Y-67697014D01*
X166638434Y-67415668D01*
X166542205Y-67144906D01*
X166542206Y-67144906D01*
X166410001Y-66889764D01*
X166244287Y-66654999D01*
X166122408Y-66524500D01*
X166048153Y-66444992D01*
X165825247Y-66263645D01*
X165825246Y-66263644D01*
X165579717Y-66114334D01*
X165316163Y-65999858D01*
X165316161Y-65999857D01*
X165316158Y-65999856D01*
X165186678Y-65963577D01*
X165039464Y-65922330D01*
X165039459Y-65922329D01*
X165039458Y-65922329D01*
X164897118Y-65902764D01*
X164754779Y-65883200D01*
X164754778Y-65883200D01*
X164467422Y-65883200D01*
X164467421Y-65883200D01*
X164182742Y-65922329D01*
X164182735Y-65922330D01*
X163982749Y-65978364D01*
X163906042Y-65999856D01*
X163906039Y-65999856D01*
X163906036Y-65999858D01*
X163906035Y-65999858D01*
X163642482Y-66114334D01*
X163396953Y-66263644D01*
X163174050Y-66444989D01*
X162977912Y-66654999D01*
X162812198Y-66889764D01*
X162679994Y-67144906D01*
X162583767Y-67415662D01*
X162583766Y-67415665D01*
X162525301Y-67697019D01*
X162505692Y-67983700D01*
X159331957Y-67983700D01*
X159709112Y-67606545D01*
X159709114Y-67606543D01*
X159785775Y-67491811D01*
X159838580Y-67364329D01*
X159850960Y-67302090D01*
X159863119Y-67240964D01*
X159865500Y-67228995D01*
X159865500Y-66701004D01*
X159838581Y-66565677D01*
X159838580Y-66565676D01*
X159838580Y-66565672D01*
X159788592Y-66444989D01*
X159785778Y-66438195D01*
X159785771Y-66438182D01*
X159709114Y-66323458D01*
X159709111Y-66323454D01*
X159611545Y-66225888D01*
X159611541Y-66225885D01*
X159496817Y-66149228D01*
X159496804Y-66149221D01*
X159369332Y-66096421D01*
X159369322Y-66096418D01*
X159233995Y-66069500D01*
X159233993Y-66069500D01*
X159096007Y-66069500D01*
X159096005Y-66069500D01*
X158960677Y-66096418D01*
X158960667Y-66096421D01*
X158833195Y-66149221D01*
X158833182Y-66149228D01*
X158718458Y-66225885D01*
X158718454Y-66225888D01*
X158620888Y-66323454D01*
X158620885Y-66323458D01*
X158544228Y-66438182D01*
X158544221Y-66438195D01*
X158491421Y-66565667D01*
X158491418Y-66565677D01*
X158464500Y-66701004D01*
X158464500Y-66818480D01*
X158444815Y-66885519D01*
X158428181Y-66906161D01*
X157205888Y-68128453D01*
X157205887Y-68128454D01*
X157129222Y-68243192D01*
X157076421Y-68370667D01*
X157076418Y-68370679D01*
X157054093Y-68482916D01*
X157054093Y-68482919D01*
X157049500Y-68506006D01*
X157049500Y-83639115D01*
X157029815Y-83706154D01*
X157013181Y-83726796D01*
X156526305Y-84213672D01*
X156464982Y-84247157D01*
X156395290Y-84242173D01*
X156339357Y-84200301D01*
X156324063Y-84173444D01*
X156294536Y-84102159D01*
X156198282Y-83976718D01*
X156072841Y-83880464D01*
X155926762Y-83819956D01*
X155926760Y-83819955D01*
X155770001Y-83799318D01*
X155769999Y-83799318D01*
X155613239Y-83819955D01*
X155613237Y-83819956D01*
X155467157Y-83880464D01*
X155394426Y-83936273D01*
X155329257Y-83961467D01*
X155260812Y-83947428D01*
X155231259Y-83925578D01*
X154814748Y-83509067D01*
X154380212Y-83074530D01*
X154380211Y-83074529D01*
X154380208Y-83074527D01*
X154300290Y-83028387D01*
X154300289Y-83028386D01*
X154300288Y-83028386D01*
X154211144Y-83004500D01*
X154211143Y-83004500D01*
X139576544Y-83004500D01*
X139509505Y-82984815D01*
X139488863Y-82968181D01*
X135900213Y-79379531D01*
X135900208Y-79379527D01*
X135820291Y-79333387D01*
X135820287Y-79333385D01*
X135814926Y-79331949D01*
X135814926Y-79331948D01*
X135746476Y-79313608D01*
X135731144Y-79309500D01*
X135731143Y-79309500D01*
X131954116Y-79309500D01*
X131887077Y-79289815D01*
X131855742Y-79260989D01*
X131833282Y-79231718D01*
X131707841Y-79135464D01*
X131561762Y-79074956D01*
X131561760Y-79074955D01*
X131405001Y-79054318D01*
X131404999Y-79054318D01*
X131377159Y-79057983D01*
X131308123Y-79047217D01*
X131255868Y-79000837D01*
X131236983Y-78933568D01*
X131257464Y-78866767D01*
X131273289Y-78847366D01*
X131882638Y-78238017D01*
X131901417Y-78222606D01*
X131951543Y-78189114D01*
X133499856Y-76640801D01*
X144487039Y-76640801D01*
X144569955Y-76684318D01*
X144735006Y-76725000D01*
X144904994Y-76725000D01*
X145070044Y-76684318D01*
X145152959Y-76640801D01*
X145887039Y-76640801D01*
X145969955Y-76684318D01*
X146135006Y-76725000D01*
X146304994Y-76725000D01*
X146470044Y-76684318D01*
X146552959Y-76640801D01*
X146220001Y-76307843D01*
X146220000Y-76307843D01*
X145887039Y-76640801D01*
X145152959Y-76640801D01*
X144820001Y-76307843D01*
X144820000Y-76307843D01*
X144487039Y-76640801D01*
X133499856Y-76640801D01*
X134199856Y-75940801D01*
X143787039Y-75940801D01*
X143869955Y-75984318D01*
X144034218Y-76024806D01*
X144094599Y-76059963D01*
X144126387Y-76122182D01*
X144127639Y-76130256D01*
X144135348Y-76193748D01*
X144135349Y-76193751D01*
X144195629Y-76352694D01*
X144201277Y-76360878D01*
X144537157Y-76025000D01*
X144507320Y-75995163D01*
X144670000Y-75995163D01*
X144670000Y-76054837D01*
X144692836Y-76109968D01*
X144735032Y-76152164D01*
X144790163Y-76175000D01*
X144849837Y-76175000D01*
X144904968Y-76152164D01*
X144947164Y-76109968D01*
X144970000Y-76054837D01*
X144970000Y-76025000D01*
X145102843Y-76025000D01*
X145438721Y-76360879D01*
X145457150Y-76359204D01*
X145472227Y-76346986D01*
X145541675Y-76339325D01*
X145581398Y-76359071D01*
X145601277Y-76360878D01*
X145937157Y-76025000D01*
X145907320Y-75995163D01*
X146070000Y-75995163D01*
X146070000Y-76054837D01*
X146092836Y-76109968D01*
X146135032Y-76152164D01*
X146190163Y-76175000D01*
X146249837Y-76175000D01*
X146304968Y-76152164D01*
X146347164Y-76109968D01*
X146370000Y-76054837D01*
X146370000Y-76025000D01*
X146502843Y-76025000D01*
X146838721Y-76360879D01*
X146844370Y-76352694D01*
X146904650Y-76193751D01*
X146904651Y-76193747D01*
X146912360Y-76130258D01*
X146939981Y-76066080D01*
X146997915Y-76027022D01*
X147005781Y-76024806D01*
X147170044Y-75984318D01*
X147252959Y-75940801D01*
X146920000Y-75607843D01*
X146502843Y-76025000D01*
X146370000Y-76025000D01*
X146370000Y-75995163D01*
X146347164Y-75940032D01*
X146304968Y-75897836D01*
X146249837Y-75875000D01*
X146190163Y-75875000D01*
X146135032Y-75897836D01*
X146092836Y-75940032D01*
X146070000Y-75995163D01*
X145907320Y-75995163D01*
X145520000Y-75607843D01*
X145102843Y-76025000D01*
X144970000Y-76025000D01*
X144970000Y-75995163D01*
X144947164Y-75940032D01*
X144904968Y-75897836D01*
X144849837Y-75875000D01*
X144790163Y-75875000D01*
X144735032Y-75897836D01*
X144692836Y-75940032D01*
X144670000Y-75995163D01*
X144507320Y-75995163D01*
X144503959Y-75991802D01*
X144120001Y-75607843D01*
X144120000Y-75607843D01*
X143787039Y-75940801D01*
X134199856Y-75940801D01*
X134815658Y-75324999D01*
X143414859Y-75324999D01*
X143414859Y-75325000D01*
X143435348Y-75493748D01*
X143435349Y-75493751D01*
X143495629Y-75652694D01*
X143501277Y-75660878D01*
X143837157Y-75325000D01*
X143837157Y-75324999D01*
X143807321Y-75295163D01*
X143970000Y-75295163D01*
X143970000Y-75354837D01*
X143992836Y-75409968D01*
X144035032Y-75452164D01*
X144090163Y-75475000D01*
X144149837Y-75475000D01*
X144204968Y-75452164D01*
X144247164Y-75409968D01*
X144270000Y-75354837D01*
X144270000Y-75325000D01*
X144402843Y-75325000D01*
X144820000Y-75742157D01*
X145237157Y-75325000D01*
X145207320Y-75295163D01*
X145370000Y-75295163D01*
X145370000Y-75354837D01*
X145392836Y-75409968D01*
X145435032Y-75452164D01*
X145490163Y-75475000D01*
X145549837Y-75475000D01*
X145604968Y-75452164D01*
X145647164Y-75409968D01*
X145670000Y-75354837D01*
X145670000Y-75325000D01*
X145802843Y-75325000D01*
X146220000Y-75742157D01*
X146637157Y-75325000D01*
X146607320Y-75295163D01*
X146770000Y-75295163D01*
X146770000Y-75354837D01*
X146792836Y-75409968D01*
X146835032Y-75452164D01*
X146890163Y-75475000D01*
X146949837Y-75475000D01*
X147004968Y-75452164D01*
X147047164Y-75409968D01*
X147070000Y-75354837D01*
X147070000Y-75324999D01*
X147202843Y-75324999D01*
X147202843Y-75325000D01*
X147538721Y-75660879D01*
X147544370Y-75652694D01*
X147604650Y-75493751D01*
X147604651Y-75493748D01*
X147625141Y-75325000D01*
X147625141Y-75324999D01*
X147604651Y-75156251D01*
X147604650Y-75156245D01*
X147544371Y-74997305D01*
X147538722Y-74989120D01*
X147202843Y-75324999D01*
X147070000Y-75324999D01*
X147070000Y-75295163D01*
X147047164Y-75240032D01*
X147004968Y-75197836D01*
X146949837Y-75175000D01*
X146890163Y-75175000D01*
X146835032Y-75197836D01*
X146792836Y-75240032D01*
X146770000Y-75295163D01*
X146607320Y-75295163D01*
X146220000Y-74907843D01*
X145802843Y-75325000D01*
X145670000Y-75325000D01*
X145670000Y-75295163D01*
X145647164Y-75240032D01*
X145604968Y-75197836D01*
X145549837Y-75175000D01*
X145490163Y-75175000D01*
X145435032Y-75197836D01*
X145392836Y-75240032D01*
X145370000Y-75295163D01*
X145207320Y-75295163D01*
X144820000Y-74907843D01*
X144402843Y-75325000D01*
X144270000Y-75325000D01*
X144270000Y-75295163D01*
X144247164Y-75240032D01*
X144204968Y-75197836D01*
X144149837Y-75175000D01*
X144090163Y-75175000D01*
X144035032Y-75197836D01*
X143992836Y-75240032D01*
X143970000Y-75295163D01*
X143807321Y-75295163D01*
X143501277Y-74989119D01*
X143495629Y-74997303D01*
X143495628Y-74997306D01*
X143435349Y-75156245D01*
X143435348Y-75156251D01*
X143414859Y-75324999D01*
X134815658Y-75324999D01*
X135194114Y-74946543D01*
X135270775Y-74831811D01*
X135323580Y-74704328D01*
X135345963Y-74591802D01*
X135350500Y-74568996D01*
X135350500Y-74540801D01*
X143787039Y-74540801D01*
X143794334Y-74588727D01*
X143804451Y-74631811D01*
X143794577Y-74659672D01*
X143787039Y-74709196D01*
X144120000Y-75042157D01*
X144537157Y-74625000D01*
X144507320Y-74595163D01*
X144670000Y-74595163D01*
X144670000Y-74654837D01*
X144692836Y-74709968D01*
X144735032Y-74752164D01*
X144790163Y-74775000D01*
X144849837Y-74775000D01*
X144904968Y-74752164D01*
X144947164Y-74709968D01*
X144970000Y-74654837D01*
X144970000Y-74625000D01*
X145102843Y-74625000D01*
X145520000Y-75042157D01*
X145937157Y-74625000D01*
X145907320Y-74595163D01*
X146070000Y-74595163D01*
X146070000Y-74654837D01*
X146092836Y-74709968D01*
X146135032Y-74752164D01*
X146190163Y-74775000D01*
X146249837Y-74775000D01*
X146304968Y-74752164D01*
X146347164Y-74709968D01*
X146370000Y-74654837D01*
X146370000Y-74625000D01*
X146502843Y-74625000D01*
X146920000Y-75042157D01*
X146920001Y-75042157D01*
X147252959Y-74709197D01*
X147245664Y-74661270D01*
X147235547Y-74618195D01*
X147245423Y-74590318D01*
X147252959Y-74540801D01*
X146920000Y-74207843D01*
X146502843Y-74625000D01*
X146370000Y-74625000D01*
X146370000Y-74595163D01*
X146347164Y-74540032D01*
X146304968Y-74497836D01*
X146249837Y-74475000D01*
X146190163Y-74475000D01*
X146135032Y-74497836D01*
X146092836Y-74540032D01*
X146070000Y-74595163D01*
X145907320Y-74595163D01*
X145520000Y-74207843D01*
X145102843Y-74625000D01*
X144970000Y-74625000D01*
X144970000Y-74595163D01*
X144947164Y-74540032D01*
X144904968Y-74497836D01*
X144849837Y-74475000D01*
X144790163Y-74475000D01*
X144735032Y-74497836D01*
X144692836Y-74540032D01*
X144670000Y-74595163D01*
X144507320Y-74595163D01*
X144503959Y-74591802D01*
X144120001Y-74207843D01*
X144120000Y-74207843D01*
X143787039Y-74540801D01*
X135350500Y-74540801D01*
X135350500Y-73924999D01*
X143414859Y-73924999D01*
X143414859Y-73925000D01*
X143435348Y-74093748D01*
X143435349Y-74093751D01*
X143495629Y-74252694D01*
X143501277Y-74260878D01*
X143837157Y-73925000D01*
X143837157Y-73924999D01*
X143807321Y-73895163D01*
X143970000Y-73895163D01*
X143970000Y-73954837D01*
X143992836Y-74009968D01*
X144035032Y-74052164D01*
X144090163Y-74075000D01*
X144149837Y-74075000D01*
X144204968Y-74052164D01*
X144247164Y-74009968D01*
X144270000Y-73954837D01*
X144270000Y-73925000D01*
X144402843Y-73925000D01*
X144820000Y-74342157D01*
X145237157Y-73925000D01*
X145207320Y-73895163D01*
X145370000Y-73895163D01*
X145370000Y-73954837D01*
X145392836Y-74009968D01*
X145435032Y-74052164D01*
X145490163Y-74075000D01*
X145549837Y-74075000D01*
X145604968Y-74052164D01*
X145647164Y-74009968D01*
X145670000Y-73954837D01*
X145670000Y-73925000D01*
X145802843Y-73925000D01*
X146220000Y-74342157D01*
X146637157Y-73925000D01*
X146607320Y-73895163D01*
X146770000Y-73895163D01*
X146770000Y-73954837D01*
X146792836Y-74009968D01*
X146835032Y-74052164D01*
X146890163Y-74075000D01*
X146949837Y-74075000D01*
X147004968Y-74052164D01*
X147047164Y-74009968D01*
X147070000Y-73954837D01*
X147070000Y-73924999D01*
X147202843Y-73924999D01*
X147202843Y-73925000D01*
X147538721Y-74260879D01*
X147544370Y-74252694D01*
X147604650Y-74093751D01*
X147604651Y-74093748D01*
X147625141Y-73925000D01*
X147625141Y-73924999D01*
X147604651Y-73756251D01*
X147604650Y-73756245D01*
X147544371Y-73597305D01*
X147538722Y-73589120D01*
X147202843Y-73924999D01*
X147070000Y-73924999D01*
X147070000Y-73895163D01*
X147047164Y-73840032D01*
X147004968Y-73797836D01*
X146949837Y-73775000D01*
X146890163Y-73775000D01*
X146835032Y-73797836D01*
X146792836Y-73840032D01*
X146770000Y-73895163D01*
X146607320Y-73895163D01*
X146220000Y-73507843D01*
X145802843Y-73925000D01*
X145670000Y-73925000D01*
X145670000Y-73895163D01*
X145647164Y-73840032D01*
X145604968Y-73797836D01*
X145549837Y-73775000D01*
X145490163Y-73775000D01*
X145435032Y-73797836D01*
X145392836Y-73840032D01*
X145370000Y-73895163D01*
X145207320Y-73895163D01*
X144820000Y-73507843D01*
X144402843Y-73925000D01*
X144270000Y-73925000D01*
X144270000Y-73895163D01*
X144247164Y-73840032D01*
X144204968Y-73797836D01*
X144149837Y-73775000D01*
X144090163Y-73775000D01*
X144035032Y-73797836D01*
X143992836Y-73840032D01*
X143970000Y-73895163D01*
X143807321Y-73895163D01*
X143501277Y-73589119D01*
X143495629Y-73597303D01*
X143495628Y-73597306D01*
X143435349Y-73756245D01*
X143435348Y-73756251D01*
X143414859Y-73924999D01*
X135350500Y-73924999D01*
X135350500Y-73309196D01*
X143787039Y-73309196D01*
X144120000Y-73642157D01*
X144537157Y-73225000D01*
X144537157Y-73224999D01*
X144507321Y-73195163D01*
X144670000Y-73195163D01*
X144670000Y-73254837D01*
X144692836Y-73309968D01*
X144735032Y-73352164D01*
X144790163Y-73375000D01*
X144849837Y-73375000D01*
X144904968Y-73352164D01*
X144947164Y-73309968D01*
X144970000Y-73254837D01*
X144970000Y-73224999D01*
X145102843Y-73224999D01*
X145102843Y-73225000D01*
X145520000Y-73642157D01*
X145937157Y-73225000D01*
X145937157Y-73224999D01*
X145907321Y-73195163D01*
X146070000Y-73195163D01*
X146070000Y-73254837D01*
X146092836Y-73309968D01*
X146135032Y-73352164D01*
X146190163Y-73375000D01*
X146249837Y-73375000D01*
X146304968Y-73352164D01*
X146347164Y-73309968D01*
X146370000Y-73254837D01*
X146370000Y-73224999D01*
X146502843Y-73224999D01*
X146536041Y-73258197D01*
X146536041Y-73258198D01*
X146920000Y-73642157D01*
X146920001Y-73642157D01*
X147252959Y-73309197D01*
X147252959Y-73309196D01*
X147170046Y-73265682D01*
X147005780Y-73225193D01*
X146945400Y-73190036D01*
X146913612Y-73127816D01*
X146912360Y-73119741D01*
X146904651Y-73056252D01*
X146904650Y-73056245D01*
X146844371Y-72897305D01*
X146838722Y-72889120D01*
X146838721Y-72889120D01*
X146502843Y-73224999D01*
X146370000Y-73224999D01*
X146370000Y-73195163D01*
X146347164Y-73140032D01*
X146304968Y-73097836D01*
X146249837Y-73075000D01*
X146190163Y-73075000D01*
X146135032Y-73097836D01*
X146092836Y-73140032D01*
X146070000Y-73195163D01*
X145907321Y-73195163D01*
X145601277Y-72889119D01*
X145582837Y-72890796D01*
X145567777Y-72903004D01*
X145498329Y-72910671D01*
X145458603Y-72890927D01*
X145438721Y-72889120D01*
X145102843Y-73224999D01*
X144970000Y-73224999D01*
X144970000Y-73195163D01*
X144947164Y-73140032D01*
X144904968Y-73097836D01*
X144849837Y-73075000D01*
X144790163Y-73075000D01*
X144735032Y-73097836D01*
X144692836Y-73140032D01*
X144670000Y-73195163D01*
X144507321Y-73195163D01*
X144201277Y-72889119D01*
X144195629Y-72897303D01*
X144195628Y-72897306D01*
X144135349Y-73056245D01*
X144135348Y-73056251D01*
X144127639Y-73119743D01*
X144100017Y-73183921D01*
X144042082Y-73222977D01*
X144034219Y-73225193D01*
X143869951Y-73265682D01*
X143787039Y-73309196D01*
X135350500Y-73309196D01*
X135350500Y-72609196D01*
X144487039Y-72609196D01*
X144820000Y-72942157D01*
X144820001Y-72942157D01*
X145152959Y-72609197D01*
X145152959Y-72609196D01*
X145887039Y-72609196D01*
X146220000Y-72942157D01*
X146220001Y-72942157D01*
X146552959Y-72609197D01*
X146552959Y-72609196D01*
X146470046Y-72565682D01*
X146304994Y-72525000D01*
X146135006Y-72525000D01*
X145969951Y-72565682D01*
X145887039Y-72609196D01*
X145152959Y-72609196D01*
X145070046Y-72565682D01*
X144904994Y-72525000D01*
X144735006Y-72525000D01*
X144569951Y-72565682D01*
X144487039Y-72609196D01*
X135350500Y-72609196D01*
X135350500Y-68381004D01*
X135323581Y-68245677D01*
X135323580Y-68245676D01*
X135323580Y-68245672D01*
X135322552Y-68243189D01*
X135270778Y-68118195D01*
X135270776Y-68118191D01*
X135270775Y-68118189D01*
X135212441Y-68030886D01*
X135212439Y-68030883D01*
X135194116Y-68003459D01*
X135194114Y-68003457D01*
X133871546Y-66680888D01*
X133871545Y-66680887D01*
X133756807Y-66604222D01*
X133629332Y-66551421D01*
X133629322Y-66551418D01*
X133493996Y-66524500D01*
X133493994Y-66524500D01*
X133356006Y-66524500D01*
X133356004Y-66524500D01*
X133220677Y-66551418D01*
X133220667Y-66551421D01*
X133093192Y-66604222D01*
X132978454Y-66680887D01*
X132880887Y-66778454D01*
X132804222Y-66893192D01*
X132751421Y-67020667D01*
X132751418Y-67020677D01*
X132724500Y-67156003D01*
X132724500Y-67156006D01*
X132724500Y-67293994D01*
X132724500Y-67293996D01*
X132724499Y-67293996D01*
X132751418Y-67429322D01*
X132751421Y-67429332D01*
X132804222Y-67556807D01*
X132880887Y-67671545D01*
X132880888Y-67671546D01*
X133913181Y-68703838D01*
X133946666Y-68765161D01*
X133949500Y-68791519D01*
X133949500Y-74158480D01*
X133929815Y-74225519D01*
X133913181Y-74246161D01*
X131107365Y-77051976D01*
X131088577Y-77067396D01*
X131084336Y-77070230D01*
X131043088Y-77097792D01*
X131038453Y-77100889D01*
X131038450Y-77100892D01*
X129760888Y-78378453D01*
X129760887Y-78378454D01*
X129684222Y-78493192D01*
X129631421Y-78620667D01*
X129631418Y-78620677D01*
X129604500Y-78756004D01*
X129604500Y-78756007D01*
X129604500Y-80046641D01*
X129604500Y-80184629D01*
X129604500Y-80184631D01*
X129604499Y-80184631D01*
X127693461Y-80184631D01*
X127697065Y-67990837D01*
X127697077Y-67989290D01*
X127697158Y-67983700D01*
X128215592Y-67983700D01*
X128235201Y-68270380D01*
X128235201Y-68270384D01*
X128235202Y-68270386D01*
X128256042Y-68370672D01*
X128293666Y-68551734D01*
X128293667Y-68551737D01*
X128389894Y-68822493D01*
X128389893Y-68822493D01*
X128522098Y-69077635D01*
X128687812Y-69312400D01*
X128772923Y-69403531D01*
X128883947Y-69522408D01*
X129106853Y-69703755D01*
X129352382Y-69853065D01*
X129539237Y-69934226D01*
X129615942Y-69967544D01*
X129892642Y-70045071D01*
X130142920Y-70079471D01*
X130177321Y-70084200D01*
X130177322Y-70084200D01*
X130464679Y-70084200D01*
X130495370Y-70079981D01*
X130749358Y-70045071D01*
X131026058Y-69967544D01*
X131139015Y-69918479D01*
X131289617Y-69853065D01*
X131289620Y-69853063D01*
X131289625Y-69853061D01*
X131535147Y-69703755D01*
X131758053Y-69522408D01*
X131954189Y-69312398D01*
X132119901Y-69077636D01*
X132252104Y-68822497D01*
X132348334Y-68551732D01*
X132406798Y-68270386D01*
X132426408Y-67983700D01*
X132406798Y-67697014D01*
X132348334Y-67415668D01*
X132252105Y-67144906D01*
X132252106Y-67144906D01*
X132119901Y-66889764D01*
X131954187Y-66654999D01*
X131832308Y-66524500D01*
X131758053Y-66444992D01*
X131535147Y-66263645D01*
X131535146Y-66263644D01*
X131289617Y-66114334D01*
X131026063Y-65999858D01*
X131026061Y-65999857D01*
X131026058Y-65999856D01*
X130896578Y-65963577D01*
X130749364Y-65922330D01*
X130749359Y-65922329D01*
X130749358Y-65922329D01*
X130607018Y-65902764D01*
X130464679Y-65883200D01*
X130464678Y-65883200D01*
X130177322Y-65883200D01*
X130177321Y-65883200D01*
X129892642Y-65922329D01*
X129892635Y-65922330D01*
X129692649Y-65978364D01*
X129615942Y-65999856D01*
X129615939Y-65999856D01*
X129615936Y-65999858D01*
X129615935Y-65999858D01*
X129352382Y-66114334D01*
X129106853Y-66263644D01*
X128883950Y-66444989D01*
X128687812Y-66654999D01*
X128522098Y-66889764D01*
X128389894Y-67144906D01*
X128293667Y-67415662D01*
X128293666Y-67415665D01*
X128235201Y-67697019D01*
X128215592Y-67983700D01*
X127697158Y-67983700D01*
X127699191Y-67843143D01*
X127700081Y-67830016D01*
X127735383Y-67539221D01*
X127738082Y-67524495D01*
X127761536Y-67429332D01*
X127807961Y-67240964D01*
X127812414Y-67226673D01*
X127915966Y-66953616D01*
X127922101Y-66939984D01*
X128057814Y-66681397D01*
X128065560Y-66668587D01*
X128231441Y-66428263D01*
X128240668Y-66416485D01*
X128434318Y-66197899D01*
X128444903Y-66187315D01*
X128446147Y-66186213D01*
X128663485Y-65993668D01*
X128675263Y-65984441D01*
X128915590Y-65818557D01*
X128928401Y-65810813D01*
X128933342Y-65808220D01*
X129186984Y-65675101D01*
X129200616Y-65668966D01*
X129473679Y-65565412D01*
X129487964Y-65560961D01*
X129771498Y-65491081D01*
X129786221Y-65488383D01*
X130077016Y-65453081D01*
X130090143Y-65452191D01*
X130236296Y-65450077D01*
X130237832Y-65450065D01*
X164610117Y-65444000D01*
X164611888Y-65444012D01*
G37*
G04 #@! TD.AperFunction*
M02*
