G04 #@! TF.GenerationSoftware,KiCad,Pcbnew,8.0.2*
G04 #@! TF.CreationDate,2024-08-30T13:40:58-03:00*
G04 #@! TF.ProjectId,Comunication Board,436f6d75-6e69-4636-9174-696f6e20426f,rev?*
G04 #@! TF.SameCoordinates,Original*
G04 #@! TF.FileFunction,Soldermask,Bot*
G04 #@! TF.FilePolarity,Negative*
%FSLAX46Y46*%
G04 Gerber Fmt 4.6, Leading zero omitted, Abs format (unit mm)*
G04 Created by KiCad (PCBNEW 8.0.2) date 2024-08-30 13:40:58*
%MOMM*%
%LPD*%
G01*
G04 APERTURE LIST*
G04 Aperture macros list*
%AMRoundRect*
0 Rectangle with rounded corners*
0 $1 Rounding radius*
0 $2 $3 $4 $5 $6 $7 $8 $9 X,Y pos of 4 corners*
0 Add a 4 corners polygon primitive as box body*
4,1,4,$2,$3,$4,$5,$6,$7,$8,$9,$2,$3,0*
0 Add four circle primitives for the rounded corners*
1,1,$1+$1,$2,$3*
1,1,$1+$1,$4,$5*
1,1,$1+$1,$6,$7*
1,1,$1+$1,$8,$9*
0 Add four rect primitives between the rounded corners*
20,1,$1+$1,$2,$3,$4,$5,0*
20,1,$1+$1,$4,$5,$6,$7,0*
20,1,$1+$1,$6,$7,$8,$9,0*
20,1,$1+$1,$8,$9,$2,$3,0*%
G04 Aperture macros list end*
%ADD10C,0.650000*%
%ADD11O,2.100000X1.000000*%
%ADD12O,1.600000X1.000000*%
%ADD13RoundRect,0.250000X-0.600000X-0.600000X0.600000X-0.600000X0.600000X0.600000X-0.600000X0.600000X0*%
%ADD14C,1.700000*%
%ADD15C,3.800000*%
%ADD16C,1.200000*%
%ADD17RoundRect,0.250000X0.600000X0.750000X-0.600000X0.750000X-0.600000X-0.750000X0.600000X-0.750000X0*%
%ADD18O,1.700000X2.000000*%
%ADD19C,0.800000*%
G04 APERTURE END LIST*
D10*
X134132500Y-87912500D03*
X134132500Y-93692500D03*
D11*
X134632500Y-86482500D03*
D12*
X130452500Y-86482500D03*
D11*
X134632500Y-95122500D03*
D12*
X130452500Y-95122500D03*
D13*
X160645000Y-76095000D03*
D14*
X163185000Y-76095000D03*
X160645000Y-78635000D03*
X163185000Y-78635000D03*
X160645000Y-81175000D03*
X163185000Y-81175000D03*
X160645000Y-83715000D03*
X163185000Y-83715000D03*
X160645000Y-86255000D03*
X163185000Y-86255000D03*
X160645000Y-88795000D03*
X163185000Y-88795000D03*
X160645000Y-91335000D03*
X163185000Y-91335000D03*
X160645000Y-93875000D03*
X163185000Y-93875000D03*
D15*
X130321000Y-101730000D03*
X164611100Y-101725000D03*
X164611100Y-67983700D03*
X130321000Y-67983700D03*
D16*
X142195000Y-99075000D03*
D17*
X140595000Y-101075000D03*
D18*
X138095000Y-101075000D03*
D19*
X145025000Y-90150000D03*
X146825000Y-86875000D03*
X148715563Y-86176225D03*
X145494669Y-88280331D03*
X136825000Y-95300000D03*
X155770000Y-84405000D03*
X131405000Y-79660000D03*
X133425000Y-67225000D03*
X147670000Y-93070000D03*
X131485000Y-77645000D03*
X159165000Y-66770000D03*
X137085000Y-85995000D03*
X138400000Y-91050000D03*
X159825000Y-101925000D03*
X138000000Y-96450000D03*
X133700000Y-77700000D03*
X129685000Y-71275000D03*
X129575000Y-97400000D03*
X161950000Y-73400000D03*
X159175000Y-71450000D03*
X141825000Y-86050000D03*
X143475000Y-92675000D03*
X162050000Y-66400000D03*
X150525000Y-97550000D03*
X133550000Y-68925000D03*
X139850000Y-88675000D03*
X149375000Y-97525000D03*
X139325000Y-92025000D03*
X137581888Y-87715001D03*
M02*
