%TF.GenerationSoftware,KiCad,Pcbnew,8.0.2*%
%TF.CreationDate,2024-08-30T13:41:40-03:00*%
%TF.ProjectId,Comunication Board,436f6d75-6e69-4636-9174-696f6e20426f,rev?*%
%TF.SameCoordinates,Original*%
%TF.FileFunction,Drillmap*%
%TF.FilePolarity,Positive*%
%FSLAX45Y45*%
G04 Gerber Fmt 4.5, Leading zero omitted, Abs format (unit mm)*
G04 Created by KiCad (PCBNEW 8.0.2) date 2024-08-30 13:41:40*
%MOMM*%
%LPD*%
G01*
G04 APERTURE LIST*
%ADD10C,0.100000*%
%ADD11C,0.200000*%
%ADD12C,0.220000*%
G04 APERTURE END LIST*
D10*
X16461100Y-6544400D02*
X13023707Y-6545007D01*
X16461100Y-6544400D02*
G75*
G02*
X16715100Y-6798400I10J-253990D01*
G01*
X12769707Y-6799007D02*
X12768707Y-10181500D01*
X16714100Y-10181500D02*
G75*
G02*
X16460493Y-10433108I-253600J2000D01*
G01*
X13023706Y-10433298D02*
G75*
G02*
X12768707Y-10181500I-1206J253798D01*
G01*
X16714100Y-10181500D02*
X16715100Y-6798400D01*
X12769707Y-6799007D02*
G75*
G02*
X13023707Y-6545007I253993J7D01*
G01*
X13023707Y-10433490D02*
X16461100Y-10433490D01*
D11*
D10*
X14397000Y-7377500D02*
X14427000Y-7407500D01*
X14427000Y-7377500D02*
X14397000Y-7407500D01*
X14397000Y-7517500D02*
X14427000Y-7547500D01*
X14427000Y-7517500D02*
X14397000Y-7547500D01*
X14467000Y-7307500D02*
X14497000Y-7337500D01*
X14497000Y-7307500D02*
X14467000Y-7337500D01*
X14467000Y-7447500D02*
X14497000Y-7477500D01*
X14497000Y-7447500D02*
X14467000Y-7477500D01*
X14467000Y-7587500D02*
X14497000Y-7617500D01*
X14497000Y-7587500D02*
X14467000Y-7617500D01*
X14537000Y-7377500D02*
X14567000Y-7407500D01*
X14567000Y-7377500D02*
X14537000Y-7407500D01*
X14537000Y-7517500D02*
X14567000Y-7547500D01*
X14567000Y-7517500D02*
X14537000Y-7547500D01*
X14607000Y-7307500D02*
X14637000Y-7337500D01*
X14637000Y-7307500D02*
X14607000Y-7337500D01*
X14607000Y-7447500D02*
X14637000Y-7477500D01*
X14637000Y-7447500D02*
X14607000Y-7477500D01*
X14607000Y-7587500D02*
X14637000Y-7617500D01*
X14637000Y-7587500D02*
X14607000Y-7617500D01*
X14677000Y-7377500D02*
X14707000Y-7407500D01*
X14707000Y-7377500D02*
X14677000Y-7407500D01*
X14677000Y-7517500D02*
X14707000Y-7547500D01*
X14707000Y-7517500D02*
X14677000Y-7547500D01*
X12977500Y-9740000D02*
G75*
G02*
X12937500Y-9740000I-20000J0D01*
G01*
X12937500Y-9740000D02*
G75*
G02*
X12977500Y-9740000I20000J0D01*
G01*
X12988500Y-7127500D02*
G75*
G02*
X12948500Y-7127500I-20000J0D01*
G01*
X12948500Y-7127500D02*
G75*
G02*
X12988500Y-7127500I20000J0D01*
G01*
X13160500Y-7966000D02*
G75*
G02*
X13120500Y-7966000I-20000J0D01*
G01*
X13120500Y-7966000D02*
G75*
G02*
X13160500Y-7966000I20000J0D01*
G01*
X13168500Y-7764500D02*
G75*
G02*
X13128500Y-7764500I-20000J0D01*
G01*
X13128500Y-7764500D02*
G75*
G02*
X13168500Y-7764500I20000J0D01*
G01*
X13362500Y-6722500D02*
G75*
G02*
X13322500Y-6722500I-20000J0D01*
G01*
X13322500Y-6722500D02*
G75*
G02*
X13362500Y-6722500I20000J0D01*
G01*
X13375000Y-6892500D02*
G75*
G02*
X13335000Y-6892500I-20000J0D01*
G01*
X13335000Y-6892500D02*
G75*
G02*
X13375000Y-6892500I20000J0D01*
G01*
X13390000Y-7770000D02*
G75*
G02*
X13350000Y-7770000I-20000J0D01*
G01*
X13350000Y-7770000D02*
G75*
G02*
X13390000Y-7770000I20000J0D01*
G01*
X13702500Y-9530000D02*
G75*
G02*
X13662500Y-9530000I-20000J0D01*
G01*
X13662500Y-9530000D02*
G75*
G02*
X13702500Y-9530000I20000J0D01*
G01*
X13728500Y-8599500D02*
G75*
G02*
X13688500Y-8599500I-20000J0D01*
G01*
X13688500Y-8599500D02*
G75*
G02*
X13728500Y-8599500I20000J0D01*
G01*
X13778189Y-8771500D02*
G75*
G02*
X13738189Y-8771500I-20000J0D01*
G01*
X13738189Y-8771500D02*
G75*
G02*
X13778189Y-8771500I20000J0D01*
G01*
X13820000Y-9645000D02*
G75*
G02*
X13780000Y-9645000I-20000J0D01*
G01*
X13780000Y-9645000D02*
G75*
G02*
X13820000Y-9645000I20000J0D01*
G01*
X13860000Y-9105000D02*
G75*
G02*
X13820000Y-9105000I-20000J0D01*
G01*
X13820000Y-9105000D02*
G75*
G02*
X13860000Y-9105000I20000J0D01*
G01*
X13952500Y-9202500D02*
G75*
G02*
X13912500Y-9202500I-20000J0D01*
G01*
X13912500Y-9202500D02*
G75*
G02*
X13952500Y-9202500I20000J0D01*
G01*
X14005000Y-8867500D02*
G75*
G02*
X13965000Y-8867500I-20000J0D01*
G01*
X13965000Y-8867500D02*
G75*
G02*
X14005000Y-8867500I20000J0D01*
G01*
X14202500Y-8605000D02*
G75*
G02*
X14162500Y-8605000I-20000J0D01*
G01*
X14162500Y-8605000D02*
G75*
G02*
X14202500Y-8605000I20000J0D01*
G01*
X14367500Y-9267500D02*
G75*
G02*
X14327500Y-9267500I-20000J0D01*
G01*
X14327500Y-9267500D02*
G75*
G02*
X14367500Y-9267500I20000J0D01*
G01*
X14522500Y-9015000D02*
G75*
G02*
X14482500Y-9015000I-20000J0D01*
G01*
X14482500Y-9015000D02*
G75*
G02*
X14522500Y-9015000I20000J0D01*
G01*
X14569467Y-8828033D02*
G75*
G02*
X14529467Y-8828033I-20000J0D01*
G01*
X14529467Y-8828033D02*
G75*
G02*
X14569467Y-8828033I20000J0D01*
G01*
X14702500Y-8687500D02*
G75*
G02*
X14662500Y-8687500I-20000J0D01*
G01*
X14662500Y-8687500D02*
G75*
G02*
X14702500Y-8687500I20000J0D01*
G01*
X14787000Y-9307000D02*
G75*
G02*
X14747000Y-9307000I-20000J0D01*
G01*
X14747000Y-9307000D02*
G75*
G02*
X14787000Y-9307000I20000J0D01*
G01*
X14891556Y-8617623D02*
G75*
G02*
X14851556Y-8617623I-20000J0D01*
G01*
X14851556Y-8617623D02*
G75*
G02*
X14891556Y-8617623I20000J0D01*
G01*
X14957500Y-9752500D02*
G75*
G02*
X14917500Y-9752500I-20000J0D01*
G01*
X14917500Y-9752500D02*
G75*
G02*
X14957500Y-9752500I20000J0D01*
G01*
X15072500Y-9755000D02*
G75*
G02*
X15032500Y-9755000I-20000J0D01*
G01*
X15032500Y-9755000D02*
G75*
G02*
X15072500Y-9755000I20000J0D01*
G01*
X15597000Y-8440500D02*
G75*
G02*
X15557000Y-8440500I-20000J0D01*
G01*
X15557000Y-8440500D02*
G75*
G02*
X15597000Y-8440500I20000J0D01*
G01*
X15936500Y-6677000D02*
G75*
G02*
X15896500Y-6677000I-20000J0D01*
G01*
X15896500Y-6677000D02*
G75*
G02*
X15936500Y-6677000I20000J0D01*
G01*
X15937500Y-7145000D02*
G75*
G02*
X15897500Y-7145000I-20000J0D01*
G01*
X15897500Y-7145000D02*
G75*
G02*
X15937500Y-7145000I20000J0D01*
G01*
X16002500Y-10192500D02*
G75*
G02*
X15962500Y-10192500I-20000J0D01*
G01*
X15962500Y-10192500D02*
G75*
G02*
X16002500Y-10192500I20000J0D01*
G01*
X16215000Y-7340000D02*
G75*
G02*
X16175000Y-7340000I-20000J0D01*
G01*
X16175000Y-7340000D02*
G75*
G02*
X16215000Y-7340000I20000J0D01*
G01*
X16225000Y-6640000D02*
G75*
G02*
X16185000Y-6640000I-20000J0D01*
G01*
X16185000Y-6640000D02*
G75*
G02*
X16225000Y-6640000I20000J0D01*
G01*
X13045250Y-8618250D02*
X13045250Y-8678250D01*
X13015250Y-8648250D02*
X13075250Y-8648250D01*
X13075250Y-8618250D02*
X13015250Y-8618250D01*
X13015250Y-8678250D02*
G75*
G02*
X13015250Y-8618250I0J30000D01*
G01*
X13015250Y-8678250D02*
X13075250Y-8678250D01*
X13075250Y-8678250D02*
G75*
G03*
X13075250Y-8618250I0J30000D01*
G01*
X13045250Y-9482250D02*
X13045250Y-9542250D01*
X13015250Y-9512250D02*
X13075250Y-9512250D01*
X13075250Y-9482250D02*
X13015250Y-9482250D01*
X13015250Y-9542250D02*
G75*
G02*
X13015250Y-9482250I0J30000D01*
G01*
X13015250Y-9542250D02*
X13075250Y-9542250D01*
X13075250Y-9542250D02*
G75*
G03*
X13075250Y-9482250I0J30000D01*
G01*
X13463250Y-8618250D02*
X13463250Y-8678250D01*
X13433250Y-8648250D02*
X13493250Y-8648250D01*
X13518250Y-8618250D02*
X13408250Y-8618250D01*
X13408250Y-8678250D02*
G75*
G02*
X13408250Y-8618250I0J30000D01*
G01*
X13408250Y-8678250D02*
X13518250Y-8678250D01*
X13518250Y-8678250D02*
G75*
G03*
X13518250Y-8618250I0J30000D01*
G01*
X13463250Y-9482250D02*
X13463250Y-9542250D01*
X13433250Y-9512250D02*
X13493250Y-9512250D01*
X13518250Y-9482250D02*
X13408250Y-9482250D01*
X13408250Y-9542250D02*
G75*
G02*
X13408250Y-9482250I0J30000D01*
G01*
X13408250Y-9542250D02*
X13518250Y-9542250D01*
X13518250Y-9542250D02*
G75*
G03*
X13518250Y-9482250I0J30000D01*
G01*
X13844856Y-10142856D02*
X13844856Y-10072144D01*
X13774144Y-10072144D01*
X13774144Y-10142856D01*
X13844856Y-10142856D01*
X14094856Y-10142856D02*
X14094856Y-10072144D01*
X14024144Y-10072144D01*
X14024144Y-10142856D01*
X14094856Y-10142856D01*
X16099856Y-7644856D02*
X16099856Y-7574144D01*
X16029144Y-7574144D01*
X16029144Y-7644856D01*
X16099856Y-7644856D01*
X16099856Y-7898856D02*
X16099856Y-7828144D01*
X16029144Y-7828144D01*
X16029144Y-7898856D01*
X16099856Y-7898856D01*
X16099856Y-8152856D02*
X16099856Y-8082144D01*
X16029144Y-8082144D01*
X16029144Y-8152856D01*
X16099856Y-8152856D01*
X16099856Y-8406856D02*
X16099856Y-8336144D01*
X16029144Y-8336144D01*
X16029144Y-8406856D01*
X16099856Y-8406856D01*
X16099856Y-8660856D02*
X16099856Y-8590144D01*
X16029144Y-8590144D01*
X16029144Y-8660856D01*
X16099856Y-8660856D01*
X16099856Y-8914856D02*
X16099856Y-8844144D01*
X16029144Y-8844144D01*
X16029144Y-8914856D01*
X16099856Y-8914856D01*
X16099856Y-9168856D02*
X16099856Y-9098144D01*
X16029144Y-9098144D01*
X16029144Y-9168856D01*
X16099856Y-9168856D01*
X16099856Y-9422856D02*
X16099856Y-9352144D01*
X16029144Y-9352144D01*
X16029144Y-9422856D01*
X16099856Y-9422856D01*
X16353856Y-7644856D02*
X16353856Y-7574144D01*
X16283144Y-7574144D01*
X16283144Y-7644856D01*
X16353856Y-7644856D01*
X16353856Y-7898856D02*
X16353856Y-7828144D01*
X16283144Y-7828144D01*
X16283144Y-7898856D01*
X16353856Y-7898856D01*
X16353856Y-8152856D02*
X16353856Y-8082144D01*
X16283144Y-8082144D01*
X16283144Y-8152856D01*
X16353856Y-8152856D01*
X16353856Y-8406856D02*
X16353856Y-8336144D01*
X16283144Y-8336144D01*
X16283144Y-8406856D01*
X16353856Y-8406856D01*
X16353856Y-8660856D02*
X16353856Y-8590144D01*
X16283144Y-8590144D01*
X16283144Y-8660856D01*
X16353856Y-8660856D01*
X16353856Y-8914856D02*
X16353856Y-8844144D01*
X16283144Y-8844144D01*
X16283144Y-8914856D01*
X16353856Y-8914856D01*
X16353856Y-9168856D02*
X16353856Y-9098144D01*
X16283144Y-9098144D01*
X16283144Y-9168856D01*
X16353856Y-9168856D01*
X16353856Y-9422856D02*
X16353856Y-9352144D01*
X16283144Y-9352144D01*
X16283144Y-9422856D01*
X16353856Y-9422856D01*
D12*
X13032100Y-6908370D02*
X13142100Y-6798370D01*
X13032100Y-6688370D01*
X12922100Y-6798370D01*
X13032100Y-6908370D01*
X13032100Y-10283000D02*
X13142100Y-10173000D01*
X13032100Y-10063000D01*
X12922100Y-10173000D01*
X13032100Y-10283000D01*
X16461110Y-6908370D02*
X16571110Y-6798370D01*
X16461110Y-6688370D01*
X16351110Y-6798370D01*
X16461110Y-6908370D01*
X16461110Y-10282500D02*
X16571110Y-10172500D01*
X16461110Y-10062500D01*
X16351110Y-10172500D01*
X16461110Y-10282500D01*
D11*
X13024483Y-10749974D02*
X13024483Y-10549974D01*
X13024483Y-10549974D02*
X13072102Y-10549974D01*
X13072102Y-10549974D02*
X13100674Y-10559498D01*
X13100674Y-10559498D02*
X13119721Y-10578545D01*
X13119721Y-10578545D02*
X13129245Y-10597593D01*
X13129245Y-10597593D02*
X13138769Y-10635688D01*
X13138769Y-10635688D02*
X13138769Y-10664260D01*
X13138769Y-10664260D02*
X13129245Y-10702355D01*
X13129245Y-10702355D02*
X13119721Y-10721402D01*
X13119721Y-10721402D02*
X13100674Y-10740450D01*
X13100674Y-10740450D02*
X13072102Y-10749974D01*
X13072102Y-10749974D02*
X13024483Y-10749974D01*
X13224483Y-10749974D02*
X13224483Y-10616640D01*
X13224483Y-10654736D02*
X13234007Y-10635688D01*
X13234007Y-10635688D02*
X13243531Y-10626164D01*
X13243531Y-10626164D02*
X13262579Y-10616640D01*
X13262579Y-10616640D02*
X13281626Y-10616640D01*
X13348293Y-10749974D02*
X13348293Y-10616640D01*
X13348293Y-10549974D02*
X13338769Y-10559498D01*
X13338769Y-10559498D02*
X13348293Y-10569021D01*
X13348293Y-10569021D02*
X13357817Y-10559498D01*
X13357817Y-10559498D02*
X13348293Y-10549974D01*
X13348293Y-10549974D02*
X13348293Y-10569021D01*
X13472102Y-10749974D02*
X13453055Y-10740450D01*
X13453055Y-10740450D02*
X13443531Y-10721402D01*
X13443531Y-10721402D02*
X13443531Y-10549974D01*
X13576864Y-10749974D02*
X13557817Y-10740450D01*
X13557817Y-10740450D02*
X13548293Y-10721402D01*
X13548293Y-10721402D02*
X13548293Y-10549974D01*
X13805436Y-10749974D02*
X13805436Y-10549974D01*
X13805436Y-10549974D02*
X13872102Y-10692831D01*
X13872102Y-10692831D02*
X13938769Y-10549974D01*
X13938769Y-10549974D02*
X13938769Y-10749974D01*
X14119721Y-10749974D02*
X14119721Y-10645212D01*
X14119721Y-10645212D02*
X14110198Y-10626164D01*
X14110198Y-10626164D02*
X14091150Y-10616640D01*
X14091150Y-10616640D02*
X14053055Y-10616640D01*
X14053055Y-10616640D02*
X14034007Y-10626164D01*
X14119721Y-10740450D02*
X14100674Y-10749974D01*
X14100674Y-10749974D02*
X14053055Y-10749974D01*
X14053055Y-10749974D02*
X14034007Y-10740450D01*
X14034007Y-10740450D02*
X14024483Y-10721402D01*
X14024483Y-10721402D02*
X14024483Y-10702355D01*
X14024483Y-10702355D02*
X14034007Y-10683307D01*
X14034007Y-10683307D02*
X14053055Y-10673783D01*
X14053055Y-10673783D02*
X14100674Y-10673783D01*
X14100674Y-10673783D02*
X14119721Y-10664260D01*
X14214960Y-10616640D02*
X14214960Y-10816640D01*
X14214960Y-10626164D02*
X14234007Y-10616640D01*
X14234007Y-10616640D02*
X14272102Y-10616640D01*
X14272102Y-10616640D02*
X14291150Y-10626164D01*
X14291150Y-10626164D02*
X14300674Y-10635688D01*
X14300674Y-10635688D02*
X14310198Y-10654736D01*
X14310198Y-10654736D02*
X14310198Y-10711879D01*
X14310198Y-10711879D02*
X14300674Y-10730926D01*
X14300674Y-10730926D02*
X14291150Y-10740450D01*
X14291150Y-10740450D02*
X14272102Y-10749974D01*
X14272102Y-10749974D02*
X14234007Y-10749974D01*
X14234007Y-10749974D02*
X14214960Y-10740450D01*
X14395912Y-10730926D02*
X14405436Y-10740450D01*
X14405436Y-10740450D02*
X14395912Y-10749974D01*
X14395912Y-10749974D02*
X14386388Y-10740450D01*
X14386388Y-10740450D02*
X14395912Y-10730926D01*
X14395912Y-10730926D02*
X14395912Y-10749974D01*
X14395912Y-10626164D02*
X14405436Y-10635688D01*
X14405436Y-10635688D02*
X14395912Y-10645212D01*
X14395912Y-10645212D02*
X14386388Y-10635688D01*
X14386388Y-10635688D02*
X14395912Y-10626164D01*
X14395912Y-10626164D02*
X14395912Y-10645212D01*
D10*
X12733707Y-11063490D02*
X12763707Y-11093490D01*
X12763707Y-11063490D02*
X12733707Y-11093490D01*
D11*
X13062579Y-10969974D02*
X13081626Y-10969974D01*
X13081626Y-10969974D02*
X13100674Y-10979498D01*
X13100674Y-10979498D02*
X13110198Y-10989021D01*
X13110198Y-10989021D02*
X13119721Y-11008069D01*
X13119721Y-11008069D02*
X13129245Y-11046164D01*
X13129245Y-11046164D02*
X13129245Y-11093783D01*
X13129245Y-11093783D02*
X13119721Y-11131879D01*
X13119721Y-11131879D02*
X13110198Y-11150926D01*
X13110198Y-11150926D02*
X13100674Y-11160450D01*
X13100674Y-11160450D02*
X13081626Y-11169974D01*
X13081626Y-11169974D02*
X13062579Y-11169974D01*
X13062579Y-11169974D02*
X13043531Y-11160450D01*
X13043531Y-11160450D02*
X13034007Y-11150926D01*
X13034007Y-11150926D02*
X13024483Y-11131879D01*
X13024483Y-11131879D02*
X13014960Y-11093783D01*
X13014960Y-11093783D02*
X13014960Y-11046164D01*
X13014960Y-11046164D02*
X13024483Y-11008069D01*
X13024483Y-11008069D02*
X13034007Y-10989021D01*
X13034007Y-10989021D02*
X13043531Y-10979498D01*
X13043531Y-10979498D02*
X13062579Y-10969974D01*
X13214960Y-11150926D02*
X13224483Y-11160450D01*
X13224483Y-11160450D02*
X13214960Y-11169974D01*
X13214960Y-11169974D02*
X13205436Y-11160450D01*
X13205436Y-11160450D02*
X13214960Y-11150926D01*
X13214960Y-11150926D02*
X13214960Y-11169974D01*
X13291150Y-10969974D02*
X13414960Y-10969974D01*
X13414960Y-10969974D02*
X13348293Y-11046164D01*
X13348293Y-11046164D02*
X13376864Y-11046164D01*
X13376864Y-11046164D02*
X13395912Y-11055688D01*
X13395912Y-11055688D02*
X13405436Y-11065212D01*
X13405436Y-11065212D02*
X13414960Y-11084260D01*
X13414960Y-11084260D02*
X13414960Y-11131879D01*
X13414960Y-11131879D02*
X13405436Y-11150926D01*
X13405436Y-11150926D02*
X13395912Y-11160450D01*
X13395912Y-11160450D02*
X13376864Y-11169974D01*
X13376864Y-11169974D02*
X13319721Y-11169974D01*
X13319721Y-11169974D02*
X13300674Y-11160450D01*
X13300674Y-11160450D02*
X13291150Y-11150926D01*
X13538769Y-10969974D02*
X13557817Y-10969974D01*
X13557817Y-10969974D02*
X13576864Y-10979498D01*
X13576864Y-10979498D02*
X13586388Y-10989021D01*
X13586388Y-10989021D02*
X13595912Y-11008069D01*
X13595912Y-11008069D02*
X13605436Y-11046164D01*
X13605436Y-11046164D02*
X13605436Y-11093783D01*
X13605436Y-11093783D02*
X13595912Y-11131879D01*
X13595912Y-11131879D02*
X13586388Y-11150926D01*
X13586388Y-11150926D02*
X13576864Y-11160450D01*
X13576864Y-11160450D02*
X13557817Y-11169974D01*
X13557817Y-11169974D02*
X13538769Y-11169974D01*
X13538769Y-11169974D02*
X13519721Y-11160450D01*
X13519721Y-11160450D02*
X13510198Y-11150926D01*
X13510198Y-11150926D02*
X13500674Y-11131879D01*
X13500674Y-11131879D02*
X13491150Y-11093783D01*
X13491150Y-11093783D02*
X13491150Y-11046164D01*
X13491150Y-11046164D02*
X13500674Y-11008069D01*
X13500674Y-11008069D02*
X13510198Y-10989021D01*
X13510198Y-10989021D02*
X13519721Y-10979498D01*
X13519721Y-10979498D02*
X13538769Y-10969974D01*
X13729245Y-10969974D02*
X13748293Y-10969974D01*
X13748293Y-10969974D02*
X13767341Y-10979498D01*
X13767341Y-10979498D02*
X13776864Y-10989021D01*
X13776864Y-10989021D02*
X13786388Y-11008069D01*
X13786388Y-11008069D02*
X13795912Y-11046164D01*
X13795912Y-11046164D02*
X13795912Y-11093783D01*
X13795912Y-11093783D02*
X13786388Y-11131879D01*
X13786388Y-11131879D02*
X13776864Y-11150926D01*
X13776864Y-11150926D02*
X13767341Y-11160450D01*
X13767341Y-11160450D02*
X13748293Y-11169974D01*
X13748293Y-11169974D02*
X13729245Y-11169974D01*
X13729245Y-11169974D02*
X13710198Y-11160450D01*
X13710198Y-11160450D02*
X13700674Y-11150926D01*
X13700674Y-11150926D02*
X13691150Y-11131879D01*
X13691150Y-11131879D02*
X13681626Y-11093783D01*
X13681626Y-11093783D02*
X13681626Y-11046164D01*
X13681626Y-11046164D02*
X13691150Y-11008069D01*
X13691150Y-11008069D02*
X13700674Y-10989021D01*
X13700674Y-10989021D02*
X13710198Y-10979498D01*
X13710198Y-10979498D02*
X13729245Y-10969974D01*
X13881626Y-11169974D02*
X13881626Y-11036640D01*
X13881626Y-11055688D02*
X13891150Y-11046164D01*
X13891150Y-11046164D02*
X13910198Y-11036640D01*
X13910198Y-11036640D02*
X13938769Y-11036640D01*
X13938769Y-11036640D02*
X13957817Y-11046164D01*
X13957817Y-11046164D02*
X13967341Y-11065212D01*
X13967341Y-11065212D02*
X13967341Y-11169974D01*
X13967341Y-11065212D02*
X13976864Y-11046164D01*
X13976864Y-11046164D02*
X13995912Y-11036640D01*
X13995912Y-11036640D02*
X14024483Y-11036640D01*
X14024483Y-11036640D02*
X14043531Y-11046164D01*
X14043531Y-11046164D02*
X14053055Y-11065212D01*
X14053055Y-11065212D02*
X14053055Y-11169974D01*
X14148293Y-11169974D02*
X14148293Y-11036640D01*
X14148293Y-11055688D02*
X14157817Y-11046164D01*
X14157817Y-11046164D02*
X14176864Y-11036640D01*
X14176864Y-11036640D02*
X14205436Y-11036640D01*
X14205436Y-11036640D02*
X14224483Y-11046164D01*
X14224483Y-11046164D02*
X14234007Y-11065212D01*
X14234007Y-11065212D02*
X14234007Y-11169974D01*
X14234007Y-11065212D02*
X14243531Y-11046164D01*
X14243531Y-11046164D02*
X14262579Y-11036640D01*
X14262579Y-11036640D02*
X14291150Y-11036640D01*
X14291150Y-11036640D02*
X14310198Y-11046164D01*
X14310198Y-11046164D02*
X14319722Y-11065212D01*
X14319722Y-11065212D02*
X14319722Y-11169974D01*
X14710198Y-10960450D02*
X14538769Y-11217593D01*
X14967341Y-10969974D02*
X14986388Y-10969974D01*
X14986388Y-10969974D02*
X15005436Y-10979498D01*
X15005436Y-10979498D02*
X15014960Y-10989021D01*
X15014960Y-10989021D02*
X15024484Y-11008069D01*
X15024484Y-11008069D02*
X15034007Y-11046164D01*
X15034007Y-11046164D02*
X15034007Y-11093783D01*
X15034007Y-11093783D02*
X15024484Y-11131879D01*
X15024484Y-11131879D02*
X15014960Y-11150926D01*
X15014960Y-11150926D02*
X15005436Y-11160450D01*
X15005436Y-11160450D02*
X14986388Y-11169974D01*
X14986388Y-11169974D02*
X14967341Y-11169974D01*
X14967341Y-11169974D02*
X14948293Y-11160450D01*
X14948293Y-11160450D02*
X14938769Y-11150926D01*
X14938769Y-11150926D02*
X14929245Y-11131879D01*
X14929245Y-11131879D02*
X14919722Y-11093783D01*
X14919722Y-11093783D02*
X14919722Y-11046164D01*
X14919722Y-11046164D02*
X14929245Y-11008069D01*
X14929245Y-11008069D02*
X14938769Y-10989021D01*
X14938769Y-10989021D02*
X14948293Y-10979498D01*
X14948293Y-10979498D02*
X14967341Y-10969974D01*
X15119722Y-11150926D02*
X15129245Y-11160450D01*
X15129245Y-11160450D02*
X15119722Y-11169974D01*
X15119722Y-11169974D02*
X15110198Y-11160450D01*
X15110198Y-11160450D02*
X15119722Y-11150926D01*
X15119722Y-11150926D02*
X15119722Y-11169974D01*
X15253055Y-10969974D02*
X15272103Y-10969974D01*
X15272103Y-10969974D02*
X15291150Y-10979498D01*
X15291150Y-10979498D02*
X15300674Y-10989021D01*
X15300674Y-10989021D02*
X15310198Y-11008069D01*
X15310198Y-11008069D02*
X15319722Y-11046164D01*
X15319722Y-11046164D02*
X15319722Y-11093783D01*
X15319722Y-11093783D02*
X15310198Y-11131879D01*
X15310198Y-11131879D02*
X15300674Y-11150926D01*
X15300674Y-11150926D02*
X15291150Y-11160450D01*
X15291150Y-11160450D02*
X15272103Y-11169974D01*
X15272103Y-11169974D02*
X15253055Y-11169974D01*
X15253055Y-11169974D02*
X15234007Y-11160450D01*
X15234007Y-11160450D02*
X15224484Y-11150926D01*
X15224484Y-11150926D02*
X15214960Y-11131879D01*
X15214960Y-11131879D02*
X15205436Y-11093783D01*
X15205436Y-11093783D02*
X15205436Y-11046164D01*
X15205436Y-11046164D02*
X15214960Y-11008069D01*
X15214960Y-11008069D02*
X15224484Y-10989021D01*
X15224484Y-10989021D02*
X15234007Y-10979498D01*
X15234007Y-10979498D02*
X15253055Y-10969974D01*
X15510198Y-11169974D02*
X15395912Y-11169974D01*
X15453055Y-11169974D02*
X15453055Y-10969974D01*
X15453055Y-10969974D02*
X15434007Y-10998545D01*
X15434007Y-10998545D02*
X15414960Y-11017593D01*
X15414960Y-11017593D02*
X15395912Y-11027117D01*
X15700674Y-11169974D02*
X15586388Y-11169974D01*
X15643531Y-11169974D02*
X15643531Y-10969974D01*
X15643531Y-10969974D02*
X15624484Y-10998545D01*
X15624484Y-10998545D02*
X15605436Y-11017593D01*
X15605436Y-11017593D02*
X15586388Y-11027117D01*
X15814960Y-11055688D02*
X15795912Y-11046164D01*
X15795912Y-11046164D02*
X15786388Y-11036640D01*
X15786388Y-11036640D02*
X15776865Y-11017593D01*
X15776865Y-11017593D02*
X15776865Y-11008069D01*
X15776865Y-11008069D02*
X15786388Y-10989021D01*
X15786388Y-10989021D02*
X15795912Y-10979498D01*
X15795912Y-10979498D02*
X15814960Y-10969974D01*
X15814960Y-10969974D02*
X15853055Y-10969974D01*
X15853055Y-10969974D02*
X15872103Y-10979498D01*
X15872103Y-10979498D02*
X15881626Y-10989021D01*
X15881626Y-10989021D02*
X15891150Y-11008069D01*
X15891150Y-11008069D02*
X15891150Y-11017593D01*
X15891150Y-11017593D02*
X15881626Y-11036640D01*
X15881626Y-11036640D02*
X15872103Y-11046164D01*
X15872103Y-11046164D02*
X15853055Y-11055688D01*
X15853055Y-11055688D02*
X15814960Y-11055688D01*
X15814960Y-11055688D02*
X15795912Y-11065212D01*
X15795912Y-11065212D02*
X15786388Y-11074736D01*
X15786388Y-11074736D02*
X15776865Y-11093783D01*
X15776865Y-11093783D02*
X15776865Y-11131879D01*
X15776865Y-11131879D02*
X15786388Y-11150926D01*
X15786388Y-11150926D02*
X15795912Y-11160450D01*
X15795912Y-11160450D02*
X15814960Y-11169974D01*
X15814960Y-11169974D02*
X15853055Y-11169974D01*
X15853055Y-11169974D02*
X15872103Y-11160450D01*
X15872103Y-11160450D02*
X15881626Y-11150926D01*
X15881626Y-11150926D02*
X15891150Y-11131879D01*
X15891150Y-11131879D02*
X15891150Y-11093783D01*
X15891150Y-11093783D02*
X15881626Y-11074736D01*
X15881626Y-11074736D02*
X15872103Y-11065212D01*
X15872103Y-11065212D02*
X15853055Y-11055688D01*
X15967341Y-10969974D02*
X15967341Y-11008069D01*
X16043531Y-10969974D02*
X16043531Y-11008069D01*
X16338769Y-11246164D02*
X16329246Y-11236640D01*
X16329246Y-11236640D02*
X16310198Y-11208069D01*
X16310198Y-11208069D02*
X16300674Y-11189021D01*
X16300674Y-11189021D02*
X16291150Y-11160450D01*
X16291150Y-11160450D02*
X16281627Y-11112831D01*
X16281627Y-11112831D02*
X16281627Y-11074736D01*
X16281627Y-11074736D02*
X16291150Y-11027117D01*
X16291150Y-11027117D02*
X16300674Y-10998545D01*
X16300674Y-10998545D02*
X16310198Y-10979498D01*
X16310198Y-10979498D02*
X16329246Y-10950926D01*
X16329246Y-10950926D02*
X16338769Y-10941402D01*
X16519722Y-11169974D02*
X16405436Y-11169974D01*
X16462579Y-11169974D02*
X16462579Y-10969974D01*
X16462579Y-10969974D02*
X16443531Y-10998545D01*
X16443531Y-10998545D02*
X16424484Y-11017593D01*
X16424484Y-11017593D02*
X16405436Y-11027117D01*
X16595912Y-10989021D02*
X16605436Y-10979498D01*
X16605436Y-10979498D02*
X16624484Y-10969974D01*
X16624484Y-10969974D02*
X16672103Y-10969974D01*
X16672103Y-10969974D02*
X16691150Y-10979498D01*
X16691150Y-10979498D02*
X16700674Y-10989021D01*
X16700674Y-10989021D02*
X16710198Y-11008069D01*
X16710198Y-11008069D02*
X16710198Y-11027117D01*
X16710198Y-11027117D02*
X16700674Y-11055688D01*
X16700674Y-11055688D02*
X16586388Y-11169974D01*
X16586388Y-11169974D02*
X16710198Y-11169974D01*
X16948293Y-11169974D02*
X16948293Y-10969974D01*
X17034008Y-11169974D02*
X17034008Y-11065212D01*
X17034008Y-11065212D02*
X17024484Y-11046164D01*
X17024484Y-11046164D02*
X17005436Y-11036640D01*
X17005436Y-11036640D02*
X16976865Y-11036640D01*
X16976865Y-11036640D02*
X16957817Y-11046164D01*
X16957817Y-11046164D02*
X16948293Y-11055688D01*
X17157817Y-11169974D02*
X17138770Y-11160450D01*
X17138770Y-11160450D02*
X17129246Y-11150926D01*
X17129246Y-11150926D02*
X17119722Y-11131879D01*
X17119722Y-11131879D02*
X17119722Y-11074736D01*
X17119722Y-11074736D02*
X17129246Y-11055688D01*
X17129246Y-11055688D02*
X17138770Y-11046164D01*
X17138770Y-11046164D02*
X17157817Y-11036640D01*
X17157817Y-11036640D02*
X17186389Y-11036640D01*
X17186389Y-11036640D02*
X17205436Y-11046164D01*
X17205436Y-11046164D02*
X17214960Y-11055688D01*
X17214960Y-11055688D02*
X17224484Y-11074736D01*
X17224484Y-11074736D02*
X17224484Y-11131879D01*
X17224484Y-11131879D02*
X17214960Y-11150926D01*
X17214960Y-11150926D02*
X17205436Y-11160450D01*
X17205436Y-11160450D02*
X17186389Y-11169974D01*
X17186389Y-11169974D02*
X17157817Y-11169974D01*
X17338770Y-11169974D02*
X17319722Y-11160450D01*
X17319722Y-11160450D02*
X17310198Y-11141402D01*
X17310198Y-11141402D02*
X17310198Y-10969974D01*
X17491151Y-11160450D02*
X17472103Y-11169974D01*
X17472103Y-11169974D02*
X17434008Y-11169974D01*
X17434008Y-11169974D02*
X17414960Y-11160450D01*
X17414960Y-11160450D02*
X17405436Y-11141402D01*
X17405436Y-11141402D02*
X17405436Y-11065212D01*
X17405436Y-11065212D02*
X17414960Y-11046164D01*
X17414960Y-11046164D02*
X17434008Y-11036640D01*
X17434008Y-11036640D02*
X17472103Y-11036640D01*
X17472103Y-11036640D02*
X17491151Y-11046164D01*
X17491151Y-11046164D02*
X17500674Y-11065212D01*
X17500674Y-11065212D02*
X17500674Y-11084260D01*
X17500674Y-11084260D02*
X17405436Y-11103307D01*
X17576865Y-11160450D02*
X17595912Y-11169974D01*
X17595912Y-11169974D02*
X17634008Y-11169974D01*
X17634008Y-11169974D02*
X17653055Y-11160450D01*
X17653055Y-11160450D02*
X17662579Y-11141402D01*
X17662579Y-11141402D02*
X17662579Y-11131879D01*
X17662579Y-11131879D02*
X17653055Y-11112831D01*
X17653055Y-11112831D02*
X17634008Y-11103307D01*
X17634008Y-11103307D02*
X17605436Y-11103307D01*
X17605436Y-11103307D02*
X17586389Y-11093783D01*
X17586389Y-11093783D02*
X17576865Y-11074736D01*
X17576865Y-11074736D02*
X17576865Y-11065212D01*
X17576865Y-11065212D02*
X17586389Y-11046164D01*
X17586389Y-11046164D02*
X17605436Y-11036640D01*
X17605436Y-11036640D02*
X17634008Y-11036640D01*
X17634008Y-11036640D02*
X17653055Y-11046164D01*
X17729246Y-11246164D02*
X17738770Y-11236640D01*
X17738770Y-11236640D02*
X17757817Y-11208069D01*
X17757817Y-11208069D02*
X17767341Y-11189021D01*
X17767341Y-11189021D02*
X17776865Y-11160450D01*
X17776865Y-11160450D02*
X17786389Y-11112831D01*
X17786389Y-11112831D02*
X17786389Y-11074736D01*
X17786389Y-11074736D02*
X17776865Y-11027117D01*
X17776865Y-11027117D02*
X17767341Y-10998545D01*
X17767341Y-10998545D02*
X17757817Y-10979498D01*
X17757817Y-10979498D02*
X17738770Y-10950926D01*
X17738770Y-10950926D02*
X17729246Y-10941402D01*
D10*
X12763707Y-11342490D02*
G75*
G02*
X12723707Y-11342490I-20000J0D01*
G01*
X12723707Y-11342490D02*
G75*
G02*
X12763707Y-11342490I20000J0D01*
G01*
D11*
X13062579Y-11233974D02*
X13081626Y-11233974D01*
X13081626Y-11233974D02*
X13100674Y-11243498D01*
X13100674Y-11243498D02*
X13110198Y-11253021D01*
X13110198Y-11253021D02*
X13119721Y-11272069D01*
X13119721Y-11272069D02*
X13129245Y-11310164D01*
X13129245Y-11310164D02*
X13129245Y-11357783D01*
X13129245Y-11357783D02*
X13119721Y-11395878D01*
X13119721Y-11395878D02*
X13110198Y-11414926D01*
X13110198Y-11414926D02*
X13100674Y-11424450D01*
X13100674Y-11424450D02*
X13081626Y-11433974D01*
X13081626Y-11433974D02*
X13062579Y-11433974D01*
X13062579Y-11433974D02*
X13043531Y-11424450D01*
X13043531Y-11424450D02*
X13034007Y-11414926D01*
X13034007Y-11414926D02*
X13024483Y-11395878D01*
X13024483Y-11395878D02*
X13014960Y-11357783D01*
X13014960Y-11357783D02*
X13014960Y-11310164D01*
X13014960Y-11310164D02*
X13024483Y-11272069D01*
X13024483Y-11272069D02*
X13034007Y-11253021D01*
X13034007Y-11253021D02*
X13043531Y-11243498D01*
X13043531Y-11243498D02*
X13062579Y-11233974D01*
X13214960Y-11414926D02*
X13224483Y-11424450D01*
X13224483Y-11424450D02*
X13214960Y-11433974D01*
X13214960Y-11433974D02*
X13205436Y-11424450D01*
X13205436Y-11424450D02*
X13214960Y-11414926D01*
X13214960Y-11414926D02*
X13214960Y-11433974D01*
X13395912Y-11300640D02*
X13395912Y-11433974D01*
X13348293Y-11224450D02*
X13300674Y-11367307D01*
X13300674Y-11367307D02*
X13424483Y-11367307D01*
X13538769Y-11233974D02*
X13557817Y-11233974D01*
X13557817Y-11233974D02*
X13576864Y-11243498D01*
X13576864Y-11243498D02*
X13586388Y-11253021D01*
X13586388Y-11253021D02*
X13595912Y-11272069D01*
X13595912Y-11272069D02*
X13605436Y-11310164D01*
X13605436Y-11310164D02*
X13605436Y-11357783D01*
X13605436Y-11357783D02*
X13595912Y-11395878D01*
X13595912Y-11395878D02*
X13586388Y-11414926D01*
X13586388Y-11414926D02*
X13576864Y-11424450D01*
X13576864Y-11424450D02*
X13557817Y-11433974D01*
X13557817Y-11433974D02*
X13538769Y-11433974D01*
X13538769Y-11433974D02*
X13519721Y-11424450D01*
X13519721Y-11424450D02*
X13510198Y-11414926D01*
X13510198Y-11414926D02*
X13500674Y-11395878D01*
X13500674Y-11395878D02*
X13491150Y-11357783D01*
X13491150Y-11357783D02*
X13491150Y-11310164D01*
X13491150Y-11310164D02*
X13500674Y-11272069D01*
X13500674Y-11272069D02*
X13510198Y-11253021D01*
X13510198Y-11253021D02*
X13519721Y-11243498D01*
X13519721Y-11243498D02*
X13538769Y-11233974D01*
X13729245Y-11233974D02*
X13748293Y-11233974D01*
X13748293Y-11233974D02*
X13767341Y-11243498D01*
X13767341Y-11243498D02*
X13776864Y-11253021D01*
X13776864Y-11253021D02*
X13786388Y-11272069D01*
X13786388Y-11272069D02*
X13795912Y-11310164D01*
X13795912Y-11310164D02*
X13795912Y-11357783D01*
X13795912Y-11357783D02*
X13786388Y-11395878D01*
X13786388Y-11395878D02*
X13776864Y-11414926D01*
X13776864Y-11414926D02*
X13767341Y-11424450D01*
X13767341Y-11424450D02*
X13748293Y-11433974D01*
X13748293Y-11433974D02*
X13729245Y-11433974D01*
X13729245Y-11433974D02*
X13710198Y-11424450D01*
X13710198Y-11424450D02*
X13700674Y-11414926D01*
X13700674Y-11414926D02*
X13691150Y-11395878D01*
X13691150Y-11395878D02*
X13681626Y-11357783D01*
X13681626Y-11357783D02*
X13681626Y-11310164D01*
X13681626Y-11310164D02*
X13691150Y-11272069D01*
X13691150Y-11272069D02*
X13700674Y-11253021D01*
X13700674Y-11253021D02*
X13710198Y-11243498D01*
X13710198Y-11243498D02*
X13729245Y-11233974D01*
X13881626Y-11433974D02*
X13881626Y-11300640D01*
X13881626Y-11319688D02*
X13891150Y-11310164D01*
X13891150Y-11310164D02*
X13910198Y-11300640D01*
X13910198Y-11300640D02*
X13938769Y-11300640D01*
X13938769Y-11300640D02*
X13957817Y-11310164D01*
X13957817Y-11310164D02*
X13967341Y-11329212D01*
X13967341Y-11329212D02*
X13967341Y-11433974D01*
X13967341Y-11329212D02*
X13976864Y-11310164D01*
X13976864Y-11310164D02*
X13995912Y-11300640D01*
X13995912Y-11300640D02*
X14024483Y-11300640D01*
X14024483Y-11300640D02*
X14043531Y-11310164D01*
X14043531Y-11310164D02*
X14053055Y-11329212D01*
X14053055Y-11329212D02*
X14053055Y-11433974D01*
X14148293Y-11433974D02*
X14148293Y-11300640D01*
X14148293Y-11319688D02*
X14157817Y-11310164D01*
X14157817Y-11310164D02*
X14176864Y-11300640D01*
X14176864Y-11300640D02*
X14205436Y-11300640D01*
X14205436Y-11300640D02*
X14224483Y-11310164D01*
X14224483Y-11310164D02*
X14234007Y-11329212D01*
X14234007Y-11329212D02*
X14234007Y-11433974D01*
X14234007Y-11329212D02*
X14243531Y-11310164D01*
X14243531Y-11310164D02*
X14262579Y-11300640D01*
X14262579Y-11300640D02*
X14291150Y-11300640D01*
X14291150Y-11300640D02*
X14310198Y-11310164D01*
X14310198Y-11310164D02*
X14319722Y-11329212D01*
X14319722Y-11329212D02*
X14319722Y-11433974D01*
X14710198Y-11224450D02*
X14538769Y-11481593D01*
X14967341Y-11233974D02*
X14986388Y-11233974D01*
X14986388Y-11233974D02*
X15005436Y-11243498D01*
X15005436Y-11243498D02*
X15014960Y-11253021D01*
X15014960Y-11253021D02*
X15024484Y-11272069D01*
X15024484Y-11272069D02*
X15034007Y-11310164D01*
X15034007Y-11310164D02*
X15034007Y-11357783D01*
X15034007Y-11357783D02*
X15024484Y-11395878D01*
X15024484Y-11395878D02*
X15014960Y-11414926D01*
X15014960Y-11414926D02*
X15005436Y-11424450D01*
X15005436Y-11424450D02*
X14986388Y-11433974D01*
X14986388Y-11433974D02*
X14967341Y-11433974D01*
X14967341Y-11433974D02*
X14948293Y-11424450D01*
X14948293Y-11424450D02*
X14938769Y-11414926D01*
X14938769Y-11414926D02*
X14929245Y-11395878D01*
X14929245Y-11395878D02*
X14919722Y-11357783D01*
X14919722Y-11357783D02*
X14919722Y-11310164D01*
X14919722Y-11310164D02*
X14929245Y-11272069D01*
X14929245Y-11272069D02*
X14938769Y-11253021D01*
X14938769Y-11253021D02*
X14948293Y-11243498D01*
X14948293Y-11243498D02*
X14967341Y-11233974D01*
X15119722Y-11414926D02*
X15129245Y-11424450D01*
X15129245Y-11424450D02*
X15119722Y-11433974D01*
X15119722Y-11433974D02*
X15110198Y-11424450D01*
X15110198Y-11424450D02*
X15119722Y-11414926D01*
X15119722Y-11414926D02*
X15119722Y-11433974D01*
X15253055Y-11233974D02*
X15272103Y-11233974D01*
X15272103Y-11233974D02*
X15291150Y-11243498D01*
X15291150Y-11243498D02*
X15300674Y-11253021D01*
X15300674Y-11253021D02*
X15310198Y-11272069D01*
X15310198Y-11272069D02*
X15319722Y-11310164D01*
X15319722Y-11310164D02*
X15319722Y-11357783D01*
X15319722Y-11357783D02*
X15310198Y-11395878D01*
X15310198Y-11395878D02*
X15300674Y-11414926D01*
X15300674Y-11414926D02*
X15291150Y-11424450D01*
X15291150Y-11424450D02*
X15272103Y-11433974D01*
X15272103Y-11433974D02*
X15253055Y-11433974D01*
X15253055Y-11433974D02*
X15234007Y-11424450D01*
X15234007Y-11424450D02*
X15224484Y-11414926D01*
X15224484Y-11414926D02*
X15214960Y-11395878D01*
X15214960Y-11395878D02*
X15205436Y-11357783D01*
X15205436Y-11357783D02*
X15205436Y-11310164D01*
X15205436Y-11310164D02*
X15214960Y-11272069D01*
X15214960Y-11272069D02*
X15224484Y-11253021D01*
X15224484Y-11253021D02*
X15234007Y-11243498D01*
X15234007Y-11243498D02*
X15253055Y-11233974D01*
X15510198Y-11433974D02*
X15395912Y-11433974D01*
X15453055Y-11433974D02*
X15453055Y-11233974D01*
X15453055Y-11233974D02*
X15434007Y-11262545D01*
X15434007Y-11262545D02*
X15414960Y-11281593D01*
X15414960Y-11281593D02*
X15395912Y-11291117D01*
X15691150Y-11233974D02*
X15595912Y-11233974D01*
X15595912Y-11233974D02*
X15586388Y-11329212D01*
X15586388Y-11329212D02*
X15595912Y-11319688D01*
X15595912Y-11319688D02*
X15614960Y-11310164D01*
X15614960Y-11310164D02*
X15662579Y-11310164D01*
X15662579Y-11310164D02*
X15681626Y-11319688D01*
X15681626Y-11319688D02*
X15691150Y-11329212D01*
X15691150Y-11329212D02*
X15700674Y-11348259D01*
X15700674Y-11348259D02*
X15700674Y-11395878D01*
X15700674Y-11395878D02*
X15691150Y-11414926D01*
X15691150Y-11414926D02*
X15681626Y-11424450D01*
X15681626Y-11424450D02*
X15662579Y-11433974D01*
X15662579Y-11433974D02*
X15614960Y-11433974D01*
X15614960Y-11433974D02*
X15595912Y-11424450D01*
X15595912Y-11424450D02*
X15586388Y-11414926D01*
X15767341Y-11233974D02*
X15900674Y-11233974D01*
X15900674Y-11233974D02*
X15814960Y-11433974D01*
X15967341Y-11233974D02*
X15967341Y-11272069D01*
X16043531Y-11233974D02*
X16043531Y-11272069D01*
X16338769Y-11510164D02*
X16329246Y-11500640D01*
X16329246Y-11500640D02*
X16310198Y-11472069D01*
X16310198Y-11472069D02*
X16300674Y-11453021D01*
X16300674Y-11453021D02*
X16291150Y-11424450D01*
X16291150Y-11424450D02*
X16281627Y-11376831D01*
X16281627Y-11376831D02*
X16281627Y-11338736D01*
X16281627Y-11338736D02*
X16291150Y-11291117D01*
X16291150Y-11291117D02*
X16300674Y-11262545D01*
X16300674Y-11262545D02*
X16310198Y-11243498D01*
X16310198Y-11243498D02*
X16329246Y-11214926D01*
X16329246Y-11214926D02*
X16338769Y-11205402D01*
X16405436Y-11253021D02*
X16414960Y-11243498D01*
X16414960Y-11243498D02*
X16434007Y-11233974D01*
X16434007Y-11233974D02*
X16481627Y-11233974D01*
X16481627Y-11233974D02*
X16500674Y-11243498D01*
X16500674Y-11243498D02*
X16510198Y-11253021D01*
X16510198Y-11253021D02*
X16519722Y-11272069D01*
X16519722Y-11272069D02*
X16519722Y-11291117D01*
X16519722Y-11291117D02*
X16510198Y-11319688D01*
X16510198Y-11319688D02*
X16395912Y-11433974D01*
X16395912Y-11433974D02*
X16519722Y-11433974D01*
X16614960Y-11433974D02*
X16653055Y-11433974D01*
X16653055Y-11433974D02*
X16672103Y-11424450D01*
X16672103Y-11424450D02*
X16681627Y-11414926D01*
X16681627Y-11414926D02*
X16700674Y-11386355D01*
X16700674Y-11386355D02*
X16710198Y-11348259D01*
X16710198Y-11348259D02*
X16710198Y-11272069D01*
X16710198Y-11272069D02*
X16700674Y-11253021D01*
X16700674Y-11253021D02*
X16691150Y-11243498D01*
X16691150Y-11243498D02*
X16672103Y-11233974D01*
X16672103Y-11233974D02*
X16634007Y-11233974D01*
X16634007Y-11233974D02*
X16614960Y-11243498D01*
X16614960Y-11243498D02*
X16605436Y-11253021D01*
X16605436Y-11253021D02*
X16595912Y-11272069D01*
X16595912Y-11272069D02*
X16595912Y-11319688D01*
X16595912Y-11319688D02*
X16605436Y-11338736D01*
X16605436Y-11338736D02*
X16614960Y-11348259D01*
X16614960Y-11348259D02*
X16634007Y-11357783D01*
X16634007Y-11357783D02*
X16672103Y-11357783D01*
X16672103Y-11357783D02*
X16691150Y-11348259D01*
X16691150Y-11348259D02*
X16700674Y-11338736D01*
X16700674Y-11338736D02*
X16710198Y-11319688D01*
X16948293Y-11433974D02*
X16948293Y-11233974D01*
X17034008Y-11433974D02*
X17034008Y-11329212D01*
X17034008Y-11329212D02*
X17024484Y-11310164D01*
X17024484Y-11310164D02*
X17005436Y-11300640D01*
X17005436Y-11300640D02*
X16976865Y-11300640D01*
X16976865Y-11300640D02*
X16957817Y-11310164D01*
X16957817Y-11310164D02*
X16948293Y-11319688D01*
X17157817Y-11433974D02*
X17138770Y-11424450D01*
X17138770Y-11424450D02*
X17129246Y-11414926D01*
X17129246Y-11414926D02*
X17119722Y-11395878D01*
X17119722Y-11395878D02*
X17119722Y-11338736D01*
X17119722Y-11338736D02*
X17129246Y-11319688D01*
X17129246Y-11319688D02*
X17138770Y-11310164D01*
X17138770Y-11310164D02*
X17157817Y-11300640D01*
X17157817Y-11300640D02*
X17186389Y-11300640D01*
X17186389Y-11300640D02*
X17205436Y-11310164D01*
X17205436Y-11310164D02*
X17214960Y-11319688D01*
X17214960Y-11319688D02*
X17224484Y-11338736D01*
X17224484Y-11338736D02*
X17224484Y-11395878D01*
X17224484Y-11395878D02*
X17214960Y-11414926D01*
X17214960Y-11414926D02*
X17205436Y-11424450D01*
X17205436Y-11424450D02*
X17186389Y-11433974D01*
X17186389Y-11433974D02*
X17157817Y-11433974D01*
X17338770Y-11433974D02*
X17319722Y-11424450D01*
X17319722Y-11424450D02*
X17310198Y-11405402D01*
X17310198Y-11405402D02*
X17310198Y-11233974D01*
X17491151Y-11424450D02*
X17472103Y-11433974D01*
X17472103Y-11433974D02*
X17434008Y-11433974D01*
X17434008Y-11433974D02*
X17414960Y-11424450D01*
X17414960Y-11424450D02*
X17405436Y-11405402D01*
X17405436Y-11405402D02*
X17405436Y-11329212D01*
X17405436Y-11329212D02*
X17414960Y-11310164D01*
X17414960Y-11310164D02*
X17434008Y-11300640D01*
X17434008Y-11300640D02*
X17472103Y-11300640D01*
X17472103Y-11300640D02*
X17491151Y-11310164D01*
X17491151Y-11310164D02*
X17500674Y-11329212D01*
X17500674Y-11329212D02*
X17500674Y-11348259D01*
X17500674Y-11348259D02*
X17405436Y-11367307D01*
X17576865Y-11424450D02*
X17595912Y-11433974D01*
X17595912Y-11433974D02*
X17634008Y-11433974D01*
X17634008Y-11433974D02*
X17653055Y-11424450D01*
X17653055Y-11424450D02*
X17662579Y-11405402D01*
X17662579Y-11405402D02*
X17662579Y-11395878D01*
X17662579Y-11395878D02*
X17653055Y-11376831D01*
X17653055Y-11376831D02*
X17634008Y-11367307D01*
X17634008Y-11367307D02*
X17605436Y-11367307D01*
X17605436Y-11367307D02*
X17586389Y-11357783D01*
X17586389Y-11357783D02*
X17576865Y-11338736D01*
X17576865Y-11338736D02*
X17576865Y-11329212D01*
X17576865Y-11329212D02*
X17586389Y-11310164D01*
X17586389Y-11310164D02*
X17605436Y-11300640D01*
X17605436Y-11300640D02*
X17634008Y-11300640D01*
X17634008Y-11300640D02*
X17653055Y-11310164D01*
X17729246Y-11510164D02*
X17738770Y-11500640D01*
X17738770Y-11500640D02*
X17757817Y-11472069D01*
X17757817Y-11472069D02*
X17767341Y-11453021D01*
X17767341Y-11453021D02*
X17776865Y-11424450D01*
X17776865Y-11424450D02*
X17786389Y-11376831D01*
X17786389Y-11376831D02*
X17786389Y-11338736D01*
X17786389Y-11338736D02*
X17776865Y-11291117D01*
X17776865Y-11291117D02*
X17767341Y-11262545D01*
X17767341Y-11262545D02*
X17757817Y-11243498D01*
X17757817Y-11243498D02*
X17738770Y-11214926D01*
X17738770Y-11214926D02*
X17729246Y-11205402D01*
D10*
X12733707Y-11576490D02*
X12733707Y-11636490D01*
X12703707Y-11606490D02*
X12763707Y-11606490D01*
D11*
X13062579Y-11497974D02*
X13081626Y-11497974D01*
X13081626Y-11497974D02*
X13100674Y-11507498D01*
X13100674Y-11507498D02*
X13110198Y-11517021D01*
X13110198Y-11517021D02*
X13119721Y-11536069D01*
X13119721Y-11536069D02*
X13129245Y-11574164D01*
X13129245Y-11574164D02*
X13129245Y-11621783D01*
X13129245Y-11621783D02*
X13119721Y-11659878D01*
X13119721Y-11659878D02*
X13110198Y-11678926D01*
X13110198Y-11678926D02*
X13100674Y-11688450D01*
X13100674Y-11688450D02*
X13081626Y-11697974D01*
X13081626Y-11697974D02*
X13062579Y-11697974D01*
X13062579Y-11697974D02*
X13043531Y-11688450D01*
X13043531Y-11688450D02*
X13034007Y-11678926D01*
X13034007Y-11678926D02*
X13024483Y-11659878D01*
X13024483Y-11659878D02*
X13014960Y-11621783D01*
X13014960Y-11621783D02*
X13014960Y-11574164D01*
X13014960Y-11574164D02*
X13024483Y-11536069D01*
X13024483Y-11536069D02*
X13034007Y-11517021D01*
X13034007Y-11517021D02*
X13043531Y-11507498D01*
X13043531Y-11507498D02*
X13062579Y-11497974D01*
X13214960Y-11678926D02*
X13224483Y-11688450D01*
X13224483Y-11688450D02*
X13214960Y-11697974D01*
X13214960Y-11697974D02*
X13205436Y-11688450D01*
X13205436Y-11688450D02*
X13214960Y-11678926D01*
X13214960Y-11678926D02*
X13214960Y-11697974D01*
X13395912Y-11497974D02*
X13357817Y-11497974D01*
X13357817Y-11497974D02*
X13338769Y-11507498D01*
X13338769Y-11507498D02*
X13329245Y-11517021D01*
X13329245Y-11517021D02*
X13310198Y-11545593D01*
X13310198Y-11545593D02*
X13300674Y-11583688D01*
X13300674Y-11583688D02*
X13300674Y-11659878D01*
X13300674Y-11659878D02*
X13310198Y-11678926D01*
X13310198Y-11678926D02*
X13319721Y-11688450D01*
X13319721Y-11688450D02*
X13338769Y-11697974D01*
X13338769Y-11697974D02*
X13376864Y-11697974D01*
X13376864Y-11697974D02*
X13395912Y-11688450D01*
X13395912Y-11688450D02*
X13405436Y-11678926D01*
X13405436Y-11678926D02*
X13414960Y-11659878D01*
X13414960Y-11659878D02*
X13414960Y-11612259D01*
X13414960Y-11612259D02*
X13405436Y-11593212D01*
X13405436Y-11593212D02*
X13395912Y-11583688D01*
X13395912Y-11583688D02*
X13376864Y-11574164D01*
X13376864Y-11574164D02*
X13338769Y-11574164D01*
X13338769Y-11574164D02*
X13319721Y-11583688D01*
X13319721Y-11583688D02*
X13310198Y-11593212D01*
X13310198Y-11593212D02*
X13300674Y-11612259D01*
X13538769Y-11497974D02*
X13557817Y-11497974D01*
X13557817Y-11497974D02*
X13576864Y-11507498D01*
X13576864Y-11507498D02*
X13586388Y-11517021D01*
X13586388Y-11517021D02*
X13595912Y-11536069D01*
X13595912Y-11536069D02*
X13605436Y-11574164D01*
X13605436Y-11574164D02*
X13605436Y-11621783D01*
X13605436Y-11621783D02*
X13595912Y-11659878D01*
X13595912Y-11659878D02*
X13586388Y-11678926D01*
X13586388Y-11678926D02*
X13576864Y-11688450D01*
X13576864Y-11688450D02*
X13557817Y-11697974D01*
X13557817Y-11697974D02*
X13538769Y-11697974D01*
X13538769Y-11697974D02*
X13519721Y-11688450D01*
X13519721Y-11688450D02*
X13510198Y-11678926D01*
X13510198Y-11678926D02*
X13500674Y-11659878D01*
X13500674Y-11659878D02*
X13491150Y-11621783D01*
X13491150Y-11621783D02*
X13491150Y-11574164D01*
X13491150Y-11574164D02*
X13500674Y-11536069D01*
X13500674Y-11536069D02*
X13510198Y-11517021D01*
X13510198Y-11517021D02*
X13519721Y-11507498D01*
X13519721Y-11507498D02*
X13538769Y-11497974D01*
X13729245Y-11497974D02*
X13748293Y-11497974D01*
X13748293Y-11497974D02*
X13767341Y-11507498D01*
X13767341Y-11507498D02*
X13776864Y-11517021D01*
X13776864Y-11517021D02*
X13786388Y-11536069D01*
X13786388Y-11536069D02*
X13795912Y-11574164D01*
X13795912Y-11574164D02*
X13795912Y-11621783D01*
X13795912Y-11621783D02*
X13786388Y-11659878D01*
X13786388Y-11659878D02*
X13776864Y-11678926D01*
X13776864Y-11678926D02*
X13767341Y-11688450D01*
X13767341Y-11688450D02*
X13748293Y-11697974D01*
X13748293Y-11697974D02*
X13729245Y-11697974D01*
X13729245Y-11697974D02*
X13710198Y-11688450D01*
X13710198Y-11688450D02*
X13700674Y-11678926D01*
X13700674Y-11678926D02*
X13691150Y-11659878D01*
X13691150Y-11659878D02*
X13681626Y-11621783D01*
X13681626Y-11621783D02*
X13681626Y-11574164D01*
X13681626Y-11574164D02*
X13691150Y-11536069D01*
X13691150Y-11536069D02*
X13700674Y-11517021D01*
X13700674Y-11517021D02*
X13710198Y-11507498D01*
X13710198Y-11507498D02*
X13729245Y-11497974D01*
X13881626Y-11697974D02*
X13881626Y-11564640D01*
X13881626Y-11583688D02*
X13891150Y-11574164D01*
X13891150Y-11574164D02*
X13910198Y-11564640D01*
X13910198Y-11564640D02*
X13938769Y-11564640D01*
X13938769Y-11564640D02*
X13957817Y-11574164D01*
X13957817Y-11574164D02*
X13967341Y-11593212D01*
X13967341Y-11593212D02*
X13967341Y-11697974D01*
X13967341Y-11593212D02*
X13976864Y-11574164D01*
X13976864Y-11574164D02*
X13995912Y-11564640D01*
X13995912Y-11564640D02*
X14024483Y-11564640D01*
X14024483Y-11564640D02*
X14043531Y-11574164D01*
X14043531Y-11574164D02*
X14053055Y-11593212D01*
X14053055Y-11593212D02*
X14053055Y-11697974D01*
X14148293Y-11697974D02*
X14148293Y-11564640D01*
X14148293Y-11583688D02*
X14157817Y-11574164D01*
X14157817Y-11574164D02*
X14176864Y-11564640D01*
X14176864Y-11564640D02*
X14205436Y-11564640D01*
X14205436Y-11564640D02*
X14224483Y-11574164D01*
X14224483Y-11574164D02*
X14234007Y-11593212D01*
X14234007Y-11593212D02*
X14234007Y-11697974D01*
X14234007Y-11593212D02*
X14243531Y-11574164D01*
X14243531Y-11574164D02*
X14262579Y-11564640D01*
X14262579Y-11564640D02*
X14291150Y-11564640D01*
X14291150Y-11564640D02*
X14310198Y-11574164D01*
X14310198Y-11574164D02*
X14319722Y-11593212D01*
X14319722Y-11593212D02*
X14319722Y-11697974D01*
X14710198Y-11488450D02*
X14538769Y-11745593D01*
X14967341Y-11497974D02*
X14986388Y-11497974D01*
X14986388Y-11497974D02*
X15005436Y-11507498D01*
X15005436Y-11507498D02*
X15014960Y-11517021D01*
X15014960Y-11517021D02*
X15024484Y-11536069D01*
X15024484Y-11536069D02*
X15034007Y-11574164D01*
X15034007Y-11574164D02*
X15034007Y-11621783D01*
X15034007Y-11621783D02*
X15024484Y-11659878D01*
X15024484Y-11659878D02*
X15014960Y-11678926D01*
X15014960Y-11678926D02*
X15005436Y-11688450D01*
X15005436Y-11688450D02*
X14986388Y-11697974D01*
X14986388Y-11697974D02*
X14967341Y-11697974D01*
X14967341Y-11697974D02*
X14948293Y-11688450D01*
X14948293Y-11688450D02*
X14938769Y-11678926D01*
X14938769Y-11678926D02*
X14929245Y-11659878D01*
X14929245Y-11659878D02*
X14919722Y-11621783D01*
X14919722Y-11621783D02*
X14919722Y-11574164D01*
X14919722Y-11574164D02*
X14929245Y-11536069D01*
X14929245Y-11536069D02*
X14938769Y-11517021D01*
X14938769Y-11517021D02*
X14948293Y-11507498D01*
X14948293Y-11507498D02*
X14967341Y-11497974D01*
X15119722Y-11678926D02*
X15129245Y-11688450D01*
X15129245Y-11688450D02*
X15119722Y-11697974D01*
X15119722Y-11697974D02*
X15110198Y-11688450D01*
X15110198Y-11688450D02*
X15119722Y-11678926D01*
X15119722Y-11678926D02*
X15119722Y-11697974D01*
X15253055Y-11497974D02*
X15272103Y-11497974D01*
X15272103Y-11497974D02*
X15291150Y-11507498D01*
X15291150Y-11507498D02*
X15300674Y-11517021D01*
X15300674Y-11517021D02*
X15310198Y-11536069D01*
X15310198Y-11536069D02*
X15319722Y-11574164D01*
X15319722Y-11574164D02*
X15319722Y-11621783D01*
X15319722Y-11621783D02*
X15310198Y-11659878D01*
X15310198Y-11659878D02*
X15300674Y-11678926D01*
X15300674Y-11678926D02*
X15291150Y-11688450D01*
X15291150Y-11688450D02*
X15272103Y-11697974D01*
X15272103Y-11697974D02*
X15253055Y-11697974D01*
X15253055Y-11697974D02*
X15234007Y-11688450D01*
X15234007Y-11688450D02*
X15224484Y-11678926D01*
X15224484Y-11678926D02*
X15214960Y-11659878D01*
X15214960Y-11659878D02*
X15205436Y-11621783D01*
X15205436Y-11621783D02*
X15205436Y-11574164D01*
X15205436Y-11574164D02*
X15214960Y-11536069D01*
X15214960Y-11536069D02*
X15224484Y-11517021D01*
X15224484Y-11517021D02*
X15234007Y-11507498D01*
X15234007Y-11507498D02*
X15253055Y-11497974D01*
X15395912Y-11517021D02*
X15405436Y-11507498D01*
X15405436Y-11507498D02*
X15424484Y-11497974D01*
X15424484Y-11497974D02*
X15472103Y-11497974D01*
X15472103Y-11497974D02*
X15491150Y-11507498D01*
X15491150Y-11507498D02*
X15500674Y-11517021D01*
X15500674Y-11517021D02*
X15510198Y-11536069D01*
X15510198Y-11536069D02*
X15510198Y-11555117D01*
X15510198Y-11555117D02*
X15500674Y-11583688D01*
X15500674Y-11583688D02*
X15386388Y-11697974D01*
X15386388Y-11697974D02*
X15510198Y-11697974D01*
X15576865Y-11497974D02*
X15700674Y-11497974D01*
X15700674Y-11497974D02*
X15634007Y-11574164D01*
X15634007Y-11574164D02*
X15662579Y-11574164D01*
X15662579Y-11574164D02*
X15681626Y-11583688D01*
X15681626Y-11583688D02*
X15691150Y-11593212D01*
X15691150Y-11593212D02*
X15700674Y-11612259D01*
X15700674Y-11612259D02*
X15700674Y-11659878D01*
X15700674Y-11659878D02*
X15691150Y-11678926D01*
X15691150Y-11678926D02*
X15681626Y-11688450D01*
X15681626Y-11688450D02*
X15662579Y-11697974D01*
X15662579Y-11697974D02*
X15605436Y-11697974D01*
X15605436Y-11697974D02*
X15586388Y-11688450D01*
X15586388Y-11688450D02*
X15576865Y-11678926D01*
X15872103Y-11497974D02*
X15834007Y-11497974D01*
X15834007Y-11497974D02*
X15814960Y-11507498D01*
X15814960Y-11507498D02*
X15805436Y-11517021D01*
X15805436Y-11517021D02*
X15786388Y-11545593D01*
X15786388Y-11545593D02*
X15776865Y-11583688D01*
X15776865Y-11583688D02*
X15776865Y-11659878D01*
X15776865Y-11659878D02*
X15786388Y-11678926D01*
X15786388Y-11678926D02*
X15795912Y-11688450D01*
X15795912Y-11688450D02*
X15814960Y-11697974D01*
X15814960Y-11697974D02*
X15853055Y-11697974D01*
X15853055Y-11697974D02*
X15872103Y-11688450D01*
X15872103Y-11688450D02*
X15881626Y-11678926D01*
X15881626Y-11678926D02*
X15891150Y-11659878D01*
X15891150Y-11659878D02*
X15891150Y-11612259D01*
X15891150Y-11612259D02*
X15881626Y-11593212D01*
X15881626Y-11593212D02*
X15872103Y-11583688D01*
X15872103Y-11583688D02*
X15853055Y-11574164D01*
X15853055Y-11574164D02*
X15814960Y-11574164D01*
X15814960Y-11574164D02*
X15795912Y-11583688D01*
X15795912Y-11583688D02*
X15786388Y-11593212D01*
X15786388Y-11593212D02*
X15776865Y-11612259D01*
X15967341Y-11497974D02*
X15967341Y-11536069D01*
X16043531Y-11497974D02*
X16043531Y-11536069D01*
X16338769Y-11774164D02*
X16329246Y-11764640D01*
X16329246Y-11764640D02*
X16310198Y-11736069D01*
X16310198Y-11736069D02*
X16300674Y-11717021D01*
X16300674Y-11717021D02*
X16291150Y-11688450D01*
X16291150Y-11688450D02*
X16281627Y-11640831D01*
X16281627Y-11640831D02*
X16281627Y-11602736D01*
X16281627Y-11602736D02*
X16291150Y-11555117D01*
X16291150Y-11555117D02*
X16300674Y-11526545D01*
X16300674Y-11526545D02*
X16310198Y-11507498D01*
X16310198Y-11507498D02*
X16329246Y-11478926D01*
X16329246Y-11478926D02*
X16338769Y-11469402D01*
X16453055Y-11497974D02*
X16472103Y-11497974D01*
X16472103Y-11497974D02*
X16491150Y-11507498D01*
X16491150Y-11507498D02*
X16500674Y-11517021D01*
X16500674Y-11517021D02*
X16510198Y-11536069D01*
X16510198Y-11536069D02*
X16519722Y-11574164D01*
X16519722Y-11574164D02*
X16519722Y-11621783D01*
X16519722Y-11621783D02*
X16510198Y-11659878D01*
X16510198Y-11659878D02*
X16500674Y-11678926D01*
X16500674Y-11678926D02*
X16491150Y-11688450D01*
X16491150Y-11688450D02*
X16472103Y-11697974D01*
X16472103Y-11697974D02*
X16453055Y-11697974D01*
X16453055Y-11697974D02*
X16434007Y-11688450D01*
X16434007Y-11688450D02*
X16424484Y-11678926D01*
X16424484Y-11678926D02*
X16414960Y-11659878D01*
X16414960Y-11659878D02*
X16405436Y-11621783D01*
X16405436Y-11621783D02*
X16405436Y-11574164D01*
X16405436Y-11574164D02*
X16414960Y-11536069D01*
X16414960Y-11536069D02*
X16424484Y-11517021D01*
X16424484Y-11517021D02*
X16434007Y-11507498D01*
X16434007Y-11507498D02*
X16453055Y-11497974D01*
X16757817Y-11697974D02*
X16757817Y-11497974D01*
X16843531Y-11697974D02*
X16843531Y-11593212D01*
X16843531Y-11593212D02*
X16834008Y-11574164D01*
X16834008Y-11574164D02*
X16814960Y-11564640D01*
X16814960Y-11564640D02*
X16786389Y-11564640D01*
X16786389Y-11564640D02*
X16767341Y-11574164D01*
X16767341Y-11574164D02*
X16757817Y-11583688D01*
X16967341Y-11697974D02*
X16948293Y-11688450D01*
X16948293Y-11688450D02*
X16938770Y-11678926D01*
X16938770Y-11678926D02*
X16929246Y-11659878D01*
X16929246Y-11659878D02*
X16929246Y-11602736D01*
X16929246Y-11602736D02*
X16938770Y-11583688D01*
X16938770Y-11583688D02*
X16948293Y-11574164D01*
X16948293Y-11574164D02*
X16967341Y-11564640D01*
X16967341Y-11564640D02*
X16995912Y-11564640D01*
X16995912Y-11564640D02*
X17014960Y-11574164D01*
X17014960Y-11574164D02*
X17024484Y-11583688D01*
X17024484Y-11583688D02*
X17034008Y-11602736D01*
X17034008Y-11602736D02*
X17034008Y-11659878D01*
X17034008Y-11659878D02*
X17024484Y-11678926D01*
X17024484Y-11678926D02*
X17014960Y-11688450D01*
X17014960Y-11688450D02*
X16995912Y-11697974D01*
X16995912Y-11697974D02*
X16967341Y-11697974D01*
X17148293Y-11697974D02*
X17129246Y-11688450D01*
X17129246Y-11688450D02*
X17119722Y-11669402D01*
X17119722Y-11669402D02*
X17119722Y-11497974D01*
X17300674Y-11688450D02*
X17281627Y-11697974D01*
X17281627Y-11697974D02*
X17243531Y-11697974D01*
X17243531Y-11697974D02*
X17224484Y-11688450D01*
X17224484Y-11688450D02*
X17214960Y-11669402D01*
X17214960Y-11669402D02*
X17214960Y-11593212D01*
X17214960Y-11593212D02*
X17224484Y-11574164D01*
X17224484Y-11574164D02*
X17243531Y-11564640D01*
X17243531Y-11564640D02*
X17281627Y-11564640D01*
X17281627Y-11564640D02*
X17300674Y-11574164D01*
X17300674Y-11574164D02*
X17310198Y-11593212D01*
X17310198Y-11593212D02*
X17310198Y-11612259D01*
X17310198Y-11612259D02*
X17214960Y-11631307D01*
X17386389Y-11688450D02*
X17405436Y-11697974D01*
X17405436Y-11697974D02*
X17443531Y-11697974D01*
X17443531Y-11697974D02*
X17462579Y-11688450D01*
X17462579Y-11688450D02*
X17472103Y-11669402D01*
X17472103Y-11669402D02*
X17472103Y-11659878D01*
X17472103Y-11659878D02*
X17462579Y-11640831D01*
X17462579Y-11640831D02*
X17443531Y-11631307D01*
X17443531Y-11631307D02*
X17414960Y-11631307D01*
X17414960Y-11631307D02*
X17395912Y-11621783D01*
X17395912Y-11621783D02*
X17386389Y-11602736D01*
X17386389Y-11602736D02*
X17386389Y-11593212D01*
X17386389Y-11593212D02*
X17395912Y-11574164D01*
X17395912Y-11574164D02*
X17414960Y-11564640D01*
X17414960Y-11564640D02*
X17443531Y-11564640D01*
X17443531Y-11564640D02*
X17462579Y-11574164D01*
X17710198Y-11621783D02*
X17862579Y-11621783D01*
X17786389Y-11697974D02*
X17786389Y-11545593D01*
X18195913Y-11564640D02*
X18195913Y-11697974D01*
X18148293Y-11488450D02*
X18100674Y-11631307D01*
X18100674Y-11631307D02*
X18224484Y-11631307D01*
X18443532Y-11688450D02*
X18462579Y-11697974D01*
X18462579Y-11697974D02*
X18500674Y-11697974D01*
X18500674Y-11697974D02*
X18519722Y-11688450D01*
X18519722Y-11688450D02*
X18529246Y-11669402D01*
X18529246Y-11669402D02*
X18529246Y-11659878D01*
X18529246Y-11659878D02*
X18519722Y-11640831D01*
X18519722Y-11640831D02*
X18500674Y-11631307D01*
X18500674Y-11631307D02*
X18472103Y-11631307D01*
X18472103Y-11631307D02*
X18453055Y-11621783D01*
X18453055Y-11621783D02*
X18443532Y-11602736D01*
X18443532Y-11602736D02*
X18443532Y-11593212D01*
X18443532Y-11593212D02*
X18453055Y-11574164D01*
X18453055Y-11574164D02*
X18472103Y-11564640D01*
X18472103Y-11564640D02*
X18500674Y-11564640D01*
X18500674Y-11564640D02*
X18519722Y-11574164D01*
X18643532Y-11697974D02*
X18624484Y-11688450D01*
X18624484Y-11688450D02*
X18614960Y-11669402D01*
X18614960Y-11669402D02*
X18614960Y-11497974D01*
X18748294Y-11697974D02*
X18729246Y-11688450D01*
X18729246Y-11688450D02*
X18719722Y-11678926D01*
X18719722Y-11678926D02*
X18710198Y-11659878D01*
X18710198Y-11659878D02*
X18710198Y-11602736D01*
X18710198Y-11602736D02*
X18719722Y-11583688D01*
X18719722Y-11583688D02*
X18729246Y-11574164D01*
X18729246Y-11574164D02*
X18748294Y-11564640D01*
X18748294Y-11564640D02*
X18776865Y-11564640D01*
X18776865Y-11564640D02*
X18795913Y-11574164D01*
X18795913Y-11574164D02*
X18805436Y-11583688D01*
X18805436Y-11583688D02*
X18814960Y-11602736D01*
X18814960Y-11602736D02*
X18814960Y-11659878D01*
X18814960Y-11659878D02*
X18805436Y-11678926D01*
X18805436Y-11678926D02*
X18795913Y-11688450D01*
X18795913Y-11688450D02*
X18776865Y-11697974D01*
X18776865Y-11697974D02*
X18748294Y-11697974D01*
X18872103Y-11564640D02*
X18948294Y-11564640D01*
X18900675Y-11497974D02*
X18900675Y-11669402D01*
X18900675Y-11669402D02*
X18910198Y-11688450D01*
X18910198Y-11688450D02*
X18929246Y-11697974D01*
X18929246Y-11697974D02*
X18948294Y-11697974D01*
X19005436Y-11688450D02*
X19024484Y-11697974D01*
X19024484Y-11697974D02*
X19062579Y-11697974D01*
X19062579Y-11697974D02*
X19081627Y-11688450D01*
X19081627Y-11688450D02*
X19091151Y-11669402D01*
X19091151Y-11669402D02*
X19091151Y-11659878D01*
X19091151Y-11659878D02*
X19081627Y-11640831D01*
X19081627Y-11640831D02*
X19062579Y-11631307D01*
X19062579Y-11631307D02*
X19034008Y-11631307D01*
X19034008Y-11631307D02*
X19014960Y-11621783D01*
X19014960Y-11621783D02*
X19005436Y-11602736D01*
X19005436Y-11602736D02*
X19005436Y-11593212D01*
X19005436Y-11593212D02*
X19014960Y-11574164D01*
X19014960Y-11574164D02*
X19034008Y-11564640D01*
X19034008Y-11564640D02*
X19062579Y-11564640D01*
X19062579Y-11564640D02*
X19081627Y-11574164D01*
X19157817Y-11774164D02*
X19167341Y-11764640D01*
X19167341Y-11764640D02*
X19186389Y-11736069D01*
X19186389Y-11736069D02*
X19195913Y-11717021D01*
X19195913Y-11717021D02*
X19205436Y-11688450D01*
X19205436Y-11688450D02*
X19214960Y-11640831D01*
X19214960Y-11640831D02*
X19214960Y-11602736D01*
X19214960Y-11602736D02*
X19205436Y-11555117D01*
X19205436Y-11555117D02*
X19195913Y-11526545D01*
X19195913Y-11526545D02*
X19186389Y-11507498D01*
X19186389Y-11507498D02*
X19167341Y-11478926D01*
X19167341Y-11478926D02*
X19157817Y-11469402D01*
D10*
X12749062Y-11905846D02*
X12749062Y-11835134D01*
X12678351Y-11835134D01*
X12678351Y-11905846D01*
X12749062Y-11905846D01*
D11*
X13129245Y-11961974D02*
X13014960Y-11961974D01*
X13072102Y-11961974D02*
X13072102Y-11761974D01*
X13072102Y-11761974D02*
X13053055Y-11790545D01*
X13053055Y-11790545D02*
X13034007Y-11809593D01*
X13034007Y-11809593D02*
X13014960Y-11819117D01*
X13214960Y-11942926D02*
X13224483Y-11952450D01*
X13224483Y-11952450D02*
X13214960Y-11961974D01*
X13214960Y-11961974D02*
X13205436Y-11952450D01*
X13205436Y-11952450D02*
X13214960Y-11942926D01*
X13214960Y-11942926D02*
X13214960Y-11961974D01*
X13348293Y-11761974D02*
X13367341Y-11761974D01*
X13367341Y-11761974D02*
X13386388Y-11771498D01*
X13386388Y-11771498D02*
X13395912Y-11781021D01*
X13395912Y-11781021D02*
X13405436Y-11800069D01*
X13405436Y-11800069D02*
X13414960Y-11838164D01*
X13414960Y-11838164D02*
X13414960Y-11885783D01*
X13414960Y-11885783D02*
X13405436Y-11923878D01*
X13405436Y-11923878D02*
X13395912Y-11942926D01*
X13395912Y-11942926D02*
X13386388Y-11952450D01*
X13386388Y-11952450D02*
X13367341Y-11961974D01*
X13367341Y-11961974D02*
X13348293Y-11961974D01*
X13348293Y-11961974D02*
X13329245Y-11952450D01*
X13329245Y-11952450D02*
X13319721Y-11942926D01*
X13319721Y-11942926D02*
X13310198Y-11923878D01*
X13310198Y-11923878D02*
X13300674Y-11885783D01*
X13300674Y-11885783D02*
X13300674Y-11838164D01*
X13300674Y-11838164D02*
X13310198Y-11800069D01*
X13310198Y-11800069D02*
X13319721Y-11781021D01*
X13319721Y-11781021D02*
X13329245Y-11771498D01*
X13329245Y-11771498D02*
X13348293Y-11761974D01*
X13538769Y-11761974D02*
X13557817Y-11761974D01*
X13557817Y-11761974D02*
X13576864Y-11771498D01*
X13576864Y-11771498D02*
X13586388Y-11781021D01*
X13586388Y-11781021D02*
X13595912Y-11800069D01*
X13595912Y-11800069D02*
X13605436Y-11838164D01*
X13605436Y-11838164D02*
X13605436Y-11885783D01*
X13605436Y-11885783D02*
X13595912Y-11923878D01*
X13595912Y-11923878D02*
X13586388Y-11942926D01*
X13586388Y-11942926D02*
X13576864Y-11952450D01*
X13576864Y-11952450D02*
X13557817Y-11961974D01*
X13557817Y-11961974D02*
X13538769Y-11961974D01*
X13538769Y-11961974D02*
X13519721Y-11952450D01*
X13519721Y-11952450D02*
X13510198Y-11942926D01*
X13510198Y-11942926D02*
X13500674Y-11923878D01*
X13500674Y-11923878D02*
X13491150Y-11885783D01*
X13491150Y-11885783D02*
X13491150Y-11838164D01*
X13491150Y-11838164D02*
X13500674Y-11800069D01*
X13500674Y-11800069D02*
X13510198Y-11781021D01*
X13510198Y-11781021D02*
X13519721Y-11771498D01*
X13519721Y-11771498D02*
X13538769Y-11761974D01*
X13729245Y-11761974D02*
X13748293Y-11761974D01*
X13748293Y-11761974D02*
X13767341Y-11771498D01*
X13767341Y-11771498D02*
X13776864Y-11781021D01*
X13776864Y-11781021D02*
X13786388Y-11800069D01*
X13786388Y-11800069D02*
X13795912Y-11838164D01*
X13795912Y-11838164D02*
X13795912Y-11885783D01*
X13795912Y-11885783D02*
X13786388Y-11923878D01*
X13786388Y-11923878D02*
X13776864Y-11942926D01*
X13776864Y-11942926D02*
X13767341Y-11952450D01*
X13767341Y-11952450D02*
X13748293Y-11961974D01*
X13748293Y-11961974D02*
X13729245Y-11961974D01*
X13729245Y-11961974D02*
X13710198Y-11952450D01*
X13710198Y-11952450D02*
X13700674Y-11942926D01*
X13700674Y-11942926D02*
X13691150Y-11923878D01*
X13691150Y-11923878D02*
X13681626Y-11885783D01*
X13681626Y-11885783D02*
X13681626Y-11838164D01*
X13681626Y-11838164D02*
X13691150Y-11800069D01*
X13691150Y-11800069D02*
X13700674Y-11781021D01*
X13700674Y-11781021D02*
X13710198Y-11771498D01*
X13710198Y-11771498D02*
X13729245Y-11761974D01*
X13881626Y-11961974D02*
X13881626Y-11828640D01*
X13881626Y-11847688D02*
X13891150Y-11838164D01*
X13891150Y-11838164D02*
X13910198Y-11828640D01*
X13910198Y-11828640D02*
X13938769Y-11828640D01*
X13938769Y-11828640D02*
X13957817Y-11838164D01*
X13957817Y-11838164D02*
X13967341Y-11857212D01*
X13967341Y-11857212D02*
X13967341Y-11961974D01*
X13967341Y-11857212D02*
X13976864Y-11838164D01*
X13976864Y-11838164D02*
X13995912Y-11828640D01*
X13995912Y-11828640D02*
X14024483Y-11828640D01*
X14024483Y-11828640D02*
X14043531Y-11838164D01*
X14043531Y-11838164D02*
X14053055Y-11857212D01*
X14053055Y-11857212D02*
X14053055Y-11961974D01*
X14148293Y-11961974D02*
X14148293Y-11828640D01*
X14148293Y-11847688D02*
X14157817Y-11838164D01*
X14157817Y-11838164D02*
X14176864Y-11828640D01*
X14176864Y-11828640D02*
X14205436Y-11828640D01*
X14205436Y-11828640D02*
X14224483Y-11838164D01*
X14224483Y-11838164D02*
X14234007Y-11857212D01*
X14234007Y-11857212D02*
X14234007Y-11961974D01*
X14234007Y-11857212D02*
X14243531Y-11838164D01*
X14243531Y-11838164D02*
X14262579Y-11828640D01*
X14262579Y-11828640D02*
X14291150Y-11828640D01*
X14291150Y-11828640D02*
X14310198Y-11838164D01*
X14310198Y-11838164D02*
X14319722Y-11857212D01*
X14319722Y-11857212D02*
X14319722Y-11961974D01*
X14710198Y-11752450D02*
X14538769Y-12009593D01*
X14967341Y-11761974D02*
X14986388Y-11761974D01*
X14986388Y-11761974D02*
X15005436Y-11771498D01*
X15005436Y-11771498D02*
X15014960Y-11781021D01*
X15014960Y-11781021D02*
X15024484Y-11800069D01*
X15024484Y-11800069D02*
X15034007Y-11838164D01*
X15034007Y-11838164D02*
X15034007Y-11885783D01*
X15034007Y-11885783D02*
X15024484Y-11923878D01*
X15024484Y-11923878D02*
X15014960Y-11942926D01*
X15014960Y-11942926D02*
X15005436Y-11952450D01*
X15005436Y-11952450D02*
X14986388Y-11961974D01*
X14986388Y-11961974D02*
X14967341Y-11961974D01*
X14967341Y-11961974D02*
X14948293Y-11952450D01*
X14948293Y-11952450D02*
X14938769Y-11942926D01*
X14938769Y-11942926D02*
X14929245Y-11923878D01*
X14929245Y-11923878D02*
X14919722Y-11885783D01*
X14919722Y-11885783D02*
X14919722Y-11838164D01*
X14919722Y-11838164D02*
X14929245Y-11800069D01*
X14929245Y-11800069D02*
X14938769Y-11781021D01*
X14938769Y-11781021D02*
X14948293Y-11771498D01*
X14948293Y-11771498D02*
X14967341Y-11761974D01*
X15119722Y-11942926D02*
X15129245Y-11952450D01*
X15129245Y-11952450D02*
X15119722Y-11961974D01*
X15119722Y-11961974D02*
X15110198Y-11952450D01*
X15110198Y-11952450D02*
X15119722Y-11942926D01*
X15119722Y-11942926D02*
X15119722Y-11961974D01*
X15253055Y-11761974D02*
X15272103Y-11761974D01*
X15272103Y-11761974D02*
X15291150Y-11771498D01*
X15291150Y-11771498D02*
X15300674Y-11781021D01*
X15300674Y-11781021D02*
X15310198Y-11800069D01*
X15310198Y-11800069D02*
X15319722Y-11838164D01*
X15319722Y-11838164D02*
X15319722Y-11885783D01*
X15319722Y-11885783D02*
X15310198Y-11923878D01*
X15310198Y-11923878D02*
X15300674Y-11942926D01*
X15300674Y-11942926D02*
X15291150Y-11952450D01*
X15291150Y-11952450D02*
X15272103Y-11961974D01*
X15272103Y-11961974D02*
X15253055Y-11961974D01*
X15253055Y-11961974D02*
X15234007Y-11952450D01*
X15234007Y-11952450D02*
X15224484Y-11942926D01*
X15224484Y-11942926D02*
X15214960Y-11923878D01*
X15214960Y-11923878D02*
X15205436Y-11885783D01*
X15205436Y-11885783D02*
X15205436Y-11838164D01*
X15205436Y-11838164D02*
X15214960Y-11800069D01*
X15214960Y-11800069D02*
X15224484Y-11781021D01*
X15224484Y-11781021D02*
X15234007Y-11771498D01*
X15234007Y-11771498D02*
X15253055Y-11761974D01*
X15386388Y-11761974D02*
X15510198Y-11761974D01*
X15510198Y-11761974D02*
X15443531Y-11838164D01*
X15443531Y-11838164D02*
X15472103Y-11838164D01*
X15472103Y-11838164D02*
X15491150Y-11847688D01*
X15491150Y-11847688D02*
X15500674Y-11857212D01*
X15500674Y-11857212D02*
X15510198Y-11876259D01*
X15510198Y-11876259D02*
X15510198Y-11923878D01*
X15510198Y-11923878D02*
X15500674Y-11942926D01*
X15500674Y-11942926D02*
X15491150Y-11952450D01*
X15491150Y-11952450D02*
X15472103Y-11961974D01*
X15472103Y-11961974D02*
X15414960Y-11961974D01*
X15414960Y-11961974D02*
X15395912Y-11952450D01*
X15395912Y-11952450D02*
X15386388Y-11942926D01*
X15605436Y-11961974D02*
X15643531Y-11961974D01*
X15643531Y-11961974D02*
X15662579Y-11952450D01*
X15662579Y-11952450D02*
X15672103Y-11942926D01*
X15672103Y-11942926D02*
X15691150Y-11914355D01*
X15691150Y-11914355D02*
X15700674Y-11876259D01*
X15700674Y-11876259D02*
X15700674Y-11800069D01*
X15700674Y-11800069D02*
X15691150Y-11781021D01*
X15691150Y-11781021D02*
X15681626Y-11771498D01*
X15681626Y-11771498D02*
X15662579Y-11761974D01*
X15662579Y-11761974D02*
X15624484Y-11761974D01*
X15624484Y-11761974D02*
X15605436Y-11771498D01*
X15605436Y-11771498D02*
X15595912Y-11781021D01*
X15595912Y-11781021D02*
X15586388Y-11800069D01*
X15586388Y-11800069D02*
X15586388Y-11847688D01*
X15586388Y-11847688D02*
X15595912Y-11866736D01*
X15595912Y-11866736D02*
X15605436Y-11876259D01*
X15605436Y-11876259D02*
X15624484Y-11885783D01*
X15624484Y-11885783D02*
X15662579Y-11885783D01*
X15662579Y-11885783D02*
X15681626Y-11876259D01*
X15681626Y-11876259D02*
X15691150Y-11866736D01*
X15691150Y-11866736D02*
X15700674Y-11847688D01*
X15872103Y-11828640D02*
X15872103Y-11961974D01*
X15824484Y-11752450D02*
X15776865Y-11895307D01*
X15776865Y-11895307D02*
X15900674Y-11895307D01*
X15967341Y-11761974D02*
X15967341Y-11800069D01*
X16043531Y-11761974D02*
X16043531Y-11800069D01*
X16338769Y-12038164D02*
X16329246Y-12028640D01*
X16329246Y-12028640D02*
X16310198Y-12000069D01*
X16310198Y-12000069D02*
X16300674Y-11981021D01*
X16300674Y-11981021D02*
X16291150Y-11952450D01*
X16291150Y-11952450D02*
X16281627Y-11904831D01*
X16281627Y-11904831D02*
X16281627Y-11866736D01*
X16281627Y-11866736D02*
X16291150Y-11819117D01*
X16291150Y-11819117D02*
X16300674Y-11790545D01*
X16300674Y-11790545D02*
X16310198Y-11771498D01*
X16310198Y-11771498D02*
X16329246Y-11742926D01*
X16329246Y-11742926D02*
X16338769Y-11733402D01*
X16519722Y-11961974D02*
X16405436Y-11961974D01*
X16462579Y-11961974D02*
X16462579Y-11761974D01*
X16462579Y-11761974D02*
X16443531Y-11790545D01*
X16443531Y-11790545D02*
X16424484Y-11809593D01*
X16424484Y-11809593D02*
X16405436Y-11819117D01*
X16634007Y-11847688D02*
X16614960Y-11838164D01*
X16614960Y-11838164D02*
X16605436Y-11828640D01*
X16605436Y-11828640D02*
X16595912Y-11809593D01*
X16595912Y-11809593D02*
X16595912Y-11800069D01*
X16595912Y-11800069D02*
X16605436Y-11781021D01*
X16605436Y-11781021D02*
X16614960Y-11771498D01*
X16614960Y-11771498D02*
X16634007Y-11761974D01*
X16634007Y-11761974D02*
X16672103Y-11761974D01*
X16672103Y-11761974D02*
X16691150Y-11771498D01*
X16691150Y-11771498D02*
X16700674Y-11781021D01*
X16700674Y-11781021D02*
X16710198Y-11800069D01*
X16710198Y-11800069D02*
X16710198Y-11809593D01*
X16710198Y-11809593D02*
X16700674Y-11828640D01*
X16700674Y-11828640D02*
X16691150Y-11838164D01*
X16691150Y-11838164D02*
X16672103Y-11847688D01*
X16672103Y-11847688D02*
X16634007Y-11847688D01*
X16634007Y-11847688D02*
X16614960Y-11857212D01*
X16614960Y-11857212D02*
X16605436Y-11866736D01*
X16605436Y-11866736D02*
X16595912Y-11885783D01*
X16595912Y-11885783D02*
X16595912Y-11923878D01*
X16595912Y-11923878D02*
X16605436Y-11942926D01*
X16605436Y-11942926D02*
X16614960Y-11952450D01*
X16614960Y-11952450D02*
X16634007Y-11961974D01*
X16634007Y-11961974D02*
X16672103Y-11961974D01*
X16672103Y-11961974D02*
X16691150Y-11952450D01*
X16691150Y-11952450D02*
X16700674Y-11942926D01*
X16700674Y-11942926D02*
X16710198Y-11923878D01*
X16710198Y-11923878D02*
X16710198Y-11885783D01*
X16710198Y-11885783D02*
X16700674Y-11866736D01*
X16700674Y-11866736D02*
X16691150Y-11857212D01*
X16691150Y-11857212D02*
X16672103Y-11847688D01*
X16948293Y-11961974D02*
X16948293Y-11761974D01*
X17034008Y-11961974D02*
X17034008Y-11857212D01*
X17034008Y-11857212D02*
X17024484Y-11838164D01*
X17024484Y-11838164D02*
X17005436Y-11828640D01*
X17005436Y-11828640D02*
X16976865Y-11828640D01*
X16976865Y-11828640D02*
X16957817Y-11838164D01*
X16957817Y-11838164D02*
X16948293Y-11847688D01*
X17157817Y-11961974D02*
X17138770Y-11952450D01*
X17138770Y-11952450D02*
X17129246Y-11942926D01*
X17129246Y-11942926D02*
X17119722Y-11923878D01*
X17119722Y-11923878D02*
X17119722Y-11866736D01*
X17119722Y-11866736D02*
X17129246Y-11847688D01*
X17129246Y-11847688D02*
X17138770Y-11838164D01*
X17138770Y-11838164D02*
X17157817Y-11828640D01*
X17157817Y-11828640D02*
X17186389Y-11828640D01*
X17186389Y-11828640D02*
X17205436Y-11838164D01*
X17205436Y-11838164D02*
X17214960Y-11847688D01*
X17214960Y-11847688D02*
X17224484Y-11866736D01*
X17224484Y-11866736D02*
X17224484Y-11923878D01*
X17224484Y-11923878D02*
X17214960Y-11942926D01*
X17214960Y-11942926D02*
X17205436Y-11952450D01*
X17205436Y-11952450D02*
X17186389Y-11961974D01*
X17186389Y-11961974D02*
X17157817Y-11961974D01*
X17338770Y-11961974D02*
X17319722Y-11952450D01*
X17319722Y-11952450D02*
X17310198Y-11933402D01*
X17310198Y-11933402D02*
X17310198Y-11761974D01*
X17491151Y-11952450D02*
X17472103Y-11961974D01*
X17472103Y-11961974D02*
X17434008Y-11961974D01*
X17434008Y-11961974D02*
X17414960Y-11952450D01*
X17414960Y-11952450D02*
X17405436Y-11933402D01*
X17405436Y-11933402D02*
X17405436Y-11857212D01*
X17405436Y-11857212D02*
X17414960Y-11838164D01*
X17414960Y-11838164D02*
X17434008Y-11828640D01*
X17434008Y-11828640D02*
X17472103Y-11828640D01*
X17472103Y-11828640D02*
X17491151Y-11838164D01*
X17491151Y-11838164D02*
X17500674Y-11857212D01*
X17500674Y-11857212D02*
X17500674Y-11876259D01*
X17500674Y-11876259D02*
X17405436Y-11895307D01*
X17576865Y-11952450D02*
X17595912Y-11961974D01*
X17595912Y-11961974D02*
X17634008Y-11961974D01*
X17634008Y-11961974D02*
X17653055Y-11952450D01*
X17653055Y-11952450D02*
X17662579Y-11933402D01*
X17662579Y-11933402D02*
X17662579Y-11923878D01*
X17662579Y-11923878D02*
X17653055Y-11904831D01*
X17653055Y-11904831D02*
X17634008Y-11895307D01*
X17634008Y-11895307D02*
X17605436Y-11895307D01*
X17605436Y-11895307D02*
X17586389Y-11885783D01*
X17586389Y-11885783D02*
X17576865Y-11866736D01*
X17576865Y-11866736D02*
X17576865Y-11857212D01*
X17576865Y-11857212D02*
X17586389Y-11838164D01*
X17586389Y-11838164D02*
X17605436Y-11828640D01*
X17605436Y-11828640D02*
X17634008Y-11828640D01*
X17634008Y-11828640D02*
X17653055Y-11838164D01*
X17729246Y-12038164D02*
X17738770Y-12028640D01*
X17738770Y-12028640D02*
X17757817Y-12000069D01*
X17757817Y-12000069D02*
X17767341Y-11981021D01*
X17767341Y-11981021D02*
X17776865Y-11952450D01*
X17776865Y-11952450D02*
X17786389Y-11904831D01*
X17786389Y-11904831D02*
X17786389Y-11866736D01*
X17786389Y-11866736D02*
X17776865Y-11819117D01*
X17776865Y-11819117D02*
X17767341Y-11790545D01*
X17767341Y-11790545D02*
X17757817Y-11771498D01*
X17757817Y-11771498D02*
X17738770Y-11742926D01*
X17738770Y-11742926D02*
X17729246Y-11733402D01*
X12663707Y-12234490D02*
X12763707Y-12134490D01*
X12663707Y-12034490D01*
X12563707Y-12134490D01*
X12663707Y-12234490D01*
X13014960Y-12045021D02*
X13024483Y-12035498D01*
X13024483Y-12035498D02*
X13043531Y-12025974D01*
X13043531Y-12025974D02*
X13091150Y-12025974D01*
X13091150Y-12025974D02*
X13110198Y-12035498D01*
X13110198Y-12035498D02*
X13119721Y-12045021D01*
X13119721Y-12045021D02*
X13129245Y-12064069D01*
X13129245Y-12064069D02*
X13129245Y-12083117D01*
X13129245Y-12083117D02*
X13119721Y-12111688D01*
X13119721Y-12111688D02*
X13005436Y-12225974D01*
X13005436Y-12225974D02*
X13129245Y-12225974D01*
X13214960Y-12206926D02*
X13224483Y-12216450D01*
X13224483Y-12216450D02*
X13214960Y-12225974D01*
X13214960Y-12225974D02*
X13205436Y-12216450D01*
X13205436Y-12216450D02*
X13214960Y-12206926D01*
X13214960Y-12206926D02*
X13214960Y-12225974D01*
X13300674Y-12045021D02*
X13310198Y-12035498D01*
X13310198Y-12035498D02*
X13329245Y-12025974D01*
X13329245Y-12025974D02*
X13376864Y-12025974D01*
X13376864Y-12025974D02*
X13395912Y-12035498D01*
X13395912Y-12035498D02*
X13405436Y-12045021D01*
X13405436Y-12045021D02*
X13414960Y-12064069D01*
X13414960Y-12064069D02*
X13414960Y-12083117D01*
X13414960Y-12083117D02*
X13405436Y-12111688D01*
X13405436Y-12111688D02*
X13291150Y-12225974D01*
X13291150Y-12225974D02*
X13414960Y-12225974D01*
X13538769Y-12025974D02*
X13557817Y-12025974D01*
X13557817Y-12025974D02*
X13576864Y-12035498D01*
X13576864Y-12035498D02*
X13586388Y-12045021D01*
X13586388Y-12045021D02*
X13595912Y-12064069D01*
X13595912Y-12064069D02*
X13605436Y-12102164D01*
X13605436Y-12102164D02*
X13605436Y-12149783D01*
X13605436Y-12149783D02*
X13595912Y-12187878D01*
X13595912Y-12187878D02*
X13586388Y-12206926D01*
X13586388Y-12206926D02*
X13576864Y-12216450D01*
X13576864Y-12216450D02*
X13557817Y-12225974D01*
X13557817Y-12225974D02*
X13538769Y-12225974D01*
X13538769Y-12225974D02*
X13519721Y-12216450D01*
X13519721Y-12216450D02*
X13510198Y-12206926D01*
X13510198Y-12206926D02*
X13500674Y-12187878D01*
X13500674Y-12187878D02*
X13491150Y-12149783D01*
X13491150Y-12149783D02*
X13491150Y-12102164D01*
X13491150Y-12102164D02*
X13500674Y-12064069D01*
X13500674Y-12064069D02*
X13510198Y-12045021D01*
X13510198Y-12045021D02*
X13519721Y-12035498D01*
X13519721Y-12035498D02*
X13538769Y-12025974D01*
X13729245Y-12025974D02*
X13748293Y-12025974D01*
X13748293Y-12025974D02*
X13767341Y-12035498D01*
X13767341Y-12035498D02*
X13776864Y-12045021D01*
X13776864Y-12045021D02*
X13786388Y-12064069D01*
X13786388Y-12064069D02*
X13795912Y-12102164D01*
X13795912Y-12102164D02*
X13795912Y-12149783D01*
X13795912Y-12149783D02*
X13786388Y-12187878D01*
X13786388Y-12187878D02*
X13776864Y-12206926D01*
X13776864Y-12206926D02*
X13767341Y-12216450D01*
X13767341Y-12216450D02*
X13748293Y-12225974D01*
X13748293Y-12225974D02*
X13729245Y-12225974D01*
X13729245Y-12225974D02*
X13710198Y-12216450D01*
X13710198Y-12216450D02*
X13700674Y-12206926D01*
X13700674Y-12206926D02*
X13691150Y-12187878D01*
X13691150Y-12187878D02*
X13681626Y-12149783D01*
X13681626Y-12149783D02*
X13681626Y-12102164D01*
X13681626Y-12102164D02*
X13691150Y-12064069D01*
X13691150Y-12064069D02*
X13700674Y-12045021D01*
X13700674Y-12045021D02*
X13710198Y-12035498D01*
X13710198Y-12035498D02*
X13729245Y-12025974D01*
X13881626Y-12225974D02*
X13881626Y-12092640D01*
X13881626Y-12111688D02*
X13891150Y-12102164D01*
X13891150Y-12102164D02*
X13910198Y-12092640D01*
X13910198Y-12092640D02*
X13938769Y-12092640D01*
X13938769Y-12092640D02*
X13957817Y-12102164D01*
X13957817Y-12102164D02*
X13967341Y-12121212D01*
X13967341Y-12121212D02*
X13967341Y-12225974D01*
X13967341Y-12121212D02*
X13976864Y-12102164D01*
X13976864Y-12102164D02*
X13995912Y-12092640D01*
X13995912Y-12092640D02*
X14024483Y-12092640D01*
X14024483Y-12092640D02*
X14043531Y-12102164D01*
X14043531Y-12102164D02*
X14053055Y-12121212D01*
X14053055Y-12121212D02*
X14053055Y-12225974D01*
X14148293Y-12225974D02*
X14148293Y-12092640D01*
X14148293Y-12111688D02*
X14157817Y-12102164D01*
X14157817Y-12102164D02*
X14176864Y-12092640D01*
X14176864Y-12092640D02*
X14205436Y-12092640D01*
X14205436Y-12092640D02*
X14224483Y-12102164D01*
X14224483Y-12102164D02*
X14234007Y-12121212D01*
X14234007Y-12121212D02*
X14234007Y-12225974D01*
X14234007Y-12121212D02*
X14243531Y-12102164D01*
X14243531Y-12102164D02*
X14262579Y-12092640D01*
X14262579Y-12092640D02*
X14291150Y-12092640D01*
X14291150Y-12092640D02*
X14310198Y-12102164D01*
X14310198Y-12102164D02*
X14319722Y-12121212D01*
X14319722Y-12121212D02*
X14319722Y-12225974D01*
X14710198Y-12016450D02*
X14538769Y-12273593D01*
X14967341Y-12025974D02*
X14986388Y-12025974D01*
X14986388Y-12025974D02*
X15005436Y-12035498D01*
X15005436Y-12035498D02*
X15014960Y-12045021D01*
X15014960Y-12045021D02*
X15024484Y-12064069D01*
X15024484Y-12064069D02*
X15034007Y-12102164D01*
X15034007Y-12102164D02*
X15034007Y-12149783D01*
X15034007Y-12149783D02*
X15024484Y-12187878D01*
X15024484Y-12187878D02*
X15014960Y-12206926D01*
X15014960Y-12206926D02*
X15005436Y-12216450D01*
X15005436Y-12216450D02*
X14986388Y-12225974D01*
X14986388Y-12225974D02*
X14967341Y-12225974D01*
X14967341Y-12225974D02*
X14948293Y-12216450D01*
X14948293Y-12216450D02*
X14938769Y-12206926D01*
X14938769Y-12206926D02*
X14929245Y-12187878D01*
X14929245Y-12187878D02*
X14919722Y-12149783D01*
X14919722Y-12149783D02*
X14919722Y-12102164D01*
X14919722Y-12102164D02*
X14929245Y-12064069D01*
X14929245Y-12064069D02*
X14938769Y-12045021D01*
X14938769Y-12045021D02*
X14948293Y-12035498D01*
X14948293Y-12035498D02*
X14967341Y-12025974D01*
X15119722Y-12206926D02*
X15129245Y-12216450D01*
X15129245Y-12216450D02*
X15119722Y-12225974D01*
X15119722Y-12225974D02*
X15110198Y-12216450D01*
X15110198Y-12216450D02*
X15119722Y-12206926D01*
X15119722Y-12206926D02*
X15119722Y-12225974D01*
X15253055Y-12025974D02*
X15272103Y-12025974D01*
X15272103Y-12025974D02*
X15291150Y-12035498D01*
X15291150Y-12035498D02*
X15300674Y-12045021D01*
X15300674Y-12045021D02*
X15310198Y-12064069D01*
X15310198Y-12064069D02*
X15319722Y-12102164D01*
X15319722Y-12102164D02*
X15319722Y-12149783D01*
X15319722Y-12149783D02*
X15310198Y-12187878D01*
X15310198Y-12187878D02*
X15300674Y-12206926D01*
X15300674Y-12206926D02*
X15291150Y-12216450D01*
X15291150Y-12216450D02*
X15272103Y-12225974D01*
X15272103Y-12225974D02*
X15253055Y-12225974D01*
X15253055Y-12225974D02*
X15234007Y-12216450D01*
X15234007Y-12216450D02*
X15224484Y-12206926D01*
X15224484Y-12206926D02*
X15214960Y-12187878D01*
X15214960Y-12187878D02*
X15205436Y-12149783D01*
X15205436Y-12149783D02*
X15205436Y-12102164D01*
X15205436Y-12102164D02*
X15214960Y-12064069D01*
X15214960Y-12064069D02*
X15224484Y-12045021D01*
X15224484Y-12045021D02*
X15234007Y-12035498D01*
X15234007Y-12035498D02*
X15253055Y-12025974D01*
X15434007Y-12111688D02*
X15414960Y-12102164D01*
X15414960Y-12102164D02*
X15405436Y-12092640D01*
X15405436Y-12092640D02*
X15395912Y-12073593D01*
X15395912Y-12073593D02*
X15395912Y-12064069D01*
X15395912Y-12064069D02*
X15405436Y-12045021D01*
X15405436Y-12045021D02*
X15414960Y-12035498D01*
X15414960Y-12035498D02*
X15434007Y-12025974D01*
X15434007Y-12025974D02*
X15472103Y-12025974D01*
X15472103Y-12025974D02*
X15491150Y-12035498D01*
X15491150Y-12035498D02*
X15500674Y-12045021D01*
X15500674Y-12045021D02*
X15510198Y-12064069D01*
X15510198Y-12064069D02*
X15510198Y-12073593D01*
X15510198Y-12073593D02*
X15500674Y-12092640D01*
X15500674Y-12092640D02*
X15491150Y-12102164D01*
X15491150Y-12102164D02*
X15472103Y-12111688D01*
X15472103Y-12111688D02*
X15434007Y-12111688D01*
X15434007Y-12111688D02*
X15414960Y-12121212D01*
X15414960Y-12121212D02*
X15405436Y-12130736D01*
X15405436Y-12130736D02*
X15395912Y-12149783D01*
X15395912Y-12149783D02*
X15395912Y-12187878D01*
X15395912Y-12187878D02*
X15405436Y-12206926D01*
X15405436Y-12206926D02*
X15414960Y-12216450D01*
X15414960Y-12216450D02*
X15434007Y-12225974D01*
X15434007Y-12225974D02*
X15472103Y-12225974D01*
X15472103Y-12225974D02*
X15491150Y-12216450D01*
X15491150Y-12216450D02*
X15500674Y-12206926D01*
X15500674Y-12206926D02*
X15510198Y-12187878D01*
X15510198Y-12187878D02*
X15510198Y-12149783D01*
X15510198Y-12149783D02*
X15500674Y-12130736D01*
X15500674Y-12130736D02*
X15491150Y-12121212D01*
X15491150Y-12121212D02*
X15472103Y-12111688D01*
X15681626Y-12025974D02*
X15643531Y-12025974D01*
X15643531Y-12025974D02*
X15624484Y-12035498D01*
X15624484Y-12035498D02*
X15614960Y-12045021D01*
X15614960Y-12045021D02*
X15595912Y-12073593D01*
X15595912Y-12073593D02*
X15586388Y-12111688D01*
X15586388Y-12111688D02*
X15586388Y-12187878D01*
X15586388Y-12187878D02*
X15595912Y-12206926D01*
X15595912Y-12206926D02*
X15605436Y-12216450D01*
X15605436Y-12216450D02*
X15624484Y-12225974D01*
X15624484Y-12225974D02*
X15662579Y-12225974D01*
X15662579Y-12225974D02*
X15681626Y-12216450D01*
X15681626Y-12216450D02*
X15691150Y-12206926D01*
X15691150Y-12206926D02*
X15700674Y-12187878D01*
X15700674Y-12187878D02*
X15700674Y-12140259D01*
X15700674Y-12140259D02*
X15691150Y-12121212D01*
X15691150Y-12121212D02*
X15681626Y-12111688D01*
X15681626Y-12111688D02*
X15662579Y-12102164D01*
X15662579Y-12102164D02*
X15624484Y-12102164D01*
X15624484Y-12102164D02*
X15605436Y-12111688D01*
X15605436Y-12111688D02*
X15595912Y-12121212D01*
X15595912Y-12121212D02*
X15586388Y-12140259D01*
X15872103Y-12025974D02*
X15834007Y-12025974D01*
X15834007Y-12025974D02*
X15814960Y-12035498D01*
X15814960Y-12035498D02*
X15805436Y-12045021D01*
X15805436Y-12045021D02*
X15786388Y-12073593D01*
X15786388Y-12073593D02*
X15776865Y-12111688D01*
X15776865Y-12111688D02*
X15776865Y-12187878D01*
X15776865Y-12187878D02*
X15786388Y-12206926D01*
X15786388Y-12206926D02*
X15795912Y-12216450D01*
X15795912Y-12216450D02*
X15814960Y-12225974D01*
X15814960Y-12225974D02*
X15853055Y-12225974D01*
X15853055Y-12225974D02*
X15872103Y-12216450D01*
X15872103Y-12216450D02*
X15881626Y-12206926D01*
X15881626Y-12206926D02*
X15891150Y-12187878D01*
X15891150Y-12187878D02*
X15891150Y-12140259D01*
X15891150Y-12140259D02*
X15881626Y-12121212D01*
X15881626Y-12121212D02*
X15872103Y-12111688D01*
X15872103Y-12111688D02*
X15853055Y-12102164D01*
X15853055Y-12102164D02*
X15814960Y-12102164D01*
X15814960Y-12102164D02*
X15795912Y-12111688D01*
X15795912Y-12111688D02*
X15786388Y-12121212D01*
X15786388Y-12121212D02*
X15776865Y-12140259D01*
X15967341Y-12025974D02*
X15967341Y-12064069D01*
X16043531Y-12025974D02*
X16043531Y-12064069D01*
X16338769Y-12302164D02*
X16329246Y-12292640D01*
X16329246Y-12292640D02*
X16310198Y-12264069D01*
X16310198Y-12264069D02*
X16300674Y-12245021D01*
X16300674Y-12245021D02*
X16291150Y-12216450D01*
X16291150Y-12216450D02*
X16281627Y-12168831D01*
X16281627Y-12168831D02*
X16281627Y-12130736D01*
X16281627Y-12130736D02*
X16291150Y-12083117D01*
X16291150Y-12083117D02*
X16300674Y-12054545D01*
X16300674Y-12054545D02*
X16310198Y-12035498D01*
X16310198Y-12035498D02*
X16329246Y-12006926D01*
X16329246Y-12006926D02*
X16338769Y-11997402D01*
X16500674Y-12092640D02*
X16500674Y-12225974D01*
X16453055Y-12016450D02*
X16405436Y-12159307D01*
X16405436Y-12159307D02*
X16529246Y-12159307D01*
X16757817Y-12225974D02*
X16757817Y-12025974D01*
X16843531Y-12225974D02*
X16843531Y-12121212D01*
X16843531Y-12121212D02*
X16834008Y-12102164D01*
X16834008Y-12102164D02*
X16814960Y-12092640D01*
X16814960Y-12092640D02*
X16786389Y-12092640D01*
X16786389Y-12092640D02*
X16767341Y-12102164D01*
X16767341Y-12102164D02*
X16757817Y-12111688D01*
X16967341Y-12225974D02*
X16948293Y-12216450D01*
X16948293Y-12216450D02*
X16938770Y-12206926D01*
X16938770Y-12206926D02*
X16929246Y-12187878D01*
X16929246Y-12187878D02*
X16929246Y-12130736D01*
X16929246Y-12130736D02*
X16938770Y-12111688D01*
X16938770Y-12111688D02*
X16948293Y-12102164D01*
X16948293Y-12102164D02*
X16967341Y-12092640D01*
X16967341Y-12092640D02*
X16995912Y-12092640D01*
X16995912Y-12092640D02*
X17014960Y-12102164D01*
X17014960Y-12102164D02*
X17024484Y-12111688D01*
X17024484Y-12111688D02*
X17034008Y-12130736D01*
X17034008Y-12130736D02*
X17034008Y-12187878D01*
X17034008Y-12187878D02*
X17024484Y-12206926D01*
X17024484Y-12206926D02*
X17014960Y-12216450D01*
X17014960Y-12216450D02*
X16995912Y-12225974D01*
X16995912Y-12225974D02*
X16967341Y-12225974D01*
X17148293Y-12225974D02*
X17129246Y-12216450D01*
X17129246Y-12216450D02*
X17119722Y-12197402D01*
X17119722Y-12197402D02*
X17119722Y-12025974D01*
X17300674Y-12216450D02*
X17281627Y-12225974D01*
X17281627Y-12225974D02*
X17243531Y-12225974D01*
X17243531Y-12225974D02*
X17224484Y-12216450D01*
X17224484Y-12216450D02*
X17214960Y-12197402D01*
X17214960Y-12197402D02*
X17214960Y-12121212D01*
X17214960Y-12121212D02*
X17224484Y-12102164D01*
X17224484Y-12102164D02*
X17243531Y-12092640D01*
X17243531Y-12092640D02*
X17281627Y-12092640D01*
X17281627Y-12092640D02*
X17300674Y-12102164D01*
X17300674Y-12102164D02*
X17310198Y-12121212D01*
X17310198Y-12121212D02*
X17310198Y-12140259D01*
X17310198Y-12140259D02*
X17214960Y-12159307D01*
X17386389Y-12216450D02*
X17405436Y-12225974D01*
X17405436Y-12225974D02*
X17443531Y-12225974D01*
X17443531Y-12225974D02*
X17462579Y-12216450D01*
X17462579Y-12216450D02*
X17472103Y-12197402D01*
X17472103Y-12197402D02*
X17472103Y-12187878D01*
X17472103Y-12187878D02*
X17462579Y-12168831D01*
X17462579Y-12168831D02*
X17443531Y-12159307D01*
X17443531Y-12159307D02*
X17414960Y-12159307D01*
X17414960Y-12159307D02*
X17395912Y-12149783D01*
X17395912Y-12149783D02*
X17386389Y-12130736D01*
X17386389Y-12130736D02*
X17386389Y-12121212D01*
X17386389Y-12121212D02*
X17395912Y-12102164D01*
X17395912Y-12102164D02*
X17414960Y-12092640D01*
X17414960Y-12092640D02*
X17443531Y-12092640D01*
X17443531Y-12092640D02*
X17462579Y-12102164D01*
X17538770Y-12302164D02*
X17548293Y-12292640D01*
X17548293Y-12292640D02*
X17567341Y-12264069D01*
X17567341Y-12264069D02*
X17576865Y-12245021D01*
X17576865Y-12245021D02*
X17586389Y-12216450D01*
X17586389Y-12216450D02*
X17595912Y-12168831D01*
X17595912Y-12168831D02*
X17595912Y-12130736D01*
X17595912Y-12130736D02*
X17586389Y-12083117D01*
X17586389Y-12083117D02*
X17576865Y-12054545D01*
X17576865Y-12054545D02*
X17567341Y-12035498D01*
X17567341Y-12035498D02*
X17548293Y-12006926D01*
X17548293Y-12006926D02*
X17538770Y-11997402D01*
M02*
