G04 #@! TF.GenerationSoftware,KiCad,Pcbnew,8.0.2*
G04 #@! TF.CreationDate,2024-08-30T13:40:58-03:00*
G04 #@! TF.ProjectId,Comunication Board,436f6d75-6e69-4636-9174-696f6e20426f,rev?*
G04 #@! TF.SameCoordinates,Original*
G04 #@! TF.FileFunction,Copper,L1,Top*
G04 #@! TF.FilePolarity,Positive*
%FSLAX46Y46*%
G04 Gerber Fmt 4.6, Leading zero omitted, Abs format (unit mm)*
G04 Created by KiCad (PCBNEW 8.0.2) date 2024-08-30 13:40:58*
%MOMM*%
%LPD*%
G01*
G04 APERTURE LIST*
G04 Aperture macros list*
%AMRoundRect*
0 Rectangle with rounded corners*
0 $1 Rounding radius*
0 $2 $3 $4 $5 $6 $7 $8 $9 X,Y pos of 4 corners*
0 Add a 4 corners polygon primitive as box body*
4,1,4,$2,$3,$4,$5,$6,$7,$8,$9,$2,$3,0*
0 Add four circle primitives for the rounded corners*
1,1,$1+$1,$2,$3*
1,1,$1+$1,$4,$5*
1,1,$1+$1,$6,$7*
1,1,$1+$1,$8,$9*
0 Add four rect primitives between the rounded corners*
20,1,$1+$1,$2,$3,$4,$5,0*
20,1,$1+$1,$4,$5,$6,$7,0*
20,1,$1+$1,$6,$7,$8,$9,0*
20,1,$1+$1,$8,$9,$2,$3,0*%
G04 Aperture macros list end*
G04 #@! TA.AperFunction,SMDPad,CuDef*
%ADD10R,1.250000X1.000000*%
G04 #@! TD*
G04 #@! TA.AperFunction,SMDPad,CuDef*
%ADD11RoundRect,0.277273X0.347727X-0.332727X0.347727X0.332727X-0.347727X0.332727X-0.347727X-0.332727X0*%
G04 #@! TD*
G04 #@! TA.AperFunction,SMDPad,CuDef*
%ADD12R,1.170000X0.600000*%
G04 #@! TD*
G04 #@! TA.AperFunction,SMDPad,CuDef*
%ADD13R,1.450000X0.300000*%
G04 #@! TD*
G04 #@! TA.AperFunction,SMDPad,CuDef*
%ADD14R,1.140000X0.600000*%
G04 #@! TD*
G04 #@! TA.AperFunction,ComponentPad*
%ADD15O,2.100000X1.000000*%
G04 #@! TD*
G04 #@! TA.AperFunction,ComponentPad*
%ADD16O,1.600000X1.000000*%
G04 #@! TD*
G04 #@! TA.AperFunction,SMDPad,CuDef*
%ADD17RoundRect,0.200000X-0.275000X0.200000X-0.275000X-0.200000X0.275000X-0.200000X0.275000X0.200000X0*%
G04 #@! TD*
G04 #@! TA.AperFunction,SMDPad,CuDef*
%ADD18RoundRect,0.375000X-1.625000X-0.375000X1.625000X-0.375000X1.625000X0.375000X-1.625000X0.375000X0*%
G04 #@! TD*
G04 #@! TA.AperFunction,SMDPad,CuDef*
%ADD19RoundRect,1.000000X-1.000000X-2.800000X1.000000X-2.800000X1.000000X2.800000X-1.000000X2.800000X0*%
G04 #@! TD*
G04 #@! TA.AperFunction,ComponentPad*
%ADD20RoundRect,0.250000X-0.600000X-0.600000X0.600000X-0.600000X0.600000X0.600000X-0.600000X0.600000X0*%
G04 #@! TD*
G04 #@! TA.AperFunction,ComponentPad*
%ADD21C,1.700000*%
G04 #@! TD*
G04 #@! TA.AperFunction,SMDPad,CuDef*
%ADD22RoundRect,0.225000X-0.250000X0.225000X-0.250000X-0.225000X0.250000X-0.225000X0.250000X0.225000X0*%
G04 #@! TD*
G04 #@! TA.AperFunction,ComponentPad*
%ADD23C,3.800000*%
G04 #@! TD*
G04 #@! TA.AperFunction,SMDPad,CuDef*
%ADD24RoundRect,0.225000X0.250000X-0.225000X0.250000X0.225000X-0.250000X0.225000X-0.250000X-0.225000X0*%
G04 #@! TD*
G04 #@! TA.AperFunction,SMDPad,CuDef*
%ADD25RoundRect,0.218750X-0.218750X-0.256250X0.218750X-0.256250X0.218750X0.256250X-0.218750X0.256250X0*%
G04 #@! TD*
G04 #@! TA.AperFunction,SMDPad,CuDef*
%ADD26RoundRect,0.225000X-0.225000X-0.250000X0.225000X-0.250000X0.225000X0.250000X-0.225000X0.250000X0*%
G04 #@! TD*
G04 #@! TA.AperFunction,SMDPad,CuDef*
%ADD27RoundRect,0.218750X-0.256250X0.218750X-0.256250X-0.218750X0.256250X-0.218750X0.256250X0.218750X0*%
G04 #@! TD*
G04 #@! TA.AperFunction,SMDPad,CuDef*
%ADD28RoundRect,0.225000X0.225000X0.250000X-0.225000X0.250000X-0.225000X-0.250000X0.225000X-0.250000X0*%
G04 #@! TD*
G04 #@! TA.AperFunction,ComponentPad*
%ADD29RoundRect,0.250000X0.600000X0.750000X-0.600000X0.750000X-0.600000X-0.750000X0.600000X-0.750000X0*%
G04 #@! TD*
G04 #@! TA.AperFunction,ComponentPad*
%ADD30O,1.700000X2.000000*%
G04 #@! TD*
G04 #@! TA.AperFunction,SMDPad,CuDef*
%ADD31RoundRect,0.200000X0.275000X-0.200000X0.275000X0.200000X-0.275000X0.200000X-0.275000X-0.200000X0*%
G04 #@! TD*
G04 #@! TA.AperFunction,SMDPad,CuDef*
%ADD32R,1.500000X0.900000*%
G04 #@! TD*
G04 #@! TA.AperFunction,SMDPad,CuDef*
%ADD33R,0.900000X1.500000*%
G04 #@! TD*
G04 #@! TA.AperFunction,SMDPad,CuDef*
%ADD34R,0.900000X0.900000*%
G04 #@! TD*
G04 #@! TA.AperFunction,ComponentPad*
%ADD35C,0.400000*%
G04 #@! TD*
G04 #@! TA.AperFunction,SMDPad,CuDef*
%ADD36RoundRect,0.200000X0.200000X0.275000X-0.200000X0.275000X-0.200000X-0.275000X0.200000X-0.275000X0*%
G04 #@! TD*
G04 #@! TA.AperFunction,ViaPad*
%ADD37C,0.800000*%
G04 #@! TD*
G04 #@! TA.AperFunction,Conductor*
%ADD38C,0.300000*%
G04 #@! TD*
G04 #@! TA.AperFunction,Conductor*
%ADD39C,0.250000*%
G04 #@! TD*
G04 #@! TA.AperFunction,Conductor*
%ADD40C,0.200000*%
G04 #@! TD*
G04 #@! TA.AperFunction,Conductor*
%ADD41C,1.000000*%
G04 #@! TD*
G04 #@! TA.AperFunction,Conductor*
%ADD42C,0.500000*%
G04 #@! TD*
G04 #@! TA.AperFunction,Conductor*
%ADD43C,2.000000*%
G04 #@! TD*
G04 APERTURE END LIST*
D10*
X129525000Y-81125000D03*
X135775000Y-81125000D03*
X129525000Y-84625000D03*
X135775000Y-84625000D03*
X129350000Y-72900000D03*
X135600000Y-72900000D03*
X129350000Y-76400000D03*
X135600000Y-76400000D03*
D11*
X140900000Y-95450000D03*
X140900000Y-92470000D03*
D12*
X135187500Y-87602500D03*
X135187500Y-88402500D03*
D13*
X135047500Y-89552500D03*
X135047500Y-90552500D03*
X135047500Y-91052500D03*
X135047500Y-92052500D03*
D12*
X135187500Y-93202500D03*
D14*
X135202500Y-94002500D03*
X135202500Y-94002500D03*
D12*
X135187500Y-93202500D03*
D13*
X135047500Y-92552500D03*
X135047500Y-91552500D03*
X135047500Y-90052500D03*
X135047500Y-89052500D03*
D12*
X135187500Y-88402500D03*
X135187500Y-87602500D03*
D15*
X134632500Y-86482500D03*
D16*
X130452500Y-86482500D03*
D15*
X134632500Y-95122500D03*
D16*
X130452500Y-95122500D03*
D17*
X160940000Y-68120000D03*
X160940000Y-69770000D03*
D18*
X146130000Y-97530000D03*
X146130000Y-99830000D03*
D19*
X154430000Y-99830000D03*
D18*
X146130000Y-102130000D03*
D17*
X138075000Y-92425000D03*
X138075000Y-94075000D03*
D20*
X160645000Y-76095000D03*
D21*
X163185000Y-76095000D03*
X160645000Y-78635000D03*
X163185000Y-78635000D03*
X160645000Y-81175000D03*
X163185000Y-81175000D03*
X160645000Y-83715000D03*
X163185000Y-83715000D03*
X160645000Y-86255000D03*
X163185000Y-86255000D03*
X160645000Y-88795000D03*
X163185000Y-88795000D03*
X160645000Y-91335000D03*
X163185000Y-91335000D03*
X160645000Y-93875000D03*
X163185000Y-93875000D03*
D22*
X134290000Y-97880000D03*
X134290000Y-99430000D03*
D23*
X130321000Y-101730000D03*
X164611100Y-101725000D03*
D17*
X136395000Y-77920000D03*
X136395000Y-79570000D03*
D24*
X134315000Y-71070000D03*
X134315000Y-69520000D03*
D17*
X130275000Y-77945000D03*
X130275000Y-79595000D03*
D23*
X164611100Y-67983700D03*
D25*
X150520000Y-94300000D03*
X152095000Y-94300000D03*
D17*
X159165000Y-68120000D03*
X159165000Y-69770000D03*
D26*
X146730000Y-94260000D03*
X148280000Y-94260000D03*
D27*
X134805000Y-77977500D03*
X134805000Y-79552500D03*
D24*
X134355000Y-67810000D03*
X134355000Y-66260000D03*
D28*
X132470000Y-71080000D03*
X130920000Y-71080000D03*
D26*
X143460000Y-94260000D03*
X145010000Y-94260000D03*
D17*
X135970000Y-69480000D03*
X135970000Y-71130000D03*
D23*
X130321000Y-67983700D03*
D29*
X140595000Y-101075000D03*
D30*
X138095000Y-101075000D03*
D24*
X128600000Y-79550000D03*
X128600000Y-78000000D03*
D31*
X138360000Y-88540000D03*
X138360000Y-86890000D03*
D32*
X138270000Y-66905000D03*
X138270000Y-68175000D03*
X138270000Y-69445000D03*
X138270000Y-70715000D03*
X138270000Y-71985000D03*
X138270000Y-73255000D03*
X138270000Y-74525000D03*
X138270000Y-75795000D03*
X138270000Y-77065000D03*
X138270000Y-78335000D03*
X138270000Y-79605000D03*
X138270000Y-80875000D03*
X138270000Y-82145000D03*
X138270000Y-83415000D03*
D33*
X140035000Y-84665000D03*
X141305000Y-84665000D03*
X142575000Y-84665000D03*
X143845000Y-84665000D03*
X145115000Y-84665000D03*
X146385000Y-84665000D03*
X147655000Y-84665000D03*
X148925000Y-84665000D03*
X150195000Y-84665000D03*
X151465000Y-84665000D03*
X152735000Y-84665000D03*
X154005000Y-84665000D03*
D32*
X155770000Y-83415000D03*
X155770000Y-82145000D03*
X155770000Y-80875000D03*
X155770000Y-79605000D03*
X155770000Y-78335000D03*
X155770000Y-77065000D03*
X155770000Y-75795000D03*
X155770000Y-74525000D03*
X155770000Y-73255000D03*
X155770000Y-71985000D03*
X155770000Y-70715000D03*
X155770000Y-69445000D03*
X155770000Y-68175000D03*
X155770000Y-66905000D03*
D34*
X145520000Y-74625000D03*
X144120000Y-74625000D03*
X146920000Y-74625000D03*
X144120000Y-76025000D03*
X145520000Y-76025000D03*
X146920000Y-76025000D03*
X144120000Y-73225000D03*
X145520000Y-73225000D03*
X146920000Y-73225000D03*
D35*
X145520000Y-73925000D03*
X144120000Y-73925000D03*
X146920000Y-73925000D03*
X144120000Y-75325000D03*
X145520000Y-75325000D03*
X146920000Y-75325000D03*
X144820000Y-73225000D03*
X146220000Y-73225000D03*
X144820000Y-74625000D03*
X146220000Y-74625000D03*
X144820000Y-76025000D03*
X146220000Y-76025000D03*
D36*
X155610000Y-94260000D03*
X153960000Y-94260000D03*
D24*
X135960000Y-67810000D03*
X135960000Y-66260000D03*
D22*
X132660000Y-97880000D03*
X132660000Y-99430000D03*
D37*
X145025000Y-90150000D03*
X146825000Y-86875000D03*
X148715563Y-86176225D03*
X145494669Y-88280331D03*
X136825000Y-95300000D03*
X155770000Y-84405000D03*
X131405000Y-79660000D03*
X133425000Y-67225000D03*
X147670000Y-93070000D03*
X131485000Y-77645000D03*
X159165000Y-66770000D03*
X137085000Y-85995000D03*
X138400000Y-91050000D03*
X159825000Y-101925000D03*
X138000000Y-96450000D03*
X133700000Y-77700000D03*
X129685000Y-71275000D03*
X129575000Y-97400000D03*
X161950000Y-73400000D03*
X159175000Y-71450000D03*
X141825000Y-86050000D03*
X143475000Y-92675000D03*
X162050000Y-66400000D03*
X150525000Y-97550000D03*
X133550000Y-68925000D03*
X139850000Y-88675000D03*
X149375000Y-97525000D03*
X139325000Y-92025000D03*
X137581888Y-87715001D03*
D38*
X161950000Y-77400000D02*
X163185000Y-78635000D01*
X158500000Y-76500000D02*
X159400000Y-77400000D01*
X158500000Y-72225000D02*
X158500000Y-76500000D01*
X156990000Y-70715000D02*
X158500000Y-72225000D01*
X155770000Y-70715000D02*
X156990000Y-70715000D01*
X159400000Y-77400000D02*
X161950000Y-77400000D01*
X160215000Y-89225000D02*
X160645000Y-88795000D01*
X159800000Y-89225000D02*
X160215000Y-89225000D01*
X146525000Y-90450000D02*
X158575000Y-90450000D01*
X144725000Y-85055000D02*
X144725000Y-88650000D01*
X144725000Y-88650000D02*
X146525000Y-90450000D01*
X158575000Y-90450000D02*
X159800000Y-89225000D01*
X145115000Y-84665000D02*
X144725000Y-85055000D01*
X161845000Y-90135000D02*
X163185000Y-88795000D01*
X160147943Y-90135000D02*
X161845000Y-90135000D01*
X158707943Y-91575000D02*
X160147943Y-90135000D01*
X143400000Y-89842894D02*
X145132106Y-91575000D01*
X143400000Y-85110000D02*
X143400000Y-89842894D01*
X145132106Y-91575000D02*
X158707943Y-91575000D01*
X143845000Y-84665000D02*
X143400000Y-85110000D01*
X144925000Y-92075000D02*
X159905000Y-92075000D01*
X142575000Y-89725000D02*
X144925000Y-92075000D01*
X142575000Y-84665000D02*
X142575000Y-89725000D01*
X159905000Y-92075000D02*
X160645000Y-91335000D01*
X159820000Y-86255000D02*
X160645000Y-86255000D01*
X148900000Y-88375000D02*
X157700000Y-88375000D01*
X157700000Y-88375000D02*
X159820000Y-86255000D01*
X147655000Y-87130000D02*
X148900000Y-88375000D01*
X147655000Y-84665000D02*
X147655000Y-87130000D01*
X161915000Y-84985000D02*
X163185000Y-83715000D01*
X157025000Y-87425000D02*
X159465000Y-84985000D01*
X151025000Y-87425000D02*
X157025000Y-87425000D01*
X148925000Y-85325000D02*
X151025000Y-87425000D01*
X148925000Y-84665000D02*
X148925000Y-85325000D01*
X159465000Y-84985000D02*
X161915000Y-84985000D01*
X161955000Y-87485000D02*
X163185000Y-86255000D01*
X160010000Y-87485000D02*
X161955000Y-87485000D01*
X147775000Y-89500000D02*
X157995000Y-89500000D01*
X157995000Y-89500000D02*
X160010000Y-87485000D01*
X146025000Y-87750000D02*
X147775000Y-89500000D01*
X146385000Y-84665000D02*
X146025000Y-85025000D01*
X146025000Y-85025000D02*
X146025000Y-87750000D01*
X159760000Y-83715000D02*
X160645000Y-83715000D01*
X156600000Y-86875000D02*
X159760000Y-83715000D01*
X150195000Y-85620000D02*
X151450000Y-86875000D01*
X150195000Y-84665000D02*
X150195000Y-85620000D01*
X151450000Y-86875000D02*
X156600000Y-86875000D01*
X136550000Y-78075000D02*
X136395000Y-77920000D01*
X138010000Y-78075000D02*
X136550000Y-78075000D01*
X138270000Y-78335000D02*
X138010000Y-78075000D01*
X139930000Y-93270000D02*
X134970000Y-93270000D01*
X140625000Y-92025000D02*
X140900000Y-92300000D01*
X139325000Y-92025000D02*
X140625000Y-92025000D01*
X140900000Y-92300000D02*
X139930000Y-93270000D01*
D39*
X134290000Y-97835000D02*
X136825000Y-95300000D01*
X134290000Y-97880000D02*
X134290000Y-97835000D01*
D40*
X140575000Y-89000000D02*
X139800000Y-89775000D01*
X140575000Y-86875000D02*
X140575000Y-89000000D01*
X139700000Y-86000000D02*
X140575000Y-86875000D01*
X137475000Y-89775000D02*
X136562500Y-90687500D01*
X138725000Y-86000000D02*
X139700000Y-86000000D01*
X138270000Y-85545000D02*
X138725000Y-86000000D01*
X138270000Y-83415000D02*
X138270000Y-85545000D01*
X139800000Y-89775000D02*
X137475000Y-89775000D01*
X136562500Y-90687500D02*
X136362500Y-90687500D01*
X133275000Y-85015000D02*
X133275000Y-89475000D01*
X133275000Y-89475000D02*
X133962500Y-90162500D01*
X135880000Y-82410000D02*
X133275000Y-85015000D01*
X138005000Y-82410000D02*
X135880000Y-82410000D01*
X134227500Y-91052500D02*
X135047500Y-91052500D01*
X133825000Y-90650000D02*
X134227500Y-91052500D01*
X133825000Y-90300000D02*
X133825000Y-90650000D01*
X134072500Y-90052500D02*
X133825000Y-90300000D01*
X134072500Y-90052500D02*
X135047500Y-90052500D01*
D38*
X136894389Y-88402500D02*
X135187500Y-88402500D01*
X137581888Y-87715001D02*
X136894389Y-88402500D01*
X135477500Y-87602500D02*
X137085000Y-85995000D01*
X135187500Y-87602500D02*
X135477500Y-87602500D01*
D40*
X136500000Y-91275000D02*
X136222500Y-91552500D01*
X136500000Y-90825000D02*
X136500000Y-91275000D01*
X135047500Y-90552500D02*
X136227500Y-90552500D01*
X136227500Y-90552500D02*
X136500000Y-90825000D01*
X136222500Y-91552500D02*
X135047500Y-91552500D01*
D38*
X138047500Y-92552500D02*
X138085000Y-92590000D01*
X135047500Y-92552500D02*
X138047500Y-92552500D01*
D39*
X135720000Y-94050000D02*
X137895000Y-94050000D01*
D40*
X137100000Y-89550000D02*
X135720000Y-89550000D01*
X138110000Y-88540000D02*
X137100000Y-89550000D01*
D38*
X138360000Y-88540000D02*
X138110000Y-88540000D01*
X138005000Y-82410000D02*
X138270000Y-82145000D01*
X155770000Y-83415000D02*
X155770000Y-84405000D01*
X128510000Y-79640000D02*
X128670000Y-79800000D01*
X128670000Y-81100000D02*
X128930000Y-81360000D01*
X136130000Y-81360000D02*
X128930000Y-81360000D01*
X131510000Y-79640000D02*
X128510000Y-79640000D01*
X128670000Y-79800000D02*
X128670000Y-81100000D01*
D41*
X130275000Y-77945000D02*
X131185000Y-77945000D01*
D42*
X134160000Y-67615000D02*
X134355000Y-67810000D01*
X135960000Y-67810000D02*
X134355000Y-67810000D01*
D41*
X155610000Y-98650000D02*
X155610000Y-94260000D01*
D42*
X135965000Y-67805000D02*
X135960000Y-67810000D01*
D41*
X154910000Y-93085000D02*
X147670000Y-93070000D01*
X154430000Y-99830000D02*
X146130000Y-99830000D01*
X147670000Y-93070000D02*
X147665618Y-93085000D01*
D42*
X137165000Y-67805000D02*
X135965000Y-67805000D01*
D41*
X147665618Y-93085000D02*
X146730000Y-94020618D01*
D42*
X159165000Y-68120000D02*
X160940000Y-68120000D01*
X134330000Y-67785000D02*
X134160000Y-67785000D01*
D41*
X155610000Y-94260000D02*
X155610000Y-93785000D01*
D42*
X137535000Y-68175000D02*
X137165000Y-67805000D01*
X134355000Y-67810000D02*
X134010000Y-67810000D01*
X135970000Y-69480000D02*
X135970000Y-69425000D01*
D41*
X146730000Y-94020618D02*
X146730000Y-94260000D01*
D42*
X135970000Y-69425000D02*
X134330000Y-67785000D01*
D41*
X131185000Y-77945000D02*
X131485000Y-77645000D01*
D42*
X138270000Y-68175000D02*
X137535000Y-68175000D01*
D41*
X155610000Y-93785000D02*
X154910000Y-93085000D01*
D42*
X159165000Y-66770000D02*
X159165000Y-68120000D01*
D41*
X154430000Y-99830000D02*
X155610000Y-98650000D01*
D42*
X134160000Y-67785000D02*
X134160000Y-67615000D01*
X134010000Y-67810000D02*
X133425000Y-67225000D01*
D38*
X132470000Y-71080000D02*
X136005000Y-71080000D01*
X136070000Y-73155000D02*
X128880000Y-73155000D01*
X129915000Y-72120000D02*
X131255000Y-72120000D01*
X136075000Y-73160000D02*
X136070000Y-73155000D01*
X131255000Y-72120000D02*
X132295000Y-71080000D01*
X128880000Y-73155000D02*
X128875000Y-73160000D01*
X137640000Y-69445000D02*
X138270000Y-69445000D01*
X132295000Y-71080000D02*
X132470000Y-71080000D01*
X136005000Y-71080000D02*
X137640000Y-69445000D01*
X128875000Y-73160000D02*
X129915000Y-72120000D01*
D43*
X140345000Y-96057500D02*
X140345000Y-100825000D01*
X141650000Y-102130000D02*
X140595000Y-101075000D01*
X146130000Y-102130000D02*
X141650000Y-102130000D01*
D41*
X143460000Y-94260000D02*
X142142500Y-94260000D01*
D43*
X140345000Y-100825000D02*
X140595000Y-101075000D01*
D41*
X142142500Y-94260000D02*
X140880000Y-95522500D01*
D43*
X140880000Y-95522500D02*
X140345000Y-96057500D01*
D38*
X159085000Y-69690000D02*
X156015000Y-69690000D01*
X159165000Y-69770000D02*
X159085000Y-69690000D01*
X160650000Y-71255000D02*
X160650000Y-76090000D01*
X160650000Y-76090000D02*
X160645000Y-76095000D01*
X159165000Y-69770000D02*
X160650000Y-71255000D01*
X156015000Y-69690000D02*
X155770000Y-69445000D01*
X163185000Y-71935000D02*
X163185000Y-76095000D01*
X160115000Y-68945000D02*
X160940000Y-69770000D01*
X158731642Y-68945000D02*
X160115000Y-68945000D01*
X155770000Y-68175000D02*
X157961642Y-68175000D01*
X157961642Y-68175000D02*
X158731642Y-68945000D01*
X160940000Y-69770000D02*
X161020000Y-69770000D01*
X161020000Y-69770000D02*
X163185000Y-71935000D01*
X155770000Y-71985000D02*
X156230000Y-71985000D01*
X156230000Y-71985000D02*
X157375000Y-73130000D01*
X158235000Y-78635000D02*
X160645000Y-78635000D01*
X157375000Y-77775000D02*
X158235000Y-78635000D01*
X157375000Y-73130000D02*
X157375000Y-77775000D01*
X133601300Y-70233700D02*
X134275000Y-69560000D01*
X134805000Y-77977500D02*
X133977500Y-77977500D01*
X128600000Y-78000000D02*
X128600000Y-76435000D01*
X130725000Y-71275000D02*
X131766300Y-70233700D01*
X134355000Y-66260000D02*
X135960000Y-66260000D01*
X133977500Y-77977500D02*
X133700000Y-77700000D01*
X128600000Y-76435000D02*
X128875000Y-76160000D01*
X131766300Y-70233700D02*
X133601300Y-70233700D01*
X134275000Y-69525000D02*
X134310000Y-69525000D01*
X136915000Y-66260000D02*
X137560000Y-66905000D01*
X134310000Y-69525000D02*
X134315000Y-69520000D01*
X135960000Y-66260000D02*
X136915000Y-66260000D01*
X130725000Y-71275000D02*
X130920000Y-71080000D01*
X134145000Y-69520000D02*
X133550000Y-68925000D01*
X134275000Y-69560000D02*
X134275000Y-69525000D01*
X129685000Y-71275000D02*
X130725000Y-71275000D01*
X137560000Y-66905000D02*
X138270000Y-66905000D01*
X134315000Y-69520000D02*
X134145000Y-69520000D01*
X130880000Y-96100000D02*
X132660000Y-97880000D01*
X130880000Y-95140000D02*
X130880000Y-96100000D01*
X130880000Y-86500000D02*
X130880000Y-95140000D01*
X156287943Y-86375000D02*
X160222943Y-82440000D01*
X161480000Y-82440000D02*
X162745000Y-81175000D01*
X162745000Y-81175000D02*
X163185000Y-81175000D01*
X152490000Y-86375000D02*
X156287943Y-86375000D01*
X151465000Y-85350000D02*
X152490000Y-86375000D01*
X160222943Y-82440000D02*
X161480000Y-82440000D01*
X151465000Y-84665000D02*
X151465000Y-85350000D01*
X155575000Y-85800000D02*
X160200000Y-81175000D01*
X153155000Y-85800000D02*
X155575000Y-85800000D01*
X160200000Y-81175000D02*
X160645000Y-81175000D01*
X152735000Y-84665000D02*
X152735000Y-85380000D01*
X152735000Y-85380000D02*
X153155000Y-85800000D01*
X134822500Y-79570000D02*
X134805000Y-79552500D01*
X136395000Y-79570000D02*
X134822500Y-79570000D01*
X152095000Y-94300000D02*
X153920000Y-94300000D01*
X153920000Y-94300000D02*
X153960000Y-94260000D01*
G04 #@! TA.AperFunction,Conductor*
G36*
X164611888Y-65444012D02*
G01*
X164757923Y-65446123D01*
X164771052Y-65447013D01*
X165061840Y-65482311D01*
X165076562Y-65485008D01*
X165360110Y-65554888D01*
X165374398Y-65559340D01*
X165458233Y-65591133D01*
X165647447Y-65662888D01*
X165661089Y-65669027D01*
X165919681Y-65804741D01*
X165932472Y-65812474D01*
X166148235Y-65961401D01*
X166172811Y-65978364D01*
X166184599Y-65987600D01*
X166403172Y-66181239D01*
X166413760Y-66191827D01*
X166607399Y-66410400D01*
X166616635Y-66422188D01*
X166777832Y-66655728D01*
X166782522Y-66662522D01*
X166790261Y-66675323D01*
X166925966Y-66933897D01*
X166932111Y-66947552D01*
X167035657Y-67220597D01*
X167040112Y-67234894D01*
X167109990Y-67518434D01*
X167112688Y-67533163D01*
X167147985Y-67823936D01*
X167148876Y-67837087D01*
X167150986Y-67983082D01*
X167150999Y-67984911D01*
X167141000Y-101813502D01*
X167140964Y-101816439D01*
X167137206Y-101973103D01*
X167136061Y-101987203D01*
X167092651Y-102299465D01*
X167089393Y-102315272D01*
X167006062Y-102618281D01*
X167000779Y-102633530D01*
X166878802Y-102923147D01*
X166871583Y-102937582D01*
X166713022Y-103208907D01*
X166703989Y-103222282D01*
X166511531Y-103470716D01*
X166500839Y-103482803D01*
X166277746Y-103704138D01*
X166265573Y-103714735D01*
X166015633Y-103905214D01*
X166002188Y-103914141D01*
X165729606Y-104070556D01*
X165715114Y-104077660D01*
X165424550Y-104197338D01*
X165409259Y-104202501D01*
X165105592Y-104283433D01*
X165089760Y-104286565D01*
X164777173Y-104327501D01*
X164763066Y-104328535D01*
X164605921Y-104331062D01*
X164603941Y-104331078D01*
X130290598Y-104334894D01*
X130286004Y-104333545D01*
X130078305Y-104331157D01*
X130064162Y-104330184D01*
X129750189Y-104290448D01*
X129734297Y-104287371D01*
X129429168Y-104207335D01*
X129413811Y-104202215D01*
X129121693Y-104083105D01*
X129107134Y-104076027D01*
X129104590Y-104074578D01*
X129059901Y-104049120D01*
X128833032Y-103919883D01*
X128819520Y-103910970D01*
X128637624Y-103773139D01*
X128568086Y-103720446D01*
X128555857Y-103709856D01*
X128401603Y-103557537D01*
X128331384Y-103488199D01*
X128320633Y-103476098D01*
X128126952Y-103227097D01*
X128117868Y-103213698D01*
X128039865Y-103080702D01*
X127958270Y-102941580D01*
X127951010Y-102927112D01*
X127856773Y-102704095D01*
X127828221Y-102636525D01*
X127822912Y-102621248D01*
X127739023Y-102317138D01*
X127735747Y-102301289D01*
X127725501Y-102227793D01*
X127692048Y-101987838D01*
X127690898Y-101973731D01*
X127687102Y-101816439D01*
X127687067Y-101813481D01*
X127687092Y-101730000D01*
X128215592Y-101730000D01*
X128235201Y-102016680D01*
X128293666Y-102298034D01*
X128293667Y-102298037D01*
X128389894Y-102568793D01*
X128389893Y-102568793D01*
X128522098Y-102823935D01*
X128687812Y-103058700D01*
X128708361Y-103080702D01*
X128883947Y-103268708D01*
X129106853Y-103450055D01*
X129344159Y-103594365D01*
X129352382Y-103599365D01*
X129539237Y-103680526D01*
X129615942Y-103713844D01*
X129892642Y-103791371D01*
X130130607Y-103824079D01*
X130177321Y-103830500D01*
X130177322Y-103830500D01*
X130464679Y-103830500D01*
X130501055Y-103825500D01*
X130749358Y-103791371D01*
X131026058Y-103713844D01*
X131139015Y-103664779D01*
X131289617Y-103599365D01*
X131289620Y-103599363D01*
X131289625Y-103599361D01*
X131535147Y-103450055D01*
X131758053Y-103268708D01*
X131954189Y-103058698D01*
X132119901Y-102823936D01*
X132252104Y-102568797D01*
X132348334Y-102298032D01*
X132406798Y-102016686D01*
X132426408Y-101730000D01*
X132406798Y-101443314D01*
X132348334Y-101161968D01*
X132252105Y-100891206D01*
X132252106Y-100891206D01*
X132119900Y-100636062D01*
X132119896Y-100636056D01*
X132048293Y-100534617D01*
X132025714Y-100468496D01*
X132042468Y-100400665D01*
X132093234Y-100352659D01*
X132161895Y-100339720D01*
X132188602Y-100345403D01*
X132262394Y-100369856D01*
X132361683Y-100379999D01*
X132910000Y-100379999D01*
X132958308Y-100379999D01*
X132958322Y-100379998D01*
X133057607Y-100369855D01*
X133218481Y-100316547D01*
X133218492Y-100316542D01*
X133362728Y-100227575D01*
X133362732Y-100227572D01*
X133387319Y-100202986D01*
X133448642Y-100169501D01*
X133518334Y-100174485D01*
X133562681Y-100202986D01*
X133587267Y-100227572D01*
X133587271Y-100227575D01*
X133731507Y-100316542D01*
X133731518Y-100316547D01*
X133892393Y-100369855D01*
X133991683Y-100379999D01*
X134540000Y-100379999D01*
X134588308Y-100379999D01*
X134588322Y-100379998D01*
X134687607Y-100369855D01*
X134848481Y-100316547D01*
X134848492Y-100316542D01*
X134992728Y-100227575D01*
X134992732Y-100227572D01*
X135112572Y-100107732D01*
X135112575Y-100107728D01*
X135201542Y-99963492D01*
X135201547Y-99963481D01*
X135254855Y-99802606D01*
X135264999Y-99703322D01*
X135265000Y-99703309D01*
X135265000Y-99680000D01*
X134540000Y-99680000D01*
X134540000Y-100379999D01*
X133991683Y-100379999D01*
X134039999Y-100379998D01*
X134040000Y-100379998D01*
X134040000Y-99680000D01*
X132910000Y-99680000D01*
X132910000Y-100379999D01*
X132361683Y-100379999D01*
X132409999Y-100379998D01*
X132410000Y-100379998D01*
X132410000Y-99680000D01*
X131685001Y-99680000D01*
X131685001Y-99703322D01*
X131695144Y-99802607D01*
X131715447Y-99863877D01*
X131717849Y-99933705D01*
X131682117Y-99993747D01*
X131619597Y-100024940D01*
X131550137Y-100017379D01*
X131533313Y-100008829D01*
X131289623Y-99860637D01*
X131289618Y-99860635D01*
X131026063Y-99746158D01*
X131026061Y-99746157D01*
X131026058Y-99746156D01*
X130873134Y-99703309D01*
X130749364Y-99668630D01*
X130749359Y-99668629D01*
X130749358Y-99668629D01*
X130607018Y-99649064D01*
X130464679Y-99629500D01*
X130464678Y-99629500D01*
X130177322Y-99629500D01*
X130177321Y-99629500D01*
X129892642Y-99668629D01*
X129892635Y-99668630D01*
X129732497Y-99713499D01*
X129615942Y-99746156D01*
X129615939Y-99746156D01*
X129615936Y-99746158D01*
X129615935Y-99746158D01*
X129352382Y-99860634D01*
X129106853Y-100009944D01*
X128883950Y-100191289D01*
X128687812Y-100401299D01*
X128522098Y-100636064D01*
X128389894Y-100891206D01*
X128293667Y-101161962D01*
X128293666Y-101161965D01*
X128235201Y-101443319D01*
X128215592Y-101730000D01*
X127687092Y-101730000D01*
X127691578Y-86551495D01*
X129451999Y-86551495D01*
X129478918Y-86686822D01*
X129478921Y-86686832D01*
X129531721Y-86814304D01*
X129531728Y-86814317D01*
X129608385Y-86929041D01*
X129608388Y-86929045D01*
X129705954Y-87026611D01*
X129705958Y-87026614D01*
X129820682Y-87103271D01*
X129820695Y-87103278D01*
X129931680Y-87149249D01*
X129948172Y-87156080D01*
X129948176Y-87156080D01*
X129948177Y-87156081D01*
X130083504Y-87183000D01*
X130083507Y-87183000D01*
X130405500Y-87183000D01*
X130472539Y-87202685D01*
X130518294Y-87255489D01*
X130529500Y-87307000D01*
X130529500Y-94298000D01*
X130509815Y-94365039D01*
X130457011Y-94410794D01*
X130405500Y-94422000D01*
X130083505Y-94422000D01*
X129948177Y-94448918D01*
X129948167Y-94448921D01*
X129820695Y-94501721D01*
X129820682Y-94501728D01*
X129705958Y-94578385D01*
X129705954Y-94578388D01*
X129608388Y-94675954D01*
X129608385Y-94675958D01*
X129531728Y-94790682D01*
X129531721Y-94790695D01*
X129478921Y-94918167D01*
X129478918Y-94918177D01*
X129452000Y-95053504D01*
X129452000Y-95053507D01*
X129452000Y-95191493D01*
X129452000Y-95191495D01*
X129451999Y-95191495D01*
X129478918Y-95326822D01*
X129478921Y-95326832D01*
X129531721Y-95454304D01*
X129531728Y-95454317D01*
X129608385Y-95569041D01*
X129608388Y-95569045D01*
X129705954Y-95666611D01*
X129705958Y-95666614D01*
X129820682Y-95743271D01*
X129820695Y-95743278D01*
X129948167Y-95796078D01*
X129948172Y-95796080D01*
X129948176Y-95796080D01*
X129948177Y-95796081D01*
X130083504Y-95823000D01*
X130083507Y-95823000D01*
X130405500Y-95823000D01*
X130472539Y-95842685D01*
X130518294Y-95895489D01*
X130529500Y-95947000D01*
X130529500Y-96146144D01*
X130547344Y-96212737D01*
X130553386Y-96235287D01*
X130553387Y-96235290D01*
X130599527Y-96315208D01*
X130599531Y-96315213D01*
X131948181Y-97663863D01*
X131981666Y-97725186D01*
X131984500Y-97751544D01*
X131984500Y-98138493D01*
X132000279Y-98238121D01*
X132000280Y-98238124D01*
X132000281Y-98238126D01*
X132059577Y-98354500D01*
X132061473Y-98358221D01*
X132061476Y-98358225D01*
X132080424Y-98377173D01*
X132113909Y-98438496D01*
X132108925Y-98508188D01*
X132067053Y-98564121D01*
X132057841Y-98570392D01*
X131957268Y-98632426D01*
X131837427Y-98752267D01*
X131837424Y-98752271D01*
X131748457Y-98896507D01*
X131748452Y-98896518D01*
X131695144Y-99057393D01*
X131685000Y-99156677D01*
X131685000Y-99180000D01*
X135264999Y-99180000D01*
X135264999Y-99156692D01*
X135264998Y-99156677D01*
X135254855Y-99057392D01*
X135201547Y-98896518D01*
X135201542Y-98896507D01*
X135112575Y-98752271D01*
X135112572Y-98752267D01*
X134992732Y-98632427D01*
X134992728Y-98632424D01*
X134892159Y-98570392D01*
X134845434Y-98518444D01*
X134834213Y-98449482D01*
X134862056Y-98385400D01*
X134869565Y-98377182D01*
X134888528Y-98358220D01*
X134949719Y-98238126D01*
X134954408Y-98208523D01*
X134965500Y-98138493D01*
X134965500Y-97671188D01*
X134985185Y-97604149D01*
X135001819Y-97583507D01*
X135733850Y-96851476D01*
X136653316Y-95932009D01*
X136714637Y-95898526D01*
X136757181Y-95896753D01*
X136824999Y-95905682D01*
X136825000Y-95905682D01*
X136825001Y-95905682D01*
X136877254Y-95898802D01*
X136981762Y-95885044D01*
X137127841Y-95824536D01*
X137253282Y-95728282D01*
X137349536Y-95602841D01*
X137410044Y-95456762D01*
X137430682Y-95300000D01*
X137427446Y-95275423D01*
X137410044Y-95143239D01*
X137410044Y-95143238D01*
X137389343Y-95093263D01*
X137381875Y-95023796D01*
X137413150Y-94961316D01*
X137473239Y-94925664D01*
X137540795Y-94927427D01*
X137672894Y-94968590D01*
X137672892Y-94968590D01*
X137743418Y-94974999D01*
X138325000Y-94974999D01*
X138406581Y-94974999D01*
X138477102Y-94968591D01*
X138477107Y-94968590D01*
X138639396Y-94918018D01*
X138784877Y-94830072D01*
X138905072Y-94709877D01*
X138993019Y-94564395D01*
X139043590Y-94402106D01*
X139050000Y-94331572D01*
X139050000Y-94325000D01*
X138325000Y-94325000D01*
X138325000Y-94974999D01*
X137743418Y-94974999D01*
X137824999Y-94974998D01*
X137825000Y-94974998D01*
X137825000Y-94325000D01*
X137100001Y-94325000D01*
X137100001Y-94331582D01*
X137106408Y-94402102D01*
X137106409Y-94402107D01*
X137158052Y-94567833D01*
X137159204Y-94637693D01*
X137122403Y-94697086D01*
X137059334Y-94727154D01*
X136992218Y-94719287D01*
X136989606Y-94718205D01*
X136981762Y-94714956D01*
X136981760Y-94714955D01*
X136825001Y-94694318D01*
X136824999Y-94694318D01*
X136668239Y-94714955D01*
X136668237Y-94714956D01*
X136522160Y-94775463D01*
X136396718Y-94871718D01*
X136300463Y-94997160D01*
X136239956Y-95143237D01*
X136239955Y-95143239D01*
X136219318Y-95299998D01*
X136219318Y-95300001D01*
X136228246Y-95367817D01*
X136217480Y-95436852D01*
X136192988Y-95471683D01*
X134471492Y-97193181D01*
X134410169Y-97226666D01*
X134383811Y-97229500D01*
X134006507Y-97229500D01*
X133906878Y-97245279D01*
X133786778Y-97306473D01*
X133786774Y-97306476D01*
X133691476Y-97401774D01*
X133691473Y-97401778D01*
X133630279Y-97521878D01*
X133614500Y-97621506D01*
X133614500Y-98138493D01*
X133630279Y-98238121D01*
X133630280Y-98238124D01*
X133630281Y-98238126D01*
X133689577Y-98354500D01*
X133691473Y-98358221D01*
X133691476Y-98358225D01*
X133710424Y-98377173D01*
X133743909Y-98438496D01*
X133738925Y-98508188D01*
X133697053Y-98564121D01*
X133687841Y-98570392D01*
X133587268Y-98632426D01*
X133587267Y-98632427D01*
X133562681Y-98657014D01*
X133501358Y-98690499D01*
X133431666Y-98685515D01*
X133387319Y-98657014D01*
X133362732Y-98632427D01*
X133362728Y-98632424D01*
X133262159Y-98570392D01*
X133215434Y-98518444D01*
X133204213Y-98449482D01*
X133232056Y-98385400D01*
X133239565Y-98377182D01*
X133258528Y-98358220D01*
X133319719Y-98238126D01*
X133324408Y-98208523D01*
X133335500Y-98138493D01*
X133335500Y-97621506D01*
X133319720Y-97521878D01*
X133319719Y-97521876D01*
X133319719Y-97521874D01*
X133258528Y-97401780D01*
X133258526Y-97401778D01*
X133258523Y-97401774D01*
X133163225Y-97306476D01*
X133163221Y-97306473D01*
X133163220Y-97306472D01*
X133043126Y-97245281D01*
X133043124Y-97245280D01*
X133043121Y-97245279D01*
X132943493Y-97229500D01*
X132943488Y-97229500D01*
X132556544Y-97229500D01*
X132489505Y-97209815D01*
X132468863Y-97193181D01*
X131266819Y-95991137D01*
X131233334Y-95929814D01*
X131230500Y-95903456D01*
X131230500Y-95686518D01*
X131250185Y-95619479D01*
X131266815Y-95598840D01*
X131296614Y-95569042D01*
X131373275Y-95454311D01*
X131426080Y-95326828D01*
X131446364Y-95224855D01*
X131453000Y-95191495D01*
X131453000Y-95053504D01*
X131426081Y-94918177D01*
X131426080Y-94918176D01*
X131426080Y-94918172D01*
X131418411Y-94899658D01*
X131373278Y-94790695D01*
X131373271Y-94790682D01*
X131296614Y-94675958D01*
X131296611Y-94675954D01*
X131266819Y-94646162D01*
X131233334Y-94584839D01*
X131230500Y-94558481D01*
X131230500Y-87046518D01*
X131250185Y-86979479D01*
X131266815Y-86958840D01*
X131296614Y-86929042D01*
X131373275Y-86814311D01*
X131426080Y-86686828D01*
X131450732Y-86562897D01*
X131453000Y-86551495D01*
X131453000Y-86413504D01*
X131426081Y-86278177D01*
X131426080Y-86278176D01*
X131426080Y-86278172D01*
X131426078Y-86278167D01*
X131373278Y-86150695D01*
X131373271Y-86150682D01*
X131296614Y-86035958D01*
X131296611Y-86035954D01*
X131199045Y-85938388D01*
X131199041Y-85938385D01*
X131084317Y-85861728D01*
X131084304Y-85861721D01*
X130956832Y-85808921D01*
X130956822Y-85808918D01*
X130821495Y-85782000D01*
X130821493Y-85782000D01*
X130479250Y-85782000D01*
X130412211Y-85762315D01*
X130366456Y-85709511D01*
X130356512Y-85640353D01*
X130385537Y-85576797D01*
X130404939Y-85558733D01*
X130507190Y-85482186D01*
X130593350Y-85367093D01*
X130593354Y-85367086D01*
X130643596Y-85232379D01*
X130643598Y-85232372D01*
X130649999Y-85172844D01*
X130650000Y-85172827D01*
X130650000Y-84875000D01*
X129775000Y-84875000D01*
X129775000Y-85625000D01*
X129777576Y-85627576D01*
X129835842Y-85644685D01*
X129881597Y-85697489D01*
X129891541Y-85766647D01*
X129862516Y-85830203D01*
X129825147Y-85857149D01*
X129826059Y-85858855D01*
X129820682Y-85861728D01*
X129705958Y-85938385D01*
X129705954Y-85938388D01*
X129608388Y-86035954D01*
X129608385Y-86035958D01*
X129531728Y-86150682D01*
X129531721Y-86150695D01*
X129478921Y-86278167D01*
X129478918Y-86278177D01*
X129452000Y-86413504D01*
X129452000Y-86413507D01*
X129452000Y-86551493D01*
X129452000Y-86551495D01*
X129451999Y-86551495D01*
X127691578Y-86551495D01*
X127691986Y-85172844D01*
X128400000Y-85172844D01*
X128406401Y-85232372D01*
X128406403Y-85232379D01*
X128456645Y-85367086D01*
X128456649Y-85367093D01*
X128542809Y-85482187D01*
X128542812Y-85482190D01*
X128657906Y-85568350D01*
X128657913Y-85568354D01*
X128792620Y-85618596D01*
X128792627Y-85618598D01*
X128852155Y-85624999D01*
X128852172Y-85625000D01*
X129275000Y-85625000D01*
X129275000Y-84875000D01*
X128400000Y-84875000D01*
X128400000Y-85172844D01*
X127691986Y-85172844D01*
X127692310Y-84077155D01*
X128400000Y-84077155D01*
X128400000Y-84375000D01*
X129275000Y-84375000D01*
X129775000Y-84375000D01*
X130650000Y-84375000D01*
X130650000Y-84077172D01*
X130649999Y-84077155D01*
X130643598Y-84017627D01*
X130643596Y-84017620D01*
X130593354Y-83882913D01*
X130593350Y-83882906D01*
X130507190Y-83767812D01*
X130507187Y-83767809D01*
X130392093Y-83681649D01*
X130392086Y-83681645D01*
X130257379Y-83631403D01*
X130257372Y-83631401D01*
X130197844Y-83625000D01*
X129775000Y-83625000D01*
X129775000Y-84375000D01*
X129275000Y-84375000D01*
X129275000Y-83625000D01*
X128852155Y-83625000D01*
X128792627Y-83631401D01*
X128792620Y-83631403D01*
X128657913Y-83681645D01*
X128657906Y-83681649D01*
X128542812Y-83767809D01*
X128542809Y-83767812D01*
X128456649Y-83882906D01*
X128456645Y-83882913D01*
X128406403Y-84017620D01*
X128406401Y-84017627D01*
X128400000Y-84077155D01*
X127692310Y-84077155D01*
X127693537Y-79925777D01*
X127713241Y-79858747D01*
X127766059Y-79813007D01*
X127835220Y-79803084D01*
X127898767Y-79832128D01*
X127936524Y-79890917D01*
X127940010Y-79906419D01*
X127940279Y-79908121D01*
X127940280Y-79908124D01*
X127940281Y-79908126D01*
X128001472Y-80028220D01*
X128001473Y-80028221D01*
X128001476Y-80028225D01*
X128096774Y-80123523D01*
X128096777Y-80123525D01*
X128096780Y-80123528D01*
X128216874Y-80184719D01*
X128216877Y-80184719D01*
X128216880Y-80184721D01*
X128226160Y-80187737D01*
X128225594Y-80189478D01*
X128278024Y-80214328D01*
X128314961Y-80273636D01*
X128319500Y-80306879D01*
X128319500Y-81146144D01*
X128339596Y-81221143D01*
X128341999Y-81230112D01*
X128343386Y-81235289D01*
X128389527Y-81315208D01*
X128389531Y-81315213D01*
X128668043Y-81593725D01*
X128701528Y-81655048D01*
X128701979Y-81657215D01*
X128711131Y-81703229D01*
X128711132Y-81703230D01*
X128755447Y-81769552D01*
X128821769Y-81813867D01*
X128821770Y-81813868D01*
X128880247Y-81825499D01*
X128880250Y-81825500D01*
X128880252Y-81825500D01*
X130169750Y-81825500D01*
X130169751Y-81825499D01*
X130184568Y-81822552D01*
X130228229Y-81813868D01*
X130228229Y-81813867D01*
X130228231Y-81813867D01*
X130294552Y-81769552D01*
X130297187Y-81765609D01*
X130350799Y-81720804D01*
X130400289Y-81710500D01*
X134899711Y-81710500D01*
X134966750Y-81730185D01*
X135002813Y-81765609D01*
X135005447Y-81769552D01*
X135071769Y-81813867D01*
X135071770Y-81813868D01*
X135130247Y-81825499D01*
X135130250Y-81825500D01*
X135130252Y-81825500D01*
X136419750Y-81825500D01*
X136419751Y-81825499D01*
X136434568Y-81822552D01*
X136478229Y-81813868D01*
X136478229Y-81813867D01*
X136478231Y-81813867D01*
X136544552Y-81769552D01*
X136588867Y-81703231D01*
X136588867Y-81703229D01*
X136588868Y-81703229D01*
X136600499Y-81644752D01*
X136600500Y-81644750D01*
X136600500Y-80605249D01*
X136600499Y-80605247D01*
X136588868Y-80546770D01*
X136588867Y-80546769D01*
X136544552Y-80480447D01*
X136478230Y-80436132D01*
X136478229Y-80436131D01*
X136419752Y-80424500D01*
X136419748Y-80424500D01*
X135192401Y-80424500D01*
X135126616Y-80405183D01*
X135082590Y-80433477D01*
X135071847Y-80436117D01*
X135071816Y-80436123D01*
X135071768Y-80436133D01*
X135005447Y-80480447D01*
X134961132Y-80546769D01*
X134961131Y-80546770D01*
X134949500Y-80605247D01*
X134949500Y-80885500D01*
X134929815Y-80952539D01*
X134877011Y-80998294D01*
X134825500Y-81009500D01*
X130474500Y-81009500D01*
X130407461Y-80989815D01*
X130361706Y-80937011D01*
X130350500Y-80885500D01*
X130350500Y-80605249D01*
X130350499Y-80605247D01*
X130338868Y-80546770D01*
X130338867Y-80546769D01*
X130294552Y-80480447D01*
X130228228Y-80436131D01*
X130223224Y-80434058D01*
X130168822Y-80390215D01*
X130146760Y-80323920D01*
X130164042Y-80256222D01*
X130215181Y-80208613D01*
X130270678Y-80195499D01*
X130581518Y-80195499D01*
X130675304Y-80180646D01*
X130788342Y-80123050D01*
X130812908Y-80098483D01*
X130874229Y-80064999D01*
X130943921Y-80069983D01*
X130976075Y-80087789D01*
X131102157Y-80184535D01*
X131102158Y-80184535D01*
X131102159Y-80184536D01*
X131248238Y-80245044D01*
X131326619Y-80255363D01*
X131404999Y-80265682D01*
X131405000Y-80265682D01*
X131405001Y-80265682D01*
X131476856Y-80256222D01*
X131561762Y-80245044D01*
X131707841Y-80184536D01*
X131833282Y-80088282D01*
X131929536Y-79962841D01*
X131990044Y-79816762D01*
X132010682Y-79660000D01*
X131990044Y-79503238D01*
X131929536Y-79357159D01*
X131833282Y-79231718D01*
X131707841Y-79135464D01*
X131707329Y-79135252D01*
X131561762Y-79074956D01*
X131561760Y-79074955D01*
X131405001Y-79054318D01*
X131404999Y-79054318D01*
X131248239Y-79074955D01*
X131248237Y-79074956D01*
X131102157Y-79135464D01*
X131049367Y-79175972D01*
X130984198Y-79201166D01*
X130915753Y-79187127D01*
X130886655Y-79161853D01*
X130884951Y-79163558D01*
X130788347Y-79066954D01*
X130788344Y-79066952D01*
X130788342Y-79066950D01*
X130711517Y-79027805D01*
X130675301Y-79009352D01*
X130581524Y-78994500D01*
X129968482Y-78994500D01*
X129887519Y-79007323D01*
X129874696Y-79009354D01*
X129761658Y-79066950D01*
X129761657Y-79066951D01*
X129761652Y-79066954D01*
X129671954Y-79156652D01*
X129671949Y-79156659D01*
X129638760Y-79221796D01*
X129590786Y-79272591D01*
X129528276Y-79289500D01*
X129381088Y-79289500D01*
X129314049Y-79269815D01*
X129268294Y-79217011D01*
X129263445Y-79200928D01*
X129262736Y-79201159D01*
X129259720Y-79191877D01*
X129259719Y-79191875D01*
X129259719Y-79191874D01*
X129198528Y-79071780D01*
X129198526Y-79071778D01*
X129198523Y-79071774D01*
X129179575Y-79052826D01*
X129146090Y-78991503D01*
X129151074Y-78921811D01*
X129192946Y-78865878D01*
X129202160Y-78859606D01*
X129302731Y-78797573D01*
X129422572Y-78677732D01*
X129422575Y-78677728D01*
X129511542Y-78533492D01*
X129511547Y-78533481D01*
X129525604Y-78491061D01*
X129565376Y-78433616D01*
X129629892Y-78406793D01*
X129698668Y-78419108D01*
X129730991Y-78442384D01*
X129761652Y-78473045D01*
X129761655Y-78473047D01*
X129761658Y-78473050D01*
X129809459Y-78497406D01*
X129874691Y-78530644D01*
X129874693Y-78530644D01*
X129874696Y-78530646D01*
X129874698Y-78530646D01*
X129883974Y-78533660D01*
X129883392Y-78535449D01*
X129918180Y-78549064D01*
X129943189Y-78565775D01*
X129943191Y-78565776D01*
X129943193Y-78565777D01*
X130070667Y-78618578D01*
X130070672Y-78618580D01*
X130070676Y-78618580D01*
X130070677Y-78618581D01*
X130206004Y-78645500D01*
X130206007Y-78645500D01*
X131253996Y-78645500D01*
X131345040Y-78627389D01*
X131389328Y-78618580D01*
X131453069Y-78592177D01*
X131516807Y-78565777D01*
X131516808Y-78565776D01*
X131516811Y-78565775D01*
X131631543Y-78489114D01*
X132029114Y-78091543D01*
X132105775Y-77976811D01*
X132158580Y-77849328D01*
X132174580Y-77768891D01*
X132185500Y-77713996D01*
X132185500Y-77576003D01*
X132158581Y-77440677D01*
X132158580Y-77440676D01*
X132158580Y-77440672D01*
X132148754Y-77416950D01*
X132105777Y-77313192D01*
X132029112Y-77198454D01*
X131931545Y-77100887D01*
X131816807Y-77024222D01*
X131689332Y-76971421D01*
X131689322Y-76971418D01*
X131553996Y-76944500D01*
X131553994Y-76944500D01*
X131416006Y-76944500D01*
X131416004Y-76944500D01*
X131280677Y-76971418D01*
X131280667Y-76971421D01*
X131153192Y-77024222D01*
X131038456Y-77100886D01*
X131009043Y-77130300D01*
X130931160Y-77208182D01*
X130869840Y-77241666D01*
X130843481Y-77244500D01*
X130558750Y-77244500D01*
X130491711Y-77224815D01*
X130445956Y-77172011D01*
X130436012Y-77102853D01*
X130442568Y-77077167D01*
X130468596Y-77007379D01*
X130468598Y-77007372D01*
X130474999Y-76947844D01*
X130475000Y-76947827D01*
X130475000Y-76650000D01*
X128225000Y-76650000D01*
X128225000Y-76947840D01*
X128225186Y-76949565D01*
X128225114Y-76949962D01*
X128225178Y-76951153D01*
X128224896Y-76951168D01*
X128212778Y-77018324D01*
X128165165Y-77069459D01*
X128140900Y-77080521D01*
X128041518Y-77113452D01*
X128041507Y-77113457D01*
X127897266Y-77202427D01*
X127895271Y-77204005D01*
X127893646Y-77204660D01*
X127891121Y-77206218D01*
X127890854Y-77205786D01*
X127830473Y-77230139D01*
X127761833Y-77217092D01*
X127711142Y-77169006D01*
X127694371Y-77106697D01*
X127694742Y-75852155D01*
X128225000Y-75852155D01*
X128225000Y-76150000D01*
X129100000Y-76150000D01*
X129600000Y-76150000D01*
X130475000Y-76150000D01*
X130475000Y-75852172D01*
X130474999Y-75852155D01*
X134475000Y-75852155D01*
X134475000Y-76150000D01*
X135350000Y-76150000D01*
X135850000Y-76150000D01*
X136725000Y-76150000D01*
X136725000Y-75852172D01*
X136724999Y-75852155D01*
X136718598Y-75792627D01*
X136718596Y-75792620D01*
X136668354Y-75657913D01*
X136668350Y-75657906D01*
X136582190Y-75542812D01*
X136582187Y-75542809D01*
X136467093Y-75456649D01*
X136467086Y-75456645D01*
X136332379Y-75406403D01*
X136332372Y-75406401D01*
X136272844Y-75400000D01*
X135850000Y-75400000D01*
X135850000Y-76150000D01*
X135350000Y-76150000D01*
X135350000Y-75400000D01*
X134927155Y-75400000D01*
X134867627Y-75406401D01*
X134867620Y-75406403D01*
X134732913Y-75456645D01*
X134732906Y-75456649D01*
X134617812Y-75542809D01*
X134617809Y-75542812D01*
X134531649Y-75657906D01*
X134531645Y-75657913D01*
X134481403Y-75792620D01*
X134481401Y-75792627D01*
X134475000Y-75852155D01*
X130474999Y-75852155D01*
X130468598Y-75792627D01*
X130468596Y-75792620D01*
X130418354Y-75657913D01*
X130418350Y-75657906D01*
X130332190Y-75542812D01*
X130332187Y-75542809D01*
X130217093Y-75456649D01*
X130217086Y-75456645D01*
X130082379Y-75406403D01*
X130082372Y-75406401D01*
X130022844Y-75400000D01*
X129600000Y-75400000D01*
X129600000Y-76150000D01*
X129100000Y-76150000D01*
X129100000Y-75400000D01*
X128677155Y-75400000D01*
X128617627Y-75406401D01*
X128617620Y-75406403D01*
X128482913Y-75456645D01*
X128482906Y-75456649D01*
X128367812Y-75542809D01*
X128367809Y-75542812D01*
X128281649Y-75657906D01*
X128281645Y-75657913D01*
X128231403Y-75792620D01*
X128231401Y-75792627D01*
X128225000Y-75852155D01*
X127694742Y-75852155D01*
X127697065Y-67990837D01*
X127697077Y-67989290D01*
X127699191Y-67843143D01*
X127700081Y-67830016D01*
X127735383Y-67539221D01*
X127738082Y-67524495D01*
X127753393Y-67462372D01*
X127807961Y-67240964D01*
X127812414Y-67226673D01*
X127813048Y-67225001D01*
X127915966Y-66953616D01*
X127922101Y-66939984D01*
X128057814Y-66681397D01*
X128065560Y-66668587D01*
X128231441Y-66428263D01*
X128240668Y-66416485D01*
X128434318Y-66197899D01*
X128444903Y-66187315D01*
X128447567Y-66184955D01*
X128663485Y-65993668D01*
X128675263Y-65984441D01*
X128915590Y-65818557D01*
X128928401Y-65810813D01*
X128933342Y-65808220D01*
X129186984Y-65675101D01*
X129200616Y-65668966D01*
X129473679Y-65565412D01*
X129487964Y-65560961D01*
X129771498Y-65491081D01*
X129786221Y-65488383D01*
X130077016Y-65453081D01*
X130090143Y-65452191D01*
X130236296Y-65450077D01*
X130237832Y-65450065D01*
X133392120Y-65449509D01*
X133459159Y-65469181D01*
X133504923Y-65521977D01*
X133514879Y-65591133D01*
X133497677Y-65638604D01*
X133443456Y-65726509D01*
X133443452Y-65726518D01*
X133390144Y-65887393D01*
X133380000Y-65986677D01*
X133380000Y-66010000D01*
X136086000Y-66010000D01*
X136153039Y-66029685D01*
X136198794Y-66082489D01*
X136210000Y-66134000D01*
X136210000Y-66386000D01*
X136190315Y-66453039D01*
X136137511Y-66498794D01*
X136086000Y-66510000D01*
X133380001Y-66510000D01*
X133380001Y-66516497D01*
X133360316Y-66583536D01*
X133307512Y-66629291D01*
X133272191Y-66639435D01*
X133269477Y-66639792D01*
X133268237Y-66639956D01*
X133122160Y-66700463D01*
X132996718Y-66796718D01*
X132900463Y-66922160D01*
X132839956Y-67068237D01*
X132839955Y-67068239D01*
X132819318Y-67224998D01*
X132819318Y-67225001D01*
X132839955Y-67381760D01*
X132839956Y-67381762D01*
X132865947Y-67444511D01*
X132900464Y-67527841D01*
X132996718Y-67653282D01*
X133122159Y-67749536D01*
X133268238Y-67810044D01*
X133347083Y-67820424D01*
X133410978Y-67848689D01*
X133418578Y-67855681D01*
X133660065Y-68097168D01*
X133693550Y-68158491D01*
X133694853Y-68165428D01*
X133695281Y-68168126D01*
X133756472Y-68288220D01*
X133756474Y-68288222D01*
X133756476Y-68288225D01*
X133851774Y-68383523D01*
X133851777Y-68383525D01*
X133851780Y-68383528D01*
X133851782Y-68383529D01*
X133859672Y-68389261D01*
X133858015Y-68391540D01*
X133897692Y-68429008D01*
X133914493Y-68496828D01*
X133891960Y-68562964D01*
X133837248Y-68606420D01*
X133829611Y-68609232D01*
X133756516Y-68633453D01*
X133756507Y-68633457D01*
X133612271Y-68722424D01*
X133612267Y-68722427D01*
X133492427Y-68842267D01*
X133492424Y-68842271D01*
X133403457Y-68986507D01*
X133403452Y-68986518D01*
X133350144Y-69147393D01*
X133340000Y-69246677D01*
X133340000Y-69270000D01*
X134441000Y-69270000D01*
X134508039Y-69289685D01*
X134553794Y-69342489D01*
X134565000Y-69394000D01*
X134565000Y-69646000D01*
X134545315Y-69713039D01*
X134492511Y-69758794D01*
X134441000Y-69770000D01*
X133340001Y-69770000D01*
X133340001Y-69793322D01*
X133350144Y-69892607D01*
X133403452Y-70053481D01*
X133403457Y-70053492D01*
X133492424Y-70197728D01*
X133492427Y-70197732D01*
X133612266Y-70317571D01*
X133712840Y-70379606D01*
X133759564Y-70431554D01*
X133770787Y-70500517D01*
X133742943Y-70564599D01*
X133735426Y-70572825D01*
X133716474Y-70591777D01*
X133716473Y-70591779D01*
X133716472Y-70591780D01*
X133680798Y-70661795D01*
X133632823Y-70712591D01*
X133570313Y-70729500D01*
X133197330Y-70729500D01*
X133130291Y-70709815D01*
X133086845Y-70661795D01*
X133043528Y-70576780D01*
X133043524Y-70576776D01*
X133043523Y-70576774D01*
X132948225Y-70481476D01*
X132948221Y-70481473D01*
X132948220Y-70481472D01*
X132828126Y-70420281D01*
X132828124Y-70420280D01*
X132828121Y-70420279D01*
X132728493Y-70404500D01*
X132728488Y-70404500D01*
X132211512Y-70404500D01*
X132211507Y-70404500D01*
X132111878Y-70420279D01*
X131991778Y-70481473D01*
X131972825Y-70500426D01*
X131911501Y-70533910D01*
X131841809Y-70528924D01*
X131785876Y-70487052D01*
X131779606Y-70477840D01*
X131717571Y-70377266D01*
X131597732Y-70257427D01*
X131597728Y-70257424D01*
X131453492Y-70168457D01*
X131453481Y-70168452D01*
X131292607Y-70115144D01*
X131273404Y-70113182D01*
X131208713Y-70086785D01*
X131168562Y-70029604D01*
X131165700Y-69959793D01*
X131201034Y-69899516D01*
X131236605Y-69876090D01*
X131289616Y-69853065D01*
X131289621Y-69853063D01*
X131289622Y-69853062D01*
X131289625Y-69853061D01*
X131535147Y-69703755D01*
X131758053Y-69522408D01*
X131954189Y-69312398D01*
X132119901Y-69077636D01*
X132252104Y-68822497D01*
X132348334Y-68551732D01*
X132406798Y-68270386D01*
X132426408Y-67983700D01*
X132406798Y-67697014D01*
X132348334Y-67415668D01*
X132311782Y-67312822D01*
X132252105Y-67144906D01*
X132252106Y-67144906D01*
X132119901Y-66889764D01*
X131954187Y-66654999D01*
X131818766Y-66510000D01*
X131758053Y-66444992D01*
X131535147Y-66263645D01*
X131535146Y-66263644D01*
X131289617Y-66114334D01*
X131026063Y-65999858D01*
X131026061Y-65999857D01*
X131026058Y-65999856D01*
X130888809Y-65961401D01*
X130749364Y-65922330D01*
X130749359Y-65922329D01*
X130749358Y-65922329D01*
X130607018Y-65902764D01*
X130464679Y-65883200D01*
X130464678Y-65883200D01*
X130177322Y-65883200D01*
X130177321Y-65883200D01*
X129892642Y-65922329D01*
X129892635Y-65922330D01*
X129692649Y-65978364D01*
X129615942Y-65999856D01*
X129615939Y-65999856D01*
X129615936Y-65999858D01*
X129615935Y-65999858D01*
X129352382Y-66114334D01*
X129106853Y-66263644D01*
X128883950Y-66444989D01*
X128687812Y-66654999D01*
X128522098Y-66889764D01*
X128389894Y-67144906D01*
X128293667Y-67415662D01*
X128293666Y-67415665D01*
X128235201Y-67697019D01*
X128215592Y-67983700D01*
X128235201Y-68270380D01*
X128293666Y-68551734D01*
X128293667Y-68551737D01*
X128389894Y-68822493D01*
X128389893Y-68822493D01*
X128522098Y-69077635D01*
X128687812Y-69312400D01*
X128757114Y-69386603D01*
X128883947Y-69522408D01*
X129106853Y-69703755D01*
X129273842Y-69805304D01*
X129352382Y-69853065D01*
X129494402Y-69914752D01*
X129615942Y-69967544D01*
X129892642Y-70045071D01*
X130139389Y-70078986D01*
X130203121Y-70107615D01*
X130241260Y-70166157D01*
X130241694Y-70236025D01*
X130210184Y-70289511D01*
X130122424Y-70377271D01*
X130033457Y-70521507D01*
X130033452Y-70521518D01*
X129980144Y-70682393D01*
X129970000Y-70781677D01*
X129970000Y-70830000D01*
X131046000Y-70830000D01*
X131113039Y-70849685D01*
X131158794Y-70902489D01*
X131170000Y-70954000D01*
X131170000Y-71206000D01*
X131150315Y-71273039D01*
X131097511Y-71318794D01*
X131046000Y-71330000D01*
X129970001Y-71330000D01*
X129970001Y-71378322D01*
X129980144Y-71477607D01*
X130022854Y-71606496D01*
X130025256Y-71676324D01*
X129989524Y-71736366D01*
X129927004Y-71767559D01*
X129905148Y-71769500D01*
X129868856Y-71769500D01*
X129779712Y-71793386D01*
X129779709Y-71793387D01*
X129699791Y-71839527D01*
X129699786Y-71839531D01*
X129376137Y-72163181D01*
X129314814Y-72196666D01*
X129288456Y-72199500D01*
X128705247Y-72199500D01*
X128646770Y-72211131D01*
X128646769Y-72211132D01*
X128580447Y-72255447D01*
X128536132Y-72321769D01*
X128536131Y-72321770D01*
X128524500Y-72380247D01*
X128524500Y-73419752D01*
X128536131Y-73478229D01*
X128536132Y-73478230D01*
X128580447Y-73544552D01*
X128646769Y-73588867D01*
X128646770Y-73588868D01*
X128705247Y-73600499D01*
X128705250Y-73600500D01*
X128705252Y-73600500D01*
X129994750Y-73600500D01*
X129994751Y-73600499D01*
X130009568Y-73597552D01*
X130053229Y-73588868D01*
X130053229Y-73588867D01*
X130053231Y-73588867D01*
X130119552Y-73544552D01*
X130119553Y-73544551D01*
X130122286Y-73541819D01*
X130183609Y-73508334D01*
X130209967Y-73505500D01*
X134740033Y-73505500D01*
X134807072Y-73525185D01*
X134827714Y-73541819D01*
X134830446Y-73544551D01*
X134896769Y-73588867D01*
X134896770Y-73588868D01*
X134955247Y-73600499D01*
X134955250Y-73600500D01*
X134955252Y-73600500D01*
X136244750Y-73600500D01*
X136244751Y-73600499D01*
X136259568Y-73597552D01*
X136303229Y-73588868D01*
X136303229Y-73588867D01*
X136303231Y-73588867D01*
X136369552Y-73544552D01*
X136413867Y-73478231D01*
X136413867Y-73478229D01*
X136413868Y-73478229D01*
X136425499Y-73419752D01*
X136425500Y-73419750D01*
X136425500Y-72380249D01*
X136425499Y-72380247D01*
X136413868Y-72321770D01*
X136413867Y-72321769D01*
X136369552Y-72255447D01*
X136303230Y-72211132D01*
X136303229Y-72211131D01*
X136244752Y-72199500D01*
X136244748Y-72199500D01*
X134955252Y-72199500D01*
X134955247Y-72199500D01*
X134896770Y-72211131D01*
X134896769Y-72211132D01*
X134830447Y-72255447D01*
X134786132Y-72321769D01*
X134786131Y-72321770D01*
X134774500Y-72380247D01*
X134774500Y-72680500D01*
X134754815Y-72747539D01*
X134702011Y-72793294D01*
X134650500Y-72804500D01*
X130299500Y-72804500D01*
X130232461Y-72784815D01*
X130186706Y-72732011D01*
X130175500Y-72680500D01*
X130175500Y-72594500D01*
X130195185Y-72527461D01*
X130247989Y-72481706D01*
X130299500Y-72470500D01*
X131301142Y-72470500D01*
X131301144Y-72470500D01*
X131390288Y-72446614D01*
X131470212Y-72400470D01*
X132083678Y-71787002D01*
X132144999Y-71753519D01*
X132190754Y-71752212D01*
X132211512Y-71755500D01*
X132211514Y-71755500D01*
X132728493Y-71755500D01*
X132828121Y-71739720D01*
X132828121Y-71739719D01*
X132828126Y-71739719D01*
X132948220Y-71678528D01*
X133043528Y-71583220D01*
X133086845Y-71498204D01*
X133134820Y-71447409D01*
X133197330Y-71430500D01*
X133580504Y-71430500D01*
X133647543Y-71450185D01*
X133690989Y-71498206D01*
X133716471Y-71548218D01*
X133716476Y-71548225D01*
X133811774Y-71643523D01*
X133811778Y-71643526D01*
X133811780Y-71643528D01*
X133931874Y-71704719D01*
X133931876Y-71704719D01*
X133931878Y-71704720D01*
X134031507Y-71720500D01*
X134031512Y-71720500D01*
X134598493Y-71720500D01*
X134698121Y-71704720D01*
X134698121Y-71704719D01*
X134698126Y-71704719D01*
X134818220Y-71643528D01*
X134913528Y-71548220D01*
X134939011Y-71498205D01*
X134986985Y-71447409D01*
X135049496Y-71430500D01*
X135220728Y-71430500D01*
X135287767Y-71450185D01*
X135331212Y-71498204D01*
X135366949Y-71568340D01*
X135366954Y-71568347D01*
X135456652Y-71658045D01*
X135456654Y-71658046D01*
X135456658Y-71658050D01*
X135548251Y-71704719D01*
X135569698Y-71715647D01*
X135663475Y-71730499D01*
X135663481Y-71730500D01*
X136276518Y-71730499D01*
X136370304Y-71715646D01*
X136483342Y-71658050D01*
X136573050Y-71568342D01*
X136630646Y-71455304D01*
X136630646Y-71455302D01*
X136630647Y-71455301D01*
X136645499Y-71361524D01*
X136645500Y-71361519D01*
X136645499Y-70986542D01*
X136665183Y-70919504D01*
X136681813Y-70898867D01*
X137107820Y-70472861D01*
X137169142Y-70439377D01*
X137238834Y-70444361D01*
X137294767Y-70486233D01*
X137319184Y-70551697D01*
X137319500Y-70560543D01*
X137319500Y-71184752D01*
X137331131Y-71243229D01*
X137331132Y-71243230D01*
X137356442Y-71281109D01*
X137377320Y-71347787D01*
X137358835Y-71415167D01*
X137356442Y-71418891D01*
X137331132Y-71456769D01*
X137331131Y-71456770D01*
X137319500Y-71515247D01*
X137319500Y-72454752D01*
X137331131Y-72513229D01*
X137331132Y-72513230D01*
X137356442Y-72551109D01*
X137377320Y-72617787D01*
X137358835Y-72685167D01*
X137356442Y-72688891D01*
X137331132Y-72726769D01*
X137331131Y-72726770D01*
X137319500Y-72785247D01*
X137319500Y-73724752D01*
X137331131Y-73783229D01*
X137331132Y-73783230D01*
X137356442Y-73821109D01*
X137377320Y-73887787D01*
X137358835Y-73955167D01*
X137356442Y-73958891D01*
X137331132Y-73996769D01*
X137331131Y-73996770D01*
X137319500Y-74055247D01*
X137319500Y-74994752D01*
X137331131Y-75053229D01*
X137331132Y-75053230D01*
X137356442Y-75091109D01*
X137377320Y-75157787D01*
X137358835Y-75225167D01*
X137356442Y-75228891D01*
X137331132Y-75266769D01*
X137331131Y-75266770D01*
X137319500Y-75325247D01*
X137319500Y-76264752D01*
X137331131Y-76323229D01*
X137331132Y-76323230D01*
X137356442Y-76361109D01*
X137377320Y-76427787D01*
X137358835Y-76495167D01*
X137356442Y-76498891D01*
X137331132Y-76536769D01*
X137331131Y-76536770D01*
X137319500Y-76595247D01*
X137319500Y-76595252D01*
X137319500Y-77534748D01*
X137319501Y-77534752D01*
X137327767Y-77576310D01*
X137321539Y-77645901D01*
X137278675Y-77701078D01*
X137212785Y-77724322D01*
X137206149Y-77724500D01*
X137182111Y-77724500D01*
X137115072Y-77704815D01*
X137069317Y-77652011D01*
X137059638Y-77619897D01*
X137055647Y-77594700D01*
X137055647Y-77594699D01*
X137055646Y-77594697D01*
X137055646Y-77594696D01*
X136998050Y-77481658D01*
X136998046Y-77481654D01*
X136998045Y-77481652D01*
X136908347Y-77391954D01*
X136908344Y-77391952D01*
X136908342Y-77391950D01*
X136795304Y-77334354D01*
X136795303Y-77334353D01*
X136795300Y-77334352D01*
X136755564Y-77328059D01*
X136692429Y-77298130D01*
X136655498Y-77238818D01*
X136656496Y-77168955D01*
X136666135Y-77146150D01*
X136668354Y-77142085D01*
X136718596Y-77007379D01*
X136718598Y-77007372D01*
X136724999Y-76947844D01*
X136725000Y-76947827D01*
X136725000Y-76650000D01*
X134475000Y-76650000D01*
X134475000Y-76936463D01*
X134455315Y-77003502D01*
X134402511Y-77049257D01*
X134390005Y-77054169D01*
X134242925Y-77102907D01*
X134242922Y-77102908D01*
X134099919Y-77191114D01*
X133981114Y-77309919D01*
X133892908Y-77452922D01*
X133892906Y-77452927D01*
X133840057Y-77612416D01*
X133830000Y-77710849D01*
X133830000Y-77727500D01*
X134931000Y-77727500D01*
X134998039Y-77747185D01*
X135043794Y-77799989D01*
X135055000Y-77851500D01*
X135055000Y-78103500D01*
X135035315Y-78170539D01*
X134982511Y-78216294D01*
X134931000Y-78227500D01*
X133830001Y-78227500D01*
X133830001Y-78244152D01*
X133840056Y-78342583D01*
X133892906Y-78502072D01*
X133892908Y-78502077D01*
X133981114Y-78645080D01*
X134099919Y-78763885D01*
X134229793Y-78843992D01*
X134276517Y-78895940D01*
X134287740Y-78964903D01*
X134259896Y-79028985D01*
X134252378Y-79037211D01*
X134205346Y-79084243D01*
X134205343Y-79084248D01*
X134145047Y-79202582D01*
X134129500Y-79300748D01*
X134129500Y-79804251D01*
X134145047Y-79902417D01*
X134147956Y-79908126D01*
X134205342Y-80020751D01*
X134205344Y-80020753D01*
X134205346Y-80020756D01*
X134299243Y-80114653D01*
X134299245Y-80114654D01*
X134299249Y-80114658D01*
X134417580Y-80174951D01*
X134417581Y-80174951D01*
X134417583Y-80174952D01*
X134417582Y-80174952D01*
X134515749Y-80190500D01*
X135047655Y-80190500D01*
X135113439Y-80209816D01*
X135157466Y-80181523D01*
X135173003Y-80178027D01*
X135192417Y-80174952D01*
X135192418Y-80174951D01*
X135192420Y-80174951D01*
X135310751Y-80114658D01*
X135404658Y-80020751D01*
X135421241Y-79988204D01*
X135469216Y-79937409D01*
X135531726Y-79920500D01*
X135671205Y-79920500D01*
X135738244Y-79940185D01*
X135781689Y-79988204D01*
X135791949Y-80008340D01*
X135791954Y-80008347D01*
X135881652Y-80098045D01*
X135881654Y-80098046D01*
X135881658Y-80098050D01*
X135994694Y-80155645D01*
X135994698Y-80155647D01*
X136088475Y-80170499D01*
X136088481Y-80170500D01*
X136701518Y-80170499D01*
X136795304Y-80155646D01*
X136908342Y-80098050D01*
X136998050Y-80008342D01*
X137055646Y-79895304D01*
X137055646Y-79895302D01*
X137055647Y-79895301D01*
X137070499Y-79801524D01*
X137070500Y-79801519D01*
X137070499Y-79338482D01*
X137055646Y-79244696D01*
X136998050Y-79131658D01*
X136998046Y-79131654D01*
X136998045Y-79131652D01*
X136908347Y-79041954D01*
X136908344Y-79041952D01*
X136908342Y-79041950D01*
X136809335Y-78991503D01*
X136795301Y-78984352D01*
X136701524Y-78969500D01*
X136088482Y-78969500D01*
X136007519Y-78982323D01*
X135994696Y-78984354D01*
X135881658Y-79041950D01*
X135881657Y-79041951D01*
X135881652Y-79041954D01*
X135791954Y-79131652D01*
X135791949Y-79131659D01*
X135781689Y-79151796D01*
X135733714Y-79202591D01*
X135671205Y-79219500D01*
X135549559Y-79219500D01*
X135482520Y-79199815D01*
X135439075Y-79151796D01*
X135404658Y-79084249D01*
X135404654Y-79084245D01*
X135404653Y-79084243D01*
X135357622Y-79037212D01*
X135324137Y-78975889D01*
X135329121Y-78906197D01*
X135370993Y-78850264D01*
X135380207Y-78843992D01*
X135510078Y-78763887D01*
X135628885Y-78645080D01*
X135720884Y-78495928D01*
X135723281Y-78497406D01*
X135760873Y-78454651D01*
X135828052Y-78435451D01*
X135883450Y-78448963D01*
X135994694Y-78505645D01*
X135994696Y-78505646D01*
X135994698Y-78505647D01*
X136088475Y-78520499D01*
X136088481Y-78520500D01*
X136701518Y-78520499D01*
X136795304Y-78505646D01*
X136908342Y-78448050D01*
X136908343Y-78448048D01*
X136917037Y-78443619D01*
X136917857Y-78445230D01*
X136972591Y-78425702D01*
X136979669Y-78425500D01*
X137195500Y-78425500D01*
X137262539Y-78445185D01*
X137308294Y-78497989D01*
X137319500Y-78549500D01*
X137319500Y-78804752D01*
X137331131Y-78863229D01*
X137331132Y-78863230D01*
X137356442Y-78901109D01*
X137377320Y-78967787D01*
X137358835Y-79035167D01*
X137356442Y-79038891D01*
X137331132Y-79076769D01*
X137331131Y-79076770D01*
X137319500Y-79135247D01*
X137319500Y-80074752D01*
X137331131Y-80133229D01*
X137331132Y-80133230D01*
X137356442Y-80171109D01*
X137377320Y-80237787D01*
X137358835Y-80305167D01*
X137356442Y-80308891D01*
X137331132Y-80346769D01*
X137331131Y-80346770D01*
X137319500Y-80405247D01*
X137319500Y-81344752D01*
X137331131Y-81403229D01*
X137331132Y-81403230D01*
X137356442Y-81441109D01*
X137377320Y-81507787D01*
X137358835Y-81575167D01*
X137356442Y-81578891D01*
X137331132Y-81616769D01*
X137331131Y-81616770D01*
X137319500Y-81675247D01*
X137319500Y-81985500D01*
X137299815Y-82052539D01*
X137247011Y-82098294D01*
X137195500Y-82109500D01*
X135840438Y-82109500D01*
X135789486Y-82123152D01*
X135764010Y-82129979D01*
X135736346Y-82145951D01*
X135728936Y-82150230D01*
X135728934Y-82150231D01*
X135728932Y-82150231D01*
X135695495Y-82169535D01*
X135695487Y-82169541D01*
X133034541Y-84830487D01*
X133034535Y-84830495D01*
X132994982Y-84899004D01*
X132994979Y-84899009D01*
X132981326Y-84949962D01*
X132974500Y-84975438D01*
X132974500Y-89514562D01*
X132981694Y-89541410D01*
X132994979Y-89590989D01*
X133016164Y-89627682D01*
X133016165Y-89627684D01*
X133034539Y-89659509D01*
X133034541Y-89659512D01*
X133497327Y-90122298D01*
X133530812Y-90183621D01*
X133529421Y-90242071D01*
X133524500Y-90260435D01*
X133524500Y-90260438D01*
X133524500Y-90689562D01*
X133544979Y-90765989D01*
X133578627Y-90824269D01*
X133584540Y-90834511D01*
X133584543Y-90834515D01*
X133803339Y-91053310D01*
X133987040Y-91237011D01*
X134042989Y-91292960D01*
X134042990Y-91292961D01*
X134042992Y-91292962D01*
X134059998Y-91302780D01*
X134108214Y-91353346D01*
X134122000Y-91410168D01*
X134122000Y-91722247D01*
X134133151Y-91778310D01*
X134133151Y-91826690D01*
X134122000Y-91882752D01*
X134122000Y-92222247D01*
X134133151Y-92278310D01*
X134133151Y-92326690D01*
X134122000Y-92382752D01*
X134122000Y-92722252D01*
X134133631Y-92780729D01*
X134133632Y-92780730D01*
X134177947Y-92847052D01*
X134244269Y-92891367D01*
X134244270Y-92891368D01*
X134302191Y-92902889D01*
X134364102Y-92935273D01*
X134398676Y-92995989D01*
X134402000Y-93024506D01*
X134402000Y-93141897D01*
X134382315Y-93208936D01*
X134329511Y-93254691D01*
X134260353Y-93264635D01*
X134245911Y-93261672D01*
X134191151Y-93247000D01*
X134073849Y-93247000D01*
X133960541Y-93277360D01*
X133858957Y-93336011D01*
X133858954Y-93336013D01*
X133776013Y-93418954D01*
X133776011Y-93418957D01*
X133717360Y-93520541D01*
X133696977Y-93596613D01*
X133687000Y-93633849D01*
X133687000Y-93751151D01*
X133697678Y-93791003D01*
X133717360Y-93864458D01*
X133746685Y-93915250D01*
X133776011Y-93966043D01*
X133858957Y-94048989D01*
X133960543Y-94107640D01*
X134040594Y-94129089D01*
X134100253Y-94165452D01*
X134130783Y-94228299D01*
X134132500Y-94248863D01*
X134132500Y-94298000D01*
X134112815Y-94365039D01*
X134060011Y-94410794D01*
X134019392Y-94419630D01*
X134019567Y-94421403D01*
X134013504Y-94421999D01*
X133878177Y-94448918D01*
X133878167Y-94448921D01*
X133750695Y-94501721D01*
X133750682Y-94501728D01*
X133635958Y-94578385D01*
X133635954Y-94578388D01*
X133538388Y-94675954D01*
X133538385Y-94675958D01*
X133461728Y-94790682D01*
X133461721Y-94790695D01*
X133408921Y-94918167D01*
X133408918Y-94918177D01*
X133382000Y-95053504D01*
X133382000Y-95053507D01*
X133382000Y-95191493D01*
X133382000Y-95191495D01*
X133381999Y-95191495D01*
X133408918Y-95326822D01*
X133408921Y-95326832D01*
X133461721Y-95454304D01*
X133461728Y-95454317D01*
X133538385Y-95569041D01*
X133538388Y-95569045D01*
X133635954Y-95666611D01*
X133635958Y-95666614D01*
X133750682Y-95743271D01*
X133750695Y-95743278D01*
X133878167Y-95796078D01*
X133878172Y-95796080D01*
X133878176Y-95796080D01*
X133878177Y-95796081D01*
X134013504Y-95823000D01*
X134013507Y-95823000D01*
X135251495Y-95823000D01*
X135348952Y-95803614D01*
X135386828Y-95796080D01*
X135514311Y-95743275D01*
X135629042Y-95666614D01*
X135726614Y-95569042D01*
X135803275Y-95454311D01*
X135856080Y-95326828D01*
X135876364Y-95224855D01*
X135883000Y-95191495D01*
X135883000Y-95053504D01*
X135860001Y-94937883D01*
X135856080Y-94918172D01*
X135856079Y-94918169D01*
X135855705Y-94916289D01*
X135861932Y-94846698D01*
X135904794Y-94791520D01*
X135933989Y-94775915D01*
X136014586Y-94745854D01*
X136014593Y-94745850D01*
X136129687Y-94659690D01*
X136129690Y-94659687D01*
X136215850Y-94544593D01*
X136215854Y-94544586D01*
X136266096Y-94409879D01*
X136266098Y-94409872D01*
X136272499Y-94350344D01*
X136272500Y-94350327D01*
X136272500Y-94252500D01*
X134501894Y-94252500D01*
X134434855Y-94232815D01*
X134389100Y-94180011D01*
X134379156Y-94110853D01*
X134408181Y-94047297D01*
X134414213Y-94040819D01*
X134445032Y-94010000D01*
X134488989Y-93966043D01*
X134547640Y-93864457D01*
X134553012Y-93844406D01*
X134589377Y-93784746D01*
X134652224Y-93754217D01*
X134672787Y-93752500D01*
X134952500Y-93752500D01*
X134965681Y-93739319D01*
X135027004Y-93705834D01*
X135053362Y-93703000D01*
X135351638Y-93703000D01*
X135418677Y-93722685D01*
X135439319Y-93739319D01*
X135452500Y-93752500D01*
X136272500Y-93752500D01*
X136272500Y-93744500D01*
X136292185Y-93677461D01*
X136344989Y-93631706D01*
X136396500Y-93620500D01*
X136982207Y-93620500D01*
X137049246Y-93640185D01*
X137095001Y-93692989D01*
X137105698Y-93755721D01*
X137100000Y-93818427D01*
X137100000Y-93825000D01*
X139049999Y-93825000D01*
X139049999Y-93818416D01*
X139049998Y-93818415D01*
X139044303Y-93755719D01*
X139057841Y-93687174D01*
X139106289Y-93636829D01*
X139167794Y-93620500D01*
X139976142Y-93620500D01*
X139976144Y-93620500D01*
X140065288Y-93596614D01*
X140080511Y-93587825D01*
X140080512Y-93587825D01*
X140145205Y-93550474D01*
X140145204Y-93550474D01*
X140145212Y-93550470D01*
X140382106Y-93313574D01*
X140443425Y-93280092D01*
X140483036Y-93277969D01*
X140506576Y-93280500D01*
X140506586Y-93280500D01*
X141293414Y-93280500D01*
X141293424Y-93280500D01*
X141350329Y-93274382D01*
X141479054Y-93226370D01*
X141589038Y-93144038D01*
X141671370Y-93034054D01*
X141719382Y-92905329D01*
X141725500Y-92848424D01*
X141725500Y-92091576D01*
X141719382Y-92034671D01*
X141671370Y-91905946D01*
X141656594Y-91886207D01*
X141589038Y-91795961D01*
X141479053Y-91713629D01*
X141350332Y-91665619D01*
X141350331Y-91665618D01*
X141350329Y-91665618D01*
X141293424Y-91659500D01*
X140506576Y-91659500D01*
X140449671Y-91665618D01*
X140446817Y-91666682D01*
X140403485Y-91674500D01*
X139874116Y-91674500D01*
X139807077Y-91654815D01*
X139775742Y-91625989D01*
X139753282Y-91596718D01*
X139627841Y-91500464D01*
X139481762Y-91439956D01*
X139481760Y-91439955D01*
X139325001Y-91419318D01*
X139324999Y-91419318D01*
X139168239Y-91439955D01*
X139168237Y-91439956D01*
X139022160Y-91500463D01*
X138896718Y-91596718D01*
X138800464Y-91722159D01*
X138755047Y-91831804D01*
X138711205Y-91886207D01*
X138644911Y-91908271D01*
X138584191Y-91894835D01*
X138475301Y-91839352D01*
X138381524Y-91824500D01*
X137768482Y-91824500D01*
X137687519Y-91837323D01*
X137674696Y-91839354D01*
X137561658Y-91896950D01*
X137561657Y-91896951D01*
X137561652Y-91896954D01*
X137471954Y-91986652D01*
X137471951Y-91986657D01*
X137471950Y-91986658D01*
X137452751Y-92024337D01*
X137414352Y-92099698D01*
X137411337Y-92108980D01*
X137409509Y-92108386D01*
X137384785Y-92160536D01*
X137325472Y-92197465D01*
X137292244Y-92202000D01*
X136097000Y-92202000D01*
X136029961Y-92182315D01*
X135984206Y-92129511D01*
X135973000Y-92078000D01*
X135973000Y-91977000D01*
X135992685Y-91909961D01*
X136045489Y-91864206D01*
X136097000Y-91853000D01*
X136262060Y-91853000D01*
X136262062Y-91853000D01*
X136338489Y-91832521D01*
X136407011Y-91792960D01*
X136462960Y-91737011D01*
X136740460Y-91459511D01*
X136773086Y-91403000D01*
X136780021Y-91390989D01*
X136800500Y-91314562D01*
X136800500Y-90925833D01*
X136820185Y-90858794D01*
X136836819Y-90838152D01*
X137563152Y-90111819D01*
X137624475Y-90078334D01*
X137650833Y-90075500D01*
X139839560Y-90075500D01*
X139839562Y-90075500D01*
X139915989Y-90055021D01*
X139984511Y-90015460D01*
X140040460Y-89959511D01*
X140815460Y-89184511D01*
X140855022Y-89115988D01*
X140875500Y-89039562D01*
X140875500Y-88960438D01*
X140875500Y-86835438D01*
X140855021Y-86759011D01*
X140855017Y-86759004D01*
X140815464Y-86690495D01*
X140815458Y-86690487D01*
X139952152Y-85827181D01*
X139918667Y-85765858D01*
X139923651Y-85696166D01*
X139965523Y-85640233D01*
X140030987Y-85615816D01*
X140039833Y-85615500D01*
X140504750Y-85615500D01*
X140504751Y-85615499D01*
X140522630Y-85611943D01*
X140563229Y-85603868D01*
X140563231Y-85603867D01*
X140601108Y-85578558D01*
X140667785Y-85557679D01*
X140735165Y-85576163D01*
X140738892Y-85578558D01*
X140776768Y-85603867D01*
X140776770Y-85603868D01*
X140835247Y-85615499D01*
X140835250Y-85615500D01*
X140835252Y-85615500D01*
X141774750Y-85615500D01*
X141774751Y-85615499D01*
X141792630Y-85611943D01*
X141833229Y-85603868D01*
X141833231Y-85603867D01*
X141871108Y-85578558D01*
X141937785Y-85557679D01*
X142005165Y-85576163D01*
X142008892Y-85578558D01*
X142046768Y-85603867D01*
X142046770Y-85603868D01*
X142100496Y-85614554D01*
X142105252Y-85615500D01*
X142105257Y-85615500D01*
X142111312Y-85616097D01*
X142111065Y-85618602D01*
X142167539Y-85635185D01*
X142213294Y-85687989D01*
X142224500Y-85739500D01*
X142224500Y-89771144D01*
X142228079Y-89784500D01*
X142245762Y-89850495D01*
X142248386Y-89860288D01*
X142248387Y-89860290D01*
X142294527Y-89940208D01*
X142294529Y-89940211D01*
X142294530Y-89940212D01*
X144709788Y-92355470D01*
X144770606Y-92390583D01*
X144789712Y-92401614D01*
X144878856Y-92425500D01*
X147026355Y-92425500D01*
X147093394Y-92445185D01*
X147139149Y-92497989D01*
X147149093Y-92567147D01*
X147129311Y-92618609D01*
X147111462Y-92645200D01*
X147096187Y-92663772D01*
X146185887Y-93574072D01*
X146109216Y-93688820D01*
X146108507Y-93690147D01*
X146107953Y-93690710D01*
X146105841Y-93693872D01*
X146105240Y-93693470D01*
X146059536Y-93739983D01*
X145991395Y-93755432D01*
X145925720Y-93731588D01*
X145893621Y-93696772D01*
X145807575Y-93557271D01*
X145807572Y-93557267D01*
X145687732Y-93437427D01*
X145687728Y-93437424D01*
X145543492Y-93348457D01*
X145543481Y-93348452D01*
X145382606Y-93295144D01*
X145283322Y-93285000D01*
X145260000Y-93285000D01*
X145260000Y-95234999D01*
X145283308Y-95234999D01*
X145283322Y-95234998D01*
X145382607Y-95224855D01*
X145543481Y-95171547D01*
X145543492Y-95171542D01*
X145687728Y-95082575D01*
X145687732Y-95082572D01*
X145807572Y-94962732D01*
X145807575Y-94962728D01*
X145896542Y-94818492D01*
X145896548Y-94818479D01*
X145916676Y-94757736D01*
X145956448Y-94700291D01*
X146020963Y-94673467D01*
X146089739Y-94685781D01*
X146140940Y-94733324D01*
X146144866Y-94740442D01*
X146156472Y-94763220D01*
X146156476Y-94763225D01*
X146251774Y-94858523D01*
X146251778Y-94858526D01*
X146251780Y-94858528D01*
X146371874Y-94919719D01*
X146371876Y-94919719D01*
X146371878Y-94919720D01*
X146471507Y-94935500D01*
X146471512Y-94935500D01*
X146523113Y-94935500D01*
X146547303Y-94937882D01*
X146573463Y-94943086D01*
X146661004Y-94960500D01*
X146661007Y-94960500D01*
X146798995Y-94960500D01*
X146877505Y-94944882D01*
X146912696Y-94937882D01*
X146936887Y-94935500D01*
X146988493Y-94935500D01*
X147088121Y-94919720D01*
X147088121Y-94919719D01*
X147088126Y-94919719D01*
X147208220Y-94858528D01*
X147227173Y-94839574D01*
X147288494Y-94806090D01*
X147358185Y-94811073D01*
X147414120Y-94852944D01*
X147420392Y-94862159D01*
X147482424Y-94962728D01*
X147482427Y-94962732D01*
X147602267Y-95082572D01*
X147602271Y-95082575D01*
X147746507Y-95171542D01*
X147746518Y-95171547D01*
X147907393Y-95224855D01*
X148006683Y-95234999D01*
X148530000Y-95234999D01*
X148553308Y-95234999D01*
X148553322Y-95234998D01*
X148652607Y-95224855D01*
X148813481Y-95171547D01*
X148813492Y-95171542D01*
X148957728Y-95082575D01*
X148957732Y-95082572D01*
X149077572Y-94962732D01*
X149077575Y-94962728D01*
X149166542Y-94818492D01*
X149166547Y-94818481D01*
X149219855Y-94657606D01*
X149225316Y-94604152D01*
X149582501Y-94604152D01*
X149592556Y-94702583D01*
X149645406Y-94862072D01*
X149645408Y-94862077D01*
X149733614Y-95005080D01*
X149852419Y-95123885D01*
X149995422Y-95212091D01*
X149995427Y-95212093D01*
X150154916Y-95264942D01*
X150253356Y-95274999D01*
X150270000Y-95274998D01*
X150270000Y-94550000D01*
X149582501Y-94550000D01*
X149582501Y-94604152D01*
X149225316Y-94604152D01*
X149229999Y-94558322D01*
X149230000Y-94558309D01*
X149230000Y-94510000D01*
X148530000Y-94510000D01*
X148530000Y-95234999D01*
X148006683Y-95234999D01*
X148030000Y-95234998D01*
X148030000Y-94134000D01*
X148049685Y-94066961D01*
X148102489Y-94021206D01*
X148154000Y-94010000D01*
X149229999Y-94010000D01*
X149229999Y-93961692D01*
X149229998Y-93961679D01*
X149224778Y-93910581D01*
X149237547Y-93841888D01*
X149285428Y-93791003D01*
X149348390Y-93773978D01*
X149468089Y-93774226D01*
X149535083Y-93794048D01*
X149580728Y-93846946D01*
X149591186Y-93910827D01*
X149582500Y-93995847D01*
X149582500Y-94050000D01*
X150646000Y-94050000D01*
X150713039Y-94069685D01*
X150758794Y-94122489D01*
X150770000Y-94174000D01*
X150770000Y-95274999D01*
X150786636Y-95274999D01*
X150786652Y-95274998D01*
X150885083Y-95264943D01*
X151044572Y-95212093D01*
X151044577Y-95212091D01*
X151187580Y-95123885D01*
X151306387Y-95005078D01*
X151386492Y-94875207D01*
X151438440Y-94828482D01*
X151507402Y-94817259D01*
X151571484Y-94845102D01*
X151579712Y-94852622D01*
X151626743Y-94899653D01*
X151626745Y-94899654D01*
X151626749Y-94899658D01*
X151745080Y-94959951D01*
X151745081Y-94959951D01*
X151745083Y-94959952D01*
X151745082Y-94959952D01*
X151843249Y-94975500D01*
X151843254Y-94975500D01*
X152346751Y-94975500D01*
X152444917Y-94959952D01*
X152444918Y-94959951D01*
X152444920Y-94959951D01*
X152563251Y-94899658D01*
X152657158Y-94805751D01*
X152701766Y-94718202D01*
X152749738Y-94667409D01*
X152812249Y-94650500D01*
X153293372Y-94650500D01*
X153360411Y-94670185D01*
X153403855Y-94718202D01*
X153431950Y-94773342D01*
X153431951Y-94773343D01*
X153431954Y-94773347D01*
X153521652Y-94863045D01*
X153521654Y-94863046D01*
X153521658Y-94863050D01*
X153614391Y-94910300D01*
X153634698Y-94920647D01*
X153728475Y-94935499D01*
X153728481Y-94935500D01*
X154191518Y-94935499D01*
X154285304Y-94920646D01*
X154398342Y-94863050D01*
X154488050Y-94773342D01*
X154545646Y-94660304D01*
X154545646Y-94660302D01*
X154545647Y-94660301D01*
X154560499Y-94566524D01*
X154560500Y-94566519D01*
X154560499Y-94025516D01*
X154580183Y-93958478D01*
X154632987Y-93912723D01*
X154702146Y-93902779D01*
X154765702Y-93931804D01*
X154772180Y-93937836D01*
X154873181Y-94038837D01*
X154906666Y-94100160D01*
X154909500Y-94126518D01*
X154909500Y-95705500D01*
X154889815Y-95772539D01*
X154837011Y-95818294D01*
X154785500Y-95829500D01*
X153355904Y-95829500D01*
X153263438Y-95835918D01*
X153263422Y-95835920D01*
X153046864Y-95886854D01*
X153046848Y-95886860D01*
X152843331Y-95976721D01*
X152659779Y-96102457D01*
X152659773Y-96102462D01*
X152502462Y-96259773D01*
X152502457Y-96259779D01*
X152376721Y-96443331D01*
X152286860Y-96646848D01*
X152286854Y-96646864D01*
X152235920Y-96863422D01*
X152235918Y-96863438D01*
X152229500Y-96955904D01*
X152229500Y-99005500D01*
X152209815Y-99072539D01*
X152157011Y-99118294D01*
X152105500Y-99129500D01*
X148291787Y-99129500D01*
X148224748Y-99109815D01*
X148193412Y-99080987D01*
X148165454Y-99044552D01*
X148165452Y-99044550D01*
X148165451Y-99044549D01*
X148045233Y-98952302D01*
X148045230Y-98952301D01*
X148038785Y-98947355D01*
X148039651Y-98946225D01*
X147997490Y-98902007D01*
X147984268Y-98833399D01*
X148010236Y-98768535D01*
X148052612Y-98734100D01*
X148229022Y-98646609D01*
X148229025Y-98646607D01*
X148377366Y-98527367D01*
X148377367Y-98527366D01*
X148496607Y-98379025D01*
X148496609Y-98379022D01*
X148581168Y-98208523D01*
X148627102Y-98023824D01*
X148630000Y-97981096D01*
X148630000Y-97780000D01*
X143630000Y-97780000D01*
X143630000Y-97981096D01*
X143632897Y-98023824D01*
X143678831Y-98208523D01*
X143763390Y-98379022D01*
X143763392Y-98379025D01*
X143882632Y-98527366D01*
X143882633Y-98527367D01*
X144030974Y-98646607D01*
X144030977Y-98646609D01*
X144207387Y-98734100D01*
X144258700Y-98781521D01*
X144276229Y-98849156D01*
X144254410Y-98915531D01*
X144220689Y-98946670D01*
X144221215Y-98947355D01*
X144214769Y-98952301D01*
X144214767Y-98952302D01*
X144094549Y-99044549D01*
X144016730Y-99145965D01*
X144002300Y-99164770D01*
X143944313Y-99304763D01*
X143944313Y-99304764D01*
X143929500Y-99417272D01*
X143929500Y-100242727D01*
X143942270Y-100339720D01*
X143943018Y-100345403D01*
X143944313Y-100355235D01*
X143944313Y-100355236D01*
X143989387Y-100464055D01*
X144002302Y-100495233D01*
X144094549Y-100615451D01*
X144214021Y-100707125D01*
X144255222Y-100763552D01*
X144259377Y-100833299D01*
X144225164Y-100894219D01*
X144163447Y-100926971D01*
X144138533Y-100929500D01*
X142198626Y-100929500D01*
X142131587Y-100909815D01*
X142110945Y-100893181D01*
X141681819Y-100464055D01*
X141648334Y-100402732D01*
X141645500Y-100376374D01*
X141645500Y-100270730D01*
X141642646Y-100240300D01*
X141642646Y-100240298D01*
X141597793Y-100112119D01*
X141597790Y-100112113D01*
X141569730Y-100074093D01*
X141545759Y-100008464D01*
X141545500Y-100000460D01*
X141545500Y-99739544D01*
X141565185Y-99672505D01*
X141617989Y-99626750D01*
X141687147Y-99616806D01*
X141738391Y-99636442D01*
X141853711Y-99713497D01*
X141853713Y-99713497D01*
X141853715Y-99713499D01*
X141984838Y-99767811D01*
X142018925Y-99774591D01*
X142124034Y-99795500D01*
X142124037Y-99795500D01*
X142265965Y-99795500D01*
X142336037Y-99781561D01*
X142405162Y-99767811D01*
X142536285Y-99713499D01*
X142654292Y-99634649D01*
X142754649Y-99534292D01*
X142833499Y-99416285D01*
X142887811Y-99285162D01*
X142901561Y-99216037D01*
X142915500Y-99145965D01*
X142915500Y-99004034D01*
X142893674Y-98894313D01*
X142887811Y-98864838D01*
X142833499Y-98733715D01*
X142833497Y-98733713D01*
X142833497Y-98733711D01*
X142754649Y-98615708D01*
X142754646Y-98615704D01*
X142654295Y-98515353D01*
X142654291Y-98515350D01*
X142536288Y-98436502D01*
X142536285Y-98436501D01*
X142405163Y-98382189D01*
X142405155Y-98382187D01*
X142265965Y-98354500D01*
X142265963Y-98354500D01*
X142124037Y-98354500D01*
X142124035Y-98354500D01*
X141984844Y-98382187D01*
X141984836Y-98382189D01*
X141853714Y-98436501D01*
X141853706Y-98436505D01*
X141738390Y-98513557D01*
X141671713Y-98534435D01*
X141604333Y-98515950D01*
X141557643Y-98463971D01*
X141545500Y-98410455D01*
X141545500Y-97078903D01*
X143630000Y-97078903D01*
X143630000Y-97280000D01*
X145880000Y-97280000D01*
X146380000Y-97280000D01*
X148630000Y-97280000D01*
X148630000Y-97078903D01*
X148627102Y-97036175D01*
X148581168Y-96851476D01*
X148496609Y-96680977D01*
X148496607Y-96680974D01*
X148377367Y-96532633D01*
X148377366Y-96532632D01*
X148229025Y-96413392D01*
X148229022Y-96413390D01*
X148058523Y-96328831D01*
X147873824Y-96282897D01*
X147831097Y-96280000D01*
X146380000Y-96280000D01*
X146380000Y-97280000D01*
X145880000Y-97280000D01*
X145880000Y-96280000D01*
X144428903Y-96280000D01*
X144386175Y-96282897D01*
X144201476Y-96328831D01*
X144030977Y-96413390D01*
X144030974Y-96413392D01*
X143882633Y-96532632D01*
X143882632Y-96532633D01*
X143763392Y-96680974D01*
X143763390Y-96680977D01*
X143678831Y-96851476D01*
X143632897Y-97036175D01*
X143630000Y-97078903D01*
X141545500Y-97078903D01*
X141545500Y-96606126D01*
X141565185Y-96539087D01*
X141581819Y-96518445D01*
X141686874Y-96413390D01*
X141795690Y-96304574D01*
X141906760Y-96151699D01*
X141992547Y-95983332D01*
X142050940Y-95803618D01*
X142069487Y-95686518D01*
X142080500Y-95616987D01*
X142080500Y-95428020D01*
X142074610Y-95390833D01*
X142083564Y-95321540D01*
X142109402Y-95283754D01*
X142249918Y-95143239D01*
X142396338Y-94996819D01*
X142457661Y-94963334D01*
X142484019Y-94960500D01*
X143528995Y-94960500D01*
X143607505Y-94944882D01*
X143642696Y-94937882D01*
X143666887Y-94935500D01*
X143718493Y-94935500D01*
X143818121Y-94919720D01*
X143818121Y-94919719D01*
X143818126Y-94919719D01*
X143938220Y-94858528D01*
X143957173Y-94839574D01*
X144018494Y-94806090D01*
X144088185Y-94811073D01*
X144144120Y-94852944D01*
X144150392Y-94862159D01*
X144212424Y-94962728D01*
X144212427Y-94962732D01*
X144332267Y-95082572D01*
X144332271Y-95082575D01*
X144476507Y-95171542D01*
X144476518Y-95171547D01*
X144637393Y-95224855D01*
X144736683Y-95234999D01*
X144760000Y-95234998D01*
X144760000Y-93284999D01*
X144736693Y-93285000D01*
X144736674Y-93285001D01*
X144637392Y-93295144D01*
X144476518Y-93348452D01*
X144476507Y-93348457D01*
X144332271Y-93437424D01*
X144332267Y-93437427D01*
X144212426Y-93557268D01*
X144150392Y-93657841D01*
X144098444Y-93704565D01*
X144029481Y-93715786D01*
X143965399Y-93687943D01*
X143957173Y-93680424D01*
X143938225Y-93661476D01*
X143938221Y-93661473D01*
X143938220Y-93661472D01*
X143818126Y-93600281D01*
X143818124Y-93600280D01*
X143818121Y-93600279D01*
X143718493Y-93584500D01*
X143718488Y-93584500D01*
X143666887Y-93584500D01*
X143642696Y-93582117D01*
X143602251Y-93574072D01*
X143528995Y-93559500D01*
X143528993Y-93559500D01*
X142211494Y-93559500D01*
X142073506Y-93559500D01*
X142073504Y-93559500D01*
X141938177Y-93586418D01*
X141938167Y-93586421D01*
X141810692Y-93639222D01*
X141695954Y-93715887D01*
X141118745Y-94293096D01*
X141057422Y-94326581D01*
X141011668Y-94327889D01*
X140974483Y-94322000D01*
X140974481Y-94322000D01*
X140785518Y-94322000D01*
X140785513Y-94322000D01*
X140598885Y-94351559D01*
X140419165Y-94409954D01*
X140250800Y-94495740D01*
X140097923Y-94606812D01*
X139429312Y-95275423D01*
X139323929Y-95420471D01*
X139318242Y-95428297D01*
X139232454Y-95596663D01*
X139174059Y-95776381D01*
X139144500Y-95963013D01*
X139144500Y-99775450D01*
X139124815Y-99842489D01*
X139072011Y-99888244D01*
X139002853Y-99898188D01*
X138947615Y-99875769D01*
X138802553Y-99770376D01*
X138613215Y-99673903D01*
X138411124Y-99608241D01*
X138345000Y-99597768D01*
X138345000Y-100641988D01*
X138287993Y-100609075D01*
X138160826Y-100575000D01*
X138029174Y-100575000D01*
X137902007Y-100609075D01*
X137845000Y-100641988D01*
X137845000Y-99597768D01*
X137844999Y-99597768D01*
X137778875Y-99608241D01*
X137576784Y-99673903D01*
X137387442Y-99770379D01*
X137215540Y-99895272D01*
X137215535Y-99895276D01*
X137065276Y-100045535D01*
X137065272Y-100045540D01*
X136940379Y-100217442D01*
X136843904Y-100406782D01*
X136778242Y-100608869D01*
X136778242Y-100608872D01*
X136745000Y-100818753D01*
X136745000Y-100825000D01*
X137661988Y-100825000D01*
X137629075Y-100882007D01*
X137595000Y-101009174D01*
X137595000Y-101140826D01*
X137629075Y-101267993D01*
X137661988Y-101325000D01*
X136745000Y-101325000D01*
X136745000Y-101331246D01*
X136778242Y-101541127D01*
X136778242Y-101541130D01*
X136843904Y-101743217D01*
X136940379Y-101932557D01*
X137065272Y-102104459D01*
X137065276Y-102104464D01*
X137215535Y-102254723D01*
X137215540Y-102254727D01*
X137387442Y-102379620D01*
X137576782Y-102476095D01*
X137778871Y-102541757D01*
X137845000Y-102552231D01*
X137845000Y-101508012D01*
X137902007Y-101540925D01*
X138029174Y-101575000D01*
X138160826Y-101575000D01*
X138287993Y-101540925D01*
X138345000Y-101508012D01*
X138345000Y-102552230D01*
X138411126Y-102541757D01*
X138411129Y-102541757D01*
X138613217Y-102476095D01*
X138802557Y-102379620D01*
X138974459Y-102254727D01*
X138974464Y-102254723D01*
X139124723Y-102104464D01*
X139124727Y-102104459D01*
X139249620Y-101932557D01*
X139310015Y-101814028D01*
X139357990Y-101763232D01*
X139425811Y-101746437D01*
X139491946Y-101768974D01*
X139535397Y-101823690D01*
X139544500Y-101870323D01*
X139544500Y-101879269D01*
X139547353Y-101909699D01*
X139547353Y-101909701D01*
X139584788Y-102016680D01*
X139592207Y-102037882D01*
X139672850Y-102147150D01*
X139782118Y-102227793D01*
X139824845Y-102242744D01*
X139910299Y-102272646D01*
X139940730Y-102275500D01*
X139940734Y-102275500D01*
X140046374Y-102275500D01*
X140113413Y-102295185D01*
X140134055Y-102311819D01*
X140867926Y-103045690D01*
X141020801Y-103156760D01*
X141189168Y-103242547D01*
X141368882Y-103300940D01*
X141438870Y-103312025D01*
X141555513Y-103330500D01*
X141555518Y-103330500D01*
X146224486Y-103330500D01*
X146411118Y-103300940D01*
X146590832Y-103242547D01*
X146759199Y-103156760D01*
X146831566Y-103104182D01*
X146897373Y-103080702D01*
X146904452Y-103080500D01*
X147792713Y-103080500D01*
X147792720Y-103080500D01*
X147905236Y-103065687D01*
X148045233Y-103007698D01*
X148165451Y-102915451D01*
X148257698Y-102795233D01*
X148315687Y-102655236D01*
X148330500Y-102542720D01*
X148330500Y-101717280D01*
X148315687Y-101604764D01*
X148257698Y-101464767D01*
X148165451Y-101344549D01*
X148045233Y-101252302D01*
X148045229Y-101252300D01*
X147981801Y-101226027D01*
X147905236Y-101194313D01*
X147891171Y-101192461D01*
X147792727Y-101179500D01*
X147792720Y-101179500D01*
X146904452Y-101179500D01*
X146837413Y-101159815D01*
X146831566Y-101155818D01*
X146759199Y-101103240D01*
X146586491Y-101015241D01*
X146587504Y-101013251D01*
X146540310Y-100975218D01*
X146518247Y-100908923D01*
X146535528Y-100841224D01*
X146586666Y-100793615D01*
X146642168Y-100780500D01*
X147792713Y-100780500D01*
X147792720Y-100780500D01*
X147905236Y-100765687D01*
X148045233Y-100707698D01*
X148165451Y-100615451D01*
X148175014Y-100602989D01*
X148193412Y-100579013D01*
X148249840Y-100537811D01*
X148291787Y-100530500D01*
X152105500Y-100530500D01*
X152172539Y-100550185D01*
X152218294Y-100602989D01*
X152229500Y-100654500D01*
X152229500Y-102704095D01*
X152235918Y-102796561D01*
X152235920Y-102796577D01*
X152286854Y-103013135D01*
X152286860Y-103013151D01*
X152376721Y-103216668D01*
X152502457Y-103400220D01*
X152502462Y-103400226D01*
X152659773Y-103557537D01*
X152659779Y-103557542D01*
X152843329Y-103683277D01*
X153046857Y-103773143D01*
X153046861Y-103773144D01*
X153046864Y-103773145D01*
X153263422Y-103824079D01*
X153263427Y-103824079D01*
X153263433Y-103824081D01*
X153314808Y-103827647D01*
X153355904Y-103830500D01*
X153355908Y-103830500D01*
X155504096Y-103830500D01*
X155541082Y-103827932D01*
X155596567Y-103824081D01*
X155596573Y-103824079D01*
X155596577Y-103824079D01*
X155813135Y-103773145D01*
X155813135Y-103773144D01*
X155813143Y-103773143D01*
X156016671Y-103683277D01*
X156200221Y-103557542D01*
X156357542Y-103400221D01*
X156483277Y-103216671D01*
X156573143Y-103013143D01*
X156573145Y-103013135D01*
X156624079Y-102796577D01*
X156624079Y-102796573D01*
X156624081Y-102796567D01*
X156630500Y-102704092D01*
X156630500Y-101725000D01*
X162505692Y-101725000D01*
X162525301Y-102011680D01*
X162583766Y-102293034D01*
X162583767Y-102293037D01*
X162679994Y-102563793D01*
X162679993Y-102563793D01*
X162812198Y-102818935D01*
X162977912Y-103053700D01*
X163063023Y-103144831D01*
X163174047Y-103263708D01*
X163341851Y-103400226D01*
X163396953Y-103445055D01*
X163642482Y-103594365D01*
X163829337Y-103675526D01*
X163906042Y-103708844D01*
X164182742Y-103786371D01*
X164433020Y-103820771D01*
X164467421Y-103825500D01*
X164467422Y-103825500D01*
X164754779Y-103825500D01*
X164785470Y-103821281D01*
X165039458Y-103786371D01*
X165316158Y-103708844D01*
X165429115Y-103659779D01*
X165579717Y-103594365D01*
X165579720Y-103594363D01*
X165579725Y-103594361D01*
X165825247Y-103445055D01*
X166048153Y-103263708D01*
X166244289Y-103053698D01*
X166410001Y-102818936D01*
X166542204Y-102563797D01*
X166638434Y-102293032D01*
X166696898Y-102011686D01*
X166716508Y-101725000D01*
X166696898Y-101438314D01*
X166638434Y-101156968D01*
X166542205Y-100886206D01*
X166542206Y-100886206D01*
X166410001Y-100631064D01*
X166244287Y-100396299D01*
X166127016Y-100270734D01*
X166048153Y-100186292D01*
X165849824Y-100024940D01*
X165825246Y-100004944D01*
X165579717Y-99855634D01*
X165316163Y-99741158D01*
X165316161Y-99741157D01*
X165316158Y-99741156D01*
X165186678Y-99704877D01*
X165039464Y-99663630D01*
X165039459Y-99663629D01*
X165039458Y-99663629D01*
X164841661Y-99636442D01*
X164754779Y-99624500D01*
X164754778Y-99624500D01*
X164467422Y-99624500D01*
X164467421Y-99624500D01*
X164182742Y-99663629D01*
X164182735Y-99663630D01*
X164004752Y-99713499D01*
X163906042Y-99741156D01*
X163906039Y-99741156D01*
X163906036Y-99741158D01*
X163906035Y-99741158D01*
X163642482Y-99855634D01*
X163396953Y-100004944D01*
X163174050Y-100186289D01*
X162977912Y-100396299D01*
X162812198Y-100631064D01*
X162679994Y-100886206D01*
X162583767Y-101156962D01*
X162583766Y-101156965D01*
X162525301Y-101438319D01*
X162505692Y-101725000D01*
X156630500Y-101725000D01*
X156630500Y-96955908D01*
X156624081Y-96863433D01*
X156624079Y-96863427D01*
X156624079Y-96863422D01*
X156573145Y-96646864D01*
X156573144Y-96646861D01*
X156573143Y-96646857D01*
X156483277Y-96443329D01*
X156357542Y-96259779D01*
X156357537Y-96259773D01*
X156346819Y-96249055D01*
X156313334Y-96187732D01*
X156310500Y-96161374D01*
X156310500Y-93875000D01*
X159589417Y-93875000D01*
X159609699Y-94080932D01*
X159635338Y-94165452D01*
X159669768Y-94278954D01*
X159767315Y-94461450D01*
X159767317Y-94461452D01*
X159898589Y-94621410D01*
X159962022Y-94673467D01*
X160058550Y-94752685D01*
X160241046Y-94850232D01*
X160439066Y-94910300D01*
X160439065Y-94910300D01*
X160457529Y-94912118D01*
X160645000Y-94930583D01*
X160850934Y-94910300D01*
X161048954Y-94850232D01*
X161231450Y-94752685D01*
X161391410Y-94621410D01*
X161522685Y-94461450D01*
X161620232Y-94278954D01*
X161680300Y-94080934D01*
X161700583Y-93875000D01*
X161680300Y-93669066D01*
X161620232Y-93471046D01*
X161522685Y-93288550D01*
X161402331Y-93141897D01*
X161391410Y-93128589D01*
X161273677Y-93031969D01*
X161231450Y-92997315D01*
X161048954Y-92899768D01*
X160850934Y-92839700D01*
X160850932Y-92839699D01*
X160850934Y-92839699D01*
X160645000Y-92819417D01*
X160439067Y-92839699D01*
X160268741Y-92891367D01*
X160241050Y-92899767D01*
X160241043Y-92899769D01*
X160209432Y-92916666D01*
X160058550Y-92997315D01*
X160058548Y-92997316D01*
X160058547Y-92997317D01*
X159898589Y-93128589D01*
X159767317Y-93288547D01*
X159767315Y-93288550D01*
X159735294Y-93348457D01*
X159669769Y-93471043D01*
X159609699Y-93669067D01*
X159589417Y-93875000D01*
X156310500Y-93875000D01*
X156310500Y-93716004D01*
X156285003Y-93587826D01*
X156285002Y-93587821D01*
X156283580Y-93580671D01*
X156240013Y-93475492D01*
X156230775Y-93453189D01*
X156230774Y-93453187D01*
X156230773Y-93453185D01*
X156154115Y-93338459D01*
X156110800Y-93295144D01*
X156056542Y-93240886D01*
X155811645Y-92995989D01*
X155452838Y-92637181D01*
X155419353Y-92575858D01*
X155424337Y-92506166D01*
X155466209Y-92450233D01*
X155531673Y-92425816D01*
X155540519Y-92425500D01*
X159951142Y-92425500D01*
X159951144Y-92425500D01*
X160040288Y-92401614D01*
X160059394Y-92390583D01*
X160120212Y-92355470D01*
X160130489Y-92345191D01*
X160191810Y-92311707D01*
X160254162Y-92314210D01*
X160439066Y-92370300D01*
X160439065Y-92370300D01*
X160457529Y-92372118D01*
X160645000Y-92390583D01*
X160850934Y-92370300D01*
X161048954Y-92310232D01*
X161231450Y-92212685D01*
X161391410Y-92081410D01*
X161522685Y-91921450D01*
X161620232Y-91738954D01*
X161640406Y-91672446D01*
X161678702Y-91614010D01*
X161742514Y-91585553D01*
X161811581Y-91596112D01*
X161863975Y-91642336D01*
X161878841Y-91676349D01*
X161911567Y-91798486D01*
X161911570Y-91798492D01*
X162011400Y-92012579D01*
X162011402Y-92012583D01*
X162070072Y-92096373D01*
X162070073Y-92096373D01*
X162702037Y-91464408D01*
X162719075Y-91527993D01*
X162784901Y-91642007D01*
X162877993Y-91735099D01*
X162992007Y-91800925D01*
X163055590Y-91817962D01*
X162423625Y-92449925D01*
X162507421Y-92508599D01*
X162721507Y-92608429D01*
X162721516Y-92608433D01*
X162843649Y-92641158D01*
X162903310Y-92677523D01*
X162933839Y-92740369D01*
X162925545Y-92809745D01*
X162881059Y-92863623D01*
X162847552Y-92879593D01*
X162781046Y-92899767D01*
X162650358Y-92969622D01*
X162598550Y-92997315D01*
X162598548Y-92997316D01*
X162598547Y-92997317D01*
X162438589Y-93128589D01*
X162307317Y-93288547D01*
X162307315Y-93288550D01*
X162275294Y-93348457D01*
X162209769Y-93471043D01*
X162149699Y-93669067D01*
X162129417Y-93875000D01*
X162149699Y-94080932D01*
X162175338Y-94165452D01*
X162209768Y-94278954D01*
X162307315Y-94461450D01*
X162307317Y-94461452D01*
X162438589Y-94621410D01*
X162502022Y-94673467D01*
X162598550Y-94752685D01*
X162781046Y-94850232D01*
X162979066Y-94910300D01*
X162979065Y-94910300D01*
X162997529Y-94912118D01*
X163185000Y-94930583D01*
X163390934Y-94910300D01*
X163588954Y-94850232D01*
X163771450Y-94752685D01*
X163931410Y-94621410D01*
X164062685Y-94461450D01*
X164160232Y-94278954D01*
X164220300Y-94080934D01*
X164240583Y-93875000D01*
X164220300Y-93669066D01*
X164160232Y-93471046D01*
X164062685Y-93288550D01*
X163942331Y-93141897D01*
X163931410Y-93128589D01*
X163813677Y-93031969D01*
X163771450Y-92997315D01*
X163588954Y-92899768D01*
X163522447Y-92879593D01*
X163464009Y-92841296D01*
X163435553Y-92777484D01*
X163446113Y-92708417D01*
X163492337Y-92656023D01*
X163526350Y-92641158D01*
X163648483Y-92608433D01*
X163648492Y-92608429D01*
X163862578Y-92508600D01*
X163862582Y-92508598D01*
X163946373Y-92449926D01*
X163946373Y-92449925D01*
X163314409Y-91817962D01*
X163377993Y-91800925D01*
X163492007Y-91735099D01*
X163585099Y-91642007D01*
X163650925Y-91527993D01*
X163667962Y-91464410D01*
X164299925Y-92096373D01*
X164299926Y-92096373D01*
X164358598Y-92012582D01*
X164358600Y-92012578D01*
X164458429Y-91798492D01*
X164458433Y-91798483D01*
X164519567Y-91570326D01*
X164519569Y-91570315D01*
X164540157Y-91335001D01*
X164540157Y-91334998D01*
X164519569Y-91099684D01*
X164519567Y-91099673D01*
X164458433Y-90871516D01*
X164458429Y-90871507D01*
X164358600Y-90657423D01*
X164358599Y-90657421D01*
X164299925Y-90573626D01*
X164299925Y-90573625D01*
X163667962Y-91205589D01*
X163650925Y-91142007D01*
X163585099Y-91027993D01*
X163492007Y-90934901D01*
X163377993Y-90869075D01*
X163314408Y-90852037D01*
X163946373Y-90220073D01*
X163946373Y-90220072D01*
X163862583Y-90161402D01*
X163862579Y-90161400D01*
X163648492Y-90061570D01*
X163648486Y-90061567D01*
X163526349Y-90028841D01*
X163466689Y-89992476D01*
X163436160Y-89929629D01*
X163444455Y-89860253D01*
X163488940Y-89806375D01*
X163522444Y-89790407D01*
X163588954Y-89770232D01*
X163771450Y-89672685D01*
X163931410Y-89541410D01*
X164062685Y-89381450D01*
X164160232Y-89198954D01*
X164220300Y-89000934D01*
X164240583Y-88795000D01*
X164220300Y-88589066D01*
X164160232Y-88391046D01*
X164062685Y-88208550D01*
X163974957Y-88101652D01*
X163931410Y-88048589D01*
X163797910Y-87939030D01*
X163771450Y-87917315D01*
X163588954Y-87819768D01*
X163390934Y-87759700D01*
X163390932Y-87759699D01*
X163390934Y-87759699D01*
X163185000Y-87739417D01*
X162979067Y-87759699D01*
X162781043Y-87819769D01*
X162683771Y-87871763D01*
X162598550Y-87917315D01*
X162598548Y-87917316D01*
X162598547Y-87917317D01*
X162438589Y-88048589D01*
X162307317Y-88208547D01*
X162307315Y-88208550D01*
X162290302Y-88240379D01*
X162209769Y-88391043D01*
X162149699Y-88589067D01*
X162129417Y-88795000D01*
X162149699Y-89000932D01*
X162170059Y-89068050D01*
X162205387Y-89184513D01*
X162205788Y-89185832D01*
X162206411Y-89255699D01*
X162174808Y-89309508D01*
X161736137Y-89748181D01*
X161674814Y-89781666D01*
X161648456Y-89784500D01*
X161441761Y-89784500D01*
X161374722Y-89764815D01*
X161328967Y-89712011D01*
X161319023Y-89642853D01*
X161348048Y-89579297D01*
X161363097Y-89564646D01*
X161391410Y-89541410D01*
X161446321Y-89474500D01*
X161522685Y-89381450D01*
X161620232Y-89198954D01*
X161680300Y-89000934D01*
X161700583Y-88795000D01*
X161680300Y-88589066D01*
X161620232Y-88391046D01*
X161522685Y-88208550D01*
X161420845Y-88084457D01*
X161391407Y-88048586D01*
X161390002Y-88047181D01*
X161389500Y-88046263D01*
X161387545Y-88043880D01*
X161387996Y-88043509D01*
X161356517Y-87985858D01*
X161361501Y-87916166D01*
X161403373Y-87860233D01*
X161468837Y-87835816D01*
X161477683Y-87835500D01*
X162001142Y-87835500D01*
X162001144Y-87835500D01*
X162090288Y-87811614D01*
X162170212Y-87765470D01*
X162670491Y-87265189D01*
X162731812Y-87231706D01*
X162794162Y-87234210D01*
X162979066Y-87290300D01*
X162979065Y-87290300D01*
X162997529Y-87292118D01*
X163185000Y-87310583D01*
X163390934Y-87290300D01*
X163588954Y-87230232D01*
X163771450Y-87132685D01*
X163931410Y-87001410D01*
X164062685Y-86841450D01*
X164160232Y-86658954D01*
X164220300Y-86460934D01*
X164240583Y-86255000D01*
X164220300Y-86049066D01*
X164160232Y-85851046D01*
X164062685Y-85668550D01*
X163987386Y-85576797D01*
X163931410Y-85508589D01*
X163771452Y-85377317D01*
X163771453Y-85377317D01*
X163771450Y-85377315D01*
X163588954Y-85279768D01*
X163390934Y-85219700D01*
X163390932Y-85219699D01*
X163390934Y-85219699D01*
X163185000Y-85199417D01*
X162979067Y-85219699D01*
X162781043Y-85279769D01*
X162676780Y-85335500D01*
X162598550Y-85377315D01*
X162598548Y-85377316D01*
X162598547Y-85377317D01*
X162438589Y-85508589D01*
X162307317Y-85668547D01*
X162307315Y-85668550D01*
X162274733Y-85729507D01*
X162209769Y-85851043D01*
X162149699Y-86049067D01*
X162129417Y-86255000D01*
X162149699Y-86460932D01*
X162157965Y-86488181D01*
X162204018Y-86640000D01*
X162205788Y-86645832D01*
X162206411Y-86715699D01*
X162174808Y-86769508D01*
X161846135Y-87098182D01*
X161784814Y-87131666D01*
X161758456Y-87134500D01*
X161544362Y-87134500D01*
X161477323Y-87114815D01*
X161431568Y-87062011D01*
X161421624Y-86992853D01*
X161448508Y-86931836D01*
X161487938Y-86883789D01*
X161522685Y-86841450D01*
X161620232Y-86658954D01*
X161680300Y-86460934D01*
X161700583Y-86255000D01*
X161680300Y-86049066D01*
X161620232Y-85851046D01*
X161522685Y-85668550D01*
X161447386Y-85576797D01*
X161415681Y-85538164D01*
X161388369Y-85473854D01*
X161400160Y-85404987D01*
X161447313Y-85353427D01*
X161511535Y-85335500D01*
X161961142Y-85335500D01*
X161961144Y-85335500D01*
X162050288Y-85311614D01*
X162060930Y-85305470D01*
X162130212Y-85265470D01*
X162670491Y-84725189D01*
X162731812Y-84691706D01*
X162794162Y-84694210D01*
X162979066Y-84750300D01*
X162979065Y-84750300D01*
X162997529Y-84752118D01*
X163185000Y-84770583D01*
X163390934Y-84750300D01*
X163588954Y-84690232D01*
X163771450Y-84592685D01*
X163931410Y-84461410D01*
X164062685Y-84301450D01*
X164160232Y-84118954D01*
X164220300Y-83920934D01*
X164240583Y-83715000D01*
X164220300Y-83509066D01*
X164160232Y-83311046D01*
X164062685Y-83128550D01*
X164010702Y-83065209D01*
X163931410Y-82968589D01*
X163789523Y-82852147D01*
X163771450Y-82837315D01*
X163588954Y-82739768D01*
X163390934Y-82679700D01*
X163390932Y-82679699D01*
X163390934Y-82679699D01*
X163185000Y-82659417D01*
X162979067Y-82679699D01*
X162781043Y-82739769D01*
X162709918Y-82777787D01*
X162598550Y-82837315D01*
X162598548Y-82837316D01*
X162598547Y-82837317D01*
X162438589Y-82968589D01*
X162307317Y-83128547D01*
X162209769Y-83311043D01*
X162149699Y-83509067D01*
X162129417Y-83715000D01*
X162149699Y-83920932D01*
X162166294Y-83975637D01*
X162204673Y-84102159D01*
X162205788Y-84105832D01*
X162206411Y-84175699D01*
X162174808Y-84229508D01*
X161806137Y-84598181D01*
X161744814Y-84631666D01*
X161718456Y-84634500D01*
X161511535Y-84634500D01*
X161444496Y-84614815D01*
X161398741Y-84562011D01*
X161388797Y-84492853D01*
X161415681Y-84431836D01*
X161471079Y-84364332D01*
X161522685Y-84301450D01*
X161620232Y-84118954D01*
X161680300Y-83920934D01*
X161700583Y-83715000D01*
X161680300Y-83509066D01*
X161620232Y-83311046D01*
X161522685Y-83128550D01*
X161476601Y-83072396D01*
X161411578Y-82993164D01*
X161384266Y-82928854D01*
X161396057Y-82859987D01*
X161443210Y-82808427D01*
X161507432Y-82790500D01*
X161526142Y-82790500D01*
X161526144Y-82790500D01*
X161615288Y-82766614D01*
X161695212Y-82720470D01*
X162389705Y-82025975D01*
X162451026Y-81992492D01*
X162520717Y-81997476D01*
X162556045Y-82017802D01*
X162598550Y-82052685D01*
X162781046Y-82150232D01*
X162979066Y-82210300D01*
X162979065Y-82210300D01*
X162997529Y-82212118D01*
X163185000Y-82230583D01*
X163390934Y-82210300D01*
X163588954Y-82150232D01*
X163771450Y-82052685D01*
X163931410Y-81921410D01*
X164062685Y-81761450D01*
X164160232Y-81578954D01*
X164220300Y-81380934D01*
X164240583Y-81175000D01*
X164220300Y-80969066D01*
X164160232Y-80771046D01*
X164062685Y-80588550D01*
X163973968Y-80480447D01*
X163931410Y-80428589D01*
X163803868Y-80323920D01*
X163771450Y-80297315D01*
X163601554Y-80206502D01*
X163588956Y-80199769D01*
X163588955Y-80199768D01*
X163588954Y-80199768D01*
X163390934Y-80139700D01*
X163390932Y-80139699D01*
X163390934Y-80139699D01*
X163185000Y-80119417D01*
X162979067Y-80139699D01*
X162781043Y-80199769D01*
X162701634Y-80242215D01*
X162598550Y-80297315D01*
X162598548Y-80297316D01*
X162598547Y-80297317D01*
X162438589Y-80428589D01*
X162307317Y-80588547D01*
X162209769Y-80771043D01*
X162149699Y-80969067D01*
X162129417Y-81175000D01*
X162129417Y-81175001D01*
X162134418Y-81225787D01*
X162121398Y-81294433D01*
X162098696Y-81325620D01*
X161872244Y-81552073D01*
X161810921Y-81585558D01*
X161741230Y-81580574D01*
X161685296Y-81538703D01*
X161660879Y-81473238D01*
X161665902Y-81428397D01*
X161673536Y-81403231D01*
X161680300Y-81380934D01*
X161700583Y-81175000D01*
X161680300Y-80969066D01*
X161620232Y-80771046D01*
X161522685Y-80588550D01*
X161433968Y-80480447D01*
X161391410Y-80428589D01*
X161263868Y-80323920D01*
X161231450Y-80297315D01*
X161061554Y-80206502D01*
X161048956Y-80199769D01*
X161048955Y-80199768D01*
X161048954Y-80199768D01*
X160850934Y-80139700D01*
X160850932Y-80139699D01*
X160850934Y-80139699D01*
X160645000Y-80119417D01*
X160439067Y-80139699D01*
X160241043Y-80199769D01*
X160161634Y-80242215D01*
X160058550Y-80297315D01*
X160058548Y-80297316D01*
X160058547Y-80297317D01*
X159898589Y-80428589D01*
X159767317Y-80588547D01*
X159669769Y-80771043D01*
X159609699Y-80969067D01*
X159589417Y-81175000D01*
X159589417Y-81175001D01*
X159593970Y-81221234D01*
X159580950Y-81289880D01*
X159558248Y-81321068D01*
X156932181Y-83947136D01*
X156870858Y-83980621D01*
X156801166Y-83975637D01*
X156745233Y-83933765D01*
X156720816Y-83868301D01*
X156720500Y-83859455D01*
X156720500Y-82945249D01*
X156720499Y-82945247D01*
X156708868Y-82886770D01*
X156708867Y-82886768D01*
X156683558Y-82848892D01*
X156662679Y-82782215D01*
X156681163Y-82714835D01*
X156683558Y-82711108D01*
X156708867Y-82673231D01*
X156708868Y-82673229D01*
X156720499Y-82614752D01*
X156720500Y-82614750D01*
X156720500Y-81675249D01*
X156720499Y-81675247D01*
X156708868Y-81616770D01*
X156708867Y-81616768D01*
X156683558Y-81578892D01*
X156662679Y-81512215D01*
X156681163Y-81444835D01*
X156683558Y-81441108D01*
X156708867Y-81403231D01*
X156708868Y-81403229D01*
X156720499Y-81344752D01*
X156720500Y-81344750D01*
X156720500Y-80405249D01*
X156720499Y-80405247D01*
X156708868Y-80346770D01*
X156708867Y-80346768D01*
X156683558Y-80308892D01*
X156662679Y-80242215D01*
X156681163Y-80174835D01*
X156683558Y-80171108D01*
X156708867Y-80133231D01*
X156708868Y-80133229D01*
X156720499Y-80074752D01*
X156720500Y-80074750D01*
X156720500Y-79135249D01*
X156720499Y-79135247D01*
X156708868Y-79076770D01*
X156708867Y-79076768D01*
X156683558Y-79038892D01*
X156662679Y-78972215D01*
X156681163Y-78904835D01*
X156683558Y-78901108D01*
X156708867Y-78863231D01*
X156708868Y-78863229D01*
X156720499Y-78804752D01*
X156720500Y-78804750D01*
X156720500Y-77865249D01*
X156720499Y-77865247D01*
X156708868Y-77806770D01*
X156708867Y-77806768D01*
X156683558Y-77768892D01*
X156662679Y-77702215D01*
X156681163Y-77634835D01*
X156683558Y-77631108D01*
X156708867Y-77593231D01*
X156708868Y-77593229D01*
X156720499Y-77534752D01*
X156720500Y-77534750D01*
X156720500Y-76595249D01*
X156720499Y-76595247D01*
X156708868Y-76536770D01*
X156708867Y-76536768D01*
X156683558Y-76498892D01*
X156662679Y-76432215D01*
X156681163Y-76364835D01*
X156683558Y-76361108D01*
X156708867Y-76323231D01*
X156708868Y-76323229D01*
X156720499Y-76264752D01*
X156720500Y-76264750D01*
X156720500Y-75325249D01*
X156720499Y-75325247D01*
X156708868Y-75266770D01*
X156708867Y-75266768D01*
X156683558Y-75228892D01*
X156662679Y-75162215D01*
X156681163Y-75094835D01*
X156683558Y-75091108D01*
X156708867Y-75053231D01*
X156708868Y-75053229D01*
X156720499Y-74994752D01*
X156720500Y-74994750D01*
X156720500Y-74055249D01*
X156720499Y-74055247D01*
X156708868Y-73996770D01*
X156708867Y-73996768D01*
X156683558Y-73958892D01*
X156662679Y-73892215D01*
X156681163Y-73824835D01*
X156683558Y-73821108D01*
X156708867Y-73783231D01*
X156708868Y-73783229D01*
X156720499Y-73724752D01*
X156720500Y-73724750D01*
X156720500Y-73270544D01*
X156740185Y-73203505D01*
X156792989Y-73157750D01*
X156862147Y-73147806D01*
X156925703Y-73176831D01*
X156932181Y-73182863D01*
X156988181Y-73238863D01*
X157021666Y-73300186D01*
X157024500Y-73326544D01*
X157024500Y-77821144D01*
X157030599Y-77843908D01*
X157041165Y-77883340D01*
X157048386Y-77910287D01*
X157048387Y-77910290D01*
X157094527Y-77990208D01*
X157094529Y-77990211D01*
X157094530Y-77990212D01*
X158019788Y-78915470D01*
X158087390Y-78954500D01*
X158099712Y-78961614D01*
X158188856Y-78985500D01*
X158188857Y-78985500D01*
X158281144Y-78985500D01*
X159566873Y-78985500D01*
X159633912Y-79005185D01*
X159676231Y-79051046D01*
X159689980Y-79076768D01*
X159767315Y-79221450D01*
X159786393Y-79244697D01*
X159898589Y-79381410D01*
X159995209Y-79460702D01*
X160058550Y-79512685D01*
X160241046Y-79610232D01*
X160439066Y-79670300D01*
X160439065Y-79670300D01*
X160457529Y-79672118D01*
X160645000Y-79690583D01*
X160850934Y-79670300D01*
X161048954Y-79610232D01*
X161231450Y-79512685D01*
X161391410Y-79381410D01*
X161522685Y-79221450D01*
X161620232Y-79038954D01*
X161680300Y-78840934D01*
X161700583Y-78635000D01*
X161680300Y-78429066D01*
X161620232Y-78231046D01*
X161522685Y-78048550D01*
X161491264Y-78010263D01*
X161444405Y-77953164D01*
X161417093Y-77888854D01*
X161428884Y-77819987D01*
X161476037Y-77768427D01*
X161540259Y-77750500D01*
X161753456Y-77750500D01*
X161820495Y-77770185D01*
X161841137Y-77786819D01*
X162174808Y-78120490D01*
X162208293Y-78181813D01*
X162205788Y-78244166D01*
X162149699Y-78429067D01*
X162129417Y-78635000D01*
X162149699Y-78840932D01*
X162167953Y-78901108D01*
X162209749Y-79038892D01*
X162209769Y-79038956D01*
X162212785Y-79044599D01*
X162307315Y-79221450D01*
X162326393Y-79244697D01*
X162438589Y-79381410D01*
X162535209Y-79460702D01*
X162598550Y-79512685D01*
X162781046Y-79610232D01*
X162979066Y-79670300D01*
X162979065Y-79670300D01*
X162997529Y-79672118D01*
X163185000Y-79690583D01*
X163390934Y-79670300D01*
X163588954Y-79610232D01*
X163771450Y-79512685D01*
X163931410Y-79381410D01*
X164062685Y-79221450D01*
X164160232Y-79038954D01*
X164220300Y-78840934D01*
X164240583Y-78635000D01*
X164220300Y-78429066D01*
X164160232Y-78231046D01*
X164062685Y-78048550D01*
X163949219Y-77910290D01*
X163931410Y-77888589D01*
X163787132Y-77770185D01*
X163771450Y-77757315D01*
X163588954Y-77659768D01*
X163390934Y-77599700D01*
X163390932Y-77599699D01*
X163390934Y-77599699D01*
X163185000Y-77579417D01*
X162979067Y-77599699D01*
X162794166Y-77655788D01*
X162724299Y-77656411D01*
X162670490Y-77624808D01*
X162165213Y-77119531D01*
X162165208Y-77119527D01*
X162085290Y-77073387D01*
X162085283Y-77073384D01*
X162073518Y-77070231D01*
X162073518Y-77070232D01*
X162034830Y-77059866D01*
X161996144Y-77049500D01*
X161996143Y-77049500D01*
X161773000Y-77049500D01*
X161705961Y-77029815D01*
X161660206Y-76977011D01*
X161650262Y-76907853D01*
X161655959Y-76884545D01*
X161692646Y-76779701D01*
X161692646Y-76779699D01*
X161695500Y-76749269D01*
X161695500Y-75440730D01*
X161692646Y-75410300D01*
X161692646Y-75410298D01*
X161653575Y-75298642D01*
X161647793Y-75282118D01*
X161567150Y-75172850D01*
X161457882Y-75092207D01*
X161457880Y-75092206D01*
X161329700Y-75047353D01*
X161299270Y-75044500D01*
X161299266Y-75044500D01*
X161124500Y-75044500D01*
X161057461Y-75024815D01*
X161011706Y-74972011D01*
X161000500Y-74920500D01*
X161000500Y-71208858D01*
X161000500Y-71208856D01*
X160976614Y-71119712D01*
X160930470Y-71039788D01*
X160460974Y-70570292D01*
X160427489Y-70508969D01*
X160432473Y-70439277D01*
X160474345Y-70383344D01*
X160539809Y-70358927D01*
X160568053Y-70360138D01*
X160633475Y-70370499D01*
X160633481Y-70370500D01*
X161073455Y-70370499D01*
X161140494Y-70390183D01*
X161161136Y-70406818D01*
X162798181Y-72043862D01*
X162831666Y-72105185D01*
X162834500Y-72131543D01*
X162834500Y-75016873D01*
X162814815Y-75083912D01*
X162768954Y-75126231D01*
X162709918Y-75157787D01*
X162598550Y-75217315D01*
X162598548Y-75217316D01*
X162598547Y-75217317D01*
X162438589Y-75348589D01*
X162307317Y-75508547D01*
X162307315Y-75508550D01*
X162268643Y-75580898D01*
X162209769Y-75691043D01*
X162149699Y-75889067D01*
X162129417Y-76095000D01*
X162149699Y-76300932D01*
X162166045Y-76354818D01*
X162209768Y-76498954D01*
X162307315Y-76681450D01*
X162307317Y-76681452D01*
X162438589Y-76841410D01*
X162519587Y-76907882D01*
X162598550Y-76972685D01*
X162781046Y-77070232D01*
X162979066Y-77130300D01*
X162979065Y-77130300D01*
X162997529Y-77132118D01*
X163185000Y-77150583D01*
X163390934Y-77130300D01*
X163588954Y-77070232D01*
X163771450Y-76972685D01*
X163931410Y-76841410D01*
X164062685Y-76681450D01*
X164160232Y-76498954D01*
X164220300Y-76300934D01*
X164240583Y-76095000D01*
X164220300Y-75889066D01*
X164160232Y-75691046D01*
X164062685Y-75508550D01*
X163982052Y-75410298D01*
X163931410Y-75348589D01*
X163799131Y-75240032D01*
X163771450Y-75217315D01*
X163649073Y-75151902D01*
X163601046Y-75126231D01*
X163551202Y-75077268D01*
X163535500Y-75016873D01*
X163535500Y-71888858D01*
X163535500Y-71888856D01*
X163511614Y-71799712D01*
X163511611Y-71799706D01*
X163465473Y-71719794D01*
X163465470Y-71719791D01*
X163465469Y-71719788D01*
X163400212Y-71654531D01*
X161651818Y-69906136D01*
X161618333Y-69844813D01*
X161615499Y-69818455D01*
X161615499Y-69538482D01*
X161615498Y-69538476D01*
X161600646Y-69444696D01*
X161543050Y-69331658D01*
X161543046Y-69331654D01*
X161543045Y-69331652D01*
X161453347Y-69241954D01*
X161453344Y-69241952D01*
X161453342Y-69241950D01*
X161376517Y-69202805D01*
X161340301Y-69184352D01*
X161246524Y-69169500D01*
X161246519Y-69169500D01*
X160886544Y-69169500D01*
X160819505Y-69149815D01*
X160798863Y-69133181D01*
X160597862Y-68932180D01*
X160564377Y-68870857D01*
X160569361Y-68801165D01*
X160611233Y-68745232D01*
X160676697Y-68720815D01*
X160685517Y-68720499D01*
X161246518Y-68720499D01*
X161340304Y-68705646D01*
X161453342Y-68648050D01*
X161543050Y-68558342D01*
X161600646Y-68445304D01*
X161600646Y-68445302D01*
X161600647Y-68445301D01*
X161615499Y-68351524D01*
X161615500Y-68351519D01*
X161615499Y-67983700D01*
X162505692Y-67983700D01*
X162525301Y-68270380D01*
X162583766Y-68551734D01*
X162583767Y-68551737D01*
X162679994Y-68822493D01*
X162679993Y-68822493D01*
X162812198Y-69077635D01*
X162977912Y-69312400D01*
X163047214Y-69386603D01*
X163174047Y-69522408D01*
X163396953Y-69703755D01*
X163563942Y-69805304D01*
X163642482Y-69853065D01*
X163784502Y-69914752D01*
X163906042Y-69967544D01*
X164182742Y-70045071D01*
X164420765Y-70077787D01*
X164467421Y-70084200D01*
X164467422Y-70084200D01*
X164754779Y-70084200D01*
X164801435Y-70077787D01*
X165039458Y-70045071D01*
X165316158Y-69967544D01*
X165472775Y-69899516D01*
X165579717Y-69853065D01*
X165579720Y-69853063D01*
X165579725Y-69853061D01*
X165825247Y-69703755D01*
X166048153Y-69522408D01*
X166244289Y-69312398D01*
X166410001Y-69077636D01*
X166542204Y-68822497D01*
X166638434Y-68551732D01*
X166696898Y-68270386D01*
X166716508Y-67983700D01*
X166696898Y-67697014D01*
X166638434Y-67415668D01*
X166601882Y-67312822D01*
X166542205Y-67144906D01*
X166542206Y-67144906D01*
X166410001Y-66889764D01*
X166244287Y-66654999D01*
X166108866Y-66510000D01*
X166048153Y-66444992D01*
X165825247Y-66263645D01*
X165825246Y-66263644D01*
X165579717Y-66114334D01*
X165316163Y-65999858D01*
X165316161Y-65999857D01*
X165316158Y-65999856D01*
X165178909Y-65961401D01*
X165039464Y-65922330D01*
X165039459Y-65922329D01*
X165039458Y-65922329D01*
X164897118Y-65902764D01*
X164754779Y-65883200D01*
X164754778Y-65883200D01*
X164467422Y-65883200D01*
X164467421Y-65883200D01*
X164182742Y-65922329D01*
X164182735Y-65922330D01*
X163982749Y-65978364D01*
X163906042Y-65999856D01*
X163906039Y-65999856D01*
X163906036Y-65999858D01*
X163906035Y-65999858D01*
X163642482Y-66114334D01*
X163396953Y-66263644D01*
X163174050Y-66444989D01*
X162977912Y-66654999D01*
X162812198Y-66889764D01*
X162679994Y-67144906D01*
X162583767Y-67415662D01*
X162583766Y-67415665D01*
X162525301Y-67697019D01*
X162505692Y-67983700D01*
X161615499Y-67983700D01*
X161615499Y-67888482D01*
X161600646Y-67794696D01*
X161543050Y-67681658D01*
X161543046Y-67681654D01*
X161543045Y-67681652D01*
X161453347Y-67591954D01*
X161453344Y-67591952D01*
X161453342Y-67591950D01*
X161372936Y-67550981D01*
X161340301Y-67534352D01*
X161246524Y-67519500D01*
X160633482Y-67519500D01*
X160552519Y-67532323D01*
X160539696Y-67534354D01*
X160426658Y-67591950D01*
X160426657Y-67591951D01*
X160426653Y-67591953D01*
X160385428Y-67633180D01*
X160324105Y-67666666D01*
X160297746Y-67669500D01*
X159807254Y-67669500D01*
X159740215Y-67649815D01*
X159719572Y-67633180D01*
X159678342Y-67591949D01*
X159670448Y-67586214D01*
X159672098Y-67583942D01*
X159632396Y-67546431D01*
X159615500Y-67483942D01*
X159615500Y-67211419D01*
X159635185Y-67144380D01*
X159641124Y-67135933D01*
X159657092Y-67115121D01*
X159689536Y-67072841D01*
X159750044Y-66926762D01*
X159770682Y-66770000D01*
X159761527Y-66700464D01*
X159750044Y-66613239D01*
X159750044Y-66613238D01*
X159689536Y-66467159D01*
X159593282Y-66341718D01*
X159467841Y-66245464D01*
X159321762Y-66184956D01*
X159321760Y-66184955D01*
X159165001Y-66164318D01*
X159164999Y-66164318D01*
X159008239Y-66184955D01*
X159008237Y-66184956D01*
X158862160Y-66245463D01*
X158736718Y-66341718D01*
X158640463Y-66467160D01*
X158579956Y-66613237D01*
X158579955Y-66613239D01*
X158559318Y-66769998D01*
X158559318Y-66770001D01*
X158579955Y-66926760D01*
X158579957Y-66926765D01*
X158640461Y-67072836D01*
X158640464Y-67072841D01*
X158688876Y-67135933D01*
X158714070Y-67201102D01*
X158714500Y-67211419D01*
X158714500Y-67483942D01*
X158694815Y-67550981D01*
X158658095Y-67584209D01*
X158659552Y-67586214D01*
X158651657Y-67591950D01*
X158561954Y-67681652D01*
X158561951Y-67681657D01*
X158561950Y-67681658D01*
X158554126Y-67697014D01*
X158504352Y-67794698D01*
X158489500Y-67888475D01*
X158489500Y-67907814D01*
X158469815Y-67974853D01*
X158417011Y-68020608D01*
X158347853Y-68030552D01*
X158284297Y-68001527D01*
X158277819Y-67995495D01*
X158176855Y-67894531D01*
X158176850Y-67894527D01*
X158096932Y-67848387D01*
X158096931Y-67848386D01*
X158096930Y-67848386D01*
X158086156Y-67845499D01*
X158078270Y-67843386D01*
X158078269Y-67843385D01*
X158023574Y-67828730D01*
X158007786Y-67824500D01*
X158007785Y-67824500D01*
X157040835Y-67824500D01*
X156973796Y-67804815D01*
X156928041Y-67752011D01*
X156918097Y-67682853D01*
X156941569Y-67626188D01*
X156963352Y-67597089D01*
X156963354Y-67597086D01*
X157013596Y-67462379D01*
X157013598Y-67462372D01*
X157019999Y-67402844D01*
X157020000Y-67402827D01*
X157020000Y-67155000D01*
X154520000Y-67155000D01*
X154520000Y-67402844D01*
X154526401Y-67462372D01*
X154526403Y-67462379D01*
X154576645Y-67597086D01*
X154576649Y-67597093D01*
X154662809Y-67712187D01*
X154662812Y-67712190D01*
X154769811Y-67792290D01*
X154811682Y-67848223D01*
X154819500Y-67891556D01*
X154819500Y-68644752D01*
X154831131Y-68703229D01*
X154831132Y-68703230D01*
X154856442Y-68741109D01*
X154877320Y-68807787D01*
X154858835Y-68875167D01*
X154856442Y-68878891D01*
X154831132Y-68916769D01*
X154831131Y-68916770D01*
X154819500Y-68975247D01*
X154819500Y-69914752D01*
X154831131Y-69973229D01*
X154831132Y-69973230D01*
X154856442Y-70011109D01*
X154877320Y-70077787D01*
X154858835Y-70145167D01*
X154856442Y-70148891D01*
X154831132Y-70186769D01*
X154831131Y-70186770D01*
X154819500Y-70245247D01*
X154819500Y-71184752D01*
X154831131Y-71243229D01*
X154831132Y-71243230D01*
X154856442Y-71281109D01*
X154877320Y-71347787D01*
X154858835Y-71415167D01*
X154856442Y-71418891D01*
X154831132Y-71456769D01*
X154831131Y-71456770D01*
X154819500Y-71515247D01*
X154819500Y-72454752D01*
X154831131Y-72513229D01*
X154831132Y-72513230D01*
X154856442Y-72551109D01*
X154877320Y-72617787D01*
X154858835Y-72685167D01*
X154856442Y-72688891D01*
X154831132Y-72726769D01*
X154831131Y-72726770D01*
X154819500Y-72785247D01*
X154819500Y-73724752D01*
X154831131Y-73783229D01*
X154831132Y-73783230D01*
X154856442Y-73821109D01*
X154877320Y-73887787D01*
X154858835Y-73955167D01*
X154856442Y-73958891D01*
X154831132Y-73996769D01*
X154831131Y-73996770D01*
X154819500Y-74055247D01*
X154819500Y-74994752D01*
X154831131Y-75053229D01*
X154831132Y-75053230D01*
X154856442Y-75091109D01*
X154877320Y-75157787D01*
X154858835Y-75225167D01*
X154856442Y-75228891D01*
X154831132Y-75266769D01*
X154831131Y-75266770D01*
X154819500Y-75325247D01*
X154819500Y-76264752D01*
X154831131Y-76323229D01*
X154831132Y-76323230D01*
X154856442Y-76361109D01*
X154877320Y-76427787D01*
X154858835Y-76495167D01*
X154856442Y-76498891D01*
X154831132Y-76536769D01*
X154831131Y-76536770D01*
X154819500Y-76595247D01*
X154819500Y-77534752D01*
X154831131Y-77593229D01*
X154831132Y-77593230D01*
X154856442Y-77631109D01*
X154877320Y-77697787D01*
X154858835Y-77765167D01*
X154856442Y-77768891D01*
X154831132Y-77806769D01*
X154831131Y-77806770D01*
X154819500Y-77865247D01*
X154819500Y-78804752D01*
X154831131Y-78863229D01*
X154831132Y-78863230D01*
X154856442Y-78901109D01*
X154877320Y-78967787D01*
X154858835Y-79035167D01*
X154856442Y-79038891D01*
X154831132Y-79076769D01*
X154831131Y-79076770D01*
X154819500Y-79135247D01*
X154819500Y-80074752D01*
X154831131Y-80133229D01*
X154831132Y-80133230D01*
X154856442Y-80171109D01*
X154877320Y-80237787D01*
X154858835Y-80305167D01*
X154856442Y-80308891D01*
X154831132Y-80346769D01*
X154831131Y-80346770D01*
X154819500Y-80405247D01*
X154819500Y-81344752D01*
X154831131Y-81403229D01*
X154831132Y-81403230D01*
X154856442Y-81441109D01*
X154877320Y-81507787D01*
X154858835Y-81575167D01*
X154856442Y-81578891D01*
X154831132Y-81616769D01*
X154831131Y-81616770D01*
X154819500Y-81675247D01*
X154819500Y-82614752D01*
X154831131Y-82673229D01*
X154831132Y-82673230D01*
X154856442Y-82711109D01*
X154877320Y-82777787D01*
X154858835Y-82845167D01*
X154856442Y-82848891D01*
X154831132Y-82886769D01*
X154831131Y-82886770D01*
X154819500Y-82945247D01*
X154819500Y-83691033D01*
X154799815Y-83758072D01*
X154747011Y-83803827D01*
X154677853Y-83813771D01*
X154614297Y-83784746D01*
X154607819Y-83778714D01*
X154599553Y-83770448D01*
X154533230Y-83726132D01*
X154533229Y-83726131D01*
X154474752Y-83714500D01*
X154474748Y-83714500D01*
X153535252Y-83714500D01*
X153535247Y-83714500D01*
X153476770Y-83726131D01*
X153476769Y-83726132D01*
X153438891Y-83751442D01*
X153372213Y-83772320D01*
X153304833Y-83753835D01*
X153301109Y-83751442D01*
X153263230Y-83726132D01*
X153263229Y-83726131D01*
X153204752Y-83714500D01*
X153204748Y-83714500D01*
X152265252Y-83714500D01*
X152265247Y-83714500D01*
X152206770Y-83726131D01*
X152206769Y-83726132D01*
X152168891Y-83751442D01*
X152102213Y-83772320D01*
X152034833Y-83753835D01*
X152031109Y-83751442D01*
X151993230Y-83726132D01*
X151993229Y-83726131D01*
X151934752Y-83714500D01*
X151934748Y-83714500D01*
X150995252Y-83714500D01*
X150995247Y-83714500D01*
X150936770Y-83726131D01*
X150936769Y-83726132D01*
X150898891Y-83751442D01*
X150832213Y-83772320D01*
X150764833Y-83753835D01*
X150761109Y-83751442D01*
X150723230Y-83726132D01*
X150723229Y-83726131D01*
X150664752Y-83714500D01*
X150664748Y-83714500D01*
X149725252Y-83714500D01*
X149725247Y-83714500D01*
X149666770Y-83726131D01*
X149666769Y-83726132D01*
X149628891Y-83751442D01*
X149562213Y-83772320D01*
X149494833Y-83753835D01*
X149491109Y-83751442D01*
X149453230Y-83726132D01*
X149453229Y-83726131D01*
X149394752Y-83714500D01*
X149394748Y-83714500D01*
X148455252Y-83714500D01*
X148455247Y-83714500D01*
X148396770Y-83726131D01*
X148396769Y-83726132D01*
X148358891Y-83751442D01*
X148292213Y-83772320D01*
X148224833Y-83753835D01*
X148221109Y-83751442D01*
X148183230Y-83726132D01*
X148183229Y-83726131D01*
X148124752Y-83714500D01*
X148124748Y-83714500D01*
X147185252Y-83714500D01*
X147185247Y-83714500D01*
X147126770Y-83726131D01*
X147126769Y-83726132D01*
X147088891Y-83751442D01*
X147022213Y-83772320D01*
X146954833Y-83753835D01*
X146951109Y-83751442D01*
X146913230Y-83726132D01*
X146913229Y-83726131D01*
X146854752Y-83714500D01*
X146854748Y-83714500D01*
X145915252Y-83714500D01*
X145915247Y-83714500D01*
X145856770Y-83726131D01*
X145856769Y-83726132D01*
X145818891Y-83751442D01*
X145752213Y-83772320D01*
X145684833Y-83753835D01*
X145681109Y-83751442D01*
X145643230Y-83726132D01*
X145643229Y-83726131D01*
X145584752Y-83714500D01*
X145584748Y-83714500D01*
X144645252Y-83714500D01*
X144645247Y-83714500D01*
X144586770Y-83726131D01*
X144586769Y-83726132D01*
X144548891Y-83751442D01*
X144482213Y-83772320D01*
X144414833Y-83753835D01*
X144411109Y-83751442D01*
X144373230Y-83726132D01*
X144373229Y-83726131D01*
X144314752Y-83714500D01*
X144314748Y-83714500D01*
X143375252Y-83714500D01*
X143375247Y-83714500D01*
X143316770Y-83726131D01*
X143316769Y-83726132D01*
X143278891Y-83751442D01*
X143212213Y-83772320D01*
X143144833Y-83753835D01*
X143141109Y-83751442D01*
X143103230Y-83726132D01*
X143103229Y-83726131D01*
X143044752Y-83714500D01*
X143044748Y-83714500D01*
X142105252Y-83714500D01*
X142105247Y-83714500D01*
X142046770Y-83726131D01*
X142046769Y-83726132D01*
X142008891Y-83751442D01*
X141942213Y-83772320D01*
X141874833Y-83753835D01*
X141871109Y-83751442D01*
X141833230Y-83726132D01*
X141833229Y-83726131D01*
X141774752Y-83714500D01*
X141774748Y-83714500D01*
X140835252Y-83714500D01*
X140835247Y-83714500D01*
X140776770Y-83726131D01*
X140776769Y-83726132D01*
X140738891Y-83751442D01*
X140672213Y-83772320D01*
X140604833Y-83753835D01*
X140601109Y-83751442D01*
X140563230Y-83726132D01*
X140563229Y-83726131D01*
X140504752Y-83714500D01*
X140504748Y-83714500D01*
X139565252Y-83714500D01*
X139565247Y-83714500D01*
X139506770Y-83726131D01*
X139506769Y-83726132D01*
X139440446Y-83770448D01*
X139432181Y-83778714D01*
X139370858Y-83812199D01*
X139301166Y-83807215D01*
X139245233Y-83765343D01*
X139220816Y-83699879D01*
X139220500Y-83691033D01*
X139220500Y-82945249D01*
X139220499Y-82945247D01*
X139208868Y-82886770D01*
X139208867Y-82886768D01*
X139183558Y-82848892D01*
X139162679Y-82782215D01*
X139181163Y-82714835D01*
X139183558Y-82711108D01*
X139208867Y-82673231D01*
X139208868Y-82673229D01*
X139220499Y-82614752D01*
X139220500Y-82614750D01*
X139220500Y-81675249D01*
X139220499Y-81675247D01*
X139208868Y-81616770D01*
X139208867Y-81616768D01*
X139183558Y-81578892D01*
X139162679Y-81512215D01*
X139181163Y-81444835D01*
X139183558Y-81441108D01*
X139208867Y-81403231D01*
X139208868Y-81403229D01*
X139220499Y-81344752D01*
X139220500Y-81344750D01*
X139220500Y-80405249D01*
X139220499Y-80405247D01*
X139208868Y-80346770D01*
X139208867Y-80346768D01*
X139183558Y-80308892D01*
X139162679Y-80242215D01*
X139181163Y-80174835D01*
X139183558Y-80171108D01*
X139208867Y-80133231D01*
X139208868Y-80133229D01*
X139220499Y-80074752D01*
X139220500Y-80074750D01*
X139220500Y-79135249D01*
X139220499Y-79135247D01*
X139208868Y-79076770D01*
X139208867Y-79076768D01*
X139183558Y-79038892D01*
X139162679Y-78972215D01*
X139181163Y-78904835D01*
X139183558Y-78901108D01*
X139208867Y-78863231D01*
X139208868Y-78863229D01*
X139220499Y-78804752D01*
X139220500Y-78804750D01*
X139220500Y-77865249D01*
X139220499Y-77865247D01*
X139208868Y-77806770D01*
X139208867Y-77806768D01*
X139183558Y-77768892D01*
X139162679Y-77702215D01*
X139181163Y-77634835D01*
X139183558Y-77631108D01*
X139208867Y-77593231D01*
X139208868Y-77593229D01*
X139220499Y-77534752D01*
X139220500Y-77534750D01*
X139220500Y-76595249D01*
X139220499Y-76595247D01*
X139208868Y-76536770D01*
X139208867Y-76536768D01*
X139199563Y-76522844D01*
X143170000Y-76522844D01*
X143176401Y-76582372D01*
X143176403Y-76582379D01*
X143226645Y-76717086D01*
X143226649Y-76717093D01*
X143312809Y-76832187D01*
X143312812Y-76832190D01*
X143427906Y-76918350D01*
X143427913Y-76918354D01*
X143562620Y-76968596D01*
X143562627Y-76968598D01*
X143622155Y-76974999D01*
X143622172Y-76975000D01*
X143870000Y-76975000D01*
X143870000Y-76275000D01*
X144370000Y-76275000D01*
X144370000Y-76975000D01*
X144617828Y-76975000D01*
X144617844Y-76974999D01*
X144677372Y-76968598D01*
X144677376Y-76968597D01*
X144776666Y-76931564D01*
X144846358Y-76926580D01*
X144863334Y-76931564D01*
X144962623Y-76968597D01*
X144962627Y-76968598D01*
X145022155Y-76974999D01*
X145022172Y-76975000D01*
X145270000Y-76975000D01*
X145270000Y-76275000D01*
X145770000Y-76275000D01*
X145770000Y-76975000D01*
X146017828Y-76975000D01*
X146017844Y-76974999D01*
X146077372Y-76968598D01*
X146077376Y-76968597D01*
X146176666Y-76931564D01*
X146246358Y-76926580D01*
X146263334Y-76931564D01*
X146362623Y-76968597D01*
X146362627Y-76968598D01*
X146422155Y-76974999D01*
X146422172Y-76975000D01*
X146670000Y-76975000D01*
X147170000Y-76975000D01*
X147417828Y-76975000D01*
X147417844Y-76974999D01*
X147477372Y-76968598D01*
X147477379Y-76968596D01*
X147612086Y-76918354D01*
X147612093Y-76918350D01*
X147727187Y-76832190D01*
X147727190Y-76832187D01*
X147813350Y-76717093D01*
X147813354Y-76717086D01*
X147863596Y-76582379D01*
X147863598Y-76582372D01*
X147869999Y-76522844D01*
X147870000Y-76522827D01*
X147870000Y-76275000D01*
X147170000Y-76275000D01*
X147170000Y-76975000D01*
X146670000Y-76975000D01*
X146670000Y-76275000D01*
X146228178Y-76275000D01*
X146228178Y-76273170D01*
X146211822Y-76274928D01*
X146211822Y-76275000D01*
X146211154Y-76275000D01*
X146197978Y-76276416D01*
X146193156Y-76275000D01*
X145770000Y-76275000D01*
X145270000Y-76275000D01*
X144828178Y-76275000D01*
X144828178Y-76273170D01*
X144811822Y-76274928D01*
X144811822Y-76275000D01*
X144811154Y-76275000D01*
X144797978Y-76276416D01*
X144793156Y-76275000D01*
X144370000Y-76275000D01*
X143870000Y-76275000D01*
X143170000Y-76275000D01*
X143170000Y-76522844D01*
X139199563Y-76522844D01*
X139183558Y-76498892D01*
X139162679Y-76432215D01*
X139181163Y-76364835D01*
X139183558Y-76361108D01*
X139208867Y-76323231D01*
X139208868Y-76323229D01*
X139220499Y-76264752D01*
X139220500Y-76264750D01*
X139220500Y-75995163D01*
X144670000Y-75995163D01*
X144670000Y-76054837D01*
X144692836Y-76109968D01*
X144735032Y-76152164D01*
X144790163Y-76175000D01*
X144849837Y-76175000D01*
X144904968Y-76152164D01*
X144947164Y-76109968D01*
X144970000Y-76054837D01*
X144970000Y-75995163D01*
X146070000Y-75995163D01*
X146070000Y-76054837D01*
X146092836Y-76109968D01*
X146135032Y-76152164D01*
X146190163Y-76175000D01*
X146249837Y-76175000D01*
X146304968Y-76152164D01*
X146347164Y-76109968D01*
X146370000Y-76054837D01*
X146370000Y-75995163D01*
X146347164Y-75940032D01*
X146304968Y-75897836D01*
X146249837Y-75875000D01*
X146190163Y-75875000D01*
X146135032Y-75897836D01*
X146092836Y-75940032D01*
X146070000Y-75995163D01*
X144970000Y-75995163D01*
X144947164Y-75940032D01*
X144904968Y-75897836D01*
X144849837Y-75875000D01*
X144790163Y-75875000D01*
X144735032Y-75897836D01*
X144692836Y-75940032D01*
X144670000Y-75995163D01*
X139220500Y-75995163D01*
X139220500Y-75325249D01*
X139220499Y-75325247D01*
X139208868Y-75266770D01*
X139208867Y-75266768D01*
X139183558Y-75228892D01*
X139162679Y-75162215D01*
X139173479Y-75122844D01*
X143170000Y-75122844D01*
X143176401Y-75182372D01*
X143176403Y-75182383D01*
X143213434Y-75281668D01*
X143218418Y-75351360D01*
X143213434Y-75368332D01*
X143176403Y-75467616D01*
X143176401Y-75467627D01*
X143170000Y-75527155D01*
X143170000Y-75775000D01*
X143870000Y-75775000D01*
X143870000Y-75333178D01*
X143871828Y-75333178D01*
X143870069Y-75316822D01*
X143870000Y-75316822D01*
X143870000Y-75316181D01*
X143868581Y-75302991D01*
X143870000Y-75298158D01*
X143870000Y-75295163D01*
X143970000Y-75295163D01*
X143970000Y-75354837D01*
X143992836Y-75409968D01*
X144035032Y-75452164D01*
X144090163Y-75475000D01*
X144149837Y-75475000D01*
X144204968Y-75452164D01*
X144247164Y-75409968D01*
X144270000Y-75354837D01*
X144270000Y-75325000D01*
X144402843Y-75325000D01*
X144820000Y-75742157D01*
X145237157Y-75325000D01*
X145207320Y-75295163D01*
X145370000Y-75295163D01*
X145370000Y-75354837D01*
X145392836Y-75409968D01*
X145435032Y-75452164D01*
X145490163Y-75475000D01*
X145549837Y-75475000D01*
X145604968Y-75452164D01*
X145647164Y-75409968D01*
X145670000Y-75354837D01*
X145670000Y-75325000D01*
X145802843Y-75325000D01*
X146220000Y-75742157D01*
X146637157Y-75325000D01*
X146607320Y-75295163D01*
X146770000Y-75295163D01*
X146770000Y-75354837D01*
X146792836Y-75409968D01*
X146835032Y-75452164D01*
X146890163Y-75475000D01*
X146949837Y-75475000D01*
X147004968Y-75452164D01*
X147047164Y-75409968D01*
X147070000Y-75354837D01*
X147070000Y-75316822D01*
X147168170Y-75316822D01*
X147169928Y-75333178D01*
X147170000Y-75333178D01*
X147170000Y-75333846D01*
X147171416Y-75347022D01*
X147170000Y-75351844D01*
X147170000Y-75775000D01*
X147870000Y-75775000D01*
X147870000Y-75527172D01*
X147869999Y-75527155D01*
X147863598Y-75467627D01*
X147863597Y-75467623D01*
X147826564Y-75368334D01*
X147821580Y-75298642D01*
X147826564Y-75281666D01*
X147863597Y-75182376D01*
X147863598Y-75182372D01*
X147869999Y-75122844D01*
X147870000Y-75122827D01*
X147870000Y-74875000D01*
X147170000Y-74875000D01*
X147170000Y-75316822D01*
X147168170Y-75316822D01*
X147070000Y-75316822D01*
X147070000Y-75295163D01*
X147047164Y-75240032D01*
X147004968Y-75197836D01*
X146949837Y-75175000D01*
X146890163Y-75175000D01*
X146835032Y-75197836D01*
X146792836Y-75240032D01*
X146770000Y-75295163D01*
X146607320Y-75295163D01*
X146220000Y-74907843D01*
X145802843Y-75325000D01*
X145670000Y-75325000D01*
X145670000Y-75295163D01*
X145647164Y-75240032D01*
X145604968Y-75197836D01*
X145549837Y-75175000D01*
X145490163Y-75175000D01*
X145435032Y-75197836D01*
X145392836Y-75240032D01*
X145370000Y-75295163D01*
X145207320Y-75295163D01*
X144820000Y-74907843D01*
X144402843Y-75325000D01*
X144270000Y-75325000D01*
X144270000Y-75295163D01*
X144247164Y-75240032D01*
X144204968Y-75197836D01*
X144149837Y-75175000D01*
X144090163Y-75175000D01*
X144035032Y-75197836D01*
X143992836Y-75240032D01*
X143970000Y-75295163D01*
X143870000Y-75295163D01*
X143870000Y-74875000D01*
X143170000Y-74875000D01*
X143170000Y-75122844D01*
X139173479Y-75122844D01*
X139181163Y-75094835D01*
X139183558Y-75091108D01*
X139208867Y-75053231D01*
X139208868Y-75053229D01*
X139220499Y-74994752D01*
X139220500Y-74994750D01*
X139220500Y-74595163D01*
X144670000Y-74595163D01*
X144670000Y-74654837D01*
X144692836Y-74709968D01*
X144735032Y-74752164D01*
X144790163Y-74775000D01*
X144849837Y-74775000D01*
X144904968Y-74752164D01*
X144947164Y-74709968D01*
X144970000Y-74654837D01*
X144970000Y-74595163D01*
X146070000Y-74595163D01*
X146070000Y-74654837D01*
X146092836Y-74709968D01*
X146135032Y-74752164D01*
X146190163Y-74775000D01*
X146249837Y-74775000D01*
X146304968Y-74752164D01*
X146347164Y-74709968D01*
X146370000Y-74654837D01*
X146370000Y-74595163D01*
X146347164Y-74540032D01*
X146304968Y-74497836D01*
X146249837Y-74475000D01*
X146190163Y-74475000D01*
X146135032Y-74497836D01*
X146092836Y-74540032D01*
X146070000Y-74595163D01*
X144970000Y-74595163D01*
X144947164Y-74540032D01*
X144904968Y-74497836D01*
X144849837Y-74475000D01*
X144790163Y-74475000D01*
X144735032Y-74497836D01*
X144692836Y-74540032D01*
X144670000Y-74595163D01*
X139220500Y-74595163D01*
X139220500Y-74055249D01*
X139220499Y-74055247D01*
X139208868Y-73996770D01*
X139208867Y-73996768D01*
X139183558Y-73958892D01*
X139162679Y-73892215D01*
X139181163Y-73824835D01*
X139183558Y-73821108D01*
X139208867Y-73783231D01*
X139208868Y-73783229D01*
X139220499Y-73724752D01*
X139220500Y-73724750D01*
X139220500Y-73722844D01*
X143170000Y-73722844D01*
X143176401Y-73782372D01*
X143176403Y-73782383D01*
X143213434Y-73881668D01*
X143218418Y-73951360D01*
X143213434Y-73968332D01*
X143176403Y-74067616D01*
X143176401Y-74067627D01*
X143170000Y-74127155D01*
X143170000Y-74375000D01*
X143870000Y-74375000D01*
X143870000Y-73933178D01*
X143871828Y-73933178D01*
X143870069Y-73916822D01*
X143870000Y-73916822D01*
X143870000Y-73916181D01*
X143868581Y-73902991D01*
X143870000Y-73898158D01*
X143870000Y-73895163D01*
X143970000Y-73895163D01*
X143970000Y-73954837D01*
X143992836Y-74009968D01*
X144035032Y-74052164D01*
X144090163Y-74075000D01*
X144149837Y-74075000D01*
X144204968Y-74052164D01*
X144247164Y-74009968D01*
X144270000Y-73954837D01*
X144270000Y-73925000D01*
X144402843Y-73925000D01*
X144820000Y-74342157D01*
X145237157Y-73925000D01*
X145207320Y-73895163D01*
X145370000Y-73895163D01*
X145370000Y-73954837D01*
X145392836Y-74009968D01*
X145435032Y-74052164D01*
X145490163Y-74075000D01*
X145549837Y-74075000D01*
X145604968Y-74052164D01*
X145647164Y-74009968D01*
X145670000Y-73954837D01*
X145670000Y-73925000D01*
X145802843Y-73925000D01*
X146220000Y-74342157D01*
X146637157Y-73925000D01*
X146607320Y-73895163D01*
X146770000Y-73895163D01*
X146770000Y-73954837D01*
X146792836Y-74009968D01*
X146835032Y-74052164D01*
X146890163Y-74075000D01*
X146949837Y-74075000D01*
X147004968Y-74052164D01*
X147047164Y-74009968D01*
X147070000Y-73954837D01*
X147070000Y-73916822D01*
X147168170Y-73916822D01*
X147169928Y-73933178D01*
X147170000Y-73933178D01*
X147170000Y-73933846D01*
X147171416Y-73947022D01*
X147170000Y-73951844D01*
X147170000Y-74375000D01*
X147870000Y-74375000D01*
X147870000Y-74127172D01*
X147869999Y-74127155D01*
X147863598Y-74067627D01*
X147863597Y-74067623D01*
X147826564Y-73968334D01*
X147821580Y-73898642D01*
X147826564Y-73881666D01*
X147863597Y-73782376D01*
X147863598Y-73782372D01*
X147869999Y-73722844D01*
X147870000Y-73722827D01*
X147870000Y-73475000D01*
X147170000Y-73475000D01*
X147170000Y-73916822D01*
X147168170Y-73916822D01*
X147070000Y-73916822D01*
X147070000Y-73895163D01*
X147047164Y-73840032D01*
X147004968Y-73797836D01*
X146949837Y-73775000D01*
X146890163Y-73775000D01*
X146835032Y-73797836D01*
X146792836Y-73840032D01*
X146770000Y-73895163D01*
X146607320Y-73895163D01*
X146220000Y-73507843D01*
X145802843Y-73925000D01*
X145670000Y-73925000D01*
X145670000Y-73895163D01*
X145647164Y-73840032D01*
X145604968Y-73797836D01*
X145549837Y-73775000D01*
X145490163Y-73775000D01*
X145435032Y-73797836D01*
X145392836Y-73840032D01*
X145370000Y-73895163D01*
X145207320Y-73895163D01*
X144820000Y-73507843D01*
X144402843Y-73925000D01*
X144270000Y-73925000D01*
X144270000Y-73895163D01*
X144247164Y-73840032D01*
X144204968Y-73797836D01*
X144149837Y-73775000D01*
X144090163Y-73775000D01*
X144035032Y-73797836D01*
X143992836Y-73840032D01*
X143970000Y-73895163D01*
X143870000Y-73895163D01*
X143870000Y-73475000D01*
X143170000Y-73475000D01*
X143170000Y-73722844D01*
X139220500Y-73722844D01*
X139220500Y-73195163D01*
X144670000Y-73195163D01*
X144670000Y-73254837D01*
X144692836Y-73309968D01*
X144735032Y-73352164D01*
X144790163Y-73375000D01*
X144849837Y-73375000D01*
X144904968Y-73352164D01*
X144947164Y-73309968D01*
X144970000Y-73254837D01*
X144970000Y-73195163D01*
X146070000Y-73195163D01*
X146070000Y-73254837D01*
X146092836Y-73309968D01*
X146135032Y-73352164D01*
X146190163Y-73375000D01*
X146249837Y-73375000D01*
X146304968Y-73352164D01*
X146347164Y-73309968D01*
X146370000Y-73254837D01*
X146370000Y-73195163D01*
X146347164Y-73140032D01*
X146304968Y-73097836D01*
X146249837Y-73075000D01*
X146190163Y-73075000D01*
X146135032Y-73097836D01*
X146092836Y-73140032D01*
X146070000Y-73195163D01*
X144970000Y-73195163D01*
X144947164Y-73140032D01*
X144904968Y-73097836D01*
X144849837Y-73075000D01*
X144790163Y-73075000D01*
X144735032Y-73097836D01*
X144692836Y-73140032D01*
X144670000Y-73195163D01*
X139220500Y-73195163D01*
X139220500Y-72785249D01*
X139220499Y-72785247D01*
X139208945Y-72727155D01*
X143170000Y-72727155D01*
X143170000Y-72975000D01*
X143870000Y-72975000D01*
X144370000Y-72975000D01*
X144811822Y-72975000D01*
X144811822Y-72976828D01*
X144828178Y-72975068D01*
X144828178Y-72975000D01*
X144828818Y-72975000D01*
X144842009Y-72973581D01*
X144846842Y-72975000D01*
X145270000Y-72975000D01*
X145770000Y-72975000D01*
X146211822Y-72975000D01*
X146211822Y-72976828D01*
X146228178Y-72975068D01*
X146228178Y-72975000D01*
X146228818Y-72975000D01*
X146242009Y-72973581D01*
X146246842Y-72975000D01*
X146670000Y-72975000D01*
X147170000Y-72975000D01*
X147870000Y-72975000D01*
X147870000Y-72727172D01*
X147869999Y-72727155D01*
X147863598Y-72667627D01*
X147863596Y-72667620D01*
X147813354Y-72532913D01*
X147813350Y-72532906D01*
X147727190Y-72417812D01*
X147727187Y-72417809D01*
X147612093Y-72331649D01*
X147612086Y-72331645D01*
X147477379Y-72281403D01*
X147477372Y-72281401D01*
X147417844Y-72275000D01*
X147170000Y-72275000D01*
X147170000Y-72975000D01*
X146670000Y-72975000D01*
X146670000Y-72275000D01*
X146422155Y-72275000D01*
X146362627Y-72281401D01*
X146362616Y-72281403D01*
X146263332Y-72318434D01*
X146193640Y-72323418D01*
X146176668Y-72318434D01*
X146077383Y-72281403D01*
X146077372Y-72281401D01*
X146017844Y-72275000D01*
X145770000Y-72275000D01*
X145770000Y-72975000D01*
X145270000Y-72975000D01*
X145270000Y-72275000D01*
X145022155Y-72275000D01*
X144962627Y-72281401D01*
X144962616Y-72281403D01*
X144863332Y-72318434D01*
X144793640Y-72323418D01*
X144776668Y-72318434D01*
X144677383Y-72281403D01*
X144677372Y-72281401D01*
X144617844Y-72275000D01*
X144370000Y-72275000D01*
X144370000Y-72975000D01*
X143870000Y-72975000D01*
X143870000Y-72275000D01*
X143622155Y-72275000D01*
X143562627Y-72281401D01*
X143562620Y-72281403D01*
X143427913Y-72331645D01*
X143427906Y-72331649D01*
X143312812Y-72417809D01*
X143312809Y-72417812D01*
X143226649Y-72532906D01*
X143226645Y-72532913D01*
X143176403Y-72667620D01*
X143176401Y-72667627D01*
X143170000Y-72727155D01*
X139208945Y-72727155D01*
X139208868Y-72726770D01*
X139208867Y-72726768D01*
X139183558Y-72688892D01*
X139162679Y-72622215D01*
X139181163Y-72554835D01*
X139183558Y-72551108D01*
X139208867Y-72513231D01*
X139208868Y-72513229D01*
X139220499Y-72454752D01*
X139220500Y-72454750D01*
X139220500Y-71515249D01*
X139220499Y-71515247D01*
X139208868Y-71456770D01*
X139208867Y-71456768D01*
X139183558Y-71418892D01*
X139162679Y-71352215D01*
X139181163Y-71284835D01*
X139183558Y-71281108D01*
X139208867Y-71243231D01*
X139208868Y-71243229D01*
X139220499Y-71184752D01*
X139220500Y-71184750D01*
X139220500Y-70245249D01*
X139220499Y-70245247D01*
X139208868Y-70186770D01*
X139208867Y-70186768D01*
X139183558Y-70148892D01*
X139162679Y-70082215D01*
X139181163Y-70014835D01*
X139183558Y-70011108D01*
X139208867Y-69973231D01*
X139208868Y-69973229D01*
X139220499Y-69914752D01*
X139220500Y-69914750D01*
X139220500Y-68975249D01*
X139220499Y-68975247D01*
X139208868Y-68916770D01*
X139208867Y-68916768D01*
X139183558Y-68878892D01*
X139162679Y-68812215D01*
X139181163Y-68744835D01*
X139183558Y-68741108D01*
X139208867Y-68703231D01*
X139208868Y-68703229D01*
X139219843Y-68648050D01*
X139220500Y-68644748D01*
X139220500Y-67891556D01*
X139240185Y-67824517D01*
X139270189Y-67792290D01*
X139377187Y-67712190D01*
X139377190Y-67712187D01*
X139463350Y-67597093D01*
X139463354Y-67597086D01*
X139513596Y-67462379D01*
X139513598Y-67462372D01*
X139519999Y-67402844D01*
X139520000Y-67402827D01*
X139520000Y-67155000D01*
X137020000Y-67155000D01*
X137020000Y-67230500D01*
X137000315Y-67297539D01*
X136947511Y-67343294D01*
X136896000Y-67354500D01*
X136632610Y-67354500D01*
X136565571Y-67334815D01*
X136544929Y-67318181D01*
X136539575Y-67312827D01*
X136506090Y-67251504D01*
X136511074Y-67181812D01*
X136552946Y-67125879D01*
X136562159Y-67119608D01*
X136662728Y-67057575D01*
X136662732Y-67057572D01*
X136782572Y-66937732D01*
X136782575Y-66937728D01*
X136871542Y-66793492D01*
X136871547Y-66793481D01*
X136889271Y-66739996D01*
X136929044Y-66682551D01*
X136993560Y-66655728D01*
X137006977Y-66655000D01*
X138020000Y-66655000D01*
X138520000Y-66655000D01*
X139520000Y-66655000D01*
X139520000Y-66407172D01*
X139519999Y-66407155D01*
X154520000Y-66407155D01*
X154520000Y-66655000D01*
X155520000Y-66655000D01*
X156020000Y-66655000D01*
X157020000Y-66655000D01*
X157020000Y-66407172D01*
X157019999Y-66407155D01*
X157013598Y-66347627D01*
X157013596Y-66347620D01*
X156963354Y-66212913D01*
X156963350Y-66212906D01*
X156877190Y-66097812D01*
X156877187Y-66097809D01*
X156762093Y-66011649D01*
X156762086Y-66011645D01*
X156627379Y-65961403D01*
X156627372Y-65961401D01*
X156567844Y-65955000D01*
X156020000Y-65955000D01*
X156020000Y-66655000D01*
X155520000Y-66655000D01*
X155520000Y-65955000D01*
X154972155Y-65955000D01*
X154912627Y-65961401D01*
X154912620Y-65961403D01*
X154777913Y-66011645D01*
X154777906Y-66011649D01*
X154662812Y-66097809D01*
X154662809Y-66097812D01*
X154576649Y-66212906D01*
X154576645Y-66212913D01*
X154526403Y-66347620D01*
X154526401Y-66347627D01*
X154520000Y-66407155D01*
X139519999Y-66407155D01*
X139513598Y-66347627D01*
X139513596Y-66347620D01*
X139463354Y-66212913D01*
X139463350Y-66212906D01*
X139377190Y-66097812D01*
X139377187Y-66097809D01*
X139262093Y-66011649D01*
X139262086Y-66011645D01*
X139127379Y-65961403D01*
X139127372Y-65961401D01*
X139067844Y-65955000D01*
X138520000Y-65955000D01*
X138520000Y-66655000D01*
X138020000Y-66655000D01*
X138020000Y-65955000D01*
X137472155Y-65955000D01*
X137412627Y-65961401D01*
X137412620Y-65961403D01*
X137277913Y-66011645D01*
X137277906Y-66011649D01*
X137162812Y-66097809D01*
X137158265Y-66103884D01*
X137102331Y-66145754D01*
X137032639Y-66150738D01*
X136971316Y-66117252D01*
X136937832Y-66055928D01*
X136934999Y-66029572D01*
X136934999Y-65986692D01*
X136934998Y-65986676D01*
X136924855Y-65887392D01*
X136871547Y-65726518D01*
X136871544Y-65726511D01*
X136816938Y-65637983D01*
X136798497Y-65570591D01*
X136819419Y-65503927D01*
X136873060Y-65459157D01*
X136922448Y-65448886D01*
X164610117Y-65444000D01*
X164611888Y-65444012D01*
G37*
G04 #@! TD.AperFunction*
G04 #@! TA.AperFunction,Conductor*
G36*
X144317539Y-85635185D02*
G01*
X144363294Y-85687989D01*
X144374500Y-85739500D01*
X144374500Y-88696144D01*
X144375966Y-88701614D01*
X144394697Y-88771520D01*
X144394697Y-88771521D01*
X144398385Y-88785287D01*
X144444527Y-88865208D01*
X144444529Y-88865211D01*
X144444530Y-88865212D01*
X146244531Y-90665212D01*
X146309788Y-90730469D01*
X146309791Y-90730470D01*
X146309794Y-90730473D01*
X146389706Y-90776611D01*
X146389707Y-90776611D01*
X146389712Y-90776614D01*
X146478856Y-90800500D01*
X146478858Y-90800500D01*
X158621142Y-90800500D01*
X158621144Y-90800500D01*
X158673582Y-90786449D01*
X158743430Y-90788110D01*
X158801293Y-90827272D01*
X158828798Y-90891500D01*
X158817212Y-90960403D01*
X158793356Y-90993904D01*
X158599080Y-91188181D01*
X158537757Y-91221666D01*
X158511399Y-91224500D01*
X145328650Y-91224500D01*
X145261611Y-91204815D01*
X145240969Y-91188181D01*
X143786819Y-89734031D01*
X143753334Y-89672708D01*
X143750500Y-89646350D01*
X143750500Y-85739500D01*
X143770185Y-85672461D01*
X143822989Y-85626706D01*
X143874500Y-85615500D01*
X144250500Y-85615500D01*
X144317539Y-85635185D01*
G37*
G04 #@! TD.AperFunction*
G04 #@! TA.AperFunction,Conductor*
G36*
X145617539Y-85635185D02*
G01*
X145663294Y-85687989D01*
X145674500Y-85739500D01*
X145674500Y-87796145D01*
X145686332Y-87840305D01*
X145686333Y-87840305D01*
X145698386Y-87885289D01*
X145698387Y-87885290D01*
X145744527Y-87965208D01*
X145744529Y-87965211D01*
X145744530Y-87965212D01*
X147559788Y-89780470D01*
X147635650Y-89824269D01*
X147639712Y-89826614D01*
X147728856Y-89850500D01*
X147728857Y-89850500D01*
X147728858Y-89850500D01*
X158041142Y-89850500D01*
X158041144Y-89850500D01*
X158130288Y-89826614D01*
X158134350Y-89824269D01*
X158210212Y-89780470D01*
X159387382Y-88603298D01*
X159448704Y-88569814D01*
X159518395Y-88574798D01*
X159574329Y-88616669D01*
X159598746Y-88682134D01*
X159598465Y-88703134D01*
X159589417Y-88795000D01*
X159596660Y-88868545D01*
X159583641Y-88937191D01*
X159560938Y-88968379D01*
X158466137Y-90063181D01*
X158404814Y-90096666D01*
X158378456Y-90099500D01*
X146721543Y-90099500D01*
X146654504Y-90079815D01*
X146633862Y-90063181D01*
X145111819Y-88541137D01*
X145078334Y-88479814D01*
X145075500Y-88453456D01*
X145075500Y-85739500D01*
X145095185Y-85672461D01*
X145147989Y-85626706D01*
X145199500Y-85615500D01*
X145550500Y-85615500D01*
X145617539Y-85635185D01*
G37*
G04 #@! TD.AperFunction*
G04 #@! TA.AperFunction,Conductor*
G36*
X137285606Y-82730185D02*
G01*
X137331361Y-82782989D01*
X137341305Y-82852147D01*
X137333127Y-82881956D01*
X137331131Y-82886773D01*
X137319500Y-82945247D01*
X137319500Y-83884752D01*
X137331131Y-83943229D01*
X137331132Y-83943230D01*
X137375447Y-84009552D01*
X137441769Y-84053867D01*
X137441770Y-84053868D01*
X137500247Y-84065499D01*
X137500250Y-84065500D01*
X137500252Y-84065500D01*
X137845500Y-84065500D01*
X137912539Y-84085185D01*
X137958294Y-84137989D01*
X137969500Y-84189500D01*
X137969500Y-85584562D01*
X137976837Y-85611943D01*
X137989979Y-85660990D01*
X137994344Y-85668550D01*
X138018786Y-85710884D01*
X138018786Y-85710886D01*
X138029537Y-85729507D01*
X138029541Y-85729512D01*
X138081025Y-85780996D01*
X138114510Y-85842319D01*
X138109526Y-85912011D01*
X138067654Y-85967944D01*
X138004564Y-85992168D01*
X137957897Y-85996408D01*
X137957892Y-85996409D01*
X137795603Y-86046981D01*
X137650122Y-86134927D01*
X137529927Y-86255122D01*
X137441980Y-86400604D01*
X137391409Y-86562893D01*
X137385000Y-86633427D01*
X137385000Y-86640000D01*
X139334999Y-86640000D01*
X139334999Y-86633417D01*
X139328591Y-86562897D01*
X139328590Y-86562892D01*
X139296961Y-86461391D01*
X139295809Y-86391531D01*
X139332610Y-86332138D01*
X139395678Y-86302070D01*
X139415346Y-86300500D01*
X139524167Y-86300500D01*
X139591206Y-86320185D01*
X139611848Y-86336819D01*
X140238181Y-86963152D01*
X140271666Y-87024475D01*
X140274500Y-87050833D01*
X140274500Y-88824167D01*
X140254815Y-88891206D01*
X140238181Y-88911848D01*
X139711848Y-89438181D01*
X139650525Y-89471666D01*
X139624167Y-89474500D01*
X137899832Y-89474500D01*
X137832793Y-89454815D01*
X137787038Y-89402011D01*
X137777094Y-89332853D01*
X137806119Y-89269297D01*
X137812131Y-89262839D01*
X137906068Y-89168901D01*
X137967387Y-89135419D01*
X138013144Y-89134112D01*
X138053475Y-89140499D01*
X138053481Y-89140500D01*
X138666518Y-89140499D01*
X138760304Y-89125646D01*
X138873342Y-89068050D01*
X138963050Y-88978342D01*
X139020646Y-88865304D01*
X139020646Y-88865302D01*
X139020647Y-88865301D01*
X139035500Y-88771522D01*
X139035500Y-88771520D01*
X139035499Y-88308482D01*
X139029244Y-88268988D01*
X139020646Y-88214696D01*
X138963050Y-88101658D01*
X138963046Y-88101654D01*
X138963045Y-88101652D01*
X138873347Y-88011954D01*
X138873343Y-88011951D01*
X138873342Y-88011950D01*
X138859339Y-88004815D01*
X138824386Y-87987005D01*
X138773590Y-87939030D01*
X138756796Y-87871209D01*
X138779334Y-87805074D01*
X138834050Y-87761623D01*
X138843792Y-87758135D01*
X138924399Y-87733017D01*
X139069877Y-87645072D01*
X139190072Y-87524877D01*
X139278019Y-87379395D01*
X139328590Y-87217106D01*
X139335000Y-87146572D01*
X139335000Y-87140000D01*
X137787561Y-87140000D01*
X137746559Y-87131844D01*
X137746501Y-87132061D01*
X137743198Y-87131176D01*
X137740111Y-87130562D01*
X137738653Y-87129958D01*
X137738648Y-87129956D01*
X137581889Y-87109319D01*
X137581887Y-87109319D01*
X137425127Y-87129956D01*
X137425122Y-87129958D01*
X137423665Y-87130562D01*
X137420577Y-87131176D01*
X137417275Y-87132061D01*
X137417216Y-87131844D01*
X137384332Y-87138385D01*
X137350986Y-87160666D01*
X137279049Y-87190463D01*
X137279046Y-87190465D01*
X137153607Y-87286717D01*
X137057351Y-87412161D01*
X136996844Y-87558238D01*
X136996843Y-87558240D01*
X136976206Y-87714999D01*
X136976206Y-87715002D01*
X136981021Y-87751577D01*
X136970255Y-87820612D01*
X136945764Y-87855443D01*
X136785524Y-88015682D01*
X136724203Y-88049166D01*
X136697845Y-88052000D01*
X136396500Y-88052000D01*
X136329461Y-88032315D01*
X136283706Y-87979511D01*
X136272500Y-87928000D01*
X136272500Y-87852500D01*
X134672787Y-87852500D01*
X134605748Y-87832815D01*
X134559993Y-87780011D01*
X134553012Y-87760593D01*
X134552773Y-87759700D01*
X134547640Y-87740543D01*
X134488989Y-87638957D01*
X134414213Y-87564181D01*
X134380728Y-87502858D01*
X134385712Y-87433166D01*
X134427584Y-87377233D01*
X134493048Y-87352816D01*
X134501894Y-87352500D01*
X134937500Y-87352500D01*
X134937500Y-87307000D01*
X134957185Y-87239961D01*
X135009989Y-87194206D01*
X135061500Y-87183000D01*
X135251494Y-87183000D01*
X135267421Y-87179831D01*
X135289307Y-87175478D01*
X135358899Y-87181705D01*
X135414077Y-87224567D01*
X135437322Y-87290456D01*
X135437500Y-87297095D01*
X135437500Y-87352500D01*
X136272500Y-87352500D01*
X136272500Y-87254672D01*
X136272499Y-87254655D01*
X136266098Y-87195127D01*
X136266096Y-87195120D01*
X136215854Y-87060413D01*
X136215850Y-87060406D01*
X136129690Y-86945312D01*
X136129687Y-86945309D01*
X136014593Y-86859149D01*
X136014588Y-86859146D01*
X135933988Y-86829084D01*
X135878055Y-86787212D01*
X135853638Y-86721748D01*
X135855705Y-86688710D01*
X135856078Y-86686830D01*
X135856080Y-86686828D01*
X135880732Y-86562897D01*
X135883000Y-86551495D01*
X135883000Y-86413504D01*
X135856081Y-86278177D01*
X135856080Y-86278176D01*
X135856080Y-86278172D01*
X135856078Y-86278167D01*
X135803278Y-86150695D01*
X135803271Y-86150682D01*
X135726614Y-86035958D01*
X135726611Y-86035954D01*
X135629045Y-85938388D01*
X135629041Y-85938385D01*
X135514317Y-85861728D01*
X135508941Y-85858855D01*
X135510133Y-85856623D01*
X135464340Y-85819719D01*
X135442276Y-85753425D01*
X135459556Y-85685725D01*
X135510694Y-85638115D01*
X135512253Y-85637746D01*
X135525000Y-85625000D01*
X136025000Y-85625000D01*
X136447828Y-85625000D01*
X136447844Y-85624999D01*
X136507372Y-85618598D01*
X136507379Y-85618596D01*
X136642086Y-85568354D01*
X136642093Y-85568350D01*
X136757187Y-85482190D01*
X136757190Y-85482187D01*
X136843350Y-85367093D01*
X136843354Y-85367086D01*
X136893596Y-85232379D01*
X136893598Y-85232372D01*
X136899999Y-85172844D01*
X136900000Y-85172827D01*
X136900000Y-84875000D01*
X136025000Y-84875000D01*
X136025000Y-85625000D01*
X135525000Y-85625000D01*
X135525000Y-84875000D01*
X134650000Y-84875000D01*
X134650000Y-85172844D01*
X134656401Y-85232372D01*
X134656403Y-85232379D01*
X134706645Y-85367086D01*
X134706649Y-85367093D01*
X134792809Y-85482186D01*
X134895061Y-85558733D01*
X134936932Y-85614667D01*
X134941916Y-85684359D01*
X134908431Y-85745682D01*
X134847107Y-85779166D01*
X134820750Y-85782000D01*
X134013505Y-85782000D01*
X133878177Y-85808918D01*
X133878167Y-85808921D01*
X133746952Y-85863272D01*
X133677483Y-85870741D01*
X133615004Y-85839465D01*
X133579352Y-85779376D01*
X133575500Y-85748711D01*
X133575500Y-85190832D01*
X133595185Y-85123793D01*
X133611814Y-85103156D01*
X134438321Y-84276649D01*
X134499642Y-84243166D01*
X134569334Y-84248150D01*
X134625267Y-84290022D01*
X134649684Y-84355486D01*
X134650000Y-84364332D01*
X134650000Y-84375000D01*
X135525000Y-84375000D01*
X136025000Y-84375000D01*
X136900000Y-84375000D01*
X136900000Y-84077172D01*
X136899999Y-84077155D01*
X136893598Y-84017627D01*
X136893596Y-84017620D01*
X136843354Y-83882913D01*
X136843350Y-83882906D01*
X136757190Y-83767812D01*
X136757187Y-83767809D01*
X136642093Y-83681649D01*
X136642086Y-83681645D01*
X136507379Y-83631403D01*
X136507372Y-83631401D01*
X136447844Y-83625000D01*
X136025000Y-83625000D01*
X136025000Y-84375000D01*
X135525000Y-84375000D01*
X135525000Y-83625000D01*
X135389332Y-83625000D01*
X135322293Y-83605315D01*
X135276538Y-83552511D01*
X135266594Y-83483353D01*
X135295619Y-83419797D01*
X135301637Y-83413333D01*
X135968152Y-82746819D01*
X136029475Y-82713334D01*
X136055833Y-82710500D01*
X137218567Y-82710500D01*
X137285606Y-82730185D01*
G37*
G04 #@! TD.AperFunction*
G04 #@! TA.AperFunction,Conductor*
G36*
X147085165Y-85576163D02*
G01*
X147088892Y-85578558D01*
X147126768Y-85603867D01*
X147126770Y-85603868D01*
X147180496Y-85614554D01*
X147185252Y-85615500D01*
X147185257Y-85615500D01*
X147191312Y-85616097D01*
X147191065Y-85618602D01*
X147247539Y-85635185D01*
X147293294Y-85687989D01*
X147304500Y-85739500D01*
X147304500Y-87176146D01*
X147313514Y-87209784D01*
X147313515Y-87209788D01*
X147328384Y-87265285D01*
X147328385Y-87265286D01*
X147374527Y-87345208D01*
X147374529Y-87345211D01*
X147374530Y-87345212D01*
X148684788Y-88655470D01*
X148764712Y-88701614D01*
X148853856Y-88725500D01*
X148853858Y-88725500D01*
X157746142Y-88725500D01*
X157746144Y-88725500D01*
X157835288Y-88701614D01*
X157915212Y-88655470D01*
X159653408Y-86917272D01*
X159714729Y-86883789D01*
X159784420Y-86888773D01*
X159836941Y-86926291D01*
X159885606Y-86985590D01*
X159912918Y-87049900D01*
X159901127Y-87118767D01*
X159853974Y-87170327D01*
X159851754Y-87171640D01*
X159794791Y-87204528D01*
X159794785Y-87204533D01*
X157886137Y-89113181D01*
X157824814Y-89146666D01*
X157798456Y-89149500D01*
X147971544Y-89149500D01*
X147904505Y-89129815D01*
X147883863Y-89113181D01*
X146411819Y-87641137D01*
X146378334Y-87579814D01*
X146375500Y-87553456D01*
X146375500Y-85739500D01*
X146395185Y-85672461D01*
X146447989Y-85626706D01*
X146499500Y-85615500D01*
X146854750Y-85615500D01*
X146854751Y-85615499D01*
X146872630Y-85611943D01*
X146913229Y-85603868D01*
X146913231Y-85603867D01*
X146951108Y-85578558D01*
X147017785Y-85557679D01*
X147085165Y-85576163D01*
G37*
G04 #@! TD.AperFunction*
G04 #@! TA.AperFunction,Conductor*
G36*
X159845504Y-85355185D02*
G01*
X159891259Y-85407989D01*
X159901203Y-85477147D01*
X159874319Y-85538164D01*
X159767317Y-85668547D01*
X159669768Y-85851044D01*
X159652223Y-85908881D01*
X159613924Y-85967318D01*
X159609055Y-85971255D01*
X159604785Y-85974531D01*
X157591137Y-87988181D01*
X157529814Y-88021666D01*
X157503456Y-88024500D01*
X149096544Y-88024500D01*
X149029505Y-88004815D01*
X149008863Y-87988181D01*
X148041819Y-87021137D01*
X148008334Y-86959814D01*
X148005500Y-86933456D01*
X148005500Y-85739500D01*
X148025185Y-85672461D01*
X148077989Y-85626706D01*
X148118857Y-85617815D01*
X148118688Y-85616097D01*
X148124742Y-85615500D01*
X148124748Y-85615500D01*
X148142630Y-85611943D01*
X148183229Y-85603868D01*
X148183231Y-85603867D01*
X148221108Y-85578558D01*
X148287785Y-85557679D01*
X148355165Y-85576163D01*
X148358892Y-85578558D01*
X148396768Y-85603867D01*
X148396770Y-85603868D01*
X148455247Y-85615499D01*
X148455250Y-85615500D01*
X148455252Y-85615500D01*
X148668456Y-85615500D01*
X148735495Y-85635185D01*
X148756137Y-85651819D01*
X150809787Y-87705469D01*
X150870537Y-87740543D01*
X150889712Y-87751614D01*
X150978856Y-87775500D01*
X150978858Y-87775500D01*
X157071142Y-87775500D01*
X157071144Y-87775500D01*
X157160288Y-87751614D01*
X157240212Y-87705470D01*
X159573863Y-85371819D01*
X159635186Y-85338334D01*
X159661544Y-85335500D01*
X159778465Y-85335500D01*
X159845504Y-85355185D01*
G37*
G04 #@! TD.AperFunction*
G04 #@! TA.AperFunction,Conductor*
G36*
X158467481Y-70060185D02*
G01*
X158510926Y-70108204D01*
X158561949Y-70208340D01*
X158561954Y-70208347D01*
X158651652Y-70298045D01*
X158651654Y-70298046D01*
X158651658Y-70298050D01*
X158764696Y-70355646D01*
X158764698Y-70355647D01*
X158858475Y-70370499D01*
X158858481Y-70370500D01*
X159218455Y-70370499D01*
X159285494Y-70390183D01*
X159306136Y-70406818D01*
X160263181Y-71363863D01*
X160296666Y-71425186D01*
X160299500Y-71451544D01*
X160299500Y-74920500D01*
X160279815Y-74987539D01*
X160227011Y-75033294D01*
X160175500Y-75044500D01*
X159990730Y-75044500D01*
X159960300Y-75047353D01*
X159960298Y-75047353D01*
X159832119Y-75092206D01*
X159832117Y-75092207D01*
X159722850Y-75172850D01*
X159642207Y-75282117D01*
X159642206Y-75282119D01*
X159597353Y-75410298D01*
X159597353Y-75410300D01*
X159594500Y-75440730D01*
X159594500Y-76749269D01*
X159598058Y-76787212D01*
X159596445Y-76787363D01*
X159592149Y-76848126D01*
X159550324Y-76904094D01*
X159484880Y-76928565D01*
X159416594Y-76913769D01*
X159388251Y-76892569D01*
X158886819Y-76391137D01*
X158853334Y-76329814D01*
X158850500Y-76303456D01*
X158850500Y-72178858D01*
X158850500Y-72178856D01*
X158826614Y-72089712D01*
X158815399Y-72070288D01*
X158815398Y-72070285D01*
X158780473Y-72009793D01*
X158780467Y-72009785D01*
X157205213Y-70434531D01*
X157205208Y-70434527D01*
X157125290Y-70388387D01*
X157125289Y-70388386D01*
X157125288Y-70388386D01*
X157036144Y-70364500D01*
X157036143Y-70364500D01*
X156844500Y-70364500D01*
X156777461Y-70344815D01*
X156731706Y-70292011D01*
X156722815Y-70251142D01*
X156721097Y-70251312D01*
X156720500Y-70245257D01*
X156720500Y-70245252D01*
X156713554Y-70210332D01*
X156709250Y-70188691D01*
X156715477Y-70119100D01*
X156758340Y-70063922D01*
X156824230Y-70040678D01*
X156830867Y-70040500D01*
X158400442Y-70040500D01*
X158467481Y-70060185D01*
G37*
G04 #@! TD.AperFunction*
M02*
