%TF.GenerationSoftware,KiCad,Pcbnew,8.0.2*%
%TF.CreationDate,2024-08-30T21:16:31-03:00*%
%TF.ProjectId,Board_V0,426f6172-645f-4563-902e-6b696361645f,rev?*%
%TF.SameCoordinates,Original*%
%TF.FileFunction,Soldermask,Top*%
%TF.FilePolarity,Negative*%
%FSLAX46Y46*%
G04 Gerber Fmt 4.6, Leading zero omitted, Abs format (unit mm)*
G04 Created by KiCad (PCBNEW 8.0.2) date 2024-08-30 21:16:31*
%MOMM*%
%LPD*%
G01*
G04 APERTURE LIST*
G04 Aperture macros list*
%AMRoundRect*
0 Rectangle with rounded corners*
0 $1 Rounding radius*
0 $2 $3 $4 $5 $6 $7 $8 $9 X,Y pos of 4 corners*
0 Add a 4 corners polygon primitive as box body*
4,1,4,$2,$3,$4,$5,$6,$7,$8,$9,$2,$3,0*
0 Add four circle primitives for the rounded corners*
1,1,$1+$1,$2,$3*
1,1,$1+$1,$4,$5*
1,1,$1+$1,$6,$7*
1,1,$1+$1,$8,$9*
0 Add four rect primitives between the rounded corners*
20,1,$1+$1,$2,$3,$4,$5,0*
20,1,$1+$1,$4,$5,$6,$7,0*
20,1,$1+$1,$6,$7,$8,$9,0*
20,1,$1+$1,$8,$9,$2,$3,0*%
G04 Aperture macros list end*
%ADD10R,1.700000X1.700000*%
%ADD11O,1.700000X1.700000*%
%ADD12C,3.200000*%
%ADD13C,1.700000*%
%ADD14C,1.500000*%
%ADD15RoundRect,0.250000X0.450000X-0.350000X0.450000X0.350000X-0.450000X0.350000X-0.450000X-0.350000X0*%
%ADD16RoundRect,0.243750X-0.243750X-0.456250X0.243750X-0.456250X0.243750X0.456250X-0.243750X0.456250X0*%
%ADD17R,1.500000X0.900000*%
%ADD18RoundRect,0.250000X-0.475000X0.250000X-0.475000X-0.250000X0.475000X-0.250000X0.475000X0.250000X0*%
%ADD19R,4.000000X4.000000*%
%ADD20C,4.000000*%
%ADD21RoundRect,1.500000X1.500000X-1.500000X1.500000X1.500000X-1.500000X1.500000X-1.500000X-1.500000X0*%
%ADD22C,6.000000*%
%ADD23R,2.400000X2.400000*%
%ADD24C,2.400000*%
%ADD25R,1.905000X2.000000*%
%ADD26O,1.905000X2.000000*%
%ADD27O,2.000000X1.200000*%
G04 APERTURE END LIST*
D10*
%TO.C,J13*%
X162360000Y-67800000D03*
D11*
X164900000Y-67800000D03*
X167440000Y-67800000D03*
%TD*%
D12*
%TO.C,H108*%
X67800000Y-165100000D03*
%TD*%
D10*
%TO.C,U2*%
X119780000Y-114430000D03*
D13*
X122320000Y-114430000D03*
X124860000Y-114430000D03*
X127400000Y-114430000D03*
X129940000Y-114430000D03*
X132480000Y-114430000D03*
X135020000Y-114430000D03*
X137560000Y-114430000D03*
X140100000Y-114430000D03*
X142640000Y-114430000D03*
X145180000Y-114430000D03*
X147720000Y-114430000D03*
X150260000Y-114430000D03*
X152800000Y-114430000D03*
X155340000Y-114430000D03*
X157880000Y-114430000D03*
X160420000Y-114430000D03*
X162960000Y-114430000D03*
X165500000Y-114430000D03*
X168040000Y-114430000D03*
X168040000Y-99190000D03*
X165500000Y-99190000D03*
X162960000Y-99190000D03*
X160420000Y-99190000D03*
X157880000Y-99190000D03*
X155340000Y-99190000D03*
X152800000Y-99190000D03*
X150260000Y-99190000D03*
X147720000Y-99190000D03*
X145180000Y-99190000D03*
X142640000Y-99190000D03*
X140100000Y-99190000D03*
X137560000Y-99190000D03*
X135020000Y-99190000D03*
X132480000Y-99190000D03*
X129940000Y-99190000D03*
X127400000Y-99190000D03*
X124860000Y-99190000D03*
X122320000Y-99190000D03*
X119780000Y-99190000D03*
X164230000Y-103000000D03*
X164230000Y-105540000D03*
X164230000Y-108080000D03*
X164230000Y-110620000D03*
%TD*%
D12*
%TO.C,H101*%
X111000000Y-160500000D03*
%TD*%
D14*
%TO.C,TP1*%
X104600000Y-127950000D03*
%TD*%
D10*
%TO.C,U3*%
X109836666Y-87760000D03*
D11*
X109836666Y-90300000D03*
X107296666Y-87760000D03*
X107296666Y-90300000D03*
X104756666Y-87760000D03*
X104756666Y-90300000D03*
X102216666Y-87760000D03*
X102216666Y-90300000D03*
X99676666Y-87760000D03*
X99676666Y-90300000D03*
X97136666Y-87760000D03*
X97136666Y-90300000D03*
X94596666Y-87760000D03*
X94596666Y-90300000D03*
D10*
X95936666Y-81560000D03*
D11*
X95936666Y-79020000D03*
D10*
X96561666Y-60635000D03*
D11*
X94021666Y-60635000D03*
X91481666Y-60635000D03*
X96561666Y-63175000D03*
X94021666Y-63175000D03*
X91481666Y-63175000D03*
D10*
X102111666Y-60535000D03*
D11*
X104651666Y-60535000D03*
X107191666Y-60535000D03*
%TD*%
D12*
%TO.C,H107*%
X160700000Y-165100000D03*
%TD*%
D15*
%TO.C,R203*%
X150690000Y-110630000D03*
X150690000Y-108630000D03*
%TD*%
D10*
%TO.C,U5*%
X166710000Y-87760000D03*
D11*
X166710000Y-90300000D03*
X164170000Y-87760000D03*
X164170000Y-90300000D03*
X161630000Y-87760000D03*
X161630000Y-90300000D03*
X159090000Y-87760000D03*
X159090000Y-90300000D03*
X156550000Y-87760000D03*
X156550000Y-90300000D03*
X154010000Y-87760000D03*
X154010000Y-90300000D03*
X151470000Y-87760000D03*
X151470000Y-90300000D03*
D10*
X152810000Y-81560000D03*
D11*
X152810000Y-79020000D03*
D10*
X153435000Y-60635000D03*
D11*
X150895000Y-60635000D03*
X148355000Y-60635000D03*
X153435000Y-63175000D03*
X150895000Y-63175000D03*
X148355000Y-63175000D03*
D10*
X158985000Y-60535000D03*
D11*
X161525000Y-60535000D03*
X164065000Y-60535000D03*
%TD*%
D16*
%TO.C,D3*%
X53225000Y-77500000D03*
X55100000Y-77500000D03*
%TD*%
%TO.C,D5*%
X53225000Y-82000000D03*
X55100000Y-82000000D03*
%TD*%
D10*
%TO.C,J9*%
X126420000Y-54390000D03*
D11*
X126420000Y-51850000D03*
X123880000Y-54390000D03*
X123880000Y-51850000D03*
X121340000Y-54390000D03*
X121340000Y-51850000D03*
X118800000Y-54390000D03*
X118800000Y-51850000D03*
%TD*%
D17*
%TO.C,D401*%
X139550000Y-167800000D03*
X139550000Y-171100000D03*
X144450000Y-171100000D03*
X144450000Y-167800000D03*
%TD*%
D10*
%TO.C,U4*%
X81400000Y-87760000D03*
D11*
X81400000Y-90300000D03*
X78860000Y-87760000D03*
X78860000Y-90300000D03*
X76320000Y-87760000D03*
X76320000Y-90300000D03*
X73780000Y-87760000D03*
X73780000Y-90300000D03*
X71240000Y-87760000D03*
X71240000Y-90300000D03*
X68700000Y-87760000D03*
X68700000Y-90300000D03*
X66160000Y-87760000D03*
X66160000Y-90300000D03*
D10*
X67500000Y-81560000D03*
D11*
X67500000Y-79020000D03*
D10*
X68125000Y-60635000D03*
D11*
X65585000Y-60635000D03*
X63045000Y-60635000D03*
X68125000Y-63175000D03*
X65585000Y-63175000D03*
X63045000Y-63175000D03*
D10*
X73675000Y-60535000D03*
D11*
X76215000Y-60535000D03*
X78755000Y-60535000D03*
%TD*%
D12*
%TO.C,H103*%
X52200000Y-109700000D03*
%TD*%
%TO.C,H104*%
X186900000Y-109700000D03*
%TD*%
D10*
%TO.C,J14*%
X158800000Y-79100000D03*
D11*
X158800000Y-81640000D03*
%TD*%
D16*
%TO.C,D2*%
X51900000Y-102100000D03*
X53775000Y-102100000D03*
%TD*%
D18*
%TO.C,C401*%
X135800000Y-167900000D03*
X135800000Y-169800000D03*
%TD*%
D12*
%TO.C,H105*%
X67000000Y-41700000D03*
%TD*%
D16*
%TO.C,D4*%
X53185000Y-86500000D03*
X55060000Y-86500000D03*
%TD*%
D10*
%TO.C,J3*%
X78460000Y-69000000D03*
D11*
X81000000Y-69000000D03*
X83540000Y-69000000D03*
%TD*%
D17*
%TO.C,D202*%
X115100000Y-167800000D03*
X115100000Y-171100000D03*
X120000000Y-171100000D03*
X120000000Y-167800000D03*
%TD*%
D15*
%TO.C,R401*%
X135800000Y-174150000D03*
X135800000Y-172150000D03*
%TD*%
D17*
%TO.C,D201*%
X90650000Y-167800000D03*
X90650000Y-171100000D03*
X95550000Y-171100000D03*
X95550000Y-167800000D03*
%TD*%
D10*
%TO.C,J8*%
X155270000Y-54390000D03*
D11*
X155270000Y-51850000D03*
X152730000Y-54390000D03*
X152730000Y-51850000D03*
X150190000Y-54390000D03*
X150190000Y-51850000D03*
X147650000Y-54390000D03*
X147650000Y-51850000D03*
%TD*%
D14*
%TO.C,TP5*%
X176900000Y-124100000D03*
%TD*%
D10*
%TO.C,J7*%
X69680000Y-54390000D03*
D11*
X69680000Y-51850000D03*
X67140000Y-54390000D03*
X67140000Y-51850000D03*
X64600000Y-54390000D03*
X64600000Y-51850000D03*
X62060000Y-54390000D03*
X62060000Y-51850000D03*
%TD*%
D15*
%TO.C,R210*%
X111600000Y-173750000D03*
X111600000Y-171750000D03*
%TD*%
D14*
%TO.C,TP4*%
X37000000Y-89300000D03*
%TD*%
D10*
%TO.C,J6*%
X98050000Y-54390000D03*
D11*
X98050000Y-51850000D03*
X95510000Y-54390000D03*
X95510000Y-51850000D03*
X92970000Y-54390000D03*
X92970000Y-51850000D03*
X90430000Y-54390000D03*
X90430000Y-51850000D03*
%TD*%
D15*
%TO.C,R204*%
X153700000Y-110670000D03*
X153700000Y-108670000D03*
%TD*%
D14*
%TO.C,TP3*%
X36850000Y-108975000D03*
%TD*%
D10*
%TO.C,J2*%
X102400000Y-78925000D03*
D11*
X102400000Y-81465000D03*
%TD*%
D12*
%TO.C,H106*%
X114000000Y-41700000D03*
%TD*%
D15*
%TO.C,R201*%
X98080000Y-110640000D03*
X98080000Y-108640000D03*
%TD*%
D18*
%TO.C,C202*%
X111600000Y-167700000D03*
X111600000Y-169600000D03*
%TD*%
D16*
%TO.C,D1*%
X52062500Y-96900000D03*
X53937500Y-96900000D03*
%TD*%
D13*
%TO.C,U7*%
X73335000Y-131195000D03*
X73335000Y-148975000D03*
X113975000Y-131195000D03*
X113975000Y-148975000D03*
%TD*%
D10*
%TO.C,J4*%
X72300000Y-79160000D03*
D11*
X72300000Y-81700000D03*
%TD*%
D15*
%TO.C,R202*%
X94480000Y-110680000D03*
X94480000Y-108680000D03*
%TD*%
D10*
%TO.C,J16*%
X131600000Y-79000000D03*
D11*
X131600000Y-81540000D03*
%TD*%
D13*
%TO.C,U9*%
X132590000Y-153250000D03*
X135130000Y-153250000D03*
X137670000Y-153250000D03*
X140210000Y-153250000D03*
X142750000Y-153250000D03*
X145290000Y-153250000D03*
X147830000Y-153250000D03*
X150370000Y-153250000D03*
X152910000Y-153250000D03*
X155450000Y-153250000D03*
X157990000Y-153250000D03*
X160530000Y-153250000D03*
X163070000Y-153250000D03*
X165610000Y-153250000D03*
X168150000Y-153250000D03*
X168150000Y-127850000D03*
X165610000Y-127850000D03*
X163070000Y-127850000D03*
X160530000Y-127850000D03*
X157990000Y-127850000D03*
X155450000Y-127850000D03*
X152910000Y-127850000D03*
X150370000Y-127850000D03*
X147830000Y-127850000D03*
X145290000Y-127850000D03*
X142750000Y-127850000D03*
X140210000Y-127850000D03*
X137670000Y-127850000D03*
X135130000Y-127850000D03*
X132590000Y-127850000D03*
%TD*%
D10*
%TO.C,J15*%
X134360000Y-66600000D03*
D11*
X136900000Y-66600000D03*
X139440000Y-66600000D03*
%TD*%
D18*
%TO.C,C201*%
X87135000Y-167795000D03*
X87135000Y-169695000D03*
%TD*%
D10*
%TO.C,U6*%
X138273332Y-87760000D03*
D11*
X138273332Y-90300000D03*
X135733332Y-87760000D03*
X135733332Y-90300000D03*
X133193332Y-87760000D03*
X133193332Y-90300000D03*
X130653332Y-87760000D03*
X130653332Y-90300000D03*
X128113332Y-87760000D03*
X128113332Y-90300000D03*
X125573332Y-87760000D03*
X125573332Y-90300000D03*
X123033332Y-87760000D03*
X123033332Y-90300000D03*
D10*
X124373332Y-81560000D03*
D11*
X124373332Y-79020000D03*
D10*
X124998332Y-60635000D03*
D11*
X122458332Y-60635000D03*
X119918332Y-60635000D03*
X124998332Y-63175000D03*
X122458332Y-63175000D03*
X119918332Y-63175000D03*
D10*
X130548332Y-60535000D03*
D11*
X133088332Y-60535000D03*
X135628332Y-60535000D03*
%TD*%
D19*
%TO.C,C5*%
X59625000Y-128117169D03*
D20*
X59625000Y-138117169D03*
%TD*%
D12*
%TO.C,H102*%
X161000000Y-41700000D03*
%TD*%
D10*
%TO.C,J11*%
X161725000Y-133675000D03*
D11*
X161725000Y-136215000D03*
X161725000Y-138755000D03*
%TD*%
D15*
%TO.C,R209*%
X87100000Y-173750000D03*
X87100000Y-171750000D03*
%TD*%
D10*
%TO.C,U1*%
X62720000Y-114130000D03*
D13*
X65260000Y-114130000D03*
X67800000Y-114130000D03*
X70340000Y-114130000D03*
X72880000Y-114130000D03*
X75420000Y-114130000D03*
X77960000Y-114130000D03*
X80500000Y-114130000D03*
X83040000Y-114130000D03*
X85580000Y-114130000D03*
X88120000Y-114130000D03*
X90660000Y-114130000D03*
X93200000Y-114130000D03*
X95740000Y-114130000D03*
X98280000Y-114130000D03*
X100820000Y-114130000D03*
X103360000Y-114130000D03*
X105900000Y-114130000D03*
X108440000Y-114130000D03*
X110980000Y-114130000D03*
X110980000Y-98890000D03*
X108440000Y-98890000D03*
X105900000Y-98890000D03*
X103360000Y-98890000D03*
X100820000Y-98890000D03*
X98280000Y-98890000D03*
X95740000Y-98890000D03*
X93200000Y-98890000D03*
X90660000Y-98890000D03*
X88120000Y-98890000D03*
X85580000Y-98890000D03*
X83040000Y-98890000D03*
X80500000Y-98890000D03*
X77960000Y-98890000D03*
X75420000Y-98890000D03*
X72880000Y-98890000D03*
X70340000Y-98890000D03*
X67800000Y-98890000D03*
X65260000Y-98890000D03*
X62720000Y-98890000D03*
X107170000Y-102700000D03*
X107170000Y-105240000D03*
X107170000Y-107780000D03*
X107170000Y-110320000D03*
%TD*%
D10*
%TO.C,J1*%
X106500000Y-67700000D03*
D11*
X109040000Y-67700000D03*
X111580000Y-67700000D03*
%TD*%
D14*
%TO.C,TP2*%
X114025000Y-126175000D03*
%TD*%
D21*
%TO.C,J12*%
X44500000Y-124100000D03*
D22*
X44500000Y-116900000D03*
%TD*%
D10*
%TO.C,J10*%
X181700000Y-129340000D03*
D11*
X181700000Y-126800000D03*
X181700000Y-124260000D03*
X181700000Y-121720000D03*
X181700000Y-119180000D03*
%TD*%
D23*
%TO.C,C1*%
X111950000Y-136551041D03*
D24*
X111950000Y-141551041D03*
%TD*%
D25*
%TO.C,U8*%
X95060000Y-131220000D03*
D26*
X97600000Y-131220000D03*
X100140000Y-131220000D03*
%TD*%
D27*
%TO.C,J5*%
X138925000Y-132310000D03*
X138925000Y-134850000D03*
X138925000Y-137390000D03*
X138925000Y-139930000D03*
X138925000Y-142470000D03*
X138925000Y-145010000D03*
X138925000Y-147550000D03*
X138925000Y-150090000D03*
%TD*%
M02*
