M48
; DRILL file {KiCad 8.0.2} date 2024-08-30T21:16:36-0300
; FORMAT={-:-/ absolute / metric / decimal}
; #@! TF.CreationDate,2024-08-30T21:16:36-03:00
; #@! TF.GenerationSoftware,Kicad,Pcbnew,8.0.2
; #@! TF.FileFunction,Plated,1,2,PTH
FMAT,2
METRIC
; #@! TA.AperFunction,Plated,PTH,ViaDrill
T1C0.300
; #@! TA.AperFunction,Plated,PTH,ComponentDrill
T2C0.800
; #@! TA.AperFunction,Plated,PTH,ViaDrill
T3C1.000
; #@! TA.AperFunction,Plated,PTH,ComponentDrill
T4C1.000
; #@! TA.AperFunction,Plated,PTH,ComponentDrill
T5C1.100
; #@! TA.AperFunction,Plated,PTH,ComponentDrill
T6C1.200
; #@! TA.AperFunction,Plated,PTH,ComponentDrill
T7C2.000
; #@! TA.AperFunction,Plated,PTH,ComponentDrill
T8C4.500
%
G90
G05
T1
X34.875Y-89.375
X37.05Y-91.525
X37.125Y-86.275
X52.7Y-60.2
X54.4Y-56.2
X54.85Y-113.675
X55.0Y-115.1
X55.4Y-96.9
X55.6Y-102.0
X55.9Y-59.3
X56.3Y-82.2
X56.3Y-113.8
X56.5Y-77.7
X56.5Y-86.4
X57.925Y-74.725
X61.3Y-161.0
X62.975Y-58.25
X63.2Y-160.4
X64.0Y-83.3
X64.4Y-162.8
X65.125Y-111.525
X65.45Y-58.275
X66.8Y-93.1
X67.1Y-71.6
X67.575Y-102.6
X67.925Y-111.725
X68.1Y-93.8
X68.2Y-73.1
X68.225Y-58.175
X69.0Y-71.6
X69.075Y-85.475
X69.1Y-92.1
X70.6Y-93.6
X71.175Y-58.375
X71.175Y-59.475
X71.2Y-84.6
X72.2Y-91.7
X72.225Y-107.175
X72.85Y-54.625
X73.375Y-85.725
X74.175Y-54.725
X74.2Y-96.4
X74.245Y-92.745
X75.0Y-74.6
X75.0Y-83.8
X76.35Y-57.075
X76.525Y-92.75
X77.5Y-96.2
X78.675Y-108.575
X79.15Y-143.425
X79.225Y-92.0
X80.125Y-52.25
X80.9Y-44.2
X81.7Y-54.625
X81.9Y-45.8
X82.0Y-96.2
X82.2Y-152.125
X82.3Y-73.3
X82.9Y-43.7
X82.9Y-101.5
X83.1Y-75.5
X83.1Y-106.4
X83.3Y-116.7
X83.8Y-105.8
X83.8Y-123.1
X84.1Y-96.2
X84.1Y-119.2
X84.2Y-88.3
X84.3Y-73.8
X84.5Y-106.4
X84.9Y-82.2
X84.925Y-170.925
X85.0Y-169.675
X85.1Y-116.6
X85.575Y-52.1
X85.9Y-91.5
X86.0Y-88.4
X86.2Y-57.425
X86.225Y-58.425
X86.25Y-59.475
X87.0Y-121.1
X87.3Y-96.8
X87.475Y-54.55
X89.3Y-142.775
X89.5Y-90.9
X90.0Y-94.2
X90.1Y-121.1
X90.8Y-96.0
X91.2Y-72.6
X91.2Y-101.7
X91.4Y-70.2
X91.4Y-89.0
X91.425Y-108.6
X91.75Y-58.225
X92.875Y-57.025
X93.625Y-58.275
X93.645Y-142.19
X93.645Y-144.73
X93.645Y-147.27
X93.645Y-149.81
X93.675Y-139.65
X93.9Y-121.2
X94.7Y-119.2
X94.725Y-125.2
X94.775Y-128.35
X94.825Y-126.9
X95.925Y-126.825
X95.925Y-128.325
X95.975Y-92.45
X96.025Y-125.225
X96.185Y-139.65
X96.185Y-142.19
X96.185Y-144.73
X96.185Y-147.27
X96.185Y-149.81
X96.6Y-96.5
X96.65Y-57.025
X97.5Y-72.1
X97.6Y-101.2
X97.7Y-73.5
X98.725Y-139.65
X98.725Y-142.19
X98.725Y-144.73
X98.725Y-147.27
X98.725Y-149.81
X98.8Y-93.3
X99.4Y-73.1
X99.4Y-96.7
X99.4Y-104.2
X101.265Y-139.65
X101.265Y-142.19
X101.265Y-144.73
X101.265Y-147.27
X101.265Y-149.81
X101.9Y-102.7
X102.6Y-93.5
X102.8Y-56.6
X103.7Y-107.275
X103.825Y-110.925
X104.425Y-130.925
X104.475Y-131.925
X104.5Y-94.2
X105.4Y-145.075
X106.8Y-79.5
X107.3Y-81.2
X107.5Y-123.0
X107.6Y-100.8
X108.2Y-80.7
X112.675Y-100.9
X112.7Y-78.5
X114.4Y-94.6
X114.575Y-110.05
X114.6Y-96.5
X114.65Y-107.55
X114.675Y-104.975
X114.775Y-102.625
X116.8Y-85.4
X116.9Y-69.9
X116.9Y-94.0
X119.0Y-45.4
X119.9Y-46.3
X120.0Y-94.0
X120.1Y-44.9
X120.2Y-169.4
X120.375Y-156.875
X121.3Y-158.15
X121.75Y-156.925
X124.85Y-94.025
X125.425Y-94.9
X125.6Y-116.8
X125.9Y-94.0
X126.0Y-49.5
X126.0Y-71.7
X126.7Y-103.7
X127.2Y-71.7
X127.7Y-85.5
X129.0Y-122.0
X129.0Y-157.225
X129.1Y-105.2
X130.3Y-92.6
X131.51Y-94.11
X132.4Y-134.7
X134.1Y-96.3
X134.6Y-51.7
X135.2Y-105.6
X135.6Y-140.4
X136.4Y-117.3
X136.5Y-101.3
X136.9Y-112.3
X137.5Y-120.5
X137.825Y-54.175
X138.5Y-105.6
X138.6Y-112.3
X138.8Y-96.5
X139.7Y-82.3
X139.8Y-76.4
X140.3Y-51.8
X141.0Y-91.5
X141.0Y-117.1
X141.3Y-120.2
X141.5Y-124.8
X142.3Y-145.3
X142.375Y-54.25
X143.9Y-58.9
X143.9Y-61.3
X144.4Y-135.4
X144.5Y-138.7
X144.6Y-82.9
X144.8Y-88.2
X144.8Y-90.4
X144.8Y-111.7
X144.9Y-91.9
X145.1Y-102.9
X145.8Y-42.6
X145.8Y-131.8
X146.5Y-119.4
X146.6Y-142.3
X146.7Y-44.6
X146.8Y-85.6
X146.8Y-104.1
X147.2Y-121.3
X147.7Y-43.1
X148.8Y-87.4
X148.8Y-148.9
X149.325Y-96.9
X149.4Y-101.5
X149.7Y-95.775
X149.95Y-132.075
X150.1Y-135.1
X150.3Y-97.2
X150.3Y-129.9
X150.45Y-144.525
X151.5Y-100.8
X151.525Y-95.375
X151.9Y-131.1
X152.0Y-72.0
X152.1Y-105.2
X152.3Y-159.3
X153.5Y-97.0
X153.6Y-132.5
X154.0Y-124.4
X154.0Y-159.5
X154.4Y-105.1
X155.2Y-142.1
X155.225Y-93.325
X155.9Y-104.1
X155.9Y-134.9
X156.0Y-130.5
X156.0Y-143.0
X156.0Y-159.5
X156.05Y-97.25
X156.2Y-93.3
X156.3Y-101.6
X156.3Y-132.8
X158.9Y-135.6
X159.9Y-93.6
X161.7Y-94.1
X161.9Y-148.4
X161.9Y-150.9
X162.4Y-155.5
X162.6Y-123.7
X162.7Y-96.05
X164.5Y-81.6
X165.25Y-93.6
X165.6Y-80.3
X165.6Y-82.9
X166.7Y-136.8
X167.4Y-134.6
X168.0Y-136.0
X168.5Y-122.2
X171.625Y-105.225
X171.675Y-102.8
X171.7Y-93.8
X171.75Y-111.15
X171.825Y-108.25
X172.6Y-131.1
X173.3Y-77.9
X173.6Y-120.5
X176.6Y-88.8
X176.8Y-92.6
X181.9Y-137.4
X183.2Y-135.9
X183.9Y-137.5
X187.8Y-117.8
X188.8Y-100.2
X188.9Y-92.2
X189.0Y-96.6
X189.6Y-116.6
X189.6Y-119.0
T2
X138.925Y-132.31
X138.925Y-134.85
X138.925Y-137.39
X138.925Y-139.93
X138.925Y-142.47
X138.925Y-145.01
X138.925Y-147.55
X138.925Y-150.09
T3
X111.5Y-63.2
X180.7Y-112.2
T4
X62.06Y-51.85
X62.06Y-54.39
X62.72Y-98.89
X62.72Y-114.13
X63.045Y-60.635
X63.045Y-63.175
X64.6Y-51.85
X64.6Y-54.39
X65.26Y-98.89
X65.26Y-114.13
X65.585Y-60.635
X65.585Y-63.175
X66.16Y-87.76
X66.16Y-90.3
X67.14Y-51.85
X67.14Y-54.39
X67.5Y-79.02
X67.5Y-81.56
X67.8Y-98.89
X67.8Y-114.13
X68.125Y-60.635
X68.125Y-63.175
X68.7Y-87.76
X68.7Y-90.3
X69.68Y-51.85
X69.68Y-54.39
X70.34Y-98.89
X70.34Y-114.13
X71.24Y-87.76
X71.24Y-90.3
X72.3Y-79.16
X72.3Y-81.7
X72.88Y-98.89
X72.88Y-114.13
X73.335Y-131.195
X73.335Y-148.975
X73.675Y-60.535
X73.78Y-87.76
X73.78Y-90.3
X75.42Y-98.89
X75.42Y-114.13
X76.215Y-60.535
X76.32Y-87.76
X76.32Y-90.3
X77.96Y-98.89
X77.96Y-114.13
X78.46Y-69.0
X78.755Y-60.535
X78.86Y-87.76
X78.86Y-90.3
X80.5Y-98.89
X80.5Y-114.13
X81.0Y-69.0
X81.4Y-87.76
X81.4Y-90.3
X83.04Y-98.89
X83.04Y-114.13
X83.54Y-69.0
X85.58Y-98.89
X85.58Y-114.13
X88.12Y-98.89
X88.12Y-114.13
X90.43Y-51.85
X90.43Y-54.39
X90.66Y-98.89
X90.66Y-114.13
X91.482Y-60.635
X91.482Y-63.175
X92.97Y-51.85
X92.97Y-54.39
X93.2Y-98.89
X93.2Y-114.13
X94.022Y-60.635
X94.022Y-63.175
X94.597Y-87.76
X94.597Y-90.3
X95.51Y-51.85
X95.51Y-54.39
X95.74Y-98.89
X95.74Y-114.13
X95.937Y-79.02
X95.937Y-81.56
X96.562Y-60.635
X96.562Y-63.175
X97.137Y-87.76
X97.137Y-90.3
X98.05Y-51.85
X98.05Y-54.39
X98.28Y-98.89
X98.28Y-114.13
X99.677Y-87.76
X99.677Y-90.3
X100.82Y-98.89
X100.82Y-114.13
X102.112Y-60.535
X102.217Y-87.76
X102.217Y-90.3
X102.4Y-78.925
X102.4Y-81.465
X103.36Y-98.89
X103.36Y-114.13
X104.652Y-60.535
X104.757Y-87.76
X104.757Y-90.3
X105.9Y-98.89
X105.9Y-114.13
X106.5Y-67.7
X107.17Y-102.7
X107.17Y-105.24
X107.17Y-107.78
X107.17Y-110.32
X107.192Y-60.535
X107.297Y-87.76
X107.297Y-90.3
X108.44Y-98.89
X108.44Y-114.13
X109.04Y-67.7
X109.837Y-87.76
X109.837Y-90.3
X110.98Y-98.89
X110.98Y-114.13
X111.58Y-67.7
X113.975Y-131.195
X113.975Y-148.975
X118.8Y-51.85
X118.8Y-54.39
X119.78Y-99.19
X119.78Y-114.43
X119.918Y-60.635
X119.918Y-63.175
X121.34Y-51.85
X121.34Y-54.39
X122.32Y-99.19
X122.32Y-114.43
X122.458Y-60.635
X122.458Y-63.175
X123.033Y-87.76
X123.033Y-90.3
X123.88Y-51.85
X123.88Y-54.39
X124.373Y-79.02
X124.373Y-81.56
X124.86Y-99.19
X124.86Y-114.43
X124.998Y-60.635
X124.998Y-63.175
X125.573Y-87.76
X125.573Y-90.3
X126.42Y-51.85
X126.42Y-54.39
X127.4Y-99.19
X127.4Y-114.43
X128.113Y-87.76
X128.113Y-90.3
X129.94Y-99.19
X129.94Y-114.43
X130.548Y-60.535
X130.653Y-87.76
X130.653Y-90.3
X131.6Y-79.0
X131.6Y-81.54
X132.48Y-99.19
X132.48Y-114.43
X132.59Y-127.85
X132.59Y-153.25
X133.088Y-60.535
X133.193Y-87.76
X133.193Y-90.3
X134.36Y-66.6
X135.02Y-99.19
X135.02Y-114.43
X135.13Y-127.85
X135.13Y-153.25
X135.628Y-60.535
X135.733Y-87.76
X135.733Y-90.3
X136.9Y-66.6
X137.56Y-99.19
X137.56Y-114.43
X137.67Y-127.85
X137.67Y-153.25
X138.273Y-87.76
X138.273Y-90.3
X139.44Y-66.6
X140.1Y-99.19
X140.1Y-114.43
X140.21Y-127.85
X140.21Y-153.25
X142.64Y-99.19
X142.64Y-114.43
X142.75Y-127.85
X142.75Y-153.25
X145.18Y-99.19
X145.18Y-114.43
X145.29Y-127.85
X145.29Y-153.25
X147.65Y-51.85
X147.65Y-54.39
X147.72Y-99.19
X147.72Y-114.43
X147.83Y-127.85
X147.83Y-153.25
X148.355Y-60.635
X148.355Y-63.175
X150.19Y-51.85
X150.19Y-54.39
X150.26Y-99.19
X150.26Y-114.43
X150.37Y-127.85
X150.37Y-153.25
X150.895Y-60.635
X150.895Y-63.175
X151.47Y-87.76
X151.47Y-90.3
X152.73Y-51.85
X152.73Y-54.39
X152.8Y-99.19
X152.8Y-114.43
X152.81Y-79.02
X152.81Y-81.56
X152.91Y-127.85
X152.91Y-153.25
X153.435Y-60.635
X153.435Y-63.175
X154.01Y-87.76
X154.01Y-90.3
X155.27Y-51.85
X155.27Y-54.39
X155.34Y-99.19
X155.34Y-114.43
X155.45Y-127.85
X155.45Y-153.25
X156.55Y-87.76
X156.55Y-90.3
X157.88Y-99.19
X157.88Y-114.43
X157.99Y-127.85
X157.99Y-153.25
X158.8Y-79.1
X158.8Y-81.64
X158.985Y-60.535
X159.09Y-87.76
X159.09Y-90.3
X160.42Y-99.19
X160.42Y-114.43
X160.53Y-127.85
X160.53Y-153.25
X161.525Y-60.535
X161.63Y-87.76
X161.63Y-90.3
X161.725Y-133.675
X161.725Y-136.215
X161.725Y-138.755
X162.36Y-67.8
X162.96Y-99.19
X162.96Y-114.43
X163.07Y-127.85
X163.07Y-153.25
X164.065Y-60.535
X164.17Y-87.76
X164.17Y-90.3
X164.23Y-103.0
X164.23Y-105.54
X164.23Y-108.08
X164.23Y-110.62
X164.9Y-67.8
X165.5Y-99.19
X165.5Y-114.43
X165.61Y-127.85
X165.61Y-153.25
X166.71Y-87.76
X166.71Y-90.3
X167.44Y-67.8
X168.04Y-99.19
X168.04Y-114.43
X168.15Y-127.85
X168.15Y-153.25
X181.7Y-119.18
X181.7Y-121.72
X181.7Y-124.26
X181.7Y-126.8
X181.7Y-129.34
T5
X95.06Y-131.22
X97.6Y-131.22
X100.14Y-131.22
T6
X111.95Y-136.551
X111.95Y-141.551
T7
X59.625Y-128.117
X59.625Y-138.117
T8
X44.5Y-116.9
X44.5Y-124.1
M30
