G04 #@! TF.GenerationSoftware,KiCad,Pcbnew,8.0.2*
G04 #@! TF.CreationDate,2024-08-30T20:49:53-03:00*
G04 #@! TF.ProjectId,ESC_driver,4553435f-6472-4697-9665-722e6b696361,rev?*
G04 #@! TF.SameCoordinates,Original*
G04 #@! TF.FileFunction,Copper,L2,Bot*
G04 #@! TF.FilePolarity,Positive*
%FSLAX46Y46*%
G04 Gerber Fmt 4.6, Leading zero omitted, Abs format (unit mm)*
G04 Created by KiCad (PCBNEW 8.0.2) date 2024-08-30 20:49:53*
%MOMM*%
%LPD*%
G01*
G04 APERTURE LIST*
G04 Aperture macros list*
%AMRoundRect*
0 Rectangle with rounded corners*
0 $1 Rounding radius*
0 $2 $3 $4 $5 $6 $7 $8 $9 X,Y pos of 4 corners*
0 Add a 4 corners polygon primitive as box body*
4,1,4,$2,$3,$4,$5,$6,$7,$8,$9,$2,$3,0*
0 Add four circle primitives for the rounded corners*
1,1,$1+$1,$2,$3*
1,1,$1+$1,$4,$5*
1,1,$1+$1,$6,$7*
1,1,$1+$1,$8,$9*
0 Add four rect primitives between the rounded corners*
20,1,$1+$1,$2,$3,$4,$5,0*
20,1,$1+$1,$4,$5,$6,$7,0*
20,1,$1+$1,$6,$7,$8,$9,0*
20,1,$1+$1,$8,$9,$2,$3,0*%
%AMFreePoly0*
4,1,19,0.550000,-0.750000,0.000000,-0.750000,0.000000,-0.744911,-0.071157,-0.744911,-0.207708,-0.704816,-0.327430,-0.627875,-0.420627,-0.520320,-0.479746,-0.390866,-0.500000,-0.250000,-0.500000,0.250000,-0.479746,0.390866,-0.420627,0.520320,-0.327430,0.627875,-0.207708,0.704816,-0.071157,0.744911,0.000000,0.744911,0.000000,0.750000,0.550000,0.750000,0.550000,-0.750000,0.550000,-0.750000,
$1*%
%AMFreePoly1*
4,1,19,0.000000,0.744911,0.071157,0.744911,0.207708,0.704816,0.327430,0.627875,0.420627,0.520320,0.479746,0.390866,0.500000,0.250000,0.500000,-0.250000,0.479746,-0.390866,0.420627,-0.520320,0.327430,-0.627875,0.207708,-0.704816,0.071157,-0.744911,0.000000,-0.744911,0.000000,-0.750000,-0.550000,-0.750000,-0.550000,0.750000,0.000000,0.750000,0.000000,0.744911,0.000000,0.744911,
$1*%
G04 Aperture macros list end*
G04 #@! TA.AperFunction,ComponentPad*
%ADD10R,1.700000X1.700000*%
G04 #@! TD*
G04 #@! TA.AperFunction,ComponentPad*
%ADD11O,1.700000X1.700000*%
G04 #@! TD*
G04 #@! TA.AperFunction,ComponentPad*
%ADD12C,0.399999*%
G04 #@! TD*
G04 #@! TA.AperFunction,SMDPad,CuDef*
%ADD13RoundRect,0.250000X1.425000X-0.362500X1.425000X0.362500X-1.425000X0.362500X-1.425000X-0.362500X0*%
G04 #@! TD*
G04 #@! TA.AperFunction,SMDPad,CuDef*
%ADD14RoundRect,0.237500X0.250000X0.237500X-0.250000X0.237500X-0.250000X-0.237500X0.250000X-0.237500X0*%
G04 #@! TD*
G04 #@! TA.AperFunction,SMDPad,CuDef*
%ADD15FreePoly0,270.000000*%
G04 #@! TD*
G04 #@! TA.AperFunction,SMDPad,CuDef*
%ADD16R,1.500000X1.000000*%
G04 #@! TD*
G04 #@! TA.AperFunction,SMDPad,CuDef*
%ADD17FreePoly1,270.000000*%
G04 #@! TD*
G04 #@! TA.AperFunction,ViaPad*
%ADD18C,0.800000*%
G04 #@! TD*
G04 #@! TA.AperFunction,Conductor*
%ADD19C,0.250000*%
G04 #@! TD*
G04 APERTURE END LIST*
D10*
X123000000Y-117625000D03*
D11*
X123000000Y-115085000D03*
X123000000Y-112545000D03*
D10*
X123100000Y-123175000D03*
D11*
X125640000Y-123175000D03*
X123100000Y-125715000D03*
X125640000Y-125715000D03*
X123100000Y-128255000D03*
X125640000Y-128255000D03*
X152765000Y-125140000D03*
X150225000Y-125140000D03*
X152765000Y-122600000D03*
X150225000Y-122600000D03*
X152765000Y-120060000D03*
X150225000Y-120060000D03*
X152765000Y-117520000D03*
X150225000Y-117520000D03*
X152765000Y-114980000D03*
X150225000Y-114980000D03*
X152765000Y-112440000D03*
X150225000Y-112440000D03*
X152765000Y-109900000D03*
D10*
X150225000Y-109900000D03*
D12*
X136849998Y-112774999D03*
X136849998Y-113774999D03*
X136849998Y-114775000D03*
X136849998Y-115775001D03*
X136849998Y-116775001D03*
X137849999Y-112774999D03*
X137849999Y-113774999D03*
X137849999Y-114775000D03*
X137849999Y-115775001D03*
X137849999Y-116775001D03*
X138850000Y-112774999D03*
X138850000Y-113774999D03*
X138850000Y-114775000D03*
X138850000Y-115775001D03*
X138850000Y-116775001D03*
D10*
X144025000Y-123800000D03*
D11*
X141485000Y-123800000D03*
D13*
X128300000Y-120062500D03*
X128300000Y-114137500D03*
D14*
X138812501Y-119000001D03*
X136987501Y-119000001D03*
X138812501Y-120800001D03*
X136987501Y-120800001D03*
D15*
X146800000Y-111800000D03*
D16*
X146800000Y-113100000D03*
D17*
X146800000Y-114400000D03*
D18*
X147800000Y-117225000D03*
X148200000Y-110875000D03*
X148400000Y-109125000D03*
X140775000Y-119975000D03*
X148425000Y-127625000D03*
X148350000Y-125575000D03*
X141700000Y-122324500D03*
X134874000Y-128524000D03*
X142400000Y-115500000D03*
X149000000Y-129500000D03*
X121825000Y-120025000D03*
X139100000Y-123750000D03*
X130200000Y-129000000D03*
X123675000Y-119975000D03*
X133096000Y-127000000D03*
X129100000Y-128800000D03*
X121825000Y-120950000D03*
X151650000Y-129500000D03*
X133858000Y-122350000D03*
X146325000Y-108800000D03*
X142350000Y-108800000D03*
X122750000Y-119975000D03*
X133900000Y-129032000D03*
X147325000Y-119250000D03*
X126850000Y-108750000D03*
X152975000Y-129500000D03*
X143675000Y-108800000D03*
X123700000Y-120975000D03*
X128150000Y-108750000D03*
X132500000Y-106950000D03*
X135890000Y-128270000D03*
X122800000Y-120975000D03*
X131550000Y-106850000D03*
X145000000Y-108800000D03*
X138950000Y-128350000D03*
X150325000Y-129500000D03*
X125700000Y-113300000D03*
X125700000Y-114200000D03*
X126900000Y-116800000D03*
X126100000Y-117200000D03*
X127800000Y-116574499D03*
X128300000Y-112900000D03*
X127400000Y-112900000D03*
X126500000Y-112900000D03*
X140100000Y-121600000D03*
X142489457Y-119096399D03*
X142598119Y-118102821D03*
X130800000Y-108550000D03*
X129975000Y-118250000D03*
X129775000Y-110350000D03*
X130875000Y-118250000D03*
X129775000Y-108550000D03*
X131775000Y-117350000D03*
X129775000Y-111250000D03*
X130875000Y-117350000D03*
X129775000Y-109450000D03*
X131775000Y-118250000D03*
X129975000Y-117350000D03*
D19*
X149345000Y-118375000D02*
X150200000Y-117520000D01*
X143837500Y-118375000D02*
X149345000Y-118375000D01*
X143116101Y-119096399D02*
X143837500Y-118375000D01*
X142489457Y-119096399D02*
X143116101Y-119096399D01*
X151090000Y-108250000D02*
X152740000Y-109900000D01*
X146800000Y-109675000D02*
X148225000Y-108250000D01*
X146800000Y-111800000D02*
X146800000Y-109675000D01*
X148225000Y-108250000D02*
X151090000Y-108250000D01*
X140324615Y-120800001D02*
X141700000Y-122175386D01*
X141700000Y-122175386D02*
X141700000Y-122324500D01*
X138812501Y-120800001D02*
X140324615Y-120800001D01*
X149778990Y-111200000D02*
X151500000Y-111200000D01*
X153200000Y-112900000D02*
X152740000Y-112440000D01*
X151500000Y-111200000D02*
X152740000Y-112440000D01*
X147878990Y-113100000D02*
X149778990Y-111200000D01*
X146800000Y-113100000D02*
X147878990Y-113100000D01*
X146800000Y-114400000D02*
X149118990Y-114400000D01*
X149713501Y-113805489D02*
X151565489Y-113805489D01*
X149118990Y-114400000D02*
X149713501Y-113805489D01*
X151565489Y-113805489D02*
X152740000Y-114980000D01*
X136987501Y-120800001D02*
X137787500Y-121600000D01*
X137012501Y-120800001D02*
X138812501Y-119000001D01*
X137787500Y-121600000D02*
X140100000Y-121600000D01*
X136987501Y-120800001D02*
X137012501Y-120800001D01*
X144355451Y-116345489D02*
X151565489Y-116345489D01*
X142598119Y-118102821D02*
X144355451Y-116345489D01*
X151565489Y-116345489D02*
X152740000Y-117520000D01*
G04 #@! TA.AperFunction,Conductor*
G36*
X128729667Y-112520002D02*
G01*
X128731901Y-112521472D01*
X129943302Y-113336838D01*
X129988646Y-113391468D01*
X129998932Y-113443335D01*
X129951343Y-116488999D01*
X129930279Y-116556798D01*
X129875903Y-116602447D01*
X129869417Y-116605076D01*
X126845258Y-117733811D01*
X126453591Y-117879998D01*
X126421311Y-117892046D01*
X126377252Y-117900000D01*
X125805157Y-117900000D01*
X125737036Y-117879998D01*
X125690543Y-117826342D01*
X125681189Y-117796540D01*
X125102032Y-114611176D01*
X125100000Y-114588636D01*
X125100000Y-112626000D01*
X125120002Y-112557879D01*
X125173658Y-112511386D01*
X125226000Y-112500000D01*
X128661546Y-112500000D01*
X128729667Y-112520002D01*
G37*
G04 #@! TD.AperFunction*
G04 #@! TA.AperFunction,Conductor*
G36*
X149364510Y-116690991D02*
G01*
X149411003Y-116744647D01*
X149421107Y-116814921D01*
X149393790Y-116876919D01*
X149360799Y-116917119D01*
X149347313Y-116933552D01*
X149249768Y-117116045D01*
X149189698Y-117314072D01*
X149169417Y-117519996D01*
X149169417Y-117520003D01*
X149189698Y-117725927D01*
X149189699Y-117725933D01*
X149189700Y-117725934D01*
X149222275Y-117833322D01*
X149238536Y-117886925D01*
X149239169Y-117957918D01*
X149201320Y-118017985D01*
X149137004Y-118048053D01*
X149117961Y-118049500D01*
X143880353Y-118049500D01*
X143794647Y-118049500D01*
X143711861Y-118071682D01*
X143711859Y-118071683D01*
X143711856Y-118071684D01*
X143637641Y-118114532D01*
X143637635Y-118114537D01*
X143398716Y-118353456D01*
X143336404Y-118387481D01*
X143265588Y-118382416D01*
X143208753Y-118339869D01*
X143183942Y-118273348D01*
X143184699Y-118247914D01*
X143193632Y-118180061D01*
X143203801Y-118102821D01*
X143195000Y-118035977D01*
X143205939Y-117965831D01*
X143230822Y-117930442D01*
X144453374Y-116707891D01*
X144515684Y-116673868D01*
X144542467Y-116670989D01*
X149296389Y-116670989D01*
X149364510Y-116690991D01*
G37*
G04 #@! TD.AperFunction*
G04 #@! TA.AperFunction,Conductor*
G36*
X150971104Y-108595502D02*
G01*
X150992078Y-108612405D01*
X151014078Y-108634405D01*
X151048104Y-108696717D01*
X151043039Y-108767532D01*
X151000492Y-108824368D01*
X150933972Y-108849179D01*
X150924983Y-108849500D01*
X149355249Y-108849500D01*
X149296771Y-108861132D01*
X149296768Y-108861133D01*
X149230448Y-108905448D01*
X149186133Y-108971768D01*
X149186132Y-108971771D01*
X149174500Y-109030249D01*
X149174500Y-110769750D01*
X149176078Y-110777685D01*
X149186133Y-110828231D01*
X149230448Y-110894552D01*
X149296769Y-110938867D01*
X149301634Y-110939834D01*
X149364545Y-110972738D01*
X149399679Y-111034431D01*
X149395883Y-111105326D01*
X149366153Y-111152509D01*
X147947782Y-112570880D01*
X147885470Y-112604906D01*
X147814655Y-112599841D01*
X147757819Y-112557294D01*
X147742282Y-112530012D01*
X147739686Y-112523746D01*
X147732091Y-112453156D01*
X147733250Y-112447481D01*
X147735149Y-112439163D01*
X147755500Y-112350000D01*
X147755500Y-111728111D01*
X147747176Y-111670215D01*
X147706669Y-111532260D01*
X147696365Y-111509698D01*
X147682373Y-111479059D01*
X147682370Y-111479054D01*
X147604639Y-111358101D01*
X147566334Y-111313895D01*
X147457673Y-111219741D01*
X147408468Y-111188119D01*
X147408463Y-111188116D01*
X147277687Y-111128392D01*
X147217243Y-111110644D01*
X147217776Y-111108827D01*
X147162348Y-111078516D01*
X147128363Y-111016183D01*
X147125500Y-110989477D01*
X147125500Y-109862017D01*
X147145502Y-109793896D01*
X147162405Y-109772922D01*
X148322922Y-108612405D01*
X148385234Y-108578379D01*
X148412017Y-108575500D01*
X150902983Y-108575500D01*
X150971104Y-108595502D01*
G37*
G04 #@! TD.AperFunction*
G04 #@! TA.AperFunction,Conductor*
G36*
X154159098Y-106116270D02*
G01*
X154306921Y-106145674D01*
X154330557Y-106152844D01*
X154506712Y-106225810D01*
X154528496Y-106237454D01*
X154687033Y-106343385D01*
X154706126Y-106359055D01*
X154840944Y-106493873D01*
X154856614Y-106512966D01*
X154962545Y-106671503D01*
X154974189Y-106693287D01*
X155047155Y-106869442D01*
X155054325Y-106893078D01*
X155091827Y-107081612D01*
X155094210Y-107103107D01*
X155096548Y-107198512D01*
X155096586Y-107201463D01*
X155100000Y-110368922D01*
X155100000Y-130214040D01*
X155097579Y-130238621D01*
X155079091Y-130331567D01*
X155071921Y-130355204D01*
X154998941Y-130531392D01*
X154987297Y-130553176D01*
X154881347Y-130711742D01*
X154865677Y-130730835D01*
X154730835Y-130865677D01*
X154711742Y-130881347D01*
X154553176Y-130987297D01*
X154531392Y-130998941D01*
X154355204Y-131071921D01*
X154331566Y-131079091D01*
X154236854Y-131097929D01*
X154212324Y-131100350D01*
X121053735Y-131113471D01*
X121029104Y-131111050D01*
X120868432Y-131079091D01*
X120844795Y-131071921D01*
X120668607Y-130998941D01*
X120646823Y-130987297D01*
X120488257Y-130881347D01*
X120469164Y-130865677D01*
X120334322Y-130730835D01*
X120318652Y-130711742D01*
X120212702Y-130553176D01*
X120201058Y-130531392D01*
X120128076Y-130355199D01*
X120120909Y-130331570D01*
X120102421Y-130238620D01*
X120100000Y-130214040D01*
X120100000Y-128254996D01*
X124584417Y-128254996D01*
X124584417Y-128255003D01*
X124604698Y-128460927D01*
X124664768Y-128658954D01*
X124740890Y-128801368D01*
X124762315Y-128841450D01*
X124893590Y-129001410D01*
X125053550Y-129132685D01*
X125236046Y-129230232D01*
X125434066Y-129290300D01*
X125434070Y-129290300D01*
X125434072Y-129290301D01*
X125639997Y-129310583D01*
X125640000Y-129310583D01*
X125640003Y-129310583D01*
X125845927Y-129290301D01*
X125845928Y-129290300D01*
X125845934Y-129290300D01*
X126043954Y-129230232D01*
X126226450Y-129132685D01*
X126386410Y-129001410D01*
X126517685Y-128841450D01*
X126615232Y-128658954D01*
X126675300Y-128460934D01*
X126688008Y-128331908D01*
X141149500Y-128331908D01*
X141149500Y-128568092D01*
X141186447Y-128801368D01*
X141259432Y-129025992D01*
X141366657Y-129236433D01*
X141366659Y-129236436D01*
X141505484Y-129427512D01*
X141672487Y-129594515D01*
X141672490Y-129594517D01*
X141863567Y-129733343D01*
X142074008Y-129840568D01*
X142298632Y-129913553D01*
X142531908Y-129950500D01*
X142531911Y-129950500D01*
X142768089Y-129950500D01*
X142768092Y-129950500D01*
X143001368Y-129913553D01*
X143225992Y-129840568D01*
X143436433Y-129733343D01*
X143627510Y-129594517D01*
X143794517Y-129427510D01*
X143933343Y-129236433D01*
X144040568Y-129025992D01*
X144113553Y-128801368D01*
X144150500Y-128568092D01*
X144150500Y-128331908D01*
X144113553Y-128098632D01*
X144040568Y-127874008D01*
X143933343Y-127663567D01*
X143794517Y-127472490D01*
X143794515Y-127472487D01*
X143627512Y-127305484D01*
X143436436Y-127166659D01*
X143436435Y-127166658D01*
X143436433Y-127166657D01*
X143225992Y-127059432D01*
X143001368Y-126986447D01*
X142768092Y-126949500D01*
X142531908Y-126949500D01*
X142298632Y-126986447D01*
X142298629Y-126986447D01*
X142298628Y-126986448D01*
X142074008Y-127059432D01*
X142074006Y-127059433D01*
X141863563Y-127166659D01*
X141672487Y-127305484D01*
X141505484Y-127472487D01*
X141366659Y-127663563D01*
X141366657Y-127663567D01*
X141259432Y-127874008D01*
X141186447Y-128098632D01*
X141149500Y-128331908D01*
X126688008Y-128331908D01*
X126695583Y-128255000D01*
X126680182Y-128098632D01*
X126675301Y-128049072D01*
X126675300Y-128049070D01*
X126675300Y-128049066D01*
X126615232Y-127851046D01*
X126517685Y-127668550D01*
X126386410Y-127508590D01*
X126226450Y-127377315D01*
X126226448Y-127377314D01*
X126226447Y-127377313D01*
X126043954Y-127279768D01*
X125845927Y-127219698D01*
X125640003Y-127199417D01*
X125639997Y-127199417D01*
X125434072Y-127219698D01*
X125236045Y-127279768D01*
X125053552Y-127377313D01*
X124893590Y-127508590D01*
X124762313Y-127668552D01*
X124664768Y-127851045D01*
X124604698Y-128049072D01*
X124584417Y-128254996D01*
X120100000Y-128254996D01*
X120100000Y-125714996D01*
X124584417Y-125714996D01*
X124584417Y-125715003D01*
X124604698Y-125920927D01*
X124604699Y-125920933D01*
X124604700Y-125920934D01*
X124664768Y-126118954D01*
X124762315Y-126301450D01*
X124893590Y-126461410D01*
X125053550Y-126592685D01*
X125236046Y-126690232D01*
X125434066Y-126750300D01*
X125434070Y-126750300D01*
X125434072Y-126750301D01*
X125639997Y-126770583D01*
X125640000Y-126770583D01*
X125640003Y-126770583D01*
X125845927Y-126750301D01*
X125845928Y-126750300D01*
X125845934Y-126750300D01*
X126043954Y-126690232D01*
X126226450Y-126592685D01*
X126386410Y-126461410D01*
X126517685Y-126301450D01*
X126615232Y-126118954D01*
X126675300Y-125920934D01*
X126678701Y-125886410D01*
X126695583Y-125715003D01*
X126695583Y-125714996D01*
X126675301Y-125509072D01*
X126675300Y-125509070D01*
X126675300Y-125509066D01*
X126615232Y-125311046D01*
X126523803Y-125139996D01*
X149169417Y-125139996D01*
X149169417Y-125140003D01*
X149189698Y-125345927D01*
X149249768Y-125543954D01*
X149341194Y-125715000D01*
X149347315Y-125726450D01*
X149478590Y-125886410D01*
X149638550Y-126017685D01*
X149821046Y-126115232D01*
X150019066Y-126175300D01*
X150019070Y-126175300D01*
X150019072Y-126175301D01*
X150224997Y-126195583D01*
X150225000Y-126195583D01*
X150225003Y-126195583D01*
X150430927Y-126175301D01*
X150430928Y-126175300D01*
X150430934Y-126175300D01*
X150628954Y-126115232D01*
X150811450Y-126017685D01*
X150971410Y-125886410D01*
X151102685Y-125726450D01*
X151200232Y-125543954D01*
X151260300Y-125345934D01*
X151263737Y-125311046D01*
X151280583Y-125140003D01*
X151280583Y-125139996D01*
X151709417Y-125139996D01*
X151709417Y-125140003D01*
X151729698Y-125345927D01*
X151789768Y-125543954D01*
X151881194Y-125715000D01*
X151887315Y-125726450D01*
X152018590Y-125886410D01*
X152178550Y-126017685D01*
X152361046Y-126115232D01*
X152559066Y-126175300D01*
X152559070Y-126175300D01*
X152559072Y-126175301D01*
X152764997Y-126195583D01*
X152765000Y-126195583D01*
X152765003Y-126195583D01*
X152970927Y-126175301D01*
X152970928Y-126175300D01*
X152970934Y-126175300D01*
X153168954Y-126115232D01*
X153351450Y-126017685D01*
X153511410Y-125886410D01*
X153642685Y-125726450D01*
X153740232Y-125543954D01*
X153800300Y-125345934D01*
X153803737Y-125311046D01*
X153820583Y-125140003D01*
X153820583Y-125139996D01*
X153800301Y-124934072D01*
X153800300Y-124934070D01*
X153800300Y-124934066D01*
X153740232Y-124736046D01*
X153642685Y-124553550D01*
X153511410Y-124393590D01*
X153351450Y-124262315D01*
X153351448Y-124262314D01*
X153351447Y-124262313D01*
X153168954Y-124164768D01*
X152970927Y-124104698D01*
X152765003Y-124084417D01*
X152764997Y-124084417D01*
X152559072Y-124104698D01*
X152361045Y-124164768D01*
X152178552Y-124262313D01*
X152018590Y-124393590D01*
X151887313Y-124553552D01*
X151789768Y-124736045D01*
X151729698Y-124934072D01*
X151709417Y-125139996D01*
X151280583Y-125139996D01*
X151260301Y-124934072D01*
X151260300Y-124934070D01*
X151260300Y-124934066D01*
X151200232Y-124736046D01*
X151102685Y-124553550D01*
X150971410Y-124393590D01*
X150811450Y-124262315D01*
X150811448Y-124262314D01*
X150811447Y-124262313D01*
X150628954Y-124164768D01*
X150430927Y-124104698D01*
X150225003Y-124084417D01*
X150224997Y-124084417D01*
X150019072Y-124104698D01*
X149821045Y-124164768D01*
X149638552Y-124262313D01*
X149478590Y-124393590D01*
X149347313Y-124553552D01*
X149249768Y-124736045D01*
X149189698Y-124934072D01*
X149169417Y-125139996D01*
X126523803Y-125139996D01*
X126517685Y-125128550D01*
X126386410Y-124968590D01*
X126226450Y-124837315D01*
X126226448Y-124837314D01*
X126226447Y-124837313D01*
X126043954Y-124739768D01*
X125845927Y-124679698D01*
X125640003Y-124659417D01*
X125639997Y-124659417D01*
X125434072Y-124679698D01*
X125236045Y-124739768D01*
X125053552Y-124837313D01*
X124893590Y-124968590D01*
X124762313Y-125128552D01*
X124664768Y-125311045D01*
X124604698Y-125509072D01*
X124584417Y-125714996D01*
X120100000Y-125714996D01*
X120100000Y-123174996D01*
X124584417Y-123174996D01*
X124584417Y-123175003D01*
X124604698Y-123380927D01*
X124664768Y-123578954D01*
X124747735Y-123734174D01*
X124762315Y-123761450D01*
X124893590Y-123921410D01*
X125053550Y-124052685D01*
X125236046Y-124150232D01*
X125434066Y-124210300D01*
X125434070Y-124210300D01*
X125434072Y-124210301D01*
X125639997Y-124230583D01*
X125640000Y-124230583D01*
X125640003Y-124230583D01*
X125845927Y-124210301D01*
X125845928Y-124210300D01*
X125845934Y-124210300D01*
X126043954Y-124150232D01*
X126226450Y-124052685D01*
X126386410Y-123921410D01*
X126517685Y-123761450D01*
X126615232Y-123578954D01*
X126675300Y-123380934D01*
X126677733Y-123356238D01*
X126695583Y-123175003D01*
X126695583Y-123174996D01*
X126675301Y-122969072D01*
X126675300Y-122969070D01*
X126675300Y-122969066D01*
X126615232Y-122771046D01*
X126517685Y-122588550D01*
X126386410Y-122428590D01*
X126226450Y-122297315D01*
X126226448Y-122297314D01*
X126226447Y-122297313D01*
X126043954Y-122199768D01*
X125938364Y-122167738D01*
X125845934Y-122139700D01*
X125845933Y-122139699D01*
X125845927Y-122139698D01*
X125640003Y-122119417D01*
X125639997Y-122119417D01*
X125434072Y-122139698D01*
X125236045Y-122199768D01*
X125053552Y-122297313D01*
X124893590Y-122428590D01*
X124762313Y-122588552D01*
X124664768Y-122771045D01*
X124604698Y-122969072D01*
X124584417Y-123174996D01*
X120100000Y-123174996D01*
X120100000Y-119250001D01*
X136000002Y-119250001D01*
X136000002Y-119286647D01*
X136010319Y-119387648D01*
X136064548Y-119551303D01*
X136155056Y-119698039D01*
X136155061Y-119698045D01*
X136276956Y-119819940D01*
X136276962Y-119819945D01*
X136423698Y-119910453D01*
X136511753Y-119939631D01*
X136570125Y-119980044D01*
X136597381Y-120045601D01*
X136584868Y-120115486D01*
X136536559Y-120167512D01*
X136531007Y-120170629D01*
X136530532Y-120170879D01*
X136424290Y-120249290D01*
X136345884Y-120355526D01*
X136302277Y-120480146D01*
X136302276Y-120480151D01*
X136299501Y-120509742D01*
X136299501Y-121090259D01*
X136302276Y-121119850D01*
X136302277Y-121119855D01*
X136345884Y-121244475D01*
X136366424Y-121272306D01*
X136424290Y-121350712D01*
X136530526Y-121429117D01*
X136530525Y-121429117D01*
X136655146Y-121472724D01*
X136655152Y-121472726D01*
X136684745Y-121475501D01*
X137150484Y-121475501D01*
X137218605Y-121495503D01*
X137239579Y-121512406D01*
X137527034Y-121799861D01*
X137527035Y-121799862D01*
X137587638Y-121860465D01*
X137587639Y-121860466D01*
X137587641Y-121860467D01*
X137661857Y-121903316D01*
X137661859Y-121903316D01*
X137661862Y-121903318D01*
X137744647Y-121925500D01*
X139530714Y-121925500D01*
X139598835Y-121945502D01*
X139630676Y-121974796D01*
X139671715Y-122028279D01*
X139671716Y-122028280D01*
X139671718Y-122028282D01*
X139797159Y-122124536D01*
X139943238Y-122185044D01*
X140100000Y-122205682D01*
X140256762Y-122185044D01*
X140402841Y-122124536D01*
X140528282Y-122028282D01*
X140624536Y-121902841D01*
X140652716Y-121834806D01*
X140697263Y-121779528D01*
X140764626Y-121757107D01*
X140833418Y-121774665D01*
X140858219Y-121793932D01*
X141089712Y-122025425D01*
X141123738Y-122087737D01*
X141118673Y-122158552D01*
X141117029Y-122162731D01*
X141114957Y-122167733D01*
X141114956Y-122167738D01*
X141094318Y-122324499D01*
X141094318Y-122324501D01*
X141103175Y-122391781D01*
X141092235Y-122461929D01*
X141045107Y-122515028D01*
X141026445Y-122524138D01*
X141026495Y-122524244D01*
X140807421Y-122626400D01*
X140613925Y-122761887D01*
X140613919Y-122761892D01*
X140446892Y-122928919D01*
X140446887Y-122928925D01*
X140311400Y-123122421D01*
X140211570Y-123336506D01*
X140211568Y-123336511D01*
X140154363Y-123550000D01*
X141051988Y-123550000D01*
X141019075Y-123607007D01*
X140985000Y-123734174D01*
X140985000Y-123865826D01*
X141019075Y-123992993D01*
X141051988Y-124050000D01*
X140154364Y-124050000D01*
X140211568Y-124263488D01*
X140211570Y-124263493D01*
X140311399Y-124477577D01*
X140311400Y-124477579D01*
X140446886Y-124671073D01*
X140446893Y-124671082D01*
X140613917Y-124838106D01*
X140613926Y-124838113D01*
X140807420Y-124973599D01*
X140807422Y-124973600D01*
X141021506Y-125073429D01*
X141021510Y-125073431D01*
X141235000Y-125130635D01*
X141235000Y-124233012D01*
X141292007Y-124265925D01*
X141419174Y-124300000D01*
X141550826Y-124300000D01*
X141677993Y-124265925D01*
X141735000Y-124233012D01*
X141735000Y-125130634D01*
X141948489Y-125073431D01*
X141948493Y-125073429D01*
X142162577Y-124973600D01*
X142162579Y-124973599D01*
X142356073Y-124838113D01*
X142356082Y-124838106D01*
X142523106Y-124671082D01*
X142523113Y-124671073D01*
X142658599Y-124477579D01*
X142658600Y-124477577D01*
X142734305Y-124315229D01*
X142781222Y-124261944D01*
X142849500Y-124242483D01*
X142917459Y-124263025D01*
X142963525Y-124317048D01*
X142974500Y-124368479D01*
X142974500Y-124669750D01*
X142976479Y-124679700D01*
X142986133Y-124728231D01*
X143030448Y-124794552D01*
X143096769Y-124838867D01*
X143155252Y-124850500D01*
X143155253Y-124850500D01*
X144894747Y-124850500D01*
X144894748Y-124850500D01*
X144953231Y-124838867D01*
X145019552Y-124794552D01*
X145063867Y-124728231D01*
X145075500Y-124669748D01*
X145075500Y-122930252D01*
X145063867Y-122871769D01*
X145019552Y-122805448D01*
X144953231Y-122761133D01*
X144953228Y-122761132D01*
X144894750Y-122749500D01*
X144894748Y-122749500D01*
X143155252Y-122749500D01*
X143155249Y-122749500D01*
X143096771Y-122761132D01*
X143096768Y-122761133D01*
X143030448Y-122805448D01*
X142986133Y-122871768D01*
X142986132Y-122871771D01*
X142974500Y-122930249D01*
X142974500Y-123231520D01*
X142954498Y-123299641D01*
X142900842Y-123346134D01*
X142830568Y-123356238D01*
X142765988Y-123326744D01*
X142734305Y-123284770D01*
X142658599Y-123122421D01*
X142523112Y-122928925D01*
X142356077Y-122761889D01*
X142293745Y-122718243D01*
X142249416Y-122662785D01*
X142242918Y-122599996D01*
X149169417Y-122599996D01*
X149169417Y-122600003D01*
X149189698Y-122805927D01*
X149189699Y-122805933D01*
X149189700Y-122805934D01*
X149227390Y-122930182D01*
X149249768Y-123003954D01*
X149341194Y-123175000D01*
X149347315Y-123186450D01*
X149478590Y-123346410D01*
X149638550Y-123477685D01*
X149821046Y-123575232D01*
X150019066Y-123635300D01*
X150019070Y-123635300D01*
X150019072Y-123635301D01*
X150224997Y-123655583D01*
X150225000Y-123655583D01*
X150225003Y-123655583D01*
X150430927Y-123635301D01*
X150430928Y-123635300D01*
X150430934Y-123635300D01*
X150628954Y-123575232D01*
X150811450Y-123477685D01*
X150971410Y-123346410D01*
X151102685Y-123186450D01*
X151200232Y-123003954D01*
X151260300Y-122805934D01*
X151263737Y-122771046D01*
X151280583Y-122600003D01*
X151280583Y-122599996D01*
X151709417Y-122599996D01*
X151709417Y-122600003D01*
X151729698Y-122805927D01*
X151729699Y-122805933D01*
X151729700Y-122805934D01*
X151767390Y-122930182D01*
X151789768Y-123003954D01*
X151881194Y-123175000D01*
X151887315Y-123186450D01*
X152018590Y-123346410D01*
X152178550Y-123477685D01*
X152361046Y-123575232D01*
X152559066Y-123635300D01*
X152559070Y-123635300D01*
X152559072Y-123635301D01*
X152764997Y-123655583D01*
X152765000Y-123655583D01*
X152765003Y-123655583D01*
X152970927Y-123635301D01*
X152970928Y-123635300D01*
X152970934Y-123635300D01*
X153168954Y-123575232D01*
X153351450Y-123477685D01*
X153511410Y-123346410D01*
X153642685Y-123186450D01*
X153740232Y-123003954D01*
X153800300Y-122805934D01*
X153803737Y-122771046D01*
X153820583Y-122600003D01*
X153820583Y-122599996D01*
X153800301Y-122394072D01*
X153800300Y-122394070D01*
X153800300Y-122394066D01*
X153740232Y-122196046D01*
X153642685Y-122013550D01*
X153511410Y-121853590D01*
X153351450Y-121722315D01*
X153351448Y-121722314D01*
X153351447Y-121722313D01*
X153168954Y-121624768D01*
X152970927Y-121564698D01*
X152765003Y-121544417D01*
X152764997Y-121544417D01*
X152559072Y-121564698D01*
X152361045Y-121624768D01*
X152178552Y-121722313D01*
X152018590Y-121853590D01*
X151887313Y-122013552D01*
X151789768Y-122196045D01*
X151729698Y-122394072D01*
X151709417Y-122599996D01*
X151280583Y-122599996D01*
X151260301Y-122394072D01*
X151260300Y-122394070D01*
X151260300Y-122394066D01*
X151200232Y-122196046D01*
X151102685Y-122013550D01*
X150971410Y-121853590D01*
X150811450Y-121722315D01*
X150811448Y-121722314D01*
X150811447Y-121722313D01*
X150628954Y-121624768D01*
X150430927Y-121564698D01*
X150225003Y-121544417D01*
X150224997Y-121544417D01*
X150019072Y-121564698D01*
X149821045Y-121624768D01*
X149638552Y-121722313D01*
X149478590Y-121853590D01*
X149347313Y-122013552D01*
X149249768Y-122196045D01*
X149189698Y-122394072D01*
X149169417Y-122599996D01*
X142242918Y-122599996D01*
X142242108Y-122592166D01*
X142249603Y-122566822D01*
X142285044Y-122481262D01*
X142305682Y-122324500D01*
X142285044Y-122167738D01*
X142224536Y-122021659D01*
X142128282Y-121896218D01*
X142002841Y-121799964D01*
X142002593Y-121799861D01*
X141856760Y-121739455D01*
X141856761Y-121739455D01*
X141746730Y-121724969D01*
X141681804Y-121696246D01*
X141674083Y-121689142D01*
X140524483Y-120539541D01*
X140524473Y-120539533D01*
X140450258Y-120496685D01*
X140450256Y-120496684D01*
X140450254Y-120496683D01*
X140367468Y-120474501D01*
X140367466Y-120474501D01*
X139585150Y-120474501D01*
X139517029Y-120454499D01*
X139470536Y-120400843D01*
X139466224Y-120390127D01*
X139454117Y-120355526D01*
X139375712Y-120249290D01*
X139269476Y-120170885D01*
X139269475Y-120170884D01*
X139269476Y-120170884D01*
X139144855Y-120127277D01*
X139144850Y-120127276D01*
X139115259Y-120124501D01*
X139115257Y-120124501D01*
X138509745Y-120124501D01*
X138509742Y-120124501D01*
X138480151Y-120127276D01*
X138472657Y-120128913D01*
X138471978Y-120125807D01*
X138415507Y-120128643D01*
X138353931Y-120093302D01*
X138336653Y-120059996D01*
X149169417Y-120059996D01*
X149169417Y-120060003D01*
X149189698Y-120265927D01*
X149189699Y-120265933D01*
X149189700Y-120265934D01*
X149220360Y-120367007D01*
X149249768Y-120463954D01*
X149321058Y-120597328D01*
X149347315Y-120646450D01*
X149478590Y-120806410D01*
X149638550Y-120937685D01*
X149821046Y-121035232D01*
X150019066Y-121095300D01*
X150019070Y-121095300D01*
X150019072Y-121095301D01*
X150224997Y-121115583D01*
X150225000Y-121115583D01*
X150225003Y-121115583D01*
X150430927Y-121095301D01*
X150430928Y-121095300D01*
X150430934Y-121095300D01*
X150628954Y-121035232D01*
X150811450Y-120937685D01*
X150971410Y-120806410D01*
X151102685Y-120646450D01*
X151200232Y-120463954D01*
X151260300Y-120265934D01*
X151260885Y-120260000D01*
X151280583Y-120060003D01*
X151280583Y-120059996D01*
X151260885Y-119860000D01*
X151729617Y-119860000D01*
X152303120Y-119860000D01*
X152299075Y-119867007D01*
X152265000Y-119994174D01*
X152265000Y-120125826D01*
X152299075Y-120252993D01*
X152303120Y-120260000D01*
X151729617Y-120260000D01*
X151730191Y-120265833D01*
X151790232Y-120463763D01*
X151887732Y-120646172D01*
X152018945Y-120806054D01*
X152178827Y-120937267D01*
X152361236Y-121034767D01*
X152559167Y-121094808D01*
X152564999Y-121095382D01*
X152565000Y-121095381D01*
X152565000Y-120521879D01*
X152572007Y-120525925D01*
X152699174Y-120560000D01*
X152830826Y-120560000D01*
X152957993Y-120525925D01*
X152965000Y-120521879D01*
X152965000Y-121095382D01*
X152970832Y-121094808D01*
X153168763Y-121034767D01*
X153351172Y-120937267D01*
X153511054Y-120806054D01*
X153642267Y-120646172D01*
X153739767Y-120463763D01*
X153799808Y-120265833D01*
X153800383Y-120260000D01*
X153226880Y-120260000D01*
X153230925Y-120252993D01*
X153265000Y-120125826D01*
X153265000Y-119994174D01*
X153230925Y-119867007D01*
X153226880Y-119860000D01*
X153800382Y-119860000D01*
X153799808Y-119854166D01*
X153739767Y-119656236D01*
X153642267Y-119473827D01*
X153511054Y-119313945D01*
X153351172Y-119182732D01*
X153168763Y-119085232D01*
X152970833Y-119025191D01*
X152965000Y-119024617D01*
X152965000Y-119598120D01*
X152957993Y-119594075D01*
X152830826Y-119560000D01*
X152699174Y-119560000D01*
X152572007Y-119594075D01*
X152565000Y-119598120D01*
X152565000Y-119024617D01*
X152559166Y-119025191D01*
X152361236Y-119085232D01*
X152178827Y-119182732D01*
X152018945Y-119313945D01*
X151887732Y-119473827D01*
X151790232Y-119656236D01*
X151730191Y-119854166D01*
X151729617Y-119860000D01*
X151260885Y-119860000D01*
X151260301Y-119854072D01*
X151260300Y-119854070D01*
X151260300Y-119854066D01*
X151200232Y-119656046D01*
X151102685Y-119473550D01*
X150971410Y-119313590D01*
X150811450Y-119182315D01*
X150811448Y-119182314D01*
X150811447Y-119182313D01*
X150628954Y-119084768D01*
X150434606Y-119025814D01*
X150430934Y-119024700D01*
X150430933Y-119024699D01*
X150430927Y-119024698D01*
X150225003Y-119004417D01*
X150224997Y-119004417D01*
X150019072Y-119024698D01*
X149821045Y-119084768D01*
X149638552Y-119182313D01*
X149478590Y-119313590D01*
X149347313Y-119473552D01*
X149249768Y-119656045D01*
X149189698Y-119854072D01*
X149169417Y-120059996D01*
X138336653Y-120059996D01*
X138321237Y-120030281D01*
X138327805Y-119959589D01*
X138355800Y-119917028D01*
X138560425Y-119712403D01*
X138622735Y-119678380D01*
X138649518Y-119675501D01*
X139115254Y-119675501D01*
X139115257Y-119675501D01*
X139144850Y-119672726D01*
X139269476Y-119629117D01*
X139375712Y-119550712D01*
X139454117Y-119444476D01*
X139497726Y-119319850D01*
X139500501Y-119290257D01*
X139500501Y-119096398D01*
X141883775Y-119096398D01*
X141883775Y-119096399D01*
X141904412Y-119253159D01*
X141932039Y-119319855D01*
X141964921Y-119399240D01*
X142061175Y-119524681D01*
X142186616Y-119620935D01*
X142332695Y-119681443D01*
X142489457Y-119702081D01*
X142646219Y-119681443D01*
X142792298Y-119620935D01*
X142917739Y-119524681D01*
X142927575Y-119511861D01*
X142958781Y-119471195D01*
X143016119Y-119429328D01*
X143058743Y-119421899D01*
X143158952Y-119421899D01*
X143158954Y-119421899D01*
X143241740Y-119399717D01*
X143315963Y-119356864D01*
X143935423Y-118737403D01*
X143997734Y-118703380D01*
X144024517Y-118700500D01*
X149387851Y-118700500D01*
X149387853Y-118700500D01*
X149470639Y-118678318D01*
X149544862Y-118635465D01*
X149666373Y-118513952D01*
X149728683Y-118479929D01*
X149799499Y-118484993D01*
X149814863Y-118491927D01*
X149821046Y-118495232D01*
X150019066Y-118555300D01*
X150019070Y-118555300D01*
X150019072Y-118555301D01*
X150224997Y-118575583D01*
X150225000Y-118575583D01*
X150225003Y-118575583D01*
X150430927Y-118555301D01*
X150430928Y-118555300D01*
X150430934Y-118555300D01*
X150628954Y-118495232D01*
X150811450Y-118397685D01*
X150971410Y-118266410D01*
X151102685Y-118106450D01*
X151200232Y-117923954D01*
X151260300Y-117725934D01*
X151274843Y-117578286D01*
X151280583Y-117520003D01*
X151280583Y-117519996D01*
X151260301Y-117314072D01*
X151260300Y-117314070D01*
X151260300Y-117314066D01*
X151200232Y-117116046D01*
X151102685Y-116933550D01*
X151056210Y-116876919D01*
X151028458Y-116811575D01*
X151040440Y-116741597D01*
X151088353Y-116689205D01*
X151153611Y-116670989D01*
X151378472Y-116670989D01*
X151446593Y-116690991D01*
X151467567Y-116707894D01*
X151756370Y-116996697D01*
X151790396Y-117059009D01*
X151787850Y-117122367D01*
X151729698Y-117314072D01*
X151709417Y-117519996D01*
X151709417Y-117520003D01*
X151729698Y-117725927D01*
X151789768Y-117923954D01*
X151886806Y-118105499D01*
X151887315Y-118106450D01*
X152018590Y-118266410D01*
X152178550Y-118397685D01*
X152361046Y-118495232D01*
X152559066Y-118555300D01*
X152559070Y-118555300D01*
X152559072Y-118555301D01*
X152764997Y-118575583D01*
X152765000Y-118575583D01*
X152765003Y-118575583D01*
X152970927Y-118555301D01*
X152970928Y-118555300D01*
X152970934Y-118555300D01*
X153168954Y-118495232D01*
X153351450Y-118397685D01*
X153511410Y-118266410D01*
X153642685Y-118106450D01*
X153740232Y-117923954D01*
X153800300Y-117725934D01*
X153814843Y-117578286D01*
X153820583Y-117520003D01*
X153820583Y-117519996D01*
X153800301Y-117314072D01*
X153800300Y-117314070D01*
X153800300Y-117314066D01*
X153740232Y-117116046D01*
X153642685Y-116933550D01*
X153511410Y-116773590D01*
X153351450Y-116642315D01*
X153351448Y-116642314D01*
X153351447Y-116642313D01*
X153168954Y-116544768D01*
X152970927Y-116484698D01*
X152765003Y-116464417D01*
X152764997Y-116464417D01*
X152559072Y-116484698D01*
X152361052Y-116544766D01*
X152361035Y-116544772D01*
X152354853Y-116548077D01*
X152285346Y-116562543D01*
X152219052Y-116537134D01*
X152206378Y-116526051D01*
X151765351Y-116085024D01*
X151765349Y-116085023D01*
X151765347Y-116085021D01*
X151691132Y-116042173D01*
X151691130Y-116042172D01*
X151691128Y-116042171D01*
X151608342Y-116019989D01*
X151608340Y-116019989D01*
X150965828Y-116019989D01*
X150897707Y-115999987D01*
X150851214Y-115946331D01*
X150841110Y-115876057D01*
X150870604Y-115811477D01*
X150885888Y-115796594D01*
X150971410Y-115726410D01*
X151102685Y-115566450D01*
X151200232Y-115383954D01*
X151260300Y-115185934D01*
X151270242Y-115085000D01*
X151280583Y-114980003D01*
X151280583Y-114979996D01*
X151260301Y-114774072D01*
X151260300Y-114774070D01*
X151260300Y-114774066D01*
X151200232Y-114576046D01*
X151102685Y-114393550D01*
X151056210Y-114336919D01*
X151028458Y-114271575D01*
X151040440Y-114201597D01*
X151088353Y-114149205D01*
X151153611Y-114130989D01*
X151378472Y-114130989D01*
X151446593Y-114150991D01*
X151467567Y-114167894D01*
X151756370Y-114456697D01*
X151790396Y-114519009D01*
X151787850Y-114582367D01*
X151729698Y-114774072D01*
X151709417Y-114979996D01*
X151709417Y-114980003D01*
X151729698Y-115185927D01*
X151729699Y-115185933D01*
X151729700Y-115185934D01*
X151789768Y-115383954D01*
X151887315Y-115566450D01*
X152018590Y-115726410D01*
X152178550Y-115857685D01*
X152361046Y-115955232D01*
X152559066Y-116015300D01*
X152559070Y-116015300D01*
X152559072Y-116015301D01*
X152764997Y-116035583D01*
X152765000Y-116035583D01*
X152765003Y-116035583D01*
X152970927Y-116015301D01*
X152970928Y-116015300D01*
X152970934Y-116015300D01*
X153168954Y-115955232D01*
X153351450Y-115857685D01*
X153511410Y-115726410D01*
X153642685Y-115566450D01*
X153740232Y-115383954D01*
X153800300Y-115185934D01*
X153810242Y-115085000D01*
X153820583Y-114980003D01*
X153820583Y-114979996D01*
X153800301Y-114774072D01*
X153800300Y-114774070D01*
X153800300Y-114774066D01*
X153740232Y-114576046D01*
X153642685Y-114393550D01*
X153511410Y-114233590D01*
X153351450Y-114102315D01*
X153351448Y-114102314D01*
X153351447Y-114102313D01*
X153168954Y-114004768D01*
X152970927Y-113944698D01*
X152765003Y-113924417D01*
X152764997Y-113924417D01*
X152559072Y-113944698D01*
X152361052Y-114004766D01*
X152361035Y-114004772D01*
X152354853Y-114008077D01*
X152285346Y-114022543D01*
X152219052Y-113997134D01*
X152206378Y-113986051D01*
X151765351Y-113545024D01*
X151765349Y-113545023D01*
X151765347Y-113545021D01*
X151691132Y-113502173D01*
X151691130Y-113502172D01*
X151691128Y-113502171D01*
X151608342Y-113479989D01*
X151608340Y-113479989D01*
X150965828Y-113479989D01*
X150897707Y-113459987D01*
X150851214Y-113406331D01*
X150841110Y-113336057D01*
X150870604Y-113271477D01*
X150885888Y-113256594D01*
X150971410Y-113186410D01*
X151102685Y-113026450D01*
X151200232Y-112843954D01*
X151260300Y-112645934D01*
X151262264Y-112626000D01*
X151280583Y-112440003D01*
X151280583Y-112439996D01*
X151260301Y-112234072D01*
X151260300Y-112234070D01*
X151260300Y-112234066D01*
X151200232Y-112036046D01*
X151102685Y-111853550D01*
X151002465Y-111731431D01*
X150974713Y-111666086D01*
X150986695Y-111596108D01*
X151034608Y-111543716D01*
X151099866Y-111525500D01*
X151312982Y-111525500D01*
X151381103Y-111545502D01*
X151402077Y-111562404D01*
X151756370Y-111916696D01*
X151790395Y-111979009D01*
X151787850Y-112042367D01*
X151729698Y-112234072D01*
X151709417Y-112439996D01*
X151709417Y-112440003D01*
X151729698Y-112645927D01*
X151729699Y-112645933D01*
X151729700Y-112645934D01*
X151740795Y-112682511D01*
X151789768Y-112843954D01*
X151877955Y-113008940D01*
X151887315Y-113026450D01*
X152018590Y-113186410D01*
X152178550Y-113317685D01*
X152361046Y-113415232D01*
X152559066Y-113475300D01*
X152559070Y-113475300D01*
X152559072Y-113475301D01*
X152764997Y-113495583D01*
X152765000Y-113495583D01*
X152765003Y-113495583D01*
X152970927Y-113475301D01*
X152970928Y-113475300D01*
X152970934Y-113475300D01*
X153168954Y-113415232D01*
X153351450Y-113317685D01*
X153511410Y-113186410D01*
X153642685Y-113026450D01*
X153740232Y-112843954D01*
X153800300Y-112645934D01*
X153802264Y-112626000D01*
X153820583Y-112440003D01*
X153820583Y-112439996D01*
X153800301Y-112234072D01*
X153800300Y-112234070D01*
X153800300Y-112234066D01*
X153740232Y-112036046D01*
X153642685Y-111853550D01*
X153511410Y-111693590D01*
X153351450Y-111562315D01*
X153351448Y-111562314D01*
X153351447Y-111562313D01*
X153168954Y-111464768D01*
X152970927Y-111404698D01*
X152765003Y-111384417D01*
X152764997Y-111384417D01*
X152559072Y-111404698D01*
X152361052Y-111464766D01*
X152361035Y-111464772D01*
X152354853Y-111468077D01*
X152285346Y-111482543D01*
X152219052Y-111457134D01*
X152206378Y-111446051D01*
X151699862Y-110939535D01*
X151699860Y-110939534D01*
X151699858Y-110939532D01*
X151625643Y-110896684D01*
X151625641Y-110896683D01*
X151625639Y-110896682D01*
X151542853Y-110874500D01*
X151542851Y-110874500D01*
X151401500Y-110874500D01*
X151333379Y-110854498D01*
X151286886Y-110800842D01*
X151275500Y-110748500D01*
X151275500Y-109200017D01*
X151295502Y-109131896D01*
X151349158Y-109085403D01*
X151419432Y-109075299D01*
X151484012Y-109104793D01*
X151490595Y-109110922D01*
X151756370Y-109376697D01*
X151790396Y-109439009D01*
X151787850Y-109502367D01*
X151729698Y-109694072D01*
X151709417Y-109899996D01*
X151709417Y-109900003D01*
X151729698Y-110105927D01*
X151729699Y-110105933D01*
X151729700Y-110105934D01*
X151785707Y-110290566D01*
X151789768Y-110303954D01*
X151821624Y-110363553D01*
X151887315Y-110486450D01*
X152018590Y-110646410D01*
X152178550Y-110777685D01*
X152361046Y-110875232D01*
X152559066Y-110935300D01*
X152559070Y-110935300D01*
X152559072Y-110935301D01*
X152764997Y-110955583D01*
X152765000Y-110955583D01*
X152765003Y-110955583D01*
X152970927Y-110935301D01*
X152970928Y-110935300D01*
X152970934Y-110935300D01*
X153168954Y-110875232D01*
X153351450Y-110777685D01*
X153511410Y-110646410D01*
X153642685Y-110486450D01*
X153740232Y-110303954D01*
X153800300Y-110105934D01*
X153806350Y-110044515D01*
X153820583Y-109900003D01*
X153820583Y-109899996D01*
X153800301Y-109694072D01*
X153800300Y-109694070D01*
X153800300Y-109694066D01*
X153740232Y-109496046D01*
X153642685Y-109313550D01*
X153511410Y-109153590D01*
X153351450Y-109022315D01*
X153351448Y-109022314D01*
X153351447Y-109022313D01*
X153168954Y-108924768D01*
X152970927Y-108864698D01*
X152765003Y-108844417D01*
X152764997Y-108844417D01*
X152559072Y-108864698D01*
X152361052Y-108924766D01*
X152361035Y-108924772D01*
X152354853Y-108928077D01*
X152285346Y-108942543D01*
X152219052Y-108917134D01*
X152206378Y-108906051D01*
X151289862Y-107989535D01*
X151289860Y-107989534D01*
X151289858Y-107989532D01*
X151215643Y-107946684D01*
X151215641Y-107946683D01*
X151215639Y-107946682D01*
X151132853Y-107924500D01*
X148182147Y-107924500D01*
X148131479Y-107938076D01*
X148099357Y-107946683D01*
X148025141Y-107989532D01*
X148025131Y-107989540D01*
X146539540Y-109475131D01*
X146539532Y-109475141D01*
X146496681Y-109549361D01*
X146496681Y-109549365D01*
X146474500Y-109632146D01*
X146474500Y-110989477D01*
X146454498Y-111057598D01*
X146400842Y-111104091D01*
X146382615Y-111110163D01*
X146382757Y-111110644D01*
X146322312Y-111128392D01*
X146191536Y-111188116D01*
X146191531Y-111188119D01*
X146142324Y-111219743D01*
X146033665Y-111313895D01*
X145995366Y-111358094D01*
X145995360Y-111358103D01*
X145917629Y-111479054D01*
X145917626Y-111479059D01*
X145893331Y-111532257D01*
X145852826Y-111670206D01*
X145852824Y-111670215D01*
X145844500Y-111728113D01*
X145844500Y-112350001D01*
X145849652Y-112395727D01*
X145849652Y-112395728D01*
X145859428Y-112416028D01*
X145870963Y-112486081D01*
X145862315Y-112518914D01*
X145861133Y-112521766D01*
X145849500Y-112580249D01*
X145849500Y-113619750D01*
X145863554Y-113690402D01*
X145861873Y-113690736D01*
X145867905Y-113746856D01*
X145866749Y-113752516D01*
X145844500Y-113849998D01*
X145844500Y-113850000D01*
X145844500Y-114471889D01*
X145851275Y-114519009D01*
X145852824Y-114529784D01*
X145852826Y-114529793D01*
X145893331Y-114667742D01*
X145917626Y-114720940D01*
X145917629Y-114720945D01*
X145995361Y-114841899D01*
X145995365Y-114841904D01*
X145995366Y-114841905D01*
X146027572Y-114879072D01*
X146033666Y-114886105D01*
X146142327Y-114980259D01*
X146191532Y-115011881D01*
X146191534Y-115011882D01*
X146191536Y-115011883D01*
X146322312Y-115071607D01*
X146322313Y-115071607D01*
X146322317Y-115071609D01*
X146378439Y-115088088D01*
X146520754Y-115108550D01*
X146579244Y-115108550D01*
X146579245Y-115108550D01*
X146591542Y-115106781D01*
X146609472Y-115105500D01*
X146990528Y-115105500D01*
X147008457Y-115106781D01*
X147020755Y-115108550D01*
X147020756Y-115108550D01*
X147079246Y-115108550D01*
X147221561Y-115088088D01*
X147277683Y-115071609D01*
X147408468Y-115011881D01*
X147457673Y-114980259D01*
X147566334Y-114886105D01*
X147604639Y-114841899D01*
X147632107Y-114799158D01*
X147642248Y-114783379D01*
X147695904Y-114736886D01*
X147748246Y-114725500D01*
X149055463Y-114725500D01*
X149123584Y-114745502D01*
X149170077Y-114799158D01*
X149180856Y-114863850D01*
X149169417Y-114979996D01*
X149169417Y-114980003D01*
X149189698Y-115185927D01*
X149189699Y-115185933D01*
X149189700Y-115185934D01*
X149249768Y-115383954D01*
X149347315Y-115566450D01*
X149478590Y-115726410D01*
X149564106Y-115796591D01*
X149604074Y-115855266D01*
X149605975Y-115926237D01*
X149569205Y-115986970D01*
X149505437Y-116018182D01*
X149484172Y-116019989D01*
X144406038Y-116019989D01*
X144406022Y-116019988D01*
X144398304Y-116019988D01*
X144312598Y-116019988D01*
X144312594Y-116019988D01*
X144229818Y-116042168D01*
X144229806Y-116042173D01*
X144198529Y-116060231D01*
X144198530Y-116060232D01*
X144155589Y-116085023D01*
X144155587Y-116085025D01*
X144125287Y-116115326D01*
X144094986Y-116145627D01*
X144094984Y-116145629D01*
X142770501Y-117470111D01*
X142708189Y-117504137D01*
X142664961Y-117505938D01*
X142598121Y-117497139D01*
X142598119Y-117497139D01*
X142441358Y-117517776D01*
X142295279Y-117578284D01*
X142295276Y-117578286D01*
X142169837Y-117674539D01*
X142073584Y-117799978D01*
X142073582Y-117799981D01*
X142013074Y-117946060D01*
X141992437Y-118102820D01*
X141992437Y-118102821D01*
X142013074Y-118259581D01*
X142073582Y-118405660D01*
X142073587Y-118405668D01*
X142119036Y-118464898D01*
X142144637Y-118531118D01*
X142130372Y-118600667D01*
X142095779Y-118641564D01*
X142061175Y-118668116D01*
X141964922Y-118793556D01*
X141964920Y-118793559D01*
X141904412Y-118939638D01*
X141883775Y-119096398D01*
X139500501Y-119096398D01*
X139500501Y-118709745D01*
X139497726Y-118680152D01*
X139482672Y-118637132D01*
X139454117Y-118555526D01*
X139452421Y-118553228D01*
X139375712Y-118449290D01*
X139269476Y-118370885D01*
X139269475Y-118370884D01*
X139269476Y-118370884D01*
X139144855Y-118327277D01*
X139144850Y-118327276D01*
X139115259Y-118324501D01*
X139115257Y-118324501D01*
X138509745Y-118324501D01*
X138509742Y-118324501D01*
X138480151Y-118327276D01*
X138480146Y-118327277D01*
X138355526Y-118370884D01*
X138249290Y-118449290D01*
X138170879Y-118555532D01*
X138170629Y-118556007D01*
X138170217Y-118556429D01*
X138165277Y-118563124D01*
X138164360Y-118562447D01*
X138121110Y-118606883D01*
X138051946Y-118622910D01*
X137985097Y-118599000D01*
X137941786Y-118542744D01*
X137939631Y-118536753D01*
X137910453Y-118448698D01*
X137819945Y-118301962D01*
X137819940Y-118301956D01*
X137698045Y-118180061D01*
X137698039Y-118180056D01*
X137551303Y-118089548D01*
X137387652Y-118035320D01*
X137387646Y-118035319D01*
X137286656Y-118025001D01*
X137237501Y-118025001D01*
X137237501Y-119124001D01*
X137217499Y-119192122D01*
X137163843Y-119238615D01*
X137111501Y-119250001D01*
X136000002Y-119250001D01*
X120100000Y-119250001D01*
X120100000Y-116755249D01*
X121949500Y-116755249D01*
X121949500Y-116755252D01*
X121949500Y-118494748D01*
X121961133Y-118553231D01*
X122005448Y-118619552D01*
X122071769Y-118663867D01*
X122130252Y-118675500D01*
X122130253Y-118675500D01*
X123869747Y-118675500D01*
X123869748Y-118675500D01*
X123928231Y-118663867D01*
X123994552Y-118619552D01*
X124038867Y-118553231D01*
X124050500Y-118494748D01*
X124050500Y-116755252D01*
X124038867Y-116696769D01*
X123994552Y-116630448D01*
X123928231Y-116586133D01*
X123928228Y-116586132D01*
X123869750Y-116574500D01*
X123869748Y-116574500D01*
X122130252Y-116574500D01*
X122130249Y-116574500D01*
X122071771Y-116586132D01*
X122071768Y-116586133D01*
X122005448Y-116630448D01*
X121961133Y-116696768D01*
X121961132Y-116696771D01*
X121949500Y-116755249D01*
X120100000Y-116755249D01*
X120100000Y-115084996D01*
X121944417Y-115084996D01*
X121944417Y-115085003D01*
X121964698Y-115290927D01*
X121964699Y-115290933D01*
X121964700Y-115290934D01*
X122024768Y-115488954D01*
X122122315Y-115671450D01*
X122253590Y-115831410D01*
X122413550Y-115962685D01*
X122596046Y-116060232D01*
X122794066Y-116120300D01*
X122794070Y-116120300D01*
X122794072Y-116120301D01*
X122999997Y-116140583D01*
X123000000Y-116140583D01*
X123000003Y-116140583D01*
X123205927Y-116120301D01*
X123205928Y-116120300D01*
X123205934Y-116120300D01*
X123403954Y-116060232D01*
X123586450Y-115962685D01*
X123746410Y-115831410D01*
X123877685Y-115671450D01*
X123975232Y-115488954D01*
X124035300Y-115290934D01*
X124045643Y-115185927D01*
X124055583Y-115085003D01*
X124055583Y-115084996D01*
X124035301Y-114879072D01*
X124035300Y-114879070D01*
X124035300Y-114879066D01*
X123975232Y-114681046D01*
X123877685Y-114498550D01*
X123746410Y-114338590D01*
X123586450Y-114207315D01*
X123586448Y-114207314D01*
X123586447Y-114207313D01*
X123403954Y-114109768D01*
X123379378Y-114102313D01*
X123205934Y-114049700D01*
X123205933Y-114049699D01*
X123205927Y-114049698D01*
X123000003Y-114029417D01*
X122999997Y-114029417D01*
X122794072Y-114049698D01*
X122596045Y-114109768D01*
X122413552Y-114207313D01*
X122253590Y-114338590D01*
X122122313Y-114498552D01*
X122024768Y-114681045D01*
X121964698Y-114879072D01*
X121944417Y-115084996D01*
X120100000Y-115084996D01*
X120100000Y-112544996D01*
X121944417Y-112544996D01*
X121944417Y-112545003D01*
X121964698Y-112750927D01*
X121964699Y-112750933D01*
X121964700Y-112750934D01*
X122024768Y-112948954D01*
X122122315Y-113131450D01*
X122253590Y-113291410D01*
X122413550Y-113422685D01*
X122596046Y-113520232D01*
X122794066Y-113580300D01*
X122794070Y-113580300D01*
X122794072Y-113580301D01*
X122999997Y-113600583D01*
X123000000Y-113600583D01*
X123000003Y-113600583D01*
X123205927Y-113580301D01*
X123205928Y-113580300D01*
X123205934Y-113580300D01*
X123403954Y-113520232D01*
X123586450Y-113422685D01*
X123746410Y-113291410D01*
X123877685Y-113131450D01*
X123975232Y-112948954D01*
X124035300Y-112750934D01*
X124045643Y-112645927D01*
X124047605Y-112626002D01*
X124894500Y-112626002D01*
X124894500Y-114588626D01*
X124895330Y-114607096D01*
X124897361Y-114629621D01*
X124897362Y-114629632D01*
X124899843Y-114647912D01*
X124899844Y-114647918D01*
X124899847Y-114647937D01*
X125459483Y-117725934D01*
X125479006Y-117833311D01*
X125479009Y-117833322D01*
X125485121Y-117858087D01*
X125494471Y-117887875D01*
X125494473Y-117887880D01*
X125533562Y-117957918D01*
X125535236Y-117960916D01*
X125581729Y-118014572D01*
X125599322Y-118032527D01*
X125604315Y-118035320D01*
X125679143Y-118077176D01*
X125737388Y-118094277D01*
X125747261Y-118097176D01*
X125805157Y-118105500D01*
X125805160Y-118105500D01*
X126377245Y-118105500D01*
X126377252Y-118105500D01*
X126413761Y-118102231D01*
X126457820Y-118094277D01*
X126493169Y-118084573D01*
X126525449Y-118072525D01*
X126525450Y-118072525D01*
X126917117Y-117926338D01*
X129049441Y-117130469D01*
X129120255Y-117125389D01*
X129182575Y-117159400D01*
X129216614Y-117221705D01*
X129219500Y-117248516D01*
X129219500Y-118694517D01*
X129221272Y-118709742D01*
X129224989Y-118741698D01*
X129238279Y-118798033D01*
X129241971Y-118811588D01*
X129241972Y-118811591D01*
X129259299Y-118841536D01*
X129287776Y-118890751D01*
X129333223Y-118939637D01*
X129336116Y-118942749D01*
X129354326Y-118960080D01*
X129431123Y-118999579D01*
X129435654Y-119001909D01*
X129435655Y-119001910D01*
X129459323Y-119007969D01*
X129504434Y-119019519D01*
X129504438Y-119019519D01*
X129504441Y-119019520D01*
X129510721Y-119020199D01*
X129562584Y-119025814D01*
X133001374Y-118905577D01*
X133005777Y-118905500D01*
X133772385Y-118905500D01*
X133772395Y-118905500D01*
X133817347Y-118900523D01*
X133871136Y-118888465D01*
X133882551Y-118885560D01*
X133962712Y-118841533D01*
X134015775Y-118794365D01*
X134033508Y-118776545D01*
X134067816Y-118713345D01*
X136000001Y-118713345D01*
X136000001Y-118750001D01*
X136737501Y-118750001D01*
X136737501Y-118025001D01*
X136737500Y-118025000D01*
X136688354Y-118025001D01*
X136587353Y-118035319D01*
X136423698Y-118089548D01*
X136276962Y-118180056D01*
X136276956Y-118180061D01*
X136155061Y-118301956D01*
X136155056Y-118301962D01*
X136064548Y-118448698D01*
X136010320Y-118612349D01*
X136010319Y-118612355D01*
X136000001Y-118713345D01*
X134067816Y-118713345D01*
X134077140Y-118696169D01*
X134096278Y-118627800D01*
X134103869Y-118569804D01*
X134102343Y-118449290D01*
X134006902Y-110909475D01*
X134004008Y-110877620D01*
X134004008Y-110877616D01*
X133997450Y-110839062D01*
X133963310Y-110755815D01*
X133922644Y-110697618D01*
X133907012Y-110677931D01*
X133907011Y-110677930D01*
X133907008Y-110677927D01*
X133832268Y-110625235D01*
X133832259Y-110625229D01*
X133766597Y-110598262D01*
X133766581Y-110598257D01*
X133709882Y-110583966D01*
X133709876Y-110583965D01*
X133709875Y-110583965D01*
X132432117Y-110450467D01*
X132366445Y-110423496D01*
X132325779Y-110365299D01*
X132319305Y-110329997D01*
X132235008Y-108138259D01*
X132229587Y-108098624D01*
X132218294Y-108051125D01*
X132216683Y-108044797D01*
X132173674Y-107964084D01*
X132173672Y-107964082D01*
X132173672Y-107964081D01*
X132127185Y-107910433D01*
X132127181Y-107910428D01*
X132109588Y-107892473D01*
X132109585Y-107892471D01*
X132029766Y-107847823D01*
X131961661Y-107827827D01*
X131961652Y-107827825D01*
X131961649Y-107827824D01*
X131903753Y-107819500D01*
X129301930Y-107819500D01*
X129301926Y-107819500D01*
X129257522Y-107824356D01*
X129257514Y-107824357D01*
X129204311Y-107836135D01*
X129193427Y-107838859D01*
X129193425Y-107838860D01*
X129113036Y-107882459D01*
X129113031Y-107882462D01*
X129059733Y-107929336D01*
X129059706Y-107929361D01*
X129041899Y-107947067D01*
X129041896Y-107947071D01*
X128997839Y-108027211D01*
X128997836Y-108027216D01*
X128978340Y-108095465D01*
X128978337Y-108095478D01*
X128975873Y-108113563D01*
X128970439Y-108153436D01*
X128982347Y-109772922D01*
X128989825Y-110789863D01*
X128994153Y-111378532D01*
X128994901Y-111394595D01*
X128996587Y-111414235D01*
X128996588Y-111414238D01*
X129014360Y-111479054D01*
X129016254Y-111485959D01*
X129016256Y-111485963D01*
X129047101Y-111549889D01*
X129047103Y-111549892D01*
X129047106Y-111549898D01*
X129079764Y-111598425D01*
X129079767Y-111598428D01*
X129079769Y-111598431D01*
X129985123Y-112599637D01*
X130015976Y-112663579D01*
X130017655Y-112682511D01*
X130020514Y-112902777D01*
X130001398Y-112971151D01*
X129948350Y-113018337D01*
X129878214Y-113029352D01*
X129824170Y-113008940D01*
X128846647Y-112350992D01*
X128845445Y-112350191D01*
X128844857Y-112349800D01*
X128842630Y-112348335D01*
X128842627Y-112348333D01*
X128787563Y-112322826D01*
X128745877Y-112310586D01*
X128719446Y-112302825D01*
X128719444Y-112302824D01*
X128719442Y-112302824D01*
X128661546Y-112294500D01*
X128661543Y-112294500D01*
X128309643Y-112294500D01*
X128306868Y-112294318D01*
X128293132Y-112294318D01*
X128290357Y-112294500D01*
X127409643Y-112294500D01*
X127406868Y-112294318D01*
X127393132Y-112294318D01*
X127390357Y-112294500D01*
X126509643Y-112294500D01*
X126506868Y-112294318D01*
X126493132Y-112294318D01*
X126490357Y-112294500D01*
X125225993Y-112294500D01*
X125182318Y-112299196D01*
X125165641Y-112302824D01*
X125129977Y-112310582D01*
X125129965Y-112310584D01*
X125129960Y-112310586D01*
X125119797Y-112313070D01*
X125039084Y-112356079D01*
X125039081Y-112356081D01*
X125039080Y-112356082D01*
X124985433Y-112402567D01*
X124967471Y-112420167D01*
X124922823Y-112499986D01*
X124902827Y-112568091D01*
X124902824Y-112568104D01*
X124894500Y-112626002D01*
X124047605Y-112626002D01*
X124055583Y-112545003D01*
X124055583Y-112544996D01*
X124035301Y-112339072D01*
X124035300Y-112339070D01*
X124035300Y-112339066D01*
X123975232Y-112141046D01*
X123877685Y-111958550D01*
X123746410Y-111798590D01*
X123586450Y-111667315D01*
X123586448Y-111667314D01*
X123586447Y-111667313D01*
X123403954Y-111569768D01*
X123379378Y-111562313D01*
X123205934Y-111509700D01*
X123205933Y-111509699D01*
X123205927Y-111509698D01*
X123000003Y-111489417D01*
X122999997Y-111489417D01*
X122794072Y-111509698D01*
X122596045Y-111569768D01*
X122413552Y-111667313D01*
X122253590Y-111798590D01*
X122122313Y-111958552D01*
X122024768Y-112141045D01*
X121964698Y-112339072D01*
X121944417Y-112544996D01*
X120100000Y-112544996D01*
X120100000Y-108781908D01*
X121449500Y-108781908D01*
X121449500Y-109018092D01*
X121486447Y-109251368D01*
X121559432Y-109475992D01*
X121638997Y-109632147D01*
X121666659Y-109686436D01*
X121805484Y-109877512D01*
X121972487Y-110044515D01*
X121972490Y-110044517D01*
X122163567Y-110183343D01*
X122374008Y-110290568D01*
X122598632Y-110363553D01*
X122831908Y-110400500D01*
X122831911Y-110400500D01*
X123068089Y-110400500D01*
X123068092Y-110400500D01*
X123301368Y-110363553D01*
X123525992Y-110290568D01*
X123736433Y-110183343D01*
X123927510Y-110044517D01*
X124094517Y-109877510D01*
X124233343Y-109686433D01*
X124340568Y-109475992D01*
X124413553Y-109251368D01*
X124450500Y-109018092D01*
X124450500Y-108781908D01*
X124413553Y-108548632D01*
X124340568Y-108324008D01*
X124233343Y-108113567D01*
X124170604Y-108027214D01*
X124094515Y-107922487D01*
X123927512Y-107755484D01*
X123736436Y-107616659D01*
X123736435Y-107616658D01*
X123736433Y-107616657D01*
X123525992Y-107509432D01*
X123301368Y-107436447D01*
X123068092Y-107399500D01*
X122831908Y-107399500D01*
X122598632Y-107436447D01*
X122598629Y-107436447D01*
X122598628Y-107436448D01*
X122374008Y-107509432D01*
X122374006Y-107509433D01*
X122163563Y-107616659D01*
X121972487Y-107755484D01*
X121805484Y-107922487D01*
X121666659Y-108113563D01*
X121666657Y-108113567D01*
X121559432Y-108324008D01*
X121486447Y-108548632D01*
X121449500Y-108781908D01*
X120100000Y-108781908D01*
X120100000Y-107035958D01*
X120102421Y-107011378D01*
X120103993Y-107003472D01*
X120120909Y-106918426D01*
X120128075Y-106894803D01*
X120201060Y-106718603D01*
X120212699Y-106696827D01*
X120318656Y-106538252D01*
X120334317Y-106519169D01*
X120469169Y-106384317D01*
X120488252Y-106368656D01*
X120646827Y-106262699D01*
X120668603Y-106251060D01*
X120844803Y-106178075D01*
X120868423Y-106170910D01*
X121056901Y-106133420D01*
X121078589Y-106131033D01*
X121174092Y-106128847D01*
X121176708Y-106128816D01*
X140517661Y-106113849D01*
X154134516Y-106113849D01*
X154159098Y-106116270D01*
G37*
G04 #@! TD.AperFunction*
G04 #@! TA.AperFunction,Conductor*
G36*
X131971874Y-108045002D02*
G01*
X132018367Y-108098658D01*
X132029660Y-108146157D01*
X132125000Y-110625000D01*
X133688521Y-110788353D01*
X133754194Y-110815325D01*
X133794860Y-110873522D01*
X133801418Y-110912076D01*
X133898385Y-118572405D01*
X133879247Y-118640774D01*
X133826184Y-118687942D01*
X133772395Y-118700000D01*
X132999999Y-118700000D01*
X129555403Y-118820440D01*
X129486625Y-118802831D01*
X129438285Y-118750832D01*
X129425000Y-118694517D01*
X129425000Y-117177872D01*
X129445002Y-117109751D01*
X129494649Y-117065175D01*
X130275000Y-116675000D01*
X130221514Y-112554664D01*
X129232187Y-111460594D01*
X129201334Y-111396652D01*
X129199647Y-111377011D01*
X129195319Y-110788353D01*
X129175933Y-108151925D01*
X129195434Y-108083660D01*
X129248746Y-108036774D01*
X129301930Y-108025000D01*
X131903753Y-108025000D01*
X131971874Y-108045002D01*
G37*
G04 #@! TD.AperFunction*
M02*
