G04 #@! TF.GenerationSoftware,KiCad,Pcbnew,8.0.2*
G04 #@! TF.CreationDate,2024-08-30T20:49:53-03:00*
G04 #@! TF.ProjectId,ESC_driver,4553435f-6472-4697-9665-722e6b696361,rev?*
G04 #@! TF.SameCoordinates,Original*
G04 #@! TF.FileFunction,Copper,L1,Top*
G04 #@! TF.FilePolarity,Positive*
%FSLAX46Y46*%
G04 Gerber Fmt 4.6, Leading zero omitted, Abs format (unit mm)*
G04 Created by KiCad (PCBNEW 8.0.2) date 2024-08-30 20:49:53*
%MOMM*%
%LPD*%
G01*
G04 APERTURE LIST*
G04 Aperture macros list*
%AMRoundRect*
0 Rectangle with rounded corners*
0 $1 Rounding radius*
0 $2 $3 $4 $5 $6 $7 $8 $9 X,Y pos of 4 corners*
0 Add a 4 corners polygon primitive as box body*
4,1,4,$2,$3,$4,$5,$6,$7,$8,$9,$2,$3,0*
0 Add four circle primitives for the rounded corners*
1,1,$1+$1,$2,$3*
1,1,$1+$1,$4,$5*
1,1,$1+$1,$6,$7*
1,1,$1+$1,$8,$9*
0 Add four rect primitives between the rounded corners*
20,1,$1+$1,$2,$3,$4,$5,0*
20,1,$1+$1,$4,$5,$6,$7,0*
20,1,$1+$1,$6,$7,$8,$9,0*
20,1,$1+$1,$8,$9,$2,$3,0*%
G04 Aperture macros list end*
G04 #@! TA.AperFunction,SMDPad,CuDef*
%ADD10RoundRect,0.237500X0.250000X0.237500X-0.250000X0.237500X-0.250000X-0.237500X0.250000X-0.237500X0*%
G04 #@! TD*
G04 #@! TA.AperFunction,SMDPad,CuDef*
%ADD11RoundRect,0.237500X-0.250000X-0.237500X0.250000X-0.237500X0.250000X0.237500X-0.250000X0.237500X0*%
G04 #@! TD*
G04 #@! TA.AperFunction,SMDPad,CuDef*
%ADD12RoundRect,0.237500X0.237500X-0.250000X0.237500X0.250000X-0.237500X0.250000X-0.237500X-0.250000X0*%
G04 #@! TD*
G04 #@! TA.AperFunction,SMDPad,CuDef*
%ADD13C,1.000000*%
G04 #@! TD*
G04 #@! TA.AperFunction,ComponentPad*
%ADD14R,1.700000X1.700000*%
G04 #@! TD*
G04 #@! TA.AperFunction,ComponentPad*
%ADD15O,1.700000X1.700000*%
G04 #@! TD*
G04 #@! TA.AperFunction,SMDPad,CuDef*
%ADD16RoundRect,0.237500X-0.237500X0.250000X-0.237500X-0.250000X0.237500X-0.250000X0.237500X0.250000X0*%
G04 #@! TD*
G04 #@! TA.AperFunction,SMDPad,CuDef*
%ADD17RoundRect,0.250000X0.550000X-1.412500X0.550000X1.412500X-0.550000X1.412500X-0.550000X-1.412500X0*%
G04 #@! TD*
G04 #@! TA.AperFunction,SMDPad,CuDef*
%ADD18R,1.400000X0.449999*%
G04 #@! TD*
G04 #@! TA.AperFunction,ComponentPad*
%ADD19C,0.399999*%
G04 #@! TD*
G04 #@! TA.AperFunction,SMDPad,CuDef*
%ADD20R,3.099999X5.180000*%
G04 #@! TD*
G04 #@! TA.AperFunction,ViaPad*
%ADD21C,0.800000*%
G04 #@! TD*
G04 #@! TA.AperFunction,Conductor*
%ADD22C,0.250000*%
G04 #@! TD*
G04 #@! TA.AperFunction,Conductor*
%ADD23C,0.200000*%
G04 #@! TD*
G04 #@! TA.AperFunction,Conductor*
%ADD24C,0.450000*%
G04 #@! TD*
G04 APERTURE END LIST*
D10*
X133025000Y-109800000D03*
X131200000Y-109800000D03*
D11*
X134787501Y-108400001D03*
X136612501Y-108400001D03*
D12*
X133200000Y-119275000D03*
X133200000Y-117450000D03*
D11*
X131187500Y-111500000D03*
X133012500Y-111500000D03*
D13*
X125500000Y-120300000D03*
D10*
X138812501Y-122600001D03*
X136987501Y-122600001D03*
D13*
X147250000Y-121225000D03*
D14*
X123000000Y-117625000D03*
D15*
X123000000Y-115085000D03*
X123000000Y-112545000D03*
D13*
X147025000Y-126900000D03*
D11*
X144137500Y-119600000D03*
X145962500Y-119600000D03*
D16*
X146975000Y-123212500D03*
X146975000Y-125037500D03*
D13*
X142400000Y-120700000D03*
D10*
X145662500Y-115900000D03*
X143837500Y-115900000D03*
D14*
X123100000Y-123175000D03*
D15*
X125640000Y-123175000D03*
X123100000Y-125715000D03*
X125640000Y-125715000D03*
X123100000Y-128255000D03*
X125640000Y-128255000D03*
D10*
X145712500Y-117550000D03*
X143887500Y-117550000D03*
D11*
X136462500Y-126900000D03*
X138287500Y-126900000D03*
D15*
X152765000Y-125140000D03*
X150225000Y-125140000D03*
X152765000Y-122600000D03*
X150225000Y-122600000D03*
X152765000Y-120060000D03*
X150225000Y-120060000D03*
X152765000Y-117520000D03*
X150225000Y-117520000D03*
X152765000Y-114980000D03*
X150225000Y-114980000D03*
X152765000Y-112440000D03*
X150225000Y-112440000D03*
X152765000Y-109900000D03*
D14*
X150225000Y-109900000D03*
D11*
X136987501Y-120849999D03*
X138812501Y-120849999D03*
D17*
X131650000Y-127487500D03*
X131650000Y-122412500D03*
D11*
X136462500Y-124850000D03*
X138287500Y-124850000D03*
D18*
X134900000Y-110550000D03*
X134900000Y-111200001D03*
X134900000Y-111850000D03*
X134900000Y-112500001D03*
X134900000Y-113149999D03*
X134900000Y-113800001D03*
X134900000Y-114449999D03*
X134900000Y-115100001D03*
X134900000Y-115749999D03*
X134900000Y-116400001D03*
X134900000Y-117049999D03*
X134900000Y-117700000D03*
X134900000Y-118349999D03*
X134900000Y-119000000D03*
X140800001Y-119000000D03*
X140800001Y-118349999D03*
X140800001Y-117700000D03*
X140800001Y-117049999D03*
X140800001Y-116400001D03*
X140800001Y-115749999D03*
X140800001Y-115100001D03*
X140800001Y-114449999D03*
X140800001Y-113800001D03*
X140800001Y-113149999D03*
X140800001Y-112500001D03*
X140800001Y-111850000D03*
X140800001Y-111200001D03*
X140800001Y-110550000D03*
D19*
X136849998Y-112774999D03*
X136849998Y-113774999D03*
X136849998Y-114775000D03*
X136849998Y-115775001D03*
X136849998Y-116775001D03*
X137849999Y-112774999D03*
X137849999Y-113774999D03*
X137849999Y-114775000D03*
D20*
X137849999Y-114775000D03*
D19*
X137849999Y-115775001D03*
X137849999Y-116775001D03*
X138850000Y-112774999D03*
X138850000Y-113774999D03*
X138850000Y-114775000D03*
X138850000Y-115775001D03*
X138850000Y-116775001D03*
D14*
X144025000Y-123800000D03*
D15*
X141485000Y-123800000D03*
D21*
X147800000Y-117225000D03*
X148200000Y-110875000D03*
X148400000Y-109125000D03*
X140775000Y-119975000D03*
X148425000Y-127625000D03*
X148350000Y-125575000D03*
X141700000Y-122324500D03*
X134874000Y-128524000D03*
X142400000Y-115500000D03*
X149000000Y-129500000D03*
X121825000Y-120025000D03*
X139100000Y-123750000D03*
X130200000Y-129000000D03*
X123675000Y-119975000D03*
X133096000Y-127000000D03*
X129100000Y-128800000D03*
X121825000Y-120950000D03*
X151650000Y-129500000D03*
X133858000Y-122350000D03*
X146325000Y-108800000D03*
X142350000Y-108800000D03*
X122750000Y-119975000D03*
X133900000Y-129032000D03*
X147325000Y-119250000D03*
X126850000Y-108750000D03*
X152975000Y-129500000D03*
X143675000Y-108800000D03*
X123700000Y-120975000D03*
X128150000Y-108750000D03*
X132500000Y-106950000D03*
X135890000Y-128270000D03*
X122800000Y-120975000D03*
X131550000Y-106850000D03*
X145000000Y-108800000D03*
X138950000Y-128350000D03*
X150325000Y-129500000D03*
X125700000Y-113300000D03*
X125700000Y-114200000D03*
X126900000Y-116800000D03*
X126100000Y-117200000D03*
X127800000Y-116574499D03*
X128300000Y-112900000D03*
X127400000Y-112900000D03*
X126500000Y-112900000D03*
X140100000Y-121600000D03*
X142489457Y-119096399D03*
X142598119Y-118102821D03*
X130800000Y-108550000D03*
X129975000Y-118250000D03*
X129775000Y-110350000D03*
X130875000Y-118250000D03*
X129775000Y-108550000D03*
X131775000Y-117350000D03*
X129775000Y-111250000D03*
X130875000Y-117350000D03*
X129775000Y-109450000D03*
X131775000Y-118250000D03*
X129975000Y-117350000D03*
D22*
X143337499Y-116400001D02*
X140800001Y-116400001D01*
X149285000Y-120060000D02*
X146950000Y-117725000D01*
X146950000Y-117725000D02*
X146950000Y-115729505D01*
X150200000Y-120060000D02*
X149285000Y-120060000D01*
X146950000Y-115729505D02*
X146195495Y-114975000D01*
X146195495Y-114975000D02*
X144762500Y-114975000D01*
X144762500Y-114975000D02*
X143337499Y-116400001D01*
X147318750Y-123212500D02*
X149246250Y-125140000D01*
X146975000Y-123212500D02*
X147318750Y-123212500D01*
X149246250Y-125140000D02*
X150225000Y-125140000D01*
X146362500Y-122600000D02*
X146975000Y-123212500D01*
X141975500Y-122600000D02*
X146362500Y-122600000D01*
X141700000Y-122324500D02*
X141975500Y-122600000D01*
X147050000Y-109900000D02*
X150200000Y-109900000D01*
X145775000Y-111175000D02*
X147050000Y-109900000D01*
X140800001Y-111200001D02*
X140825002Y-111175000D01*
X140825002Y-111175000D02*
X145775000Y-111175000D01*
X149725000Y-111200000D02*
X151440000Y-111200000D01*
X149075000Y-111850000D02*
X149725000Y-111200000D01*
X140800001Y-111850000D02*
X149075000Y-111850000D01*
X151440000Y-111200000D02*
X152740000Y-109900000D01*
X145687500Y-125037500D02*
X146975000Y-125037500D01*
X144675000Y-124025000D02*
X145687500Y-125037500D01*
X144025000Y-124025000D02*
X144675000Y-124025000D01*
X149530000Y-128375000D02*
X152765000Y-125140000D01*
X146900000Y-128375000D02*
X149530000Y-128375000D01*
X145725000Y-126450000D02*
X145725000Y-127200000D01*
X140025000Y-126250000D02*
X145525000Y-126250000D01*
X139375000Y-126900000D02*
X140025000Y-126250000D01*
X145525000Y-126250000D02*
X145725000Y-126450000D01*
X138287500Y-126900000D02*
X139375000Y-126900000D01*
X145725000Y-127200000D02*
X146900000Y-128375000D01*
X138287500Y-124850000D02*
X138287500Y-126900000D01*
X133362500Y-111850000D02*
X134900000Y-111850000D01*
X133012500Y-111500000D02*
X133362500Y-111850000D01*
D23*
X134900000Y-117700000D02*
X135800000Y-117700000D01*
X135900001Y-116525979D02*
X135774023Y-116400001D01*
X135774023Y-116400001D02*
X134900000Y-116400001D01*
X135900001Y-117599999D02*
X135900001Y-116525979D01*
X135800000Y-117700000D02*
X135900001Y-117599999D01*
D22*
X145912500Y-117300002D02*
X145912500Y-115650000D01*
X138812501Y-120849999D02*
X138862500Y-120800000D01*
X138862500Y-120800000D02*
X143300000Y-120800000D01*
X139900000Y-119000000D02*
X138812501Y-120087499D01*
X143887501Y-120212499D02*
X143887501Y-119325001D01*
X140800001Y-119000000D02*
X139900000Y-119000000D01*
X143300000Y-120800000D02*
X143887501Y-120212499D01*
X138812501Y-120087499D02*
X138812501Y-120849999D01*
X143887501Y-119325001D02*
X145912500Y-117300002D01*
X143887500Y-117550000D02*
X143737500Y-117400000D01*
X143737500Y-117400000D02*
X142920603Y-117400000D01*
X142570602Y-117049999D02*
X140800001Y-117049999D01*
X142920603Y-117400000D02*
X142570602Y-117049999D01*
X149248989Y-113149999D02*
X149713501Y-113614511D01*
X140800001Y-113149999D02*
X149248989Y-113149999D01*
X151565489Y-113614511D02*
X152740000Y-112440000D01*
X149713501Y-113614511D02*
X151565489Y-113614511D01*
X140800001Y-114449999D02*
X148008989Y-114449999D01*
X148008989Y-114449999D02*
X149713501Y-116154511D01*
X151565489Y-116154511D02*
X152740000Y-114980000D01*
X149713501Y-116154511D02*
X151565489Y-116154511D01*
X135850000Y-118349999D02*
X136987501Y-119487500D01*
X136987501Y-119487500D02*
X136987501Y-122600001D01*
X134900000Y-118349999D02*
X135850000Y-118349999D01*
X149200000Y-121600000D02*
X150200000Y-122600000D01*
X140100000Y-121600000D02*
X149200000Y-121600000D01*
X151575000Y-123790000D02*
X152765000Y-122600000D01*
X146975000Y-125037500D02*
X146975000Y-126850000D01*
X146975000Y-126850000D02*
X147025000Y-126900000D01*
X149064511Y-126314511D02*
X150711499Y-126314511D01*
X148479022Y-126900000D02*
X149064511Y-126314511D01*
X150711499Y-126314511D02*
X151575000Y-125451010D01*
X147025000Y-126900000D02*
X148479022Y-126900000D01*
X151575000Y-125451010D02*
X151575000Y-123790000D01*
D24*
X129400000Y-112000000D02*
X122995001Y-112000000D01*
X130549999Y-113149999D02*
X129400000Y-112000000D01*
X122995001Y-112000000D02*
X122475000Y-112520001D01*
X134900000Y-113149999D02*
X130549999Y-113149999D01*
X122515000Y-115100001D02*
X122475000Y-115060001D01*
X134900000Y-115100001D02*
X122515000Y-115100001D01*
X134900000Y-115749999D02*
X125650001Y-115749999D01*
X125650001Y-115749999D02*
X123799999Y-117600001D01*
X123799999Y-117600001D02*
X122475000Y-117600001D01*
D22*
X141743057Y-118349999D02*
X142489457Y-119096399D01*
X140800001Y-118349999D02*
X141743057Y-118349999D01*
X142195298Y-117700000D02*
X142598119Y-118102821D01*
X140800001Y-117700000D02*
X142195298Y-117700000D01*
X140800001Y-113800001D02*
X149020001Y-113800001D01*
X149020001Y-113800001D02*
X150200000Y-114980000D01*
X140800001Y-112500001D02*
X150139999Y-112500001D01*
X150139999Y-112500001D02*
X150200000Y-112440000D01*
X131875000Y-122337500D02*
X132037500Y-122337500D01*
D24*
X131187500Y-112087500D02*
X131600479Y-112500479D01*
X131187500Y-111500000D02*
X131187500Y-112087500D01*
X134899522Y-112500479D02*
X134900000Y-112500001D01*
X131600479Y-112500479D02*
X134899522Y-112500479D01*
D22*
X134550000Y-124850000D02*
X136462500Y-124850000D01*
X132037500Y-122337500D02*
X134550000Y-124850000D01*
X134900000Y-110550000D02*
X134900000Y-108837501D01*
X134900000Y-108837501D02*
X134837499Y-108775000D01*
X136662499Y-110387502D02*
X136662499Y-108775000D01*
X134900000Y-111200001D02*
X135850000Y-111200001D01*
X135850000Y-111200001D02*
X136662499Y-110387502D01*
G04 #@! TA.AperFunction,Conductor*
G36*
X129106880Y-112520002D02*
G01*
X129137836Y-112548154D01*
X129650000Y-113200000D01*
X130450000Y-113600000D01*
X135474000Y-113600000D01*
X135542121Y-113620002D01*
X135588614Y-113673658D01*
X135600000Y-113726000D01*
X135600000Y-114548501D01*
X135579998Y-114616622D01*
X135526342Y-114663115D01*
X135474000Y-114674501D01*
X125226000Y-114674501D01*
X125157879Y-114654499D01*
X125111386Y-114600843D01*
X125100000Y-114548501D01*
X125100000Y-112626000D01*
X125120002Y-112557879D01*
X125173658Y-112511386D01*
X125226000Y-112500000D01*
X129038759Y-112500000D01*
X129106880Y-112520002D01*
G37*
G04 #@! TD.AperFunction*
G04 #@! TA.AperFunction,Conductor*
G36*
X150568592Y-126660013D02*
G01*
X150615085Y-126713669D01*
X150625189Y-126783943D01*
X150595695Y-126848523D01*
X150589566Y-126855106D01*
X149432078Y-128012595D01*
X149369766Y-128046620D01*
X149342983Y-128049500D01*
X147087017Y-128049500D01*
X147018896Y-128029498D01*
X146997922Y-128012595D01*
X146789595Y-127804268D01*
X146755569Y-127741956D01*
X146760634Y-127671141D01*
X146803181Y-127614305D01*
X146869701Y-127589494D01*
X146908845Y-127592835D01*
X146939944Y-127600500D01*
X146939947Y-127600500D01*
X147110053Y-127600500D01*
X147110056Y-127600500D01*
X147275225Y-127559790D01*
X147425852Y-127480734D01*
X147553183Y-127367929D01*
X147613930Y-127279921D01*
X147669088Y-127235224D01*
X147717625Y-127225500D01*
X148521873Y-127225500D01*
X148521875Y-127225500D01*
X148604661Y-127203318D01*
X148678884Y-127160465D01*
X149162434Y-126676914D01*
X149224745Y-126642891D01*
X149251528Y-126640011D01*
X150500471Y-126640011D01*
X150568592Y-126660013D01*
G37*
G04 #@! TD.AperFunction*
G04 #@! TA.AperFunction,Conductor*
G36*
X146241621Y-122945502D02*
G01*
X146288114Y-122999158D01*
X146299500Y-123051500D01*
X146299500Y-123515258D01*
X146302275Y-123544849D01*
X146302276Y-123544854D01*
X146345883Y-123669474D01*
X146366423Y-123697305D01*
X146424289Y-123775711D01*
X146530525Y-123854116D01*
X146530524Y-123854116D01*
X146630831Y-123889215D01*
X146655151Y-123897725D01*
X146684744Y-123900500D01*
X146684747Y-123900500D01*
X147265253Y-123900500D01*
X147265256Y-123900500D01*
X147294849Y-123897725D01*
X147404429Y-123859380D01*
X147475331Y-123855761D01*
X147535138Y-123889215D01*
X148981374Y-125335450D01*
X148981395Y-125335473D01*
X149046381Y-125400459D01*
X149046385Y-125400462D01*
X149046388Y-125400465D01*
X149120612Y-125443318D01*
X149160332Y-125453961D01*
X149220952Y-125490912D01*
X149248292Y-125539090D01*
X149249766Y-125543951D01*
X149249767Y-125543953D01*
X149347313Y-125726447D01*
X149347315Y-125726450D01*
X149393789Y-125783080D01*
X149421542Y-125848425D01*
X149409560Y-125918403D01*
X149361647Y-125970795D01*
X149296389Y-125989011D01*
X149021658Y-125989011D01*
X148970990Y-126002587D01*
X148938868Y-126011194D01*
X148871422Y-126050134D01*
X148871423Y-126050135D01*
X148864651Y-126054044D01*
X148864645Y-126054049D01*
X148743395Y-126175300D01*
X148381098Y-126537596D01*
X148318788Y-126571620D01*
X148292005Y-126574500D01*
X147717625Y-126574500D01*
X147649504Y-126554498D01*
X147613930Y-126520078D01*
X147553183Y-126432071D01*
X147525045Y-126407143D01*
X147425857Y-126319270D01*
X147425854Y-126319268D01*
X147425852Y-126319266D01*
X147367943Y-126288872D01*
X147316922Y-126239504D01*
X147300500Y-126177306D01*
X147300500Y-125810148D01*
X147320502Y-125742027D01*
X147374158Y-125695534D01*
X147384871Y-125691224D01*
X147419475Y-125679116D01*
X147525711Y-125600711D01*
X147604116Y-125494475D01*
X147647725Y-125369849D01*
X147650500Y-125340256D01*
X147650500Y-124734744D01*
X147647725Y-124705151D01*
X147635800Y-124671073D01*
X147604116Y-124580525D01*
X147584209Y-124553552D01*
X147525711Y-124474289D01*
X147419475Y-124395884D01*
X147419474Y-124395883D01*
X147419475Y-124395883D01*
X147294854Y-124352276D01*
X147294849Y-124352275D01*
X147265258Y-124349500D01*
X147265256Y-124349500D01*
X146684744Y-124349500D01*
X146684741Y-124349500D01*
X146655150Y-124352275D01*
X146655145Y-124352276D01*
X146530525Y-124395883D01*
X146424289Y-124474289D01*
X146345883Y-124580525D01*
X146345882Y-124580526D01*
X146329406Y-124627615D01*
X146288028Y-124685307D01*
X146222028Y-124711469D01*
X146210477Y-124712000D01*
X145874517Y-124712000D01*
X145806396Y-124691998D01*
X145785422Y-124675095D01*
X145112405Y-124002078D01*
X145078379Y-123939766D01*
X145075500Y-123912983D01*
X145075500Y-123051500D01*
X145095502Y-122983379D01*
X145149158Y-122936886D01*
X145201500Y-122925500D01*
X146173500Y-122925500D01*
X146241621Y-122945502D01*
G37*
G04 #@! TD.AperFunction*
G04 #@! TA.AperFunction,Conductor*
G36*
X143386588Y-118146689D02*
G01*
X143430525Y-118179116D01*
X143430524Y-118179116D01*
X143555145Y-118222723D01*
X143555151Y-118222725D01*
X143584744Y-118225500D01*
X143584747Y-118225500D01*
X144190253Y-118225500D01*
X144190256Y-118225500D01*
X144202176Y-118224382D01*
X144213443Y-118223326D01*
X144283134Y-118236879D01*
X144334434Y-118285959D01*
X144351056Y-118354982D01*
X144327722Y-118422035D01*
X144314307Y-118437867D01*
X144084073Y-118668101D01*
X143855864Y-118896310D01*
X143808384Y-118926143D01*
X143680526Y-118970882D01*
X143680525Y-118970883D01*
X143574289Y-119049289D01*
X143495883Y-119155525D01*
X143452276Y-119280145D01*
X143452275Y-119280150D01*
X143449500Y-119309741D01*
X143449500Y-119890258D01*
X143452275Y-119919849D01*
X143452276Y-119919854D01*
X143495478Y-120043316D01*
X143499098Y-120114221D01*
X143465644Y-120174027D01*
X143229377Y-120410294D01*
X143167065Y-120444320D01*
X143096250Y-120439255D01*
X143039414Y-120396708D01*
X143029316Y-120378323D01*
X143028363Y-120378824D01*
X143024818Y-120372070D01*
X142928183Y-120232071D01*
X142928181Y-120232069D01*
X142800857Y-120119270D01*
X142800851Y-120119265D01*
X142650225Y-120040210D01*
X142650221Y-120040208D01*
X142485059Y-119999500D01*
X142485056Y-119999500D01*
X142314944Y-119999500D01*
X142314940Y-119999500D01*
X142149778Y-120040208D01*
X142149774Y-120040210D01*
X141999148Y-120119265D01*
X141999142Y-120119270D01*
X141871818Y-120232069D01*
X141871816Y-120232071D01*
X141775181Y-120372070D01*
X141775181Y-120372072D01*
X141767177Y-120393178D01*
X141724319Y-120449780D01*
X141657664Y-120474226D01*
X141649364Y-120474500D01*
X139566495Y-120474500D01*
X139498374Y-120454498D01*
X139460111Y-120412836D01*
X139459725Y-120413122D01*
X139457072Y-120409527D01*
X139455097Y-120407377D01*
X139454118Y-120405525D01*
X139422966Y-120363316D01*
X139375712Y-120299288D01*
X139375710Y-120299287D01*
X139375710Y-120299286D01*
X139312464Y-120252609D01*
X139269531Y-120196064D01*
X139263985Y-120125285D01*
X139297586Y-120062742D01*
X139298019Y-120062305D01*
X139911330Y-119448994D01*
X139973642Y-119414969D01*
X140025007Y-119414511D01*
X140027310Y-119414969D01*
X140080253Y-119425500D01*
X140080254Y-119425500D01*
X141519748Y-119425500D01*
X141519749Y-119425500D01*
X141578232Y-119413867D01*
X141644553Y-119369552D01*
X141688868Y-119303231D01*
X141688870Y-119303220D01*
X141690600Y-119299047D01*
X141735148Y-119243765D01*
X141802511Y-119221343D01*
X141871302Y-119238900D01*
X141919682Y-119290862D01*
X141923412Y-119299029D01*
X141964921Y-119399240D01*
X142061175Y-119524681D01*
X142186616Y-119620935D01*
X142332695Y-119681443D01*
X142489457Y-119702081D01*
X142646219Y-119681443D01*
X142792298Y-119620935D01*
X142917739Y-119524681D01*
X143013993Y-119399240D01*
X143074501Y-119253161D01*
X143095139Y-119096399D01*
X143074501Y-118939637D01*
X143013993Y-118793558D01*
X142968539Y-118734321D01*
X142942938Y-118668101D01*
X142957203Y-118598552D01*
X142991796Y-118557655D01*
X143026401Y-118531103D01*
X143122655Y-118405662D01*
X143183163Y-118259583D01*
X143186844Y-118231621D01*
X143215566Y-118166695D01*
X143274831Y-118127603D01*
X143345823Y-118126758D01*
X143386588Y-118146689D01*
G37*
G04 #@! TD.AperFunction*
G04 #@! TA.AperFunction,Conductor*
G36*
X149116621Y-110245502D02*
G01*
X149163114Y-110299158D01*
X149174500Y-110351500D01*
X149174500Y-110769750D01*
X149185942Y-110827275D01*
X149186133Y-110828231D01*
X149230448Y-110894552D01*
X149296769Y-110938867D01*
X149296770Y-110938867D01*
X149306411Y-110945309D01*
X149351938Y-110999787D01*
X149360785Y-111070230D01*
X149330144Y-111134274D01*
X149325504Y-111139169D01*
X148977076Y-111487596D01*
X148914766Y-111521620D01*
X148887983Y-111524500D01*
X146190018Y-111524500D01*
X146121897Y-111504498D01*
X146075404Y-111450842D01*
X146065300Y-111380568D01*
X146094794Y-111315988D01*
X146100923Y-111309405D01*
X147147922Y-110262405D01*
X147210234Y-110228380D01*
X147237017Y-110225500D01*
X149048500Y-110225500D01*
X149116621Y-110245502D01*
G37*
G04 #@! TD.AperFunction*
G04 #@! TA.AperFunction,Conductor*
G36*
X154330374Y-106163098D02*
G01*
X154378467Y-106172689D01*
X154506712Y-106225810D01*
X154528496Y-106237454D01*
X154687033Y-106343385D01*
X154706126Y-106359055D01*
X154840944Y-106493873D01*
X154856614Y-106512966D01*
X154962545Y-106671503D01*
X154974189Y-106693287D01*
X155047155Y-106869442D01*
X155054325Y-106893079D01*
X155085461Y-107049610D01*
X155087882Y-107073997D01*
X155116344Y-125535342D01*
X155116344Y-125535400D01*
X155121180Y-130023090D01*
X155121147Y-130026109D01*
X155118966Y-130121405D01*
X155116578Y-130143103D01*
X155079091Y-130331567D01*
X155071921Y-130355204D01*
X154998941Y-130531392D01*
X154987297Y-130553176D01*
X154881347Y-130711742D01*
X154865677Y-130730835D01*
X154730835Y-130865677D01*
X154711742Y-130881347D01*
X154553176Y-130987297D01*
X154531392Y-130998941D01*
X154355204Y-131071921D01*
X154331567Y-131079091D01*
X154143103Y-131116578D01*
X154121405Y-131118966D01*
X154026039Y-131121149D01*
X154023156Y-131121182D01*
X127204598Y-131121182D01*
X121060436Y-131114839D01*
X121035986Y-131112418D01*
X120868433Y-131079091D01*
X120844795Y-131071921D01*
X120668607Y-130998941D01*
X120646823Y-130987297D01*
X120488257Y-130881347D01*
X120469164Y-130865677D01*
X120334322Y-130730835D01*
X120318652Y-130711742D01*
X120212702Y-130553176D01*
X120201058Y-130531392D01*
X120128076Y-130355199D01*
X120120909Y-130331570D01*
X120102421Y-130238620D01*
X120100000Y-130214040D01*
X120100000Y-112544996D01*
X121944417Y-112544996D01*
X121944417Y-112545003D01*
X121964698Y-112750927D01*
X121964699Y-112750933D01*
X121964700Y-112750934D01*
X122024768Y-112948954D01*
X122071724Y-113036803D01*
X122122315Y-113131450D01*
X122253590Y-113291410D01*
X122413550Y-113422685D01*
X122596046Y-113520232D01*
X122794066Y-113580300D01*
X122794070Y-113580300D01*
X122794072Y-113580301D01*
X122999997Y-113600583D01*
X123000000Y-113600583D01*
X123000003Y-113600583D01*
X123205927Y-113580301D01*
X123205928Y-113580300D01*
X123205934Y-113580300D01*
X123403954Y-113520232D01*
X123586450Y-113422685D01*
X123746410Y-113291410D01*
X123877685Y-113131450D01*
X123975232Y-112948954D01*
X124035300Y-112750934D01*
X124035910Y-112744747D01*
X124056159Y-112539150D01*
X124082741Y-112473318D01*
X124140696Y-112432308D01*
X124181552Y-112425500D01*
X124777916Y-112425500D01*
X124846037Y-112445502D01*
X124892530Y-112499158D01*
X124902633Y-112569428D01*
X124902633Y-112569432D01*
X124894500Y-112625994D01*
X124894500Y-114548501D01*
X124874498Y-114616622D01*
X124820842Y-114663115D01*
X124768500Y-114674501D01*
X124047255Y-114674501D01*
X123979134Y-114654499D01*
X123936133Y-114607898D01*
X123927791Y-114592291D01*
X123877685Y-114498550D01*
X123746410Y-114338590D01*
X123586450Y-114207315D01*
X123586448Y-114207314D01*
X123586447Y-114207313D01*
X123403954Y-114109768D01*
X123373134Y-114100419D01*
X123205934Y-114049700D01*
X123205933Y-114049699D01*
X123205927Y-114049698D01*
X123000003Y-114029417D01*
X122999997Y-114029417D01*
X122794072Y-114049698D01*
X122596045Y-114109768D01*
X122413552Y-114207313D01*
X122253590Y-114338590D01*
X122122313Y-114498552D01*
X122024768Y-114681045D01*
X121964698Y-114879072D01*
X121944417Y-115084996D01*
X121944417Y-115085003D01*
X121964698Y-115290927D01*
X121964699Y-115290933D01*
X121964700Y-115290934D01*
X122012825Y-115449583D01*
X122024768Y-115488954D01*
X122121236Y-115669433D01*
X122122315Y-115671450D01*
X122253590Y-115831410D01*
X122413550Y-115962685D01*
X122596046Y-116060232D01*
X122794066Y-116120300D01*
X122794070Y-116120300D01*
X122794072Y-116120301D01*
X122999997Y-116140583D01*
X123000000Y-116140583D01*
X123000003Y-116140583D01*
X123205927Y-116120301D01*
X123205928Y-116120300D01*
X123205934Y-116120300D01*
X123403954Y-116060232D01*
X123586450Y-115962685D01*
X123746410Y-115831410D01*
X123877685Y-115671450D01*
X123920096Y-115592104D01*
X123969848Y-115541457D01*
X124031218Y-115525501D01*
X124968561Y-115525501D01*
X125036682Y-115545503D01*
X125083175Y-115599159D01*
X125093279Y-115669433D01*
X125063785Y-115734013D01*
X125057671Y-115740579D01*
X124170271Y-116627980D01*
X124107961Y-116662004D01*
X124037145Y-116656939D01*
X124005406Y-116636541D01*
X124004871Y-116637343D01*
X123928231Y-116586133D01*
X123928228Y-116586132D01*
X123869750Y-116574500D01*
X123869748Y-116574500D01*
X122130252Y-116574500D01*
X122130249Y-116574500D01*
X122071771Y-116586132D01*
X122071768Y-116586133D01*
X122005448Y-116630448D01*
X121961133Y-116696768D01*
X121961132Y-116696771D01*
X121949500Y-116755249D01*
X121949500Y-118494750D01*
X121958386Y-118539424D01*
X121961133Y-118553231D01*
X122005448Y-118619552D01*
X122071769Y-118663867D01*
X122130252Y-118675500D01*
X122130253Y-118675500D01*
X123869747Y-118675500D01*
X123869748Y-118675500D01*
X123928231Y-118663867D01*
X123994552Y-118619552D01*
X124038867Y-118553231D01*
X124050500Y-118494748D01*
X124050500Y-118003438D01*
X124070502Y-117935317D01*
X124087405Y-117914343D01*
X125179405Y-116822343D01*
X125241717Y-116788317D01*
X125312532Y-116793382D01*
X125369368Y-116835929D01*
X125394179Y-116902449D01*
X125394500Y-116911438D01*
X125394500Y-117674006D01*
X125399014Y-117715984D01*
X125399196Y-117717681D01*
X125410582Y-117770023D01*
X125413070Y-117780203D01*
X125456079Y-117860916D01*
X125502572Y-117914572D01*
X125520165Y-117932527D01*
X125520167Y-117932528D01*
X125599986Y-117977176D01*
X125654784Y-117993265D01*
X125668104Y-117997176D01*
X125726000Y-118005500D01*
X125726003Y-118005500D01*
X126372501Y-118005500D01*
X126416321Y-118000774D01*
X126468819Y-117989316D01*
X126510622Y-117975355D01*
X128839248Y-116908066D01*
X128876109Y-116897584D01*
X128929286Y-116890937D01*
X128999361Y-116902336D01*
X129052150Y-116949811D01*
X129070892Y-117018289D01*
X129049636Y-117086029D01*
X129003253Y-117127644D01*
X124447114Y-119507716D01*
X124447108Y-119507720D01*
X124404016Y-119537817D01*
X124356709Y-119580833D01*
X124356701Y-119580841D01*
X124343143Y-119594377D01*
X124298085Y-119673964D01*
X124298085Y-119673965D01*
X124277735Y-119741969D01*
X124269111Y-119799835D01*
X124220148Y-129323258D01*
X124220148Y-129323271D01*
X124224564Y-129366715D01*
X124224566Y-129366727D01*
X124235544Y-129418802D01*
X124237900Y-129428752D01*
X124237902Y-129428755D01*
X124280278Y-129509789D01*
X124280280Y-129509792D01*
X124280282Y-129509794D01*
X124280283Y-129509796D01*
X124285390Y-129515783D01*
X124326354Y-129563806D01*
X124326359Y-129563811D01*
X124343813Y-129581903D01*
X124423282Y-129627166D01*
X124491242Y-129647694D01*
X124491243Y-129647694D01*
X124491245Y-129647695D01*
X124549074Y-129656468D01*
X127575478Y-129679928D01*
X127624188Y-129674460D01*
X127682277Y-129660777D01*
X127697308Y-129656628D01*
X127776141Y-129610265D01*
X127827796Y-129561558D01*
X127864209Y-129515783D01*
X128556533Y-128331908D01*
X141149500Y-128331908D01*
X141149500Y-128568092D01*
X141186447Y-128801368D01*
X141259432Y-129025992D01*
X141259433Y-129025993D01*
X141366659Y-129236436D01*
X141505484Y-129427512D01*
X141672487Y-129594515D01*
X141672490Y-129594517D01*
X141863567Y-129733343D01*
X142074008Y-129840568D01*
X142298632Y-129913553D01*
X142531908Y-129950500D01*
X142531911Y-129950500D01*
X142768089Y-129950500D01*
X142768092Y-129950500D01*
X143001368Y-129913553D01*
X143225992Y-129840568D01*
X143436433Y-129733343D01*
X143627510Y-129594517D01*
X143794517Y-129427510D01*
X143933343Y-129236433D01*
X144040568Y-129025992D01*
X144113553Y-128801368D01*
X144150500Y-128568092D01*
X144150500Y-128331908D01*
X144113553Y-128098632D01*
X144040568Y-127874008D01*
X143933343Y-127663567D01*
X143867342Y-127572725D01*
X143794515Y-127472487D01*
X143627512Y-127305484D01*
X143436436Y-127166659D01*
X143436435Y-127166658D01*
X143436433Y-127166657D01*
X143225992Y-127059432D01*
X143001368Y-126986447D01*
X142768092Y-126949500D01*
X142531908Y-126949500D01*
X142298632Y-126986447D01*
X142298629Y-126986447D01*
X142298628Y-126986448D01*
X142074008Y-127059432D01*
X142074006Y-127059433D01*
X141863563Y-127166659D01*
X141672487Y-127305484D01*
X141505484Y-127472487D01*
X141366659Y-127663563D01*
X141366657Y-127663567D01*
X141259432Y-127874008D01*
X141186447Y-128098632D01*
X141149500Y-128331908D01*
X128556533Y-128331908D01*
X130235008Y-125461716D01*
X130286663Y-125413010D01*
X130339643Y-125399391D01*
X133084863Y-125309385D01*
X133125093Y-125304056D01*
X133165894Y-125294478D01*
X133173294Y-125292741D01*
X133180199Y-125290994D01*
X133180198Y-125290994D01*
X133180203Y-125290993D01*
X133260916Y-125247984D01*
X133314572Y-125201491D01*
X133332527Y-125183898D01*
X133377174Y-125104080D01*
X133377174Y-125104079D01*
X133377176Y-125104076D01*
X133393094Y-125049862D01*
X133397176Y-125035959D01*
X133405500Y-124978063D01*
X133405500Y-124470016D01*
X133425502Y-124401895D01*
X133479158Y-124355402D01*
X133549432Y-124345298D01*
X133614012Y-124374792D01*
X133620595Y-124380921D01*
X134285124Y-125045450D01*
X134285145Y-125045473D01*
X134350131Y-125110459D01*
X134350135Y-125110462D01*
X134350138Y-125110465D01*
X134424362Y-125153318D01*
X134424364Y-125153318D01*
X134424365Y-125153319D01*
X134507144Y-125175500D01*
X134507148Y-125175501D01*
X134600571Y-125175501D01*
X134600587Y-125175500D01*
X135689851Y-125175500D01*
X135757972Y-125195502D01*
X135804465Y-125249158D01*
X135808776Y-125259873D01*
X135820884Y-125294475D01*
X135899289Y-125400711D01*
X136005525Y-125479116D01*
X136005524Y-125479116D01*
X136064947Y-125499909D01*
X136130151Y-125522725D01*
X136159744Y-125525500D01*
X136159747Y-125525500D01*
X136765253Y-125525500D01*
X136765256Y-125525500D01*
X136794849Y-125522725D01*
X136919475Y-125479116D01*
X137025711Y-125400711D01*
X137104116Y-125294475D01*
X137147725Y-125169849D01*
X137150500Y-125140256D01*
X137150500Y-124559744D01*
X137150500Y-124559741D01*
X137599500Y-124559741D01*
X137599500Y-125140258D01*
X137602275Y-125169849D01*
X137602276Y-125169854D01*
X137645883Y-125294474D01*
X137648461Y-125297967D01*
X137724289Y-125400711D01*
X137787531Y-125447385D01*
X137830525Y-125479116D01*
X137830526Y-125479117D01*
X137877615Y-125495594D01*
X137935307Y-125536972D01*
X137961469Y-125602972D01*
X137962000Y-125614523D01*
X137962000Y-126135476D01*
X137941998Y-126203597D01*
X137888342Y-126250090D01*
X137877616Y-126254405D01*
X137830525Y-126270883D01*
X137724289Y-126349289D01*
X137645883Y-126455525D01*
X137602276Y-126580145D01*
X137602275Y-126580150D01*
X137599500Y-126609741D01*
X137599500Y-127190258D01*
X137602275Y-127219849D01*
X137602276Y-127219854D01*
X137645883Y-127344474D01*
X137645884Y-127344475D01*
X137724289Y-127450711D01*
X137830525Y-127529116D01*
X137830524Y-127529116D01*
X137918182Y-127559789D01*
X137955151Y-127572725D01*
X137984744Y-127575500D01*
X137984747Y-127575500D01*
X138590253Y-127575500D01*
X138590256Y-127575500D01*
X138619849Y-127572725D01*
X138744475Y-127529116D01*
X138850711Y-127450711D01*
X138929116Y-127344475D01*
X138941220Y-127309881D01*
X138982599Y-127252192D01*
X139048600Y-127226030D01*
X139060149Y-127225500D01*
X139417851Y-127225500D01*
X139417853Y-127225500D01*
X139500639Y-127203318D01*
X139574862Y-127160465D01*
X140122921Y-126612404D01*
X140185234Y-126578380D01*
X140212017Y-126575500D01*
X145273500Y-126575500D01*
X145341621Y-126595502D01*
X145388114Y-126649158D01*
X145399500Y-126701500D01*
X145399500Y-127157147D01*
X145399500Y-127242853D01*
X145421682Y-127325639D01*
X145421683Y-127325641D01*
X145421684Y-127325643D01*
X145464532Y-127399858D01*
X145464540Y-127399868D01*
X146700131Y-128635459D01*
X146700135Y-128635462D01*
X146700138Y-128635465D01*
X146774361Y-128678318D01*
X146857147Y-128700500D01*
X146857149Y-128700500D01*
X149572851Y-128700500D01*
X149572853Y-128700500D01*
X149655639Y-128678318D01*
X149729862Y-128635465D01*
X152223062Y-126142263D01*
X152285371Y-126108241D01*
X152356186Y-126113305D01*
X152360387Y-126114958D01*
X152361035Y-126115226D01*
X152361046Y-126115232D01*
X152559066Y-126175300D01*
X152559070Y-126175300D01*
X152559072Y-126175301D01*
X152764997Y-126195583D01*
X152765000Y-126195583D01*
X152765003Y-126195583D01*
X152970927Y-126175301D01*
X152970928Y-126175300D01*
X152970934Y-126175300D01*
X153168954Y-126115232D01*
X153351450Y-126017685D01*
X153511410Y-125886410D01*
X153642685Y-125726450D01*
X153740232Y-125543954D01*
X153800300Y-125345934D01*
X153800860Y-125340256D01*
X153820583Y-125140003D01*
X153820583Y-125139996D01*
X153800301Y-124934072D01*
X153800300Y-124934070D01*
X153800300Y-124934066D01*
X153740232Y-124736046D01*
X153642685Y-124553550D01*
X153511410Y-124393590D01*
X153351450Y-124262315D01*
X153351448Y-124262314D01*
X153351447Y-124262313D01*
X153168954Y-124164768D01*
X152970927Y-124104698D01*
X152765003Y-124084417D01*
X152764997Y-124084417D01*
X152559072Y-124104698D01*
X152361045Y-124164768D01*
X152178552Y-124262313D01*
X152174151Y-124265925D01*
X152106431Y-124321500D01*
X152041086Y-124349253D01*
X151971107Y-124337271D01*
X151918716Y-124289358D01*
X151900500Y-124224100D01*
X151900500Y-123977017D01*
X151920502Y-123908896D01*
X151937400Y-123887926D01*
X152223060Y-123602265D01*
X152285371Y-123568242D01*
X152356186Y-123573306D01*
X152360371Y-123574953D01*
X152361040Y-123575230D01*
X152361045Y-123575231D01*
X152361046Y-123575232D01*
X152559066Y-123635300D01*
X152559070Y-123635300D01*
X152559072Y-123635301D01*
X152764997Y-123655583D01*
X152765000Y-123655583D01*
X152765003Y-123655583D01*
X152970927Y-123635301D01*
X152970928Y-123635300D01*
X152970934Y-123635300D01*
X153168954Y-123575232D01*
X153351450Y-123477685D01*
X153511410Y-123346410D01*
X153642685Y-123186450D01*
X153740232Y-123003954D01*
X153800300Y-122805934D01*
X153804639Y-122761887D01*
X153820583Y-122600003D01*
X153820583Y-122599996D01*
X153800301Y-122394072D01*
X153800300Y-122394070D01*
X153800300Y-122394066D01*
X153740232Y-122196046D01*
X153642685Y-122013550D01*
X153511410Y-121853590D01*
X153351450Y-121722315D01*
X153351448Y-121722314D01*
X153351447Y-121722313D01*
X153168954Y-121624768D01*
X153008492Y-121576093D01*
X152970934Y-121564700D01*
X152970933Y-121564699D01*
X152970927Y-121564698D01*
X152765003Y-121544417D01*
X152764997Y-121544417D01*
X152559072Y-121564698D01*
X152361045Y-121624768D01*
X152178552Y-121722313D01*
X152018590Y-121853590D01*
X151887313Y-122013552D01*
X151789768Y-122196045D01*
X151729698Y-122394072D01*
X151709417Y-122599996D01*
X151709417Y-122600003D01*
X151729698Y-122805927D01*
X151789767Y-123003951D01*
X151790045Y-123004622D01*
X151790085Y-123005001D01*
X151791565Y-123009878D01*
X151790640Y-123010158D01*
X151797636Y-123075212D01*
X151765858Y-123138700D01*
X151762733Y-123141938D01*
X151314537Y-123590135D01*
X151314532Y-123590141D01*
X151271681Y-123664361D01*
X151271681Y-123664365D01*
X151249500Y-123747146D01*
X151249500Y-124380297D01*
X151229498Y-124448418D01*
X151175842Y-124494911D01*
X151105568Y-124505015D01*
X151040988Y-124475521D01*
X151026101Y-124460231D01*
X150971410Y-124393590D01*
X150940812Y-124368479D01*
X150811450Y-124262315D01*
X150811448Y-124262314D01*
X150811447Y-124262313D01*
X150628954Y-124164768D01*
X150430927Y-124104698D01*
X150225003Y-124084417D01*
X150224997Y-124084417D01*
X150019072Y-124104698D01*
X149821045Y-124164768D01*
X149638552Y-124262313D01*
X149478589Y-124393590D01*
X149347312Y-124553552D01*
X149343874Y-124558699D01*
X149342420Y-124557727D01*
X149298490Y-124602432D01*
X149229251Y-124618129D01*
X149162516Y-124593899D01*
X149148047Y-124581471D01*
X148455791Y-123889215D01*
X147687405Y-123120828D01*
X147653379Y-123058516D01*
X147650500Y-123031733D01*
X147650500Y-122909747D01*
X147650500Y-122909744D01*
X147647725Y-122880151D01*
X147604116Y-122755525D01*
X147525711Y-122649289D01*
X147419475Y-122570884D01*
X147419474Y-122570883D01*
X147419475Y-122570883D01*
X147294854Y-122527276D01*
X147294849Y-122527275D01*
X147265258Y-122524500D01*
X147265256Y-122524500D01*
X146799517Y-122524500D01*
X146731396Y-122504498D01*
X146710426Y-122487599D01*
X146562362Y-122339535D01*
X146562359Y-122339533D01*
X146562358Y-122339532D01*
X146488143Y-122296684D01*
X146488141Y-122296683D01*
X146488139Y-122296682D01*
X146405353Y-122274500D01*
X146405351Y-122274500D01*
X142409598Y-122274500D01*
X142341477Y-122254498D01*
X142294984Y-122200842D01*
X142287727Y-122175569D01*
X142287182Y-122175716D01*
X142285045Y-122167742D01*
X142285044Y-122167739D01*
X142285044Y-122167738D01*
X142256868Y-122099717D01*
X142249280Y-122029128D01*
X142281060Y-121965641D01*
X142342118Y-121929414D01*
X142373278Y-121925500D01*
X147164944Y-121925500D01*
X147335056Y-121925500D01*
X149012982Y-121925500D01*
X149081103Y-121945502D01*
X149102077Y-121962404D01*
X149168801Y-122029128D01*
X149216370Y-122076696D01*
X149250395Y-122139008D01*
X149247850Y-122202367D01*
X149189698Y-122394072D01*
X149169417Y-122599996D01*
X149169417Y-122600003D01*
X149189698Y-122805927D01*
X149189699Y-122805933D01*
X149189700Y-122805934D01*
X149227390Y-122930182D01*
X149249768Y-123003954D01*
X149323522Y-123141938D01*
X149347315Y-123186450D01*
X149478590Y-123346410D01*
X149638550Y-123477685D01*
X149821046Y-123575232D01*
X150019066Y-123635300D01*
X150019070Y-123635300D01*
X150019072Y-123635301D01*
X150224997Y-123655583D01*
X150225000Y-123655583D01*
X150225003Y-123655583D01*
X150430927Y-123635301D01*
X150430928Y-123635300D01*
X150430934Y-123635300D01*
X150628954Y-123575232D01*
X150811450Y-123477685D01*
X150971410Y-123346410D01*
X151102685Y-123186450D01*
X151200232Y-123003954D01*
X151260300Y-122805934D01*
X151264639Y-122761887D01*
X151280583Y-122600003D01*
X151280583Y-122599996D01*
X151260301Y-122394072D01*
X151260300Y-122394070D01*
X151260300Y-122394066D01*
X151200232Y-122196046D01*
X151102685Y-122013550D01*
X150971410Y-121853590D01*
X150811450Y-121722315D01*
X150811448Y-121722314D01*
X150811447Y-121722313D01*
X150628954Y-121624768D01*
X150468492Y-121576093D01*
X150430934Y-121564700D01*
X150430933Y-121564699D01*
X150430927Y-121564698D01*
X150225003Y-121544417D01*
X150224997Y-121544417D01*
X150019072Y-121564698D01*
X149821052Y-121624766D01*
X149821035Y-121624772D01*
X149814853Y-121628077D01*
X149745346Y-121642543D01*
X149679052Y-121617134D01*
X149666378Y-121606051D01*
X149399862Y-121339535D01*
X149399860Y-121339534D01*
X149399858Y-121339532D01*
X149325643Y-121296684D01*
X149325641Y-121296683D01*
X149325639Y-121296682D01*
X149242853Y-121274500D01*
X149242851Y-121274500D01*
X148073282Y-121274500D01*
X148005161Y-121254498D01*
X147958668Y-121200842D01*
X147948201Y-121163688D01*
X147935140Y-121056128D01*
X147874820Y-120897074D01*
X147874818Y-120897070D01*
X147778183Y-120757071D01*
X147778181Y-120757069D01*
X147650857Y-120644270D01*
X147650851Y-120644265D01*
X147500225Y-120565210D01*
X147500221Y-120565208D01*
X147335059Y-120524500D01*
X147335056Y-120524500D01*
X147164944Y-120524500D01*
X147164940Y-120524500D01*
X146999778Y-120565208D01*
X146999774Y-120565210D01*
X146849148Y-120644265D01*
X146849142Y-120644270D01*
X146721818Y-120757069D01*
X146721816Y-120757071D01*
X146625181Y-120897070D01*
X146625179Y-120897074D01*
X146564859Y-121056128D01*
X146551799Y-121163688D01*
X146523732Y-121228901D01*
X146464863Y-121268587D01*
X146426718Y-121274500D01*
X143590018Y-121274500D01*
X143521897Y-121254498D01*
X143475404Y-121200842D01*
X143465300Y-121130568D01*
X143494794Y-121065988D01*
X143500923Y-121059405D01*
X144147960Y-120412367D01*
X144147966Y-120412361D01*
X144190610Y-120338500D01*
X144241993Y-120289507D01*
X144299729Y-120275500D01*
X144440253Y-120275500D01*
X144440256Y-120275500D01*
X144469849Y-120272725D01*
X144594475Y-120229116D01*
X144700711Y-120150711D01*
X144779116Y-120044475D01*
X144822725Y-119919849D01*
X144825500Y-119890256D01*
X144825500Y-119309744D01*
X144822725Y-119280151D01*
X144808290Y-119238900D01*
X144779116Y-119155525D01*
X144735479Y-119096399D01*
X144732329Y-119092131D01*
X144707972Y-119025444D01*
X144723534Y-118956174D01*
X144744614Y-118928214D01*
X145053277Y-118619552D01*
X145410425Y-118262404D01*
X145472737Y-118228379D01*
X145499520Y-118225500D01*
X146015253Y-118225500D01*
X146015256Y-118225500D01*
X146044849Y-118222725D01*
X146169475Y-118179116D01*
X146275711Y-118100711D01*
X146354116Y-117994475D01*
X146397725Y-117869849D01*
X146398077Y-117866089D01*
X146399114Y-117863484D01*
X146399360Y-117862362D01*
X146399545Y-117862402D01*
X146424346Y-117800135D01*
X146482105Y-117758850D01*
X146553015Y-117755346D01*
X146614563Y-117790735D01*
X146645232Y-117845229D01*
X146646682Y-117850639D01*
X146646683Y-117850641D01*
X146646684Y-117850643D01*
X146689532Y-117924858D01*
X146689540Y-117924868D01*
X149020124Y-120255450D01*
X149020145Y-120255473D01*
X149085131Y-120320459D01*
X149085136Y-120320463D01*
X149085138Y-120320465D01*
X149115749Y-120338138D01*
X149159362Y-120363318D01*
X149159372Y-120363320D01*
X149166993Y-120366478D01*
X149166222Y-120368339D01*
X149217527Y-120399614D01*
X149244862Y-120447786D01*
X149249764Y-120463946D01*
X149249767Y-120463953D01*
X149347166Y-120646172D01*
X149347315Y-120646450D01*
X149478590Y-120806410D01*
X149638550Y-120937685D01*
X149821046Y-121035232D01*
X150019066Y-121095300D01*
X150019070Y-121095300D01*
X150019072Y-121095301D01*
X150224997Y-121115583D01*
X150225000Y-121115583D01*
X150225003Y-121115583D01*
X150430927Y-121095301D01*
X150430928Y-121095300D01*
X150430934Y-121095300D01*
X150628954Y-121035232D01*
X150811450Y-120937685D01*
X150971410Y-120806410D01*
X151102685Y-120646450D01*
X151200232Y-120463954D01*
X151260300Y-120265934D01*
X151260885Y-120260000D01*
X151280583Y-120060003D01*
X151280583Y-120059996D01*
X151260885Y-119860000D01*
X151729617Y-119860000D01*
X152303120Y-119860000D01*
X152299075Y-119867007D01*
X152265000Y-119994174D01*
X152265000Y-120125826D01*
X152299075Y-120252993D01*
X152303120Y-120260000D01*
X151729617Y-120260000D01*
X151730191Y-120265833D01*
X151790232Y-120463763D01*
X151887732Y-120646172D01*
X152018945Y-120806054D01*
X152178827Y-120937267D01*
X152361236Y-121034767D01*
X152559167Y-121094808D01*
X152564999Y-121095382D01*
X152565000Y-121095381D01*
X152565000Y-120521879D01*
X152572007Y-120525925D01*
X152699174Y-120560000D01*
X152830826Y-120560000D01*
X152957993Y-120525925D01*
X152965000Y-120521879D01*
X152965000Y-121095382D01*
X152970832Y-121094808D01*
X153168763Y-121034767D01*
X153351172Y-120937267D01*
X153511054Y-120806054D01*
X153642267Y-120646172D01*
X153739767Y-120463763D01*
X153799808Y-120265833D01*
X153800383Y-120260000D01*
X153226880Y-120260000D01*
X153230925Y-120252993D01*
X153265000Y-120125826D01*
X153265000Y-119994174D01*
X153230925Y-119867007D01*
X153226880Y-119860000D01*
X153800382Y-119860000D01*
X153799808Y-119854166D01*
X153739767Y-119656236D01*
X153642267Y-119473827D01*
X153511054Y-119313945D01*
X153351172Y-119182732D01*
X153168763Y-119085232D01*
X152970833Y-119025191D01*
X152965000Y-119024617D01*
X152965000Y-119598120D01*
X152957993Y-119594075D01*
X152830826Y-119560000D01*
X152699174Y-119560000D01*
X152572007Y-119594075D01*
X152565000Y-119598120D01*
X152565000Y-119024617D01*
X152559166Y-119025191D01*
X152361236Y-119085232D01*
X152178827Y-119182732D01*
X152018945Y-119313945D01*
X151887732Y-119473827D01*
X151790232Y-119656236D01*
X151730191Y-119854166D01*
X151729617Y-119860000D01*
X151260885Y-119860000D01*
X151260301Y-119854072D01*
X151260300Y-119854070D01*
X151260300Y-119854066D01*
X151200232Y-119656046D01*
X151102685Y-119473550D01*
X150971410Y-119313590D01*
X150811450Y-119182315D01*
X150811448Y-119182314D01*
X150811447Y-119182313D01*
X150628954Y-119084768D01*
X150511994Y-119049289D01*
X150430934Y-119024700D01*
X150430933Y-119024699D01*
X150430927Y-119024698D01*
X150225003Y-119004417D01*
X150224997Y-119004417D01*
X150019072Y-119024698D01*
X149821045Y-119084768D01*
X149638552Y-119182313D01*
X149478589Y-119313590D01*
X149350567Y-119469586D01*
X149291890Y-119509554D01*
X149220919Y-119511455D01*
X149164073Y-119478747D01*
X148275701Y-118590375D01*
X147312405Y-117627078D01*
X147278379Y-117564766D01*
X147275500Y-117537983D01*
X147275500Y-115686653D01*
X147275500Y-115686652D01*
X147253318Y-115603867D01*
X147253318Y-115603866D01*
X147239626Y-115580151D01*
X147210467Y-115529646D01*
X147210462Y-115529640D01*
X146951705Y-115270883D01*
X146671414Y-114990592D01*
X146637391Y-114928282D01*
X146642455Y-114857467D01*
X146685002Y-114800631D01*
X146751522Y-114775820D01*
X146760511Y-114775499D01*
X147821972Y-114775499D01*
X147890093Y-114795501D01*
X147911067Y-114812404D01*
X149513632Y-116414970D01*
X149513636Y-116414973D01*
X149513639Y-116414976D01*
X149587860Y-116457828D01*
X149591917Y-116460170D01*
X149640910Y-116511552D01*
X149654346Y-116581266D01*
X149627960Y-116647177D01*
X149608850Y-116666689D01*
X149478590Y-116773589D01*
X149347313Y-116933552D01*
X149249768Y-117116045D01*
X149189698Y-117314072D01*
X149169417Y-117519996D01*
X149169417Y-117520003D01*
X149189698Y-117725927D01*
X149189699Y-117725933D01*
X149189700Y-117725934D01*
X149231097Y-117862402D01*
X149249768Y-117923954D01*
X149344246Y-118100710D01*
X149347315Y-118106450D01*
X149478590Y-118266410D01*
X149638550Y-118397685D01*
X149821046Y-118495232D01*
X150019066Y-118555300D01*
X150019070Y-118555300D01*
X150019072Y-118555301D01*
X150224997Y-118575583D01*
X150225000Y-118575583D01*
X150225003Y-118575583D01*
X150430927Y-118555301D01*
X150430928Y-118555300D01*
X150430934Y-118555300D01*
X150628954Y-118495232D01*
X150811450Y-118397685D01*
X150971410Y-118266410D01*
X151102685Y-118106450D01*
X151200232Y-117923954D01*
X151260300Y-117725934D01*
X151261280Y-117715991D01*
X151280583Y-117520003D01*
X151280583Y-117519996D01*
X151709417Y-117519996D01*
X151709417Y-117520003D01*
X151729698Y-117725927D01*
X151729699Y-117725933D01*
X151729700Y-117725934D01*
X151771097Y-117862402D01*
X151789768Y-117923954D01*
X151884246Y-118100710D01*
X151887315Y-118106450D01*
X152018590Y-118266410D01*
X152178550Y-118397685D01*
X152361046Y-118495232D01*
X152559066Y-118555300D01*
X152559070Y-118555300D01*
X152559072Y-118555301D01*
X152764997Y-118575583D01*
X152765000Y-118575583D01*
X152765003Y-118575583D01*
X152970927Y-118555301D01*
X152970928Y-118555300D01*
X152970934Y-118555300D01*
X153168954Y-118495232D01*
X153351450Y-118397685D01*
X153511410Y-118266410D01*
X153642685Y-118106450D01*
X153740232Y-117923954D01*
X153800300Y-117725934D01*
X153801280Y-117715991D01*
X153820583Y-117520003D01*
X153820583Y-117519996D01*
X153800301Y-117314072D01*
X153800300Y-117314070D01*
X153800300Y-117314066D01*
X153740232Y-117116046D01*
X153642685Y-116933550D01*
X153511410Y-116773590D01*
X153351450Y-116642315D01*
X153351448Y-116642314D01*
X153351447Y-116642313D01*
X153168954Y-116544768D01*
X153080018Y-116517790D01*
X152970934Y-116484700D01*
X152970933Y-116484699D01*
X152970927Y-116484698D01*
X152765003Y-116464417D01*
X152764997Y-116464417D01*
X152559072Y-116484698D01*
X152361045Y-116544768D01*
X152178552Y-116642313D01*
X152018590Y-116773590D01*
X151887313Y-116933552D01*
X151789768Y-117116045D01*
X151729698Y-117314072D01*
X151709417Y-117519996D01*
X151280583Y-117519996D01*
X151260301Y-117314072D01*
X151260300Y-117314070D01*
X151260300Y-117314066D01*
X151200232Y-117116046D01*
X151102685Y-116933550D01*
X150971410Y-116773590D01*
X150885893Y-116703408D01*
X150845926Y-116644734D01*
X150844025Y-116573763D01*
X150880795Y-116513030D01*
X150944563Y-116481818D01*
X150965828Y-116480011D01*
X151608340Y-116480011D01*
X151608342Y-116480011D01*
X151691128Y-116457829D01*
X151765351Y-116414976D01*
X152206373Y-115973952D01*
X152268683Y-115939929D01*
X152339499Y-115944993D01*
X152354863Y-115951927D01*
X152361046Y-115955232D01*
X152559066Y-116015300D01*
X152559070Y-116015300D01*
X152559072Y-116015301D01*
X152764997Y-116035583D01*
X152765000Y-116035583D01*
X152765003Y-116035583D01*
X152970927Y-116015301D01*
X152970928Y-116015300D01*
X152970934Y-116015300D01*
X153168954Y-115955232D01*
X153351450Y-115857685D01*
X153511410Y-115726410D01*
X153642685Y-115566450D01*
X153740232Y-115383954D01*
X153800300Y-115185934D01*
X153810242Y-115085000D01*
X153820583Y-114980003D01*
X153820583Y-114979996D01*
X153800301Y-114774072D01*
X153800300Y-114774070D01*
X153800300Y-114774066D01*
X153740232Y-114576046D01*
X153642685Y-114393550D01*
X153511410Y-114233590D01*
X153351450Y-114102315D01*
X153351448Y-114102314D01*
X153351447Y-114102313D01*
X153168954Y-114004768D01*
X152970934Y-113944700D01*
X152970933Y-113944699D01*
X152970927Y-113944698D01*
X152765003Y-113924417D01*
X152764997Y-113924417D01*
X152559072Y-113944698D01*
X152361045Y-114004768D01*
X152178552Y-114102313D01*
X152018590Y-114233590D01*
X151887313Y-114393552D01*
X151789768Y-114576045D01*
X151729698Y-114774072D01*
X151709417Y-114979996D01*
X151709417Y-114980003D01*
X151729698Y-115185927D01*
X151729699Y-115185933D01*
X151729700Y-115185934D01*
X151741399Y-115224500D01*
X151787850Y-115377631D01*
X151788483Y-115448625D01*
X151756371Y-115503301D01*
X151467567Y-115792106D01*
X151405254Y-115826131D01*
X151378471Y-115829011D01*
X151153611Y-115829011D01*
X151085490Y-115809009D01*
X151038997Y-115755353D01*
X151028893Y-115685079D01*
X151056209Y-115623080D01*
X151102685Y-115566450D01*
X151200232Y-115383954D01*
X151260300Y-115185934D01*
X151270242Y-115085000D01*
X151280583Y-114980003D01*
X151280583Y-114979996D01*
X151260301Y-114774072D01*
X151260300Y-114774070D01*
X151260300Y-114774066D01*
X151200232Y-114576046D01*
X151102685Y-114393550D01*
X150971410Y-114233590D01*
X150885893Y-114163408D01*
X150845926Y-114104734D01*
X150844025Y-114033763D01*
X150880795Y-113973030D01*
X150944563Y-113941818D01*
X150965828Y-113940011D01*
X151608340Y-113940011D01*
X151608342Y-113940011D01*
X151691128Y-113917829D01*
X151765351Y-113874976D01*
X152206373Y-113433952D01*
X152268683Y-113399929D01*
X152339499Y-113404993D01*
X152354863Y-113411927D01*
X152361046Y-113415232D01*
X152559066Y-113475300D01*
X152559070Y-113475300D01*
X152559072Y-113475301D01*
X152764997Y-113495583D01*
X152765000Y-113495583D01*
X152765003Y-113495583D01*
X152970927Y-113475301D01*
X152970928Y-113475300D01*
X152970934Y-113475300D01*
X153168954Y-113415232D01*
X153351450Y-113317685D01*
X153511410Y-113186410D01*
X153642685Y-113026450D01*
X153740232Y-112843954D01*
X153800300Y-112645934D01*
X153802264Y-112626000D01*
X153820583Y-112440003D01*
X153820583Y-112439996D01*
X153800301Y-112234072D01*
X153800300Y-112234070D01*
X153800300Y-112234066D01*
X153740232Y-112036046D01*
X153642685Y-111853550D01*
X153511410Y-111693590D01*
X153351450Y-111562315D01*
X153351448Y-111562314D01*
X153351447Y-111562313D01*
X153168954Y-111464768D01*
X153139575Y-111455856D01*
X152970934Y-111404700D01*
X152970933Y-111404699D01*
X152970927Y-111404698D01*
X152765003Y-111384417D01*
X152764997Y-111384417D01*
X152559072Y-111404698D01*
X152361045Y-111464768D01*
X152178552Y-111562313D01*
X152018590Y-111693590D01*
X151887313Y-111853552D01*
X151789768Y-112036045D01*
X151729698Y-112234072D01*
X151709417Y-112439996D01*
X151709417Y-112440003D01*
X151729698Y-112645927D01*
X151787850Y-112837631D01*
X151788483Y-112908625D01*
X151756371Y-112963301D01*
X151467567Y-113252106D01*
X151405254Y-113286131D01*
X151378471Y-113289011D01*
X151153611Y-113289011D01*
X151085490Y-113269009D01*
X151038997Y-113215353D01*
X151028893Y-113145079D01*
X151056209Y-113083080D01*
X151102685Y-113026450D01*
X151200232Y-112843954D01*
X151260300Y-112645934D01*
X151262264Y-112626000D01*
X151280583Y-112440003D01*
X151280583Y-112439996D01*
X151260301Y-112234072D01*
X151260300Y-112234070D01*
X151260300Y-112234066D01*
X151200232Y-112036046D01*
X151102685Y-111853550D01*
X151002465Y-111731431D01*
X150974713Y-111666086D01*
X150986695Y-111596108D01*
X151034608Y-111543716D01*
X151099866Y-111525500D01*
X151482851Y-111525500D01*
X151482853Y-111525500D01*
X151565639Y-111503318D01*
X151639862Y-111460465D01*
X152206373Y-110893952D01*
X152268684Y-110859929D01*
X152339499Y-110864993D01*
X152354863Y-110871927D01*
X152361046Y-110875232D01*
X152559066Y-110935300D01*
X152559070Y-110935300D01*
X152559072Y-110935301D01*
X152764997Y-110955583D01*
X152765000Y-110955583D01*
X152765003Y-110955583D01*
X152970927Y-110935301D01*
X152970928Y-110935300D01*
X152970934Y-110935300D01*
X153168954Y-110875232D01*
X153351450Y-110777685D01*
X153511410Y-110646410D01*
X153642685Y-110486450D01*
X153740232Y-110303954D01*
X153800300Y-110105934D01*
X153800442Y-110104498D01*
X153820583Y-109900003D01*
X153820583Y-109899996D01*
X153800301Y-109694072D01*
X153800300Y-109694070D01*
X153800300Y-109694066D01*
X153740232Y-109496046D01*
X153642685Y-109313550D01*
X153511410Y-109153590D01*
X153351450Y-109022315D01*
X153351448Y-109022314D01*
X153351447Y-109022313D01*
X153168954Y-108924768D01*
X152970927Y-108864698D01*
X152765003Y-108844417D01*
X152764997Y-108844417D01*
X152559072Y-108864698D01*
X152361045Y-108924768D01*
X152178552Y-109022313D01*
X152018590Y-109153590D01*
X151887313Y-109313552D01*
X151789768Y-109496045D01*
X151729698Y-109694072D01*
X151709417Y-109899996D01*
X151709417Y-109900003D01*
X151729698Y-110105927D01*
X151787850Y-110297632D01*
X151788483Y-110368626D01*
X151756371Y-110423302D01*
X151490593Y-110689079D01*
X151428283Y-110723103D01*
X151357468Y-110718039D01*
X151300632Y-110675492D01*
X151275821Y-110608972D01*
X151275500Y-110599983D01*
X151275500Y-109030253D01*
X151275499Y-109030249D01*
X151275400Y-109029753D01*
X151263867Y-108971769D01*
X151219552Y-108905448D01*
X151153231Y-108861133D01*
X151153228Y-108861132D01*
X151094750Y-108849500D01*
X151094748Y-108849500D01*
X149355252Y-108849500D01*
X149355249Y-108849500D01*
X149296771Y-108861132D01*
X149296768Y-108861133D01*
X149230448Y-108905448D01*
X149186133Y-108971768D01*
X149186132Y-108971771D01*
X149174500Y-109030249D01*
X149174500Y-109448500D01*
X149154498Y-109516621D01*
X149100842Y-109563114D01*
X149048500Y-109574500D01*
X147007147Y-109574500D01*
X146962785Y-109586386D01*
X146924364Y-109596681D01*
X146924359Y-109596683D01*
X146913291Y-109603073D01*
X146906903Y-109606762D01*
X146878520Y-109623148D01*
X146850139Y-109639534D01*
X146850131Y-109639540D01*
X145677078Y-110812595D01*
X145614766Y-110846620D01*
X145587983Y-110849500D01*
X141711286Y-110849500D01*
X141643165Y-110829498D01*
X141641358Y-110828314D01*
X141578232Y-110786134D01*
X141578229Y-110786133D01*
X141519751Y-110774501D01*
X141519749Y-110774501D01*
X140080253Y-110774501D01*
X140080250Y-110774501D01*
X140021772Y-110786133D01*
X140021769Y-110786134D01*
X139955449Y-110830449D01*
X139911134Y-110896769D01*
X139911133Y-110896772D01*
X139899501Y-110955250D01*
X139899501Y-111444754D01*
X139910574Y-111500419D01*
X139910574Y-111549581D01*
X139899501Y-111605246D01*
X139899501Y-112094753D01*
X139910574Y-112150419D01*
X139910574Y-112199581D01*
X139899501Y-112255247D01*
X139899501Y-112744754D01*
X139910574Y-112800419D01*
X139910574Y-112849581D01*
X139899501Y-112905245D01*
X139899501Y-113394752D01*
X139910574Y-113450419D01*
X139910574Y-113499581D01*
X139899501Y-113555247D01*
X139899501Y-114044754D01*
X139910574Y-114100419D01*
X139910574Y-114149581D01*
X139899501Y-114205245D01*
X139899501Y-114694749D01*
X139910574Y-114750418D01*
X139911134Y-114753230D01*
X139955449Y-114819551D01*
X140021770Y-114863866D01*
X140080253Y-114875499D01*
X140080254Y-114875499D01*
X141519748Y-114875499D01*
X141519749Y-114875499D01*
X141578232Y-114863866D01*
X141644553Y-114819551D01*
X141644554Y-114819549D01*
X141644556Y-114819548D01*
X141651701Y-114812404D01*
X141714013Y-114778378D01*
X141740796Y-114775499D01*
X144197485Y-114775499D01*
X144265606Y-114795501D01*
X144312099Y-114849157D01*
X144322203Y-114919431D01*
X144292709Y-114984011D01*
X144286580Y-114990594D01*
X144089579Y-115187595D01*
X144027267Y-115221621D01*
X144000484Y-115224500D01*
X143534741Y-115224500D01*
X143505150Y-115227275D01*
X143505145Y-115227276D01*
X143380525Y-115270883D01*
X143274289Y-115349289D01*
X143195883Y-115455525D01*
X143152276Y-115580145D01*
X143152275Y-115580150D01*
X143149500Y-115609741D01*
X143149500Y-115948501D01*
X143129498Y-116016622D01*
X143075842Y-116063115D01*
X143023500Y-116074501D01*
X141740796Y-116074501D01*
X141672675Y-116054499D01*
X141651701Y-116037596D01*
X141644556Y-116030451D01*
X141578232Y-115986134D01*
X141578229Y-115986133D01*
X141519751Y-115974501D01*
X141519749Y-115974501D01*
X140080253Y-115974501D01*
X140080250Y-115974501D01*
X140021772Y-115986133D01*
X140021769Y-115986134D01*
X139955449Y-116030449D01*
X139911134Y-116096769D01*
X139911133Y-116096772D01*
X139899501Y-116155250D01*
X139899501Y-116644754D01*
X139910574Y-116700419D01*
X139910574Y-116749581D01*
X139899501Y-116805245D01*
X139899501Y-117294752D01*
X139910574Y-117350418D01*
X139910574Y-117399580D01*
X139899501Y-117455246D01*
X139899501Y-117944753D01*
X139910574Y-118000418D01*
X139910574Y-118049580D01*
X139899501Y-118105245D01*
X139899501Y-118566468D01*
X139879499Y-118634589D01*
X139825843Y-118681082D01*
X139806117Y-118688173D01*
X139785654Y-118693656D01*
X139774360Y-118696682D01*
X139774357Y-118696683D01*
X139753889Y-118708502D01*
X139753887Y-118708503D01*
X139700141Y-118739532D01*
X139700136Y-118739536D01*
X139680600Y-118759073D01*
X139639535Y-118800138D01*
X139639533Y-118800140D01*
X138552041Y-119887630D01*
X138552033Y-119887640D01*
X138509183Y-119961859D01*
X138509181Y-119961864D01*
X138502693Y-119986081D01*
X138487001Y-120044645D01*
X138487001Y-120085475D01*
X138466999Y-120153596D01*
X138413343Y-120200089D01*
X138402617Y-120204404D01*
X138355526Y-120220882D01*
X138249290Y-120299288D01*
X138170884Y-120405524D01*
X138127277Y-120530144D01*
X138127276Y-120530149D01*
X138124501Y-120559740D01*
X138124501Y-121140257D01*
X138127276Y-121169848D01*
X138127277Y-121169853D01*
X138170884Y-121294473D01*
X138191424Y-121322304D01*
X138249290Y-121400710D01*
X138355526Y-121479115D01*
X138355525Y-121479115D01*
X138480146Y-121522722D01*
X138480152Y-121522724D01*
X138509745Y-121525499D01*
X138509748Y-121525499D01*
X139115254Y-121525499D01*
X139115257Y-121525499D01*
X139144850Y-121522724D01*
X139269476Y-121479115D01*
X139297720Y-121458269D01*
X139364408Y-121433911D01*
X139433678Y-121449473D01*
X139483538Y-121500015D01*
X139498158Y-121569490D01*
X139497465Y-121576093D01*
X139494318Y-121599998D01*
X139494318Y-121600000D01*
X139514955Y-121756760D01*
X139555064Y-121853590D01*
X139575464Y-121902841D01*
X139671718Y-122028282D01*
X139797159Y-122124536D01*
X139943238Y-122185044D01*
X140100000Y-122205682D01*
X140256762Y-122185044D01*
X140402841Y-122124536D01*
X140528282Y-122028282D01*
X140550630Y-121999158D01*
X140569324Y-121974796D01*
X140626662Y-121932929D01*
X140669286Y-121925500D01*
X141026722Y-121925500D01*
X141094843Y-121945502D01*
X141141336Y-121999158D01*
X141151440Y-122069432D01*
X141143131Y-122099718D01*
X141114955Y-122167739D01*
X141094318Y-122324499D01*
X141094318Y-122324501D01*
X141103175Y-122391781D01*
X141092235Y-122461929D01*
X141045107Y-122515028D01*
X141026445Y-122524138D01*
X141026495Y-122524244D01*
X140807421Y-122626400D01*
X140613925Y-122761887D01*
X140613919Y-122761892D01*
X140446892Y-122928919D01*
X140446887Y-122928925D01*
X140311400Y-123122421D01*
X140211570Y-123336506D01*
X140211568Y-123336511D01*
X140154363Y-123550000D01*
X141051988Y-123550000D01*
X141019075Y-123607007D01*
X140985000Y-123734174D01*
X140985000Y-123865826D01*
X141019075Y-123992993D01*
X141051988Y-124050000D01*
X140154364Y-124050000D01*
X140211568Y-124263488D01*
X140211570Y-124263493D01*
X140311399Y-124477577D01*
X140311400Y-124477579D01*
X140446886Y-124671073D01*
X140446893Y-124671082D01*
X140613917Y-124838106D01*
X140613926Y-124838113D01*
X140807420Y-124973599D01*
X140807422Y-124973600D01*
X141021506Y-125073429D01*
X141021510Y-125073431D01*
X141235000Y-125130635D01*
X141235000Y-124233012D01*
X141292007Y-124265925D01*
X141419174Y-124300000D01*
X141550826Y-124300000D01*
X141677993Y-124265925D01*
X141735000Y-124233012D01*
X141735000Y-125130634D01*
X141948489Y-125073431D01*
X141948493Y-125073429D01*
X142162577Y-124973600D01*
X142162579Y-124973599D01*
X142356073Y-124838113D01*
X142356082Y-124838106D01*
X142523106Y-124671082D01*
X142523113Y-124671073D01*
X142658599Y-124477579D01*
X142658600Y-124477577D01*
X142734305Y-124315229D01*
X142781222Y-124261944D01*
X142849500Y-124242483D01*
X142917459Y-124263025D01*
X142963525Y-124317048D01*
X142974500Y-124368479D01*
X142974500Y-124669750D01*
X142982798Y-124711469D01*
X142986133Y-124728231D01*
X143030448Y-124794552D01*
X143096769Y-124838867D01*
X143155252Y-124850500D01*
X143155253Y-124850500D01*
X144894747Y-124850500D01*
X144894748Y-124850500D01*
X144949992Y-124839511D01*
X145020704Y-124845839D01*
X145063666Y-124873993D01*
X145487638Y-125297965D01*
X145487639Y-125297966D01*
X145487641Y-125297967D01*
X145507418Y-125309385D01*
X145561861Y-125340818D01*
X145644647Y-125363000D01*
X145730353Y-125363000D01*
X146210477Y-125363000D01*
X146278598Y-125383002D01*
X146325091Y-125436658D01*
X146329406Y-125447385D01*
X146345882Y-125494473D01*
X146345883Y-125494474D01*
X146345884Y-125494475D01*
X146424289Y-125600711D01*
X146496260Y-125653828D01*
X146530523Y-125679115D01*
X146530524Y-125679115D01*
X146530525Y-125679116D01*
X146565115Y-125691219D01*
X146622805Y-125732595D01*
X146648969Y-125798595D01*
X146649500Y-125810148D01*
X146649500Y-126240098D01*
X146629498Y-126308219D01*
X146607054Y-126334410D01*
X146496815Y-126432072D01*
X146400181Y-126572070D01*
X146400179Y-126572074D01*
X146339859Y-126731128D01*
X146319355Y-126899997D01*
X146319355Y-126900003D01*
X146335326Y-127031541D01*
X146323681Y-127101576D01*
X146276020Y-127154197D01*
X146207477Y-127172698D01*
X146139812Y-127151204D01*
X146121150Y-127135823D01*
X146087405Y-127102078D01*
X146053379Y-127039766D01*
X146050500Y-127012983D01*
X146050500Y-126503016D01*
X146050501Y-126503003D01*
X146050501Y-126407147D01*
X146050500Y-126407143D01*
X146028320Y-126324367D01*
X146028315Y-126324355D01*
X145997890Y-126271658D01*
X145997890Y-126271659D01*
X145985465Y-126250138D01*
X145985463Y-126250136D01*
X145961959Y-126226632D01*
X145924862Y-126189535D01*
X145924860Y-126189533D01*
X145724862Y-125989535D01*
X145724860Y-125989534D01*
X145724858Y-125989532D01*
X145650643Y-125946684D01*
X145650641Y-125946683D01*
X145650639Y-125946682D01*
X145567853Y-125924500D01*
X140067853Y-125924500D01*
X139982147Y-125924500D01*
X139899361Y-125946682D01*
X139899359Y-125946682D01*
X139899355Y-125946684D01*
X139862251Y-125968107D01*
X139862250Y-125968108D01*
X139857596Y-125970795D01*
X139825138Y-125989534D01*
X139803480Y-126011193D01*
X139764535Y-126050138D01*
X139277078Y-126537595D01*
X139214766Y-126571621D01*
X139187983Y-126574500D01*
X139060149Y-126574500D01*
X138992028Y-126554498D01*
X138945535Y-126500842D01*
X138941223Y-126490126D01*
X138929116Y-126455525D01*
X138850711Y-126349289D01*
X138772305Y-126291423D01*
X138744474Y-126270883D01*
X138697384Y-126254405D01*
X138639692Y-126213026D01*
X138613530Y-126147025D01*
X138613000Y-126135476D01*
X138613000Y-125614523D01*
X138633002Y-125546402D01*
X138686658Y-125499909D01*
X138697385Y-125495594D01*
X138744473Y-125479117D01*
X138744473Y-125479116D01*
X138744475Y-125479116D01*
X138850711Y-125400711D01*
X138929116Y-125294475D01*
X138972725Y-125169849D01*
X138975500Y-125140256D01*
X138975500Y-124559744D01*
X138972725Y-124530151D01*
X138963929Y-124505015D01*
X138929116Y-124405525D01*
X138920308Y-124393590D01*
X138850711Y-124299289D01*
X138744475Y-124220884D01*
X138744474Y-124220883D01*
X138744475Y-124220883D01*
X138619854Y-124177276D01*
X138619849Y-124177275D01*
X138590258Y-124174500D01*
X138590256Y-124174500D01*
X137984744Y-124174500D01*
X137984741Y-124174500D01*
X137955150Y-124177275D01*
X137955145Y-124177276D01*
X137830525Y-124220883D01*
X137724289Y-124299289D01*
X137645883Y-124405525D01*
X137602276Y-124530145D01*
X137602275Y-124530150D01*
X137599500Y-124559741D01*
X137150500Y-124559741D01*
X137147725Y-124530151D01*
X137138929Y-124505015D01*
X137104116Y-124405525D01*
X137095308Y-124393590D01*
X137025711Y-124299289D01*
X136919475Y-124220884D01*
X136919474Y-124220883D01*
X136919475Y-124220883D01*
X136794854Y-124177276D01*
X136794849Y-124177275D01*
X136765258Y-124174500D01*
X136765256Y-124174500D01*
X136159744Y-124174500D01*
X136159741Y-124174500D01*
X136130150Y-124177275D01*
X136130145Y-124177276D01*
X136005525Y-124220883D01*
X135899289Y-124299289D01*
X135820886Y-124405521D01*
X135820885Y-124405522D01*
X135820884Y-124405525D01*
X135808779Y-124440118D01*
X135767401Y-124497808D01*
X135701400Y-124523970D01*
X135689851Y-124524500D01*
X134737016Y-124524500D01*
X134668895Y-124504498D01*
X134647921Y-124487595D01*
X133442405Y-123282078D01*
X133408379Y-123219766D01*
X133405500Y-123192983D01*
X133405500Y-120379872D01*
X133405499Y-120379869D01*
X133403592Y-120363316D01*
X133400119Y-120333158D01*
X133387095Y-120277368D01*
X133383569Y-120264241D01*
X133338135Y-120184869D01*
X133306675Y-120150710D01*
X133290061Y-120132670D01*
X133290049Y-120132658D01*
X133290038Y-120132646D01*
X133271909Y-120115231D01*
X133190776Y-120073023D01*
X133190773Y-120073022D01*
X133169325Y-120067424D01*
X133122082Y-120055094D01*
X133122077Y-120055093D01*
X133122071Y-120055092D01*
X133063966Y-120048527D01*
X133063961Y-120048527D01*
X133063960Y-120048527D01*
X132919474Y-120052905D01*
X132710316Y-120059243D01*
X132641621Y-120041313D01*
X132593524Y-119989091D01*
X132580500Y-119933301D01*
X132580500Y-118884784D01*
X132600502Y-118816663D01*
X132654158Y-118770170D01*
X132697974Y-118759073D01*
X133751333Y-118687660D01*
X133783638Y-118682869D01*
X133822537Y-118673893D01*
X133822542Y-118673890D01*
X133822544Y-118673890D01*
X133876998Y-118647645D01*
X133947047Y-118636087D01*
X134012225Y-118664235D01*
X134036468Y-118691145D01*
X134055448Y-118719551D01*
X134121769Y-118763866D01*
X134180252Y-118775499D01*
X134180253Y-118775499D01*
X135619747Y-118775499D01*
X135619748Y-118775499D01*
X135678231Y-118763866D01*
X135678235Y-118763862D01*
X135689051Y-118759383D01*
X135759640Y-118751791D01*
X135823128Y-118783567D01*
X135826369Y-118786695D01*
X136625096Y-119585422D01*
X136659122Y-119647734D01*
X136662001Y-119674517D01*
X136662001Y-120085475D01*
X136641999Y-120153596D01*
X136588343Y-120200089D01*
X136577617Y-120204404D01*
X136530526Y-120220882D01*
X136424290Y-120299288D01*
X136345884Y-120405524D01*
X136302277Y-120530144D01*
X136302276Y-120530149D01*
X136299501Y-120559740D01*
X136299501Y-121140257D01*
X136302276Y-121169848D01*
X136302277Y-121169853D01*
X136345884Y-121294473D01*
X136366424Y-121322304D01*
X136424290Y-121400710D01*
X136502282Y-121458270D01*
X136530526Y-121479115D01*
X136530527Y-121479116D01*
X136577616Y-121495593D01*
X136635308Y-121536971D01*
X136661470Y-121602971D01*
X136662001Y-121614522D01*
X136662001Y-121835477D01*
X136641999Y-121903598D01*
X136588343Y-121950091D01*
X136577617Y-121954406D01*
X136530526Y-121970884D01*
X136424290Y-122049290D01*
X136345884Y-122155526D01*
X136302277Y-122280146D01*
X136302276Y-122280151D01*
X136299501Y-122309742D01*
X136299501Y-122890259D01*
X136302276Y-122919850D01*
X136302277Y-122919855D01*
X136345884Y-123044475D01*
X136345885Y-123044476D01*
X136424290Y-123150712D01*
X136530526Y-123229117D01*
X136530525Y-123229117D01*
X136655146Y-123272724D01*
X136655152Y-123272726D01*
X136684745Y-123275501D01*
X136684748Y-123275501D01*
X137290254Y-123275501D01*
X137290257Y-123275501D01*
X137319850Y-123272726D01*
X137444476Y-123229117D01*
X137550712Y-123150712D01*
X137629117Y-123044476D01*
X137672726Y-122919850D01*
X137675501Y-122890257D01*
X137675501Y-122309745D01*
X137672726Y-122280152D01*
X137629117Y-122155526D01*
X137550712Y-122049290D01*
X137472306Y-121991424D01*
X137444475Y-121970884D01*
X137397385Y-121954406D01*
X137339693Y-121913027D01*
X137313531Y-121847026D01*
X137313001Y-121835477D01*
X137313001Y-121614522D01*
X137333003Y-121546401D01*
X137386659Y-121499908D01*
X137397386Y-121495593D01*
X137444474Y-121479116D01*
X137444474Y-121479115D01*
X137444476Y-121479115D01*
X137550712Y-121400710D01*
X137629117Y-121294474D01*
X137672726Y-121169848D01*
X137675501Y-121140255D01*
X137675501Y-120559743D01*
X137672726Y-120530150D01*
X137631511Y-120412367D01*
X137629117Y-120405524D01*
X137624755Y-120399614D01*
X137550712Y-120299288D01*
X137472306Y-120241422D01*
X137444475Y-120220882D01*
X137397385Y-120204404D01*
X137339693Y-120163025D01*
X137313531Y-120097024D01*
X137313001Y-120085475D01*
X137313001Y-119444648D01*
X137313001Y-119444647D01*
X137290819Y-119361862D01*
X137290817Y-119361859D01*
X137290817Y-119361857D01*
X137247968Y-119287641D01*
X137247964Y-119287636D01*
X137240473Y-119280145D01*
X137187363Y-119227035D01*
X136624194Y-118663866D01*
X136049868Y-118089539D01*
X136049863Y-118089535D01*
X136049862Y-118089534D01*
X136049859Y-118089532D01*
X136043310Y-118084507D01*
X136045345Y-118081854D01*
X136007112Y-118041724D01*
X135993703Y-117972005D01*
X136020116Y-117906105D01*
X136030021Y-117894949D01*
X136040460Y-117884511D01*
X136140461Y-117784510D01*
X136180023Y-117715987D01*
X136200501Y-117639561D01*
X136200501Y-117560437D01*
X136200501Y-116486417D01*
X136200041Y-116484700D01*
X136180023Y-116409991D01*
X136142197Y-116344474D01*
X136140463Y-116341471D01*
X136140455Y-116341461D01*
X135958540Y-116159546D01*
X135958536Y-116159543D01*
X135958534Y-116159541D01*
X135951108Y-116155253D01*
X135890011Y-116119979D01*
X135882380Y-116116818D01*
X135883310Y-116114571D01*
X135833263Y-116084064D01*
X135802244Y-116020203D01*
X135800500Y-115999312D01*
X135800500Y-115505252D01*
X135800500Y-115505251D01*
X135789426Y-115449578D01*
X135789426Y-115400421D01*
X135800500Y-115344749D01*
X135800500Y-114855253D01*
X135789426Y-114799580D01*
X135789426Y-114750418D01*
X135800500Y-114694747D01*
X135800500Y-114592291D01*
X135801782Y-114574361D01*
X135805500Y-114548499D01*
X135805500Y-113726005D01*
X135805499Y-113725988D01*
X135801222Y-113686202D01*
X135800500Y-113672734D01*
X135800500Y-113555254D01*
X135800499Y-113555250D01*
X135800498Y-113555247D01*
X135789426Y-113499580D01*
X135789426Y-113450418D01*
X135792701Y-113433954D01*
X135800500Y-113394747D01*
X135800500Y-112905251D01*
X135789426Y-112849578D01*
X135789426Y-112800421D01*
X135800500Y-112744749D01*
X135800500Y-112255253D01*
X135789426Y-112199580D01*
X135789426Y-112150419D01*
X135800500Y-112094748D01*
X135800500Y-111646930D01*
X135820502Y-111578809D01*
X135874158Y-111532316D01*
X135893884Y-111525224D01*
X135975639Y-111503319D01*
X136049862Y-111460466D01*
X136922964Y-110587364D01*
X136965817Y-110513141D01*
X136987999Y-110430355D01*
X136987999Y-110344649D01*
X136987999Y-109147029D01*
X137008001Y-109078908D01*
X137061657Y-109032415D01*
X137068272Y-109029753D01*
X137069473Y-109029118D01*
X137069476Y-109029117D01*
X137175712Y-108950712D01*
X137254117Y-108844476D01*
X137297726Y-108719850D01*
X137300501Y-108690257D01*
X137300501Y-108109745D01*
X137297726Y-108080152D01*
X137277700Y-108022923D01*
X137254117Y-107955526D01*
X137253372Y-107954517D01*
X137175712Y-107849290D01*
X137069476Y-107770885D01*
X137069475Y-107770884D01*
X137069476Y-107770884D01*
X136944855Y-107727277D01*
X136944850Y-107727276D01*
X136915259Y-107724501D01*
X136915257Y-107724501D01*
X136309745Y-107724501D01*
X136309742Y-107724501D01*
X136280151Y-107727276D01*
X136280146Y-107727277D01*
X136155526Y-107770884D01*
X136049290Y-107849290D01*
X135970884Y-107955526D01*
X135927277Y-108080146D01*
X135927276Y-108080151D01*
X135924501Y-108109742D01*
X135924501Y-108690259D01*
X135927276Y-108719850D01*
X135927277Y-108719855D01*
X135970884Y-108844475D01*
X135983178Y-108861133D01*
X136049290Y-108950712D01*
X136123324Y-109005351D01*
X136155526Y-109029117D01*
X136155527Y-109029118D01*
X136252614Y-109063090D01*
X136310306Y-109104468D01*
X136336468Y-109170468D01*
X136336999Y-109182019D01*
X136336999Y-110200485D01*
X136316997Y-110268606D01*
X136300094Y-110289580D01*
X136015595Y-110574079D01*
X135953283Y-110608105D01*
X135882468Y-110603040D01*
X135825632Y-110560493D01*
X135800821Y-110493973D01*
X135800500Y-110484984D01*
X135800500Y-110305253D01*
X135800499Y-110305249D01*
X135800241Y-110303954D01*
X135788867Y-110246769D01*
X135744552Y-110180448D01*
X135678231Y-110136133D01*
X135678228Y-110136132D01*
X135619750Y-110124500D01*
X135619748Y-110124500D01*
X135351500Y-110124500D01*
X135283379Y-110104498D01*
X135236886Y-110050842D01*
X135225500Y-109998500D01*
X135225500Y-109106730D01*
X135245502Y-109038609D01*
X135276678Y-109005351D01*
X135350712Y-108950712D01*
X135429117Y-108844476D01*
X135472726Y-108719850D01*
X135475501Y-108690257D01*
X135475501Y-108109745D01*
X135472726Y-108080152D01*
X135452700Y-108022923D01*
X135429117Y-107955526D01*
X135428372Y-107954517D01*
X135350712Y-107849290D01*
X135244476Y-107770885D01*
X135244475Y-107770884D01*
X135244476Y-107770884D01*
X135119855Y-107727277D01*
X135119850Y-107727276D01*
X135090259Y-107724501D01*
X135090257Y-107724501D01*
X134484745Y-107724501D01*
X134484742Y-107724501D01*
X134455151Y-107727276D01*
X134455146Y-107727277D01*
X134330526Y-107770884D01*
X134224290Y-107849290D01*
X134145884Y-107955526D01*
X134102277Y-108080146D01*
X134102276Y-108080151D01*
X134099501Y-108109742D01*
X134099501Y-108690259D01*
X134102276Y-108719850D01*
X134102277Y-108719855D01*
X134145884Y-108844475D01*
X134158178Y-108861133D01*
X134224290Y-108950712D01*
X134330526Y-109029117D01*
X134330525Y-109029117D01*
X134427614Y-109063090D01*
X134455152Y-109072726D01*
X134460262Y-109073205D01*
X134526218Y-109099479D01*
X134567499Y-109157241D01*
X134574500Y-109198655D01*
X134574500Y-109998500D01*
X134554498Y-110066621D01*
X134500842Y-110113114D01*
X134448500Y-110124500D01*
X134180249Y-110124500D01*
X134121771Y-110136132D01*
X134121768Y-110136133D01*
X134055448Y-110180448D01*
X134011133Y-110246768D01*
X134011132Y-110246771D01*
X133999500Y-110305249D01*
X133999500Y-110794753D01*
X134010573Y-110850419D01*
X134010573Y-110899581D01*
X133999500Y-110955247D01*
X133999500Y-111398500D01*
X133979498Y-111466621D01*
X133925842Y-111513114D01*
X133873500Y-111524500D01*
X133826500Y-111524500D01*
X133758379Y-111504498D01*
X133711886Y-111450842D01*
X133700500Y-111398500D01*
X133700500Y-111209747D01*
X133700500Y-111209744D01*
X133697725Y-111180151D01*
X133654116Y-111055525D01*
X133575711Y-110949289D01*
X133497305Y-110891423D01*
X133469474Y-110870883D01*
X133469475Y-110870883D01*
X133344854Y-110827276D01*
X133344849Y-110827275D01*
X133315258Y-110824500D01*
X133315256Y-110824500D01*
X132709744Y-110824500D01*
X132709741Y-110824500D01*
X132680150Y-110827275D01*
X132680145Y-110827276D01*
X132555524Y-110870883D01*
X132555521Y-110870885D01*
X132506321Y-110907197D01*
X132439634Y-110931555D01*
X132370364Y-110915992D01*
X132320504Y-110865450D01*
X132305500Y-110805818D01*
X132305500Y-109152581D01*
X132305457Y-109148438D01*
X132305456Y-109148419D01*
X132305456Y-109148360D01*
X132305347Y-109143114D01*
X132305213Y-109138828D01*
X132260353Y-108062199D01*
X132254882Y-108022900D01*
X132243605Y-107975804D01*
X132242070Y-107969797D01*
X132199061Y-107889084D01*
X132199059Y-107889082D01*
X132199059Y-107889081D01*
X132152572Y-107835433D01*
X132152568Y-107835428D01*
X132134975Y-107817473D01*
X132134972Y-107817471D01*
X132055153Y-107772823D01*
X131987048Y-107752827D01*
X131987039Y-107752825D01*
X131987036Y-107752824D01*
X131929140Y-107744500D01*
X129327895Y-107744500D01*
X129323365Y-107745004D01*
X129282726Y-107749526D01*
X129282709Y-107749529D01*
X129228665Y-107761708D01*
X129217033Y-107764689D01*
X129217031Y-107764689D01*
X129136968Y-107808901D01*
X129084040Y-107856165D01*
X129084006Y-107856197D01*
X129066324Y-107874047D01*
X129066323Y-107874049D01*
X129022876Y-107954517D01*
X129022872Y-107954527D01*
X129003893Y-108022923D01*
X129003891Y-108022931D01*
X128996432Y-108080945D01*
X129043745Y-111251015D01*
X129045227Y-111272778D01*
X129045227Y-111272781D01*
X129048451Y-111299275D01*
X129048452Y-111299279D01*
X129073374Y-111375268D01*
X129073379Y-111375278D01*
X129079801Y-111386684D01*
X129095792Y-111455856D01*
X129071847Y-111522693D01*
X129015569Y-111565974D01*
X128970007Y-111574500D01*
X123438244Y-111574500D01*
X123401669Y-111569075D01*
X123391446Y-111565974D01*
X123205934Y-111509700D01*
X123205933Y-111509699D01*
X123205927Y-111509698D01*
X123000003Y-111489417D01*
X122999997Y-111489417D01*
X122794072Y-111509698D01*
X122596045Y-111569768D01*
X122413552Y-111667313D01*
X122253590Y-111798590D01*
X122122313Y-111958552D01*
X122024768Y-112141045D01*
X121964698Y-112339072D01*
X121944417Y-112544996D01*
X120100000Y-112544996D01*
X120100000Y-108781908D01*
X121449500Y-108781908D01*
X121449500Y-109018092D01*
X121486447Y-109251368D01*
X121559432Y-109475992D01*
X121642764Y-109639540D01*
X121666659Y-109686436D01*
X121805484Y-109877512D01*
X121972487Y-110044515D01*
X122057013Y-110105927D01*
X122163567Y-110183343D01*
X122374008Y-110290568D01*
X122598632Y-110363553D01*
X122831908Y-110400500D01*
X122831911Y-110400500D01*
X123068089Y-110400500D01*
X123068092Y-110400500D01*
X123301368Y-110363553D01*
X123525992Y-110290568D01*
X123736433Y-110183343D01*
X123927510Y-110044517D01*
X124094517Y-109877510D01*
X124233343Y-109686433D01*
X124340568Y-109475992D01*
X124413553Y-109251368D01*
X124450500Y-109018092D01*
X124450500Y-108781908D01*
X124413553Y-108548632D01*
X124340568Y-108324008D01*
X124233343Y-108113567D01*
X124094517Y-107922490D01*
X124094515Y-107922487D01*
X123927512Y-107755484D01*
X123736436Y-107616659D01*
X123736435Y-107616658D01*
X123736433Y-107616657D01*
X123525992Y-107509432D01*
X123301368Y-107436447D01*
X123068092Y-107399500D01*
X122831908Y-107399500D01*
X122598632Y-107436447D01*
X122598629Y-107436447D01*
X122598628Y-107436448D01*
X122374008Y-107509432D01*
X122374006Y-107509433D01*
X122163563Y-107616659D01*
X121972487Y-107755484D01*
X121805484Y-107922487D01*
X121666659Y-108113563D01*
X121666657Y-108113567D01*
X121559432Y-108324008D01*
X121486447Y-108548632D01*
X121449500Y-108781908D01*
X120100000Y-108781908D01*
X120100000Y-107035958D01*
X120102421Y-107011378D01*
X120103993Y-107003472D01*
X120120909Y-106918426D01*
X120128075Y-106894803D01*
X120201060Y-106718603D01*
X120212699Y-106696827D01*
X120318656Y-106538252D01*
X120334317Y-106519169D01*
X120469169Y-106384317D01*
X120488252Y-106368656D01*
X120646827Y-106262699D01*
X120668603Y-106251060D01*
X120844803Y-106178075D01*
X120868423Y-106170910D01*
X121056900Y-106133420D01*
X121078590Y-106131033D01*
X121116501Y-106130164D01*
X121119464Y-106130132D01*
X154330374Y-106163098D01*
G37*
G04 #@! TD.AperFunction*
G04 #@! TA.AperFunction,Conductor*
G36*
X134117043Y-116179260D02*
G01*
X134200000Y-116200000D01*
X135474000Y-116200000D01*
X135542121Y-116220002D01*
X135588614Y-116273658D01*
X135600000Y-116326000D01*
X135600000Y-116474000D01*
X135579998Y-116542121D01*
X135526342Y-116588614D01*
X135474000Y-116600000D01*
X134123073Y-116600000D01*
X134104597Y-116598638D01*
X134103316Y-116598448D01*
X134063238Y-116594500D01*
X134063225Y-116594500D01*
X130129745Y-116594500D01*
X130129741Y-116594500D01*
X130089763Y-116599155D01*
X130075192Y-116600000D01*
X129600000Y-116600000D01*
X128799999Y-116700000D01*
X128799997Y-116700001D01*
X126424999Y-117788542D01*
X126372501Y-117800000D01*
X125726000Y-117800000D01*
X125657879Y-117779998D01*
X125611386Y-117726342D01*
X125600000Y-117674000D01*
X125600000Y-116752190D01*
X125620002Y-116684069D01*
X125636899Y-116663100D01*
X126063774Y-116236225D01*
X126126083Y-116202203D01*
X126151223Y-116199334D01*
X127985730Y-116175510D01*
X127987366Y-116175499D01*
X134086485Y-116175499D01*
X134117043Y-116179260D01*
G37*
G04 #@! TD.AperFunction*
G04 #@! TA.AperFunction,Conductor*
G36*
X131997261Y-107970002D02*
G01*
X132043754Y-108023658D01*
X132055031Y-108070754D01*
X132099891Y-109147383D01*
X132100000Y-109152629D01*
X132100000Y-112170595D01*
X132079998Y-112238716D01*
X132026342Y-112285209D01*
X131970641Y-112296550D01*
X130302695Y-112252071D01*
X130235132Y-112230260D01*
X130216963Y-112215215D01*
X129661263Y-111659515D01*
X129661261Y-111659514D01*
X129661259Y-111659512D01*
X129571126Y-111607474D01*
X129546195Y-111588600D01*
X129287278Y-111336322D01*
X129252447Y-111274457D01*
X129249223Y-111247957D01*
X129201909Y-108077880D01*
X129220892Y-108009469D01*
X129273848Y-107962180D01*
X129327895Y-107950000D01*
X131929140Y-107950000D01*
X131997261Y-107970002D01*
G37*
G04 #@! TD.AperFunction*
G04 #@! TA.AperFunction,Conductor*
G36*
X134111443Y-116809591D02*
G01*
X134121766Y-116813866D01*
X134121769Y-116813868D01*
X134180252Y-116825501D01*
X134180253Y-116825501D01*
X135374000Y-116825501D01*
X135442121Y-116845503D01*
X135488614Y-116899159D01*
X135500000Y-116951501D01*
X135500000Y-117148500D01*
X135479998Y-117216621D01*
X135426342Y-117263114D01*
X135374000Y-117274500D01*
X134180249Y-117274500D01*
X134121771Y-117286132D01*
X134111450Y-117290408D01*
X134063229Y-117300000D01*
X133899999Y-117300000D01*
X133854796Y-118362277D01*
X133831916Y-118429486D01*
X133776332Y-118473655D01*
X133737433Y-118482631D01*
X132375000Y-118574999D01*
X132375000Y-120274999D01*
X132375000Y-120275000D01*
X133070185Y-120253933D01*
X133138879Y-120271862D01*
X133186976Y-120324085D01*
X133200000Y-120379875D01*
X133200000Y-124978063D01*
X133179998Y-125046184D01*
X133126342Y-125092677D01*
X133078129Y-125103995D01*
X130150000Y-125199999D01*
X127686815Y-129412044D01*
X127635160Y-129460751D01*
X127577071Y-129474434D01*
X124550667Y-129450974D01*
X124482704Y-129430445D01*
X124436628Y-129376430D01*
X124425646Y-129324330D01*
X124474609Y-119800889D01*
X124494961Y-119732875D01*
X124542265Y-119689861D01*
X129498995Y-117100525D01*
X129500986Y-117099507D01*
X130073396Y-116813302D01*
X130129745Y-116800000D01*
X134063225Y-116800000D01*
X134111443Y-116809591D01*
G37*
G04 #@! TD.AperFunction*
M02*
