G04 #@! TF.GenerationSoftware,KiCad,Pcbnew,8.0.2*
G04 #@! TF.CreationDate,2024-08-30T20:49:53-03:00*
G04 #@! TF.ProjectId,ESC_driver,4553435f-6472-4697-9665-722e6b696361,rev?*
G04 #@! TF.SameCoordinates,Original*
G04 #@! TF.FileFunction,Soldermask,Bot*
G04 #@! TF.FilePolarity,Negative*
%FSLAX46Y46*%
G04 Gerber Fmt 4.6, Leading zero omitted, Abs format (unit mm)*
G04 Created by KiCad (PCBNEW 8.0.2) date 2024-08-30 20:49:53*
%MOMM*%
%LPD*%
G01*
G04 APERTURE LIST*
G04 Aperture macros list*
%AMRoundRect*
0 Rectangle with rounded corners*
0 $1 Rounding radius*
0 $2 $3 $4 $5 $6 $7 $8 $9 X,Y pos of 4 corners*
0 Add a 4 corners polygon primitive as box body*
4,1,4,$2,$3,$4,$5,$6,$7,$8,$9,$2,$3,0*
0 Add four circle primitives for the rounded corners*
1,1,$1+$1,$2,$3*
1,1,$1+$1,$4,$5*
1,1,$1+$1,$6,$7*
1,1,$1+$1,$8,$9*
0 Add four rect primitives between the rounded corners*
20,1,$1+$1,$2,$3,$4,$5,0*
20,1,$1+$1,$4,$5,$6,$7,0*
20,1,$1+$1,$6,$7,$8,$9,0*
20,1,$1+$1,$8,$9,$2,$3,0*%
%AMFreePoly0*
4,1,19,0.550000,-0.750000,0.000000,-0.750000,0.000000,-0.744911,-0.071157,-0.744911,-0.207708,-0.704816,-0.327430,-0.627875,-0.420627,-0.520320,-0.479746,-0.390866,-0.500000,-0.250000,-0.500000,0.250000,-0.479746,0.390866,-0.420627,0.520320,-0.327430,0.627875,-0.207708,0.704816,-0.071157,0.744911,0.000000,0.744911,0.000000,0.750000,0.550000,0.750000,0.550000,-0.750000,0.550000,-0.750000,
$1*%
%AMFreePoly1*
4,1,19,0.000000,0.744911,0.071157,0.744911,0.207708,0.704816,0.327430,0.627875,0.420627,0.520320,0.479746,0.390866,0.500000,0.250000,0.500000,-0.250000,0.479746,-0.390866,0.420627,-0.520320,0.327430,-0.627875,0.207708,-0.704816,0.071157,-0.744911,0.000000,-0.744911,0.000000,-0.750000,-0.550000,-0.750000,-0.550000,0.750000,0.000000,0.750000,0.000000,0.744911,0.000000,0.744911,
$1*%
G04 Aperture macros list end*
%ADD10C,2.500000*%
%ADD11R,1.700000X1.700000*%
%ADD12O,1.700000X1.700000*%
%ADD13C,0.399999*%
%ADD14RoundRect,0.250000X1.425000X-0.362500X1.425000X0.362500X-1.425000X0.362500X-1.425000X-0.362500X0*%
%ADD15RoundRect,0.237500X0.250000X0.237500X-0.250000X0.237500X-0.250000X-0.237500X0.250000X-0.237500X0*%
%ADD16FreePoly0,270.000000*%
%ADD17R,1.500000X1.000000*%
%ADD18FreePoly1,270.000000*%
G04 APERTURE END LIST*
D10*
X142650000Y-128450000D03*
D11*
X123000000Y-117625000D03*
D12*
X123000000Y-115085000D03*
X123000000Y-112545000D03*
D10*
X122950000Y-108900000D03*
D11*
X123100000Y-123175000D03*
D12*
X125640000Y-123175000D03*
X123100000Y-125715000D03*
X125640000Y-125715000D03*
X123100000Y-128255000D03*
X125640000Y-128255000D03*
X152765000Y-125140000D03*
X150225000Y-125140000D03*
X152765000Y-122600000D03*
X150225000Y-122600000D03*
X152765000Y-120060000D03*
X150225000Y-120060000D03*
X152765000Y-117520000D03*
X150225000Y-117520000D03*
X152765000Y-114980000D03*
X150225000Y-114980000D03*
X152765000Y-112440000D03*
X150225000Y-112440000D03*
X152765000Y-109900000D03*
D11*
X150225000Y-109900000D03*
D13*
X136849998Y-112774999D03*
X136849998Y-113774999D03*
X136849998Y-114775000D03*
X136849998Y-115775001D03*
X136849998Y-116775001D03*
X137849999Y-112774999D03*
X137849999Y-113774999D03*
X137849999Y-114775000D03*
X137849999Y-115775001D03*
X137849999Y-116775001D03*
X138850000Y-112774999D03*
X138850000Y-113774999D03*
X138850000Y-114775000D03*
X138850000Y-115775001D03*
X138850000Y-116775001D03*
D11*
X144025000Y-123800000D03*
D12*
X141485000Y-123800000D03*
D14*
X128300000Y-120062500D03*
X128300000Y-114137500D03*
D15*
X138812501Y-119000001D03*
X136987501Y-119000001D03*
X138812501Y-120800001D03*
X136987501Y-120800001D03*
D16*
X146800000Y-111800000D03*
D17*
X146800000Y-113100000D03*
D18*
X146800000Y-114400000D03*
M02*
