G04 #@! TF.GenerationSoftware,KiCad,Pcbnew,8.0.2*
G04 #@! TF.CreationDate,2024-08-30T20:49:53-03:00*
G04 #@! TF.ProjectId,ESC_driver,4553435f-6472-4697-9665-722e6b696361,rev?*
G04 #@! TF.SameCoordinates,Original*
G04 #@! TF.FileFunction,Legend,Bot*
G04 #@! TF.FilePolarity,Positive*
%FSLAX46Y46*%
G04 Gerber Fmt 4.6, Leading zero omitted, Abs format (unit mm)*
G04 Created by KiCad (PCBNEW 8.0.2) date 2024-08-30 20:49:53*
%MOMM*%
%LPD*%
G01*
G04 APERTURE LIST*
G04 Aperture macros list*
%AMRoundRect*
0 Rectangle with rounded corners*
0 $1 Rounding radius*
0 $2 $3 $4 $5 $6 $7 $8 $9 X,Y pos of 4 corners*
0 Add a 4 corners polygon primitive as box body*
4,1,4,$2,$3,$4,$5,$6,$7,$8,$9,$2,$3,0*
0 Add four circle primitives for the rounded corners*
1,1,$1+$1,$2,$3*
1,1,$1+$1,$4,$5*
1,1,$1+$1,$6,$7*
1,1,$1+$1,$8,$9*
0 Add four rect primitives between the rounded corners*
20,1,$1+$1,$2,$3,$4,$5,0*
20,1,$1+$1,$4,$5,$6,$7,0*
20,1,$1+$1,$6,$7,$8,$9,0*
20,1,$1+$1,$8,$9,$2,$3,0*%
%AMFreePoly0*
4,1,19,0.550000,-0.750000,0.000000,-0.750000,0.000000,-0.744911,-0.071157,-0.744911,-0.207708,-0.704816,-0.327430,-0.627875,-0.420627,-0.520320,-0.479746,-0.390866,-0.500000,-0.250000,-0.500000,0.250000,-0.479746,0.390866,-0.420627,0.520320,-0.327430,0.627875,-0.207708,0.704816,-0.071157,0.744911,0.000000,0.744911,0.000000,0.750000,0.550000,0.750000,0.550000,-0.750000,0.550000,-0.750000,
$1*%
%AMFreePoly1*
4,1,19,0.000000,0.744911,0.071157,0.744911,0.207708,0.704816,0.327430,0.627875,0.420627,0.520320,0.479746,0.390866,0.500000,0.250000,0.500000,-0.250000,0.479746,-0.390866,0.420627,-0.520320,0.327430,-0.627875,0.207708,-0.704816,0.071157,-0.744911,0.000000,-0.744911,0.000000,-0.750000,-0.550000,-0.750000,-0.550000,0.750000,0.000000,0.750000,0.000000,0.744911,0.000000,0.744911,
$1*%
G04 Aperture macros list end*
%ADD10C,0.125000*%
%ADD11C,0.150000*%
%ADD12C,0.120000*%
%ADD13C,0.000000*%
%ADD14C,2.500000*%
%ADD15R,1.700000X1.700000*%
%ADD16O,1.700000X1.700000*%
%ADD17C,0.399999*%
%ADD18RoundRect,0.250000X1.425000X-0.362500X1.425000X0.362500X-1.425000X0.362500X-1.425000X-0.362500X0*%
%ADD19RoundRect,0.237500X0.250000X0.237500X-0.250000X0.237500X-0.250000X-0.237500X0.250000X-0.237500X0*%
%ADD20FreePoly0,270.000000*%
%ADD21R,1.500000X1.000000*%
%ADD22FreePoly1,270.000000*%
G04 APERTURE END LIST*
D10*
X145123716Y-113120404D02*
X144957049Y-113120404D01*
X144885621Y-113382309D02*
X145123716Y-113382309D01*
X145123716Y-113382309D02*
X145123716Y-112882309D01*
X145123716Y-112882309D02*
X144885621Y-112882309D01*
X144671335Y-113382309D02*
X144671335Y-112882309D01*
X144671335Y-112882309D02*
X144385621Y-113382309D01*
X144385621Y-113382309D02*
X144385621Y-112882309D01*
X144171334Y-112929928D02*
X144147525Y-112906119D01*
X144147525Y-112906119D02*
X144099906Y-112882309D01*
X144099906Y-112882309D02*
X143980858Y-112882309D01*
X143980858Y-112882309D02*
X143933239Y-112906119D01*
X143933239Y-112906119D02*
X143909430Y-112929928D01*
X143909430Y-112929928D02*
X143885620Y-112977547D01*
X143885620Y-112977547D02*
X143885620Y-113025166D01*
X143885620Y-113025166D02*
X143909430Y-113096595D01*
X143909430Y-113096595D02*
X144195144Y-113382309D01*
X144195144Y-113382309D02*
X143885620Y-113382309D01*
D11*
X153605952Y-107829819D02*
X153605952Y-106829819D01*
X153605952Y-106829819D02*
X153272619Y-107544104D01*
X153272619Y-107544104D02*
X152939286Y-106829819D01*
X152939286Y-106829819D02*
X152939286Y-107829819D01*
X152320238Y-107829819D02*
X152415476Y-107782200D01*
X152415476Y-107782200D02*
X152463095Y-107734580D01*
X152463095Y-107734580D02*
X152510714Y-107639342D01*
X152510714Y-107639342D02*
X152510714Y-107353628D01*
X152510714Y-107353628D02*
X152463095Y-107258390D01*
X152463095Y-107258390D02*
X152415476Y-107210771D01*
X152415476Y-107210771D02*
X152320238Y-107163152D01*
X152320238Y-107163152D02*
X152177381Y-107163152D01*
X152177381Y-107163152D02*
X152082143Y-107210771D01*
X152082143Y-107210771D02*
X152034524Y-107258390D01*
X152034524Y-107258390D02*
X151986905Y-107353628D01*
X151986905Y-107353628D02*
X151986905Y-107639342D01*
X151986905Y-107639342D02*
X152034524Y-107734580D01*
X152034524Y-107734580D02*
X152082143Y-107782200D01*
X152082143Y-107782200D02*
X152177381Y-107829819D01*
X152177381Y-107829819D02*
X152320238Y-107829819D01*
X151701190Y-107163152D02*
X151320238Y-107163152D01*
X151558333Y-106829819D02*
X151558333Y-107686961D01*
X151558333Y-107686961D02*
X151510714Y-107782200D01*
X151510714Y-107782200D02*
X151415476Y-107829819D01*
X151415476Y-107829819D02*
X151320238Y-107829819D01*
X150844047Y-107829819D02*
X150939285Y-107782200D01*
X150939285Y-107782200D02*
X150986904Y-107734580D01*
X150986904Y-107734580D02*
X151034523Y-107639342D01*
X151034523Y-107639342D02*
X151034523Y-107353628D01*
X151034523Y-107353628D02*
X150986904Y-107258390D01*
X150986904Y-107258390D02*
X150939285Y-107210771D01*
X150939285Y-107210771D02*
X150844047Y-107163152D01*
X150844047Y-107163152D02*
X150701190Y-107163152D01*
X150701190Y-107163152D02*
X150605952Y-107210771D01*
X150605952Y-107210771D02*
X150558333Y-107258390D01*
X150558333Y-107258390D02*
X150510714Y-107353628D01*
X150510714Y-107353628D02*
X150510714Y-107639342D01*
X150510714Y-107639342D02*
X150558333Y-107734580D01*
X150558333Y-107734580D02*
X150605952Y-107782200D01*
X150605952Y-107782200D02*
X150701190Y-107829819D01*
X150701190Y-107829819D02*
X150844047Y-107829819D01*
X150082142Y-107829819D02*
X150082142Y-107163152D01*
X150082142Y-107353628D02*
X150034523Y-107258390D01*
X150034523Y-107258390D02*
X149986904Y-107210771D01*
X149986904Y-107210771D02*
X149891666Y-107163152D01*
X149891666Y-107163152D02*
X149796428Y-107163152D01*
X148701189Y-107829819D02*
X148701189Y-106829819D01*
X148701189Y-106829819D02*
X148463094Y-106829819D01*
X148463094Y-106829819D02*
X148320237Y-106877438D01*
X148320237Y-106877438D02*
X148224999Y-106972676D01*
X148224999Y-106972676D02*
X148177380Y-107067914D01*
X148177380Y-107067914D02*
X148129761Y-107258390D01*
X148129761Y-107258390D02*
X148129761Y-107401247D01*
X148129761Y-107401247D02*
X148177380Y-107591723D01*
X148177380Y-107591723D02*
X148224999Y-107686961D01*
X148224999Y-107686961D02*
X148320237Y-107782200D01*
X148320237Y-107782200D02*
X148463094Y-107829819D01*
X148463094Y-107829819D02*
X148701189Y-107829819D01*
X147701189Y-107829819D02*
X147701189Y-107163152D01*
X147701189Y-107353628D02*
X147653570Y-107258390D01*
X147653570Y-107258390D02*
X147605951Y-107210771D01*
X147605951Y-107210771D02*
X147510713Y-107163152D01*
X147510713Y-107163152D02*
X147415475Y-107163152D01*
X147082141Y-107829819D02*
X147082141Y-107163152D01*
X147082141Y-106829819D02*
X147129760Y-106877438D01*
X147129760Y-106877438D02*
X147082141Y-106925057D01*
X147082141Y-106925057D02*
X147034522Y-106877438D01*
X147034522Y-106877438D02*
X147082141Y-106829819D01*
X147082141Y-106829819D02*
X147082141Y-106925057D01*
X146701189Y-107163152D02*
X146463094Y-107829819D01*
X146463094Y-107829819D02*
X146224999Y-107163152D01*
X145463094Y-107782200D02*
X145558332Y-107829819D01*
X145558332Y-107829819D02*
X145748808Y-107829819D01*
X145748808Y-107829819D02*
X145844046Y-107782200D01*
X145844046Y-107782200D02*
X145891665Y-107686961D01*
X145891665Y-107686961D02*
X145891665Y-107306009D01*
X145891665Y-107306009D02*
X145844046Y-107210771D01*
X145844046Y-107210771D02*
X145748808Y-107163152D01*
X145748808Y-107163152D02*
X145558332Y-107163152D01*
X145558332Y-107163152D02*
X145463094Y-107210771D01*
X145463094Y-107210771D02*
X145415475Y-107306009D01*
X145415475Y-107306009D02*
X145415475Y-107401247D01*
X145415475Y-107401247D02*
X145891665Y-107496485D01*
X144986903Y-107829819D02*
X144986903Y-107163152D01*
X144986903Y-107353628D02*
X144939284Y-107258390D01*
X144939284Y-107258390D02*
X144891665Y-107210771D01*
X144891665Y-107210771D02*
X144796427Y-107163152D01*
X144796427Y-107163152D02*
X144701189Y-107163152D01*
X143748807Y-106829819D02*
X143415474Y-107829819D01*
X143415474Y-107829819D02*
X143082141Y-106829819D01*
X142224998Y-107829819D02*
X142796426Y-107829819D01*
X142510712Y-107829819D02*
X142510712Y-106829819D01*
X142510712Y-106829819D02*
X142605950Y-106972676D01*
X142605950Y-106972676D02*
X142701188Y-107067914D01*
X142701188Y-107067914D02*
X142796426Y-107115533D01*
X141796426Y-107734580D02*
X141748807Y-107782200D01*
X141748807Y-107782200D02*
X141796426Y-107829819D01*
X141796426Y-107829819D02*
X141844045Y-107782200D01*
X141844045Y-107782200D02*
X141796426Y-107734580D01*
X141796426Y-107734580D02*
X141796426Y-107829819D01*
X141129760Y-106829819D02*
X141034522Y-106829819D01*
X141034522Y-106829819D02*
X140939284Y-106877438D01*
X140939284Y-106877438D02*
X140891665Y-106925057D01*
X140891665Y-106925057D02*
X140844046Y-107020295D01*
X140844046Y-107020295D02*
X140796427Y-107210771D01*
X140796427Y-107210771D02*
X140796427Y-107448866D01*
X140796427Y-107448866D02*
X140844046Y-107639342D01*
X140844046Y-107639342D02*
X140891665Y-107734580D01*
X140891665Y-107734580D02*
X140939284Y-107782200D01*
X140939284Y-107782200D02*
X141034522Y-107829819D01*
X141034522Y-107829819D02*
X141129760Y-107829819D01*
X141129760Y-107829819D02*
X141224998Y-107782200D01*
X141224998Y-107782200D02*
X141272617Y-107734580D01*
X141272617Y-107734580D02*
X141320236Y-107639342D01*
X141320236Y-107639342D02*
X141367855Y-107448866D01*
X141367855Y-107448866D02*
X141367855Y-107210771D01*
X141367855Y-107210771D02*
X141320236Y-107020295D01*
X141320236Y-107020295D02*
X141272617Y-106925057D01*
X141272617Y-106925057D02*
X141224998Y-106877438D01*
X141224998Y-106877438D02*
X141129760Y-106829819D01*
D10*
X145123716Y-114365432D02*
X144957049Y-114365432D01*
X144885621Y-114627337D02*
X145123716Y-114627337D01*
X145123716Y-114627337D02*
X145123716Y-114127337D01*
X145123716Y-114127337D02*
X144885621Y-114127337D01*
X144671335Y-114627337D02*
X144671335Y-114127337D01*
X144671335Y-114127337D02*
X144385621Y-114627337D01*
X144385621Y-114627337D02*
X144385621Y-114127337D01*
X144195144Y-114127337D02*
X143885620Y-114127337D01*
X143885620Y-114127337D02*
X144052287Y-114317813D01*
X144052287Y-114317813D02*
X143980858Y-114317813D01*
X143980858Y-114317813D02*
X143933239Y-114341623D01*
X143933239Y-114341623D02*
X143909430Y-114365432D01*
X143909430Y-114365432D02*
X143885620Y-114413051D01*
X143885620Y-114413051D02*
X143885620Y-114532099D01*
X143885620Y-114532099D02*
X143909430Y-114579718D01*
X143909430Y-114579718D02*
X143933239Y-114603528D01*
X143933239Y-114603528D02*
X143980858Y-114627337D01*
X143980858Y-114627337D02*
X144123715Y-114627337D01*
X144123715Y-114627337D02*
X144171334Y-114603528D01*
X144171334Y-114603528D02*
X144195144Y-114579718D01*
X145123716Y-111870404D02*
X144957049Y-111870404D01*
X144885621Y-112132309D02*
X145123716Y-112132309D01*
X145123716Y-112132309D02*
X145123716Y-111632309D01*
X145123716Y-111632309D02*
X144885621Y-111632309D01*
X144671335Y-112132309D02*
X144671335Y-111632309D01*
X144671335Y-111632309D02*
X144385621Y-112132309D01*
X144385621Y-112132309D02*
X144385621Y-111632309D01*
X143885620Y-112132309D02*
X144171334Y-112132309D01*
X144028477Y-112132309D02*
X144028477Y-111632309D01*
X144028477Y-111632309D02*
X144076096Y-111703738D01*
X144076096Y-111703738D02*
X144123715Y-111751357D01*
X144123715Y-111751357D02*
X144171334Y-111775166D01*
D11*
X139363220Y-130425819D02*
X139363220Y-129425819D01*
X139363220Y-129425819D02*
X138982268Y-129425819D01*
X138982268Y-129425819D02*
X138887030Y-129473438D01*
X138887030Y-129473438D02*
X138839411Y-129521057D01*
X138839411Y-129521057D02*
X138791792Y-129616295D01*
X138791792Y-129616295D02*
X138791792Y-129759152D01*
X138791792Y-129759152D02*
X138839411Y-129854390D01*
X138839411Y-129854390D02*
X138887030Y-129902009D01*
X138887030Y-129902009D02*
X138982268Y-129949628D01*
X138982268Y-129949628D02*
X139363220Y-129949628D01*
X138363220Y-130425819D02*
X138363220Y-129759152D01*
X138363220Y-129949628D02*
X138315601Y-129854390D01*
X138315601Y-129854390D02*
X138267982Y-129806771D01*
X138267982Y-129806771D02*
X138172744Y-129759152D01*
X138172744Y-129759152D02*
X138077506Y-129759152D01*
X137601315Y-130425819D02*
X137696553Y-130378200D01*
X137696553Y-130378200D02*
X137744172Y-130330580D01*
X137744172Y-130330580D02*
X137791791Y-130235342D01*
X137791791Y-130235342D02*
X137791791Y-129949628D01*
X137791791Y-129949628D02*
X137744172Y-129854390D01*
X137744172Y-129854390D02*
X137696553Y-129806771D01*
X137696553Y-129806771D02*
X137601315Y-129759152D01*
X137601315Y-129759152D02*
X137458458Y-129759152D01*
X137458458Y-129759152D02*
X137363220Y-129806771D01*
X137363220Y-129806771D02*
X137315601Y-129854390D01*
X137315601Y-129854390D02*
X137267982Y-129949628D01*
X137267982Y-129949628D02*
X137267982Y-130235342D01*
X137267982Y-130235342D02*
X137315601Y-130330580D01*
X137315601Y-130330580D02*
X137363220Y-130378200D01*
X137363220Y-130378200D02*
X137458458Y-130425819D01*
X137458458Y-130425819D02*
X137601315Y-130425819D01*
X136839410Y-129759152D02*
X136839410Y-130616295D01*
X136839410Y-130616295D02*
X136887029Y-130711533D01*
X136887029Y-130711533D02*
X136982267Y-130759152D01*
X136982267Y-130759152D02*
X137029886Y-130759152D01*
X136839410Y-129425819D02*
X136887029Y-129473438D01*
X136887029Y-129473438D02*
X136839410Y-129521057D01*
X136839410Y-129521057D02*
X136791791Y-129473438D01*
X136791791Y-129473438D02*
X136839410Y-129425819D01*
X136839410Y-129425819D02*
X136839410Y-129521057D01*
X135982268Y-130378200D02*
X136077506Y-130425819D01*
X136077506Y-130425819D02*
X136267982Y-130425819D01*
X136267982Y-130425819D02*
X136363220Y-130378200D01*
X136363220Y-130378200D02*
X136410839Y-130282961D01*
X136410839Y-130282961D02*
X136410839Y-129902009D01*
X136410839Y-129902009D02*
X136363220Y-129806771D01*
X136363220Y-129806771D02*
X136267982Y-129759152D01*
X136267982Y-129759152D02*
X136077506Y-129759152D01*
X136077506Y-129759152D02*
X135982268Y-129806771D01*
X135982268Y-129806771D02*
X135934649Y-129902009D01*
X135934649Y-129902009D02*
X135934649Y-129997247D01*
X135934649Y-129997247D02*
X136410839Y-130092485D01*
X135077506Y-130378200D02*
X135172744Y-130425819D01*
X135172744Y-130425819D02*
X135363220Y-130425819D01*
X135363220Y-130425819D02*
X135458458Y-130378200D01*
X135458458Y-130378200D02*
X135506077Y-130330580D01*
X135506077Y-130330580D02*
X135553696Y-130235342D01*
X135553696Y-130235342D02*
X135553696Y-129949628D01*
X135553696Y-129949628D02*
X135506077Y-129854390D01*
X135506077Y-129854390D02*
X135458458Y-129806771D01*
X135458458Y-129806771D02*
X135363220Y-129759152D01*
X135363220Y-129759152D02*
X135172744Y-129759152D01*
X135172744Y-129759152D02*
X135077506Y-129806771D01*
X134791791Y-129759152D02*
X134410839Y-129759152D01*
X134648934Y-129425819D02*
X134648934Y-130282961D01*
X134648934Y-130282961D02*
X134601315Y-130378200D01*
X134601315Y-130378200D02*
X134506077Y-130425819D01*
X134506077Y-130425819D02*
X134410839Y-130425819D01*
X133315600Y-130425819D02*
X133315600Y-129425819D01*
X133315600Y-129425819D02*
X132744172Y-130425819D01*
X132744172Y-130425819D02*
X132744172Y-129425819D01*
X131887029Y-130378200D02*
X131982267Y-130425819D01*
X131982267Y-130425819D02*
X132172743Y-130425819D01*
X132172743Y-130425819D02*
X132267981Y-130378200D01*
X132267981Y-130378200D02*
X132315600Y-130282961D01*
X132315600Y-130282961D02*
X132315600Y-129902009D01*
X132315600Y-129902009D02*
X132267981Y-129806771D01*
X132267981Y-129806771D02*
X132172743Y-129759152D01*
X132172743Y-129759152D02*
X131982267Y-129759152D01*
X131982267Y-129759152D02*
X131887029Y-129806771D01*
X131887029Y-129806771D02*
X131839410Y-129902009D01*
X131839410Y-129902009D02*
X131839410Y-129997247D01*
X131839410Y-129997247D02*
X132315600Y-130092485D01*
X131267981Y-130425819D02*
X131363219Y-130378200D01*
X131363219Y-130378200D02*
X131410838Y-130330580D01*
X131410838Y-130330580D02*
X131458457Y-130235342D01*
X131458457Y-130235342D02*
X131458457Y-129949628D01*
X131458457Y-129949628D02*
X131410838Y-129854390D01*
X131410838Y-129854390D02*
X131363219Y-129806771D01*
X131363219Y-129806771D02*
X131267981Y-129759152D01*
X131267981Y-129759152D02*
X131125124Y-129759152D01*
X131125124Y-129759152D02*
X131029886Y-129806771D01*
X131029886Y-129806771D02*
X130982267Y-129854390D01*
X130982267Y-129854390D02*
X130934648Y-129949628D01*
X130934648Y-129949628D02*
X130934648Y-130235342D01*
X130934648Y-130235342D02*
X130982267Y-130330580D01*
X130982267Y-130330580D02*
X131029886Y-130378200D01*
X131029886Y-130378200D02*
X131125124Y-130425819D01*
X131125124Y-130425819D02*
X131267981Y-130425819D01*
X130506076Y-129759152D02*
X130506076Y-130425819D01*
X130506076Y-129854390D02*
X130458457Y-129806771D01*
X130458457Y-129806771D02*
X130363219Y-129759152D01*
X130363219Y-129759152D02*
X130220362Y-129759152D01*
X130220362Y-129759152D02*
X130125124Y-129806771D01*
X130125124Y-129806771D02*
X130077505Y-129902009D01*
X130077505Y-129902009D02*
X130077505Y-130425819D01*
X128982266Y-129425819D02*
X128410838Y-129425819D01*
X128696552Y-130425819D02*
X128696552Y-129425819D01*
X127696552Y-130378200D02*
X127791790Y-130425819D01*
X127791790Y-130425819D02*
X127982266Y-130425819D01*
X127982266Y-130425819D02*
X128077504Y-130378200D01*
X128077504Y-130378200D02*
X128125123Y-130282961D01*
X128125123Y-130282961D02*
X128125123Y-129902009D01*
X128125123Y-129902009D02*
X128077504Y-129806771D01*
X128077504Y-129806771D02*
X127982266Y-129759152D01*
X127982266Y-129759152D02*
X127791790Y-129759152D01*
X127791790Y-129759152D02*
X127696552Y-129806771D01*
X127696552Y-129806771D02*
X127648933Y-129902009D01*
X127648933Y-129902009D02*
X127648933Y-129997247D01*
X127648933Y-129997247D02*
X128125123Y-130092485D01*
X126791790Y-130425819D02*
X126791790Y-129902009D01*
X126791790Y-129902009D02*
X126839409Y-129806771D01*
X126839409Y-129806771D02*
X126934647Y-129759152D01*
X126934647Y-129759152D02*
X127125123Y-129759152D01*
X127125123Y-129759152D02*
X127220361Y-129806771D01*
X126791790Y-130378200D02*
X126887028Y-130425819D01*
X126887028Y-130425819D02*
X127125123Y-130425819D01*
X127125123Y-130425819D02*
X127220361Y-130378200D01*
X127220361Y-130378200D02*
X127267980Y-130282961D01*
X127267980Y-130282961D02*
X127267980Y-130187723D01*
X127267980Y-130187723D02*
X127220361Y-130092485D01*
X127220361Y-130092485D02*
X127125123Y-130044866D01*
X127125123Y-130044866D02*
X126887028Y-130044866D01*
X126887028Y-130044866D02*
X126791790Y-129997247D01*
X126315599Y-130425819D02*
X126315599Y-129759152D01*
X126315599Y-129854390D02*
X126267980Y-129806771D01*
X126267980Y-129806771D02*
X126172742Y-129759152D01*
X126172742Y-129759152D02*
X126029885Y-129759152D01*
X126029885Y-129759152D02*
X125934647Y-129806771D01*
X125934647Y-129806771D02*
X125887028Y-129902009D01*
X125887028Y-129902009D02*
X125887028Y-130425819D01*
X125887028Y-129902009D02*
X125839409Y-129806771D01*
X125839409Y-129806771D02*
X125744171Y-129759152D01*
X125744171Y-129759152D02*
X125601314Y-129759152D01*
X125601314Y-129759152D02*
X125506075Y-129806771D01*
X125506075Y-129806771D02*
X125458456Y-129902009D01*
X125458456Y-129902009D02*
X125458456Y-130425819D01*
D10*
X128909523Y-121624809D02*
X129076189Y-121386714D01*
X129195237Y-121624809D02*
X129195237Y-121124809D01*
X129195237Y-121124809D02*
X129004761Y-121124809D01*
X129004761Y-121124809D02*
X128957142Y-121148619D01*
X128957142Y-121148619D02*
X128933332Y-121172428D01*
X128933332Y-121172428D02*
X128909523Y-121220047D01*
X128909523Y-121220047D02*
X128909523Y-121291476D01*
X128909523Y-121291476D02*
X128933332Y-121339095D01*
X128933332Y-121339095D02*
X128957142Y-121362904D01*
X128957142Y-121362904D02*
X129004761Y-121386714D01*
X129004761Y-121386714D02*
X129195237Y-121386714D01*
X128719046Y-121172428D02*
X128695237Y-121148619D01*
X128695237Y-121148619D02*
X128647618Y-121124809D01*
X128647618Y-121124809D02*
X128528570Y-121124809D01*
X128528570Y-121124809D02*
X128480951Y-121148619D01*
X128480951Y-121148619D02*
X128457142Y-121172428D01*
X128457142Y-121172428D02*
X128433332Y-121220047D01*
X128433332Y-121220047D02*
X128433332Y-121267666D01*
X128433332Y-121267666D02*
X128457142Y-121339095D01*
X128457142Y-121339095D02*
X128742856Y-121624809D01*
X128742856Y-121624809D02*
X128433332Y-121624809D01*
X128123809Y-121124809D02*
X128076190Y-121124809D01*
X128076190Y-121124809D02*
X128028571Y-121148619D01*
X128028571Y-121148619D02*
X128004761Y-121172428D01*
X128004761Y-121172428D02*
X127980952Y-121220047D01*
X127980952Y-121220047D02*
X127957142Y-121315285D01*
X127957142Y-121315285D02*
X127957142Y-121434333D01*
X127957142Y-121434333D02*
X127980952Y-121529571D01*
X127980952Y-121529571D02*
X128004761Y-121577190D01*
X128004761Y-121577190D02*
X128028571Y-121601000D01*
X128028571Y-121601000D02*
X128076190Y-121624809D01*
X128076190Y-121624809D02*
X128123809Y-121624809D01*
X128123809Y-121624809D02*
X128171428Y-121601000D01*
X128171428Y-121601000D02*
X128195237Y-121577190D01*
X128195237Y-121577190D02*
X128219047Y-121529571D01*
X128219047Y-121529571D02*
X128242856Y-121434333D01*
X128242856Y-121434333D02*
X128242856Y-121315285D01*
X128242856Y-121315285D02*
X128219047Y-121220047D01*
X128219047Y-121220047D02*
X128195237Y-121172428D01*
X128195237Y-121172428D02*
X128171428Y-121148619D01*
X128171428Y-121148619D02*
X128123809Y-121124809D01*
X127504762Y-121124809D02*
X127742857Y-121124809D01*
X127742857Y-121124809D02*
X127766666Y-121362904D01*
X127766666Y-121362904D02*
X127742857Y-121339095D01*
X127742857Y-121339095D02*
X127695238Y-121315285D01*
X127695238Y-121315285D02*
X127576190Y-121315285D01*
X127576190Y-121315285D02*
X127528571Y-121339095D01*
X127528571Y-121339095D02*
X127504762Y-121362904D01*
X127504762Y-121362904D02*
X127480952Y-121410523D01*
X127480952Y-121410523D02*
X127480952Y-121529571D01*
X127480952Y-121529571D02*
X127504762Y-121577190D01*
X127504762Y-121577190D02*
X127528571Y-121601000D01*
X127528571Y-121601000D02*
X127576190Y-121624809D01*
X127576190Y-121624809D02*
X127695238Y-121624809D01*
X127695238Y-121624809D02*
X127742857Y-121601000D01*
X127742857Y-121601000D02*
X127766666Y-121577190D01*
X136119046Y-118774809D02*
X135833332Y-118774809D01*
X135976189Y-119274809D02*
X135976189Y-118774809D01*
X135666666Y-119274809D02*
X135666666Y-118774809D01*
X135666666Y-119012904D02*
X135380952Y-119012904D01*
X135380952Y-119274809D02*
X135380952Y-118774809D01*
X135166665Y-118822428D02*
X135142856Y-118798619D01*
X135142856Y-118798619D02*
X135095237Y-118774809D01*
X135095237Y-118774809D02*
X134976189Y-118774809D01*
X134976189Y-118774809D02*
X134928570Y-118798619D01*
X134928570Y-118798619D02*
X134904761Y-118822428D01*
X134904761Y-118822428D02*
X134880951Y-118870047D01*
X134880951Y-118870047D02*
X134880951Y-118917666D01*
X134880951Y-118917666D02*
X134904761Y-118989095D01*
X134904761Y-118989095D02*
X135190475Y-119274809D01*
X135190475Y-119274809D02*
X134880951Y-119274809D01*
X134571428Y-118774809D02*
X134523809Y-118774809D01*
X134523809Y-118774809D02*
X134476190Y-118798619D01*
X134476190Y-118798619D02*
X134452380Y-118822428D01*
X134452380Y-118822428D02*
X134428571Y-118870047D01*
X134428571Y-118870047D02*
X134404761Y-118965285D01*
X134404761Y-118965285D02*
X134404761Y-119084333D01*
X134404761Y-119084333D02*
X134428571Y-119179571D01*
X134428571Y-119179571D02*
X134452380Y-119227190D01*
X134452380Y-119227190D02*
X134476190Y-119251000D01*
X134476190Y-119251000D02*
X134523809Y-119274809D01*
X134523809Y-119274809D02*
X134571428Y-119274809D01*
X134571428Y-119274809D02*
X134619047Y-119251000D01*
X134619047Y-119251000D02*
X134642856Y-119227190D01*
X134642856Y-119227190D02*
X134666666Y-119179571D01*
X134666666Y-119179571D02*
X134690475Y-119084333D01*
X134690475Y-119084333D02*
X134690475Y-118965285D01*
X134690475Y-118965285D02*
X134666666Y-118870047D01*
X134666666Y-118870047D02*
X134642856Y-118822428D01*
X134642856Y-118822428D02*
X134619047Y-118798619D01*
X134619047Y-118798619D02*
X134571428Y-118774809D01*
X133928571Y-119274809D02*
X134214285Y-119274809D01*
X134071428Y-119274809D02*
X134071428Y-118774809D01*
X134071428Y-118774809D02*
X134119047Y-118846238D01*
X134119047Y-118846238D02*
X134166666Y-118893857D01*
X134166666Y-118893857D02*
X134214285Y-118917666D01*
X135609523Y-121074809D02*
X135776189Y-120836714D01*
X135895237Y-121074809D02*
X135895237Y-120574809D01*
X135895237Y-120574809D02*
X135704761Y-120574809D01*
X135704761Y-120574809D02*
X135657142Y-120598619D01*
X135657142Y-120598619D02*
X135633332Y-120622428D01*
X135633332Y-120622428D02*
X135609523Y-120670047D01*
X135609523Y-120670047D02*
X135609523Y-120741476D01*
X135609523Y-120741476D02*
X135633332Y-120789095D01*
X135633332Y-120789095D02*
X135657142Y-120812904D01*
X135657142Y-120812904D02*
X135704761Y-120836714D01*
X135704761Y-120836714D02*
X135895237Y-120836714D01*
X135419046Y-120622428D02*
X135395237Y-120598619D01*
X135395237Y-120598619D02*
X135347618Y-120574809D01*
X135347618Y-120574809D02*
X135228570Y-120574809D01*
X135228570Y-120574809D02*
X135180951Y-120598619D01*
X135180951Y-120598619D02*
X135157142Y-120622428D01*
X135157142Y-120622428D02*
X135133332Y-120670047D01*
X135133332Y-120670047D02*
X135133332Y-120717666D01*
X135133332Y-120717666D02*
X135157142Y-120789095D01*
X135157142Y-120789095D02*
X135442856Y-121074809D01*
X135442856Y-121074809D02*
X135133332Y-121074809D01*
X134823809Y-120574809D02*
X134776190Y-120574809D01*
X134776190Y-120574809D02*
X134728571Y-120598619D01*
X134728571Y-120598619D02*
X134704761Y-120622428D01*
X134704761Y-120622428D02*
X134680952Y-120670047D01*
X134680952Y-120670047D02*
X134657142Y-120765285D01*
X134657142Y-120765285D02*
X134657142Y-120884333D01*
X134657142Y-120884333D02*
X134680952Y-120979571D01*
X134680952Y-120979571D02*
X134704761Y-121027190D01*
X134704761Y-121027190D02*
X134728571Y-121051000D01*
X134728571Y-121051000D02*
X134776190Y-121074809D01*
X134776190Y-121074809D02*
X134823809Y-121074809D01*
X134823809Y-121074809D02*
X134871428Y-121051000D01*
X134871428Y-121051000D02*
X134895237Y-121027190D01*
X134895237Y-121027190D02*
X134919047Y-120979571D01*
X134919047Y-120979571D02*
X134942856Y-120884333D01*
X134942856Y-120884333D02*
X134942856Y-120765285D01*
X134942856Y-120765285D02*
X134919047Y-120670047D01*
X134919047Y-120670047D02*
X134895237Y-120622428D01*
X134895237Y-120622428D02*
X134871428Y-120598619D01*
X134871428Y-120598619D02*
X134823809Y-120574809D01*
X134228571Y-120574809D02*
X134323809Y-120574809D01*
X134323809Y-120574809D02*
X134371428Y-120598619D01*
X134371428Y-120598619D02*
X134395238Y-120622428D01*
X134395238Y-120622428D02*
X134442857Y-120693857D01*
X134442857Y-120693857D02*
X134466666Y-120789095D01*
X134466666Y-120789095D02*
X134466666Y-120979571D01*
X134466666Y-120979571D02*
X134442857Y-121027190D01*
X134442857Y-121027190D02*
X134419047Y-121051000D01*
X134419047Y-121051000D02*
X134371428Y-121074809D01*
X134371428Y-121074809D02*
X134276190Y-121074809D01*
X134276190Y-121074809D02*
X134228571Y-121051000D01*
X134228571Y-121051000D02*
X134204762Y-121027190D01*
X134204762Y-121027190D02*
X134180952Y-120979571D01*
X134180952Y-120979571D02*
X134180952Y-120860523D01*
X134180952Y-120860523D02*
X134204762Y-120812904D01*
X134204762Y-120812904D02*
X134228571Y-120789095D01*
X134228571Y-120789095D02*
X134276190Y-120765285D01*
X134276190Y-120765285D02*
X134371428Y-120765285D01*
X134371428Y-120765285D02*
X134419047Y-120789095D01*
X134419047Y-120789095D02*
X134442857Y-120812904D01*
X134442857Y-120812904D02*
X134466666Y-120860523D01*
X147742856Y-109874809D02*
X147742856Y-110231952D01*
X147742856Y-110231952D02*
X147766665Y-110303380D01*
X147766665Y-110303380D02*
X147814284Y-110351000D01*
X147814284Y-110351000D02*
X147885713Y-110374809D01*
X147885713Y-110374809D02*
X147933332Y-110374809D01*
X147504761Y-110374809D02*
X147504761Y-109874809D01*
X147504761Y-109874809D02*
X147314285Y-109874809D01*
X147314285Y-109874809D02*
X147266666Y-109898619D01*
X147266666Y-109898619D02*
X147242856Y-109922428D01*
X147242856Y-109922428D02*
X147219047Y-109970047D01*
X147219047Y-109970047D02*
X147219047Y-110041476D01*
X147219047Y-110041476D02*
X147242856Y-110089095D01*
X147242856Y-110089095D02*
X147266666Y-110112904D01*
X147266666Y-110112904D02*
X147314285Y-110136714D01*
X147314285Y-110136714D02*
X147504761Y-110136714D01*
X147028570Y-109922428D02*
X147004761Y-109898619D01*
X147004761Y-109898619D02*
X146957142Y-109874809D01*
X146957142Y-109874809D02*
X146838094Y-109874809D01*
X146838094Y-109874809D02*
X146790475Y-109898619D01*
X146790475Y-109898619D02*
X146766666Y-109922428D01*
X146766666Y-109922428D02*
X146742856Y-109970047D01*
X146742856Y-109970047D02*
X146742856Y-110017666D01*
X146742856Y-110017666D02*
X146766666Y-110089095D01*
X146766666Y-110089095D02*
X147052380Y-110374809D01*
X147052380Y-110374809D02*
X146742856Y-110374809D01*
X146433333Y-109874809D02*
X146385714Y-109874809D01*
X146385714Y-109874809D02*
X146338095Y-109898619D01*
X146338095Y-109898619D02*
X146314285Y-109922428D01*
X146314285Y-109922428D02*
X146290476Y-109970047D01*
X146290476Y-109970047D02*
X146266666Y-110065285D01*
X146266666Y-110065285D02*
X146266666Y-110184333D01*
X146266666Y-110184333D02*
X146290476Y-110279571D01*
X146290476Y-110279571D02*
X146314285Y-110327190D01*
X146314285Y-110327190D02*
X146338095Y-110351000D01*
X146338095Y-110351000D02*
X146385714Y-110374809D01*
X146385714Y-110374809D02*
X146433333Y-110374809D01*
X146433333Y-110374809D02*
X146480952Y-110351000D01*
X146480952Y-110351000D02*
X146504761Y-110327190D01*
X146504761Y-110327190D02*
X146528571Y-110279571D01*
X146528571Y-110279571D02*
X146552380Y-110184333D01*
X146552380Y-110184333D02*
X146552380Y-110065285D01*
X146552380Y-110065285D02*
X146528571Y-109970047D01*
X146528571Y-109970047D02*
X146504761Y-109922428D01*
X146504761Y-109922428D02*
X146480952Y-109898619D01*
X146480952Y-109898619D02*
X146433333Y-109874809D01*
X145790476Y-110374809D02*
X146076190Y-110374809D01*
X145933333Y-110374809D02*
X145933333Y-109874809D01*
X145933333Y-109874809D02*
X145980952Y-109946238D01*
X145980952Y-109946238D02*
X146028571Y-109993857D01*
X146028571Y-109993857D02*
X146076190Y-110017666D01*
D12*
X126590000Y-119277064D02*
X126590000Y-114922936D01*
X130010000Y-119277064D02*
X130010000Y-114922936D01*
X138154725Y-118477501D02*
X137645277Y-118477501D01*
X138154725Y-119522501D02*
X137645277Y-119522501D01*
D13*
G36*
X136329578Y-124446991D02*
G01*
X136329638Y-124700568D01*
X136329653Y-124982034D01*
X136329641Y-125241810D01*
X136329586Y-125497498D01*
X136329471Y-125726643D01*
X136329276Y-125930716D01*
X136328982Y-126111186D01*
X136328571Y-126269524D01*
X136328024Y-126407199D01*
X136327322Y-126525681D01*
X136326446Y-126626441D01*
X136325377Y-126710949D01*
X136324096Y-126780673D01*
X136322584Y-126837085D01*
X136320823Y-126881655D01*
X136318794Y-126915852D01*
X136316477Y-126941146D01*
X136313854Y-126959007D01*
X136310906Y-126970906D01*
X136307614Y-126978313D01*
X136303960Y-126982696D01*
X136295277Y-126988415D01*
X136262363Y-127008255D01*
X136206885Y-127040923D01*
X136130581Y-127085416D01*
X136035188Y-127140732D01*
X135922444Y-127205869D01*
X135794086Y-127279826D01*
X135651852Y-127361600D01*
X135497479Y-127450189D01*
X135332704Y-127544591D01*
X135159266Y-127643805D01*
X134978902Y-127746829D01*
X134920398Y-127780224D01*
X134729629Y-127889150D01*
X134539526Y-127997743D01*
X134352572Y-128104580D01*
X134171253Y-128208241D01*
X133998052Y-128307303D01*
X133835453Y-128400346D01*
X133685941Y-128485948D01*
X133551999Y-128562688D01*
X133436112Y-128629145D01*
X133340764Y-128683896D01*
X133268440Y-128725522D01*
X133209604Y-128759246D01*
X133113042Y-128813693D01*
X133025761Y-128861790D01*
X132950970Y-128901833D01*
X132891876Y-128932117D01*
X132851686Y-128950939D01*
X132833608Y-128956592D01*
X132833486Y-128956558D01*
X132816380Y-128948015D01*
X132775682Y-128925907D01*
X132713209Y-128891273D01*
X132630779Y-128845149D01*
X132530207Y-128788573D01*
X132413311Y-128722583D01*
X132281908Y-128648217D01*
X132137813Y-128566512D01*
X131982845Y-128478506D01*
X131818819Y-128385236D01*
X131647553Y-128287740D01*
X131470863Y-128187056D01*
X131290566Y-128084220D01*
X131108479Y-127980271D01*
X130926419Y-127876247D01*
X130746202Y-127773184D01*
X130569646Y-127672121D01*
X130398566Y-127574096D01*
X130234781Y-127480144D01*
X130080105Y-127391305D01*
X129936358Y-127308616D01*
X129805354Y-127233115D01*
X129688911Y-127165838D01*
X129588846Y-127107824D01*
X129506976Y-127060110D01*
X129445117Y-127023735D01*
X129405086Y-126999734D01*
X129388700Y-126989147D01*
X129355665Y-126959645D01*
X129355890Y-124976453D01*
X129355923Y-124858271D01*
X129356109Y-124622838D01*
X129356445Y-124396233D01*
X129356923Y-124180168D01*
X129357531Y-123976353D01*
X129358261Y-123786500D01*
X129359102Y-123612320D01*
X129360045Y-123455525D01*
X129361081Y-123317826D01*
X129362198Y-123200935D01*
X129362867Y-123147886D01*
X129575896Y-123147886D01*
X129576113Y-124964562D01*
X129576136Y-125081658D01*
X129576278Y-125351450D01*
X129576550Y-125593681D01*
X129576965Y-125809635D01*
X129577536Y-126000594D01*
X129578275Y-126167843D01*
X129579195Y-126312665D01*
X129580309Y-126436345D01*
X129581629Y-126540166D01*
X129583170Y-126625411D01*
X129584943Y-126693365D01*
X129586961Y-126745312D01*
X129589237Y-126782534D01*
X129591784Y-126806317D01*
X129594615Y-126817943D01*
X129595308Y-126819050D01*
X129608145Y-126830512D01*
X129636376Y-126850385D01*
X129680850Y-126879171D01*
X129742417Y-126917370D01*
X129821925Y-126965482D01*
X129920224Y-127024007D01*
X130038161Y-127093445D01*
X130176587Y-127174298D01*
X130336351Y-127267064D01*
X130518300Y-127372245D01*
X130723285Y-127490340D01*
X130952155Y-127621850D01*
X131205757Y-127767275D01*
X131386587Y-127870756D01*
X131582816Y-127982755D01*
X131770411Y-128089522D01*
X131947845Y-128190198D01*
X132113589Y-128283926D01*
X132266115Y-128369852D01*
X132403894Y-128447116D01*
X132525399Y-128514863D01*
X132629102Y-128572237D01*
X132713473Y-128618379D01*
X132776985Y-128652434D01*
X132818109Y-128673544D01*
X132835318Y-128680853D01*
X132835677Y-128680836D01*
X132854890Y-128672950D01*
X132897501Y-128651446D01*
X132961630Y-128617400D01*
X133045395Y-128571885D01*
X133146918Y-128515977D01*
X133264318Y-128450751D01*
X133395714Y-128377283D01*
X133539228Y-128296648D01*
X133692977Y-128209919D01*
X133855083Y-128118174D01*
X134023665Y-128022486D01*
X134196843Y-127923931D01*
X134372737Y-127823585D01*
X134549466Y-127722521D01*
X134725151Y-127621815D01*
X134897912Y-127522543D01*
X135065867Y-127425779D01*
X135227138Y-127332599D01*
X135379843Y-127244077D01*
X135522103Y-127161289D01*
X135652038Y-127085309D01*
X135767767Y-127017214D01*
X135867410Y-126958078D01*
X135949088Y-126908975D01*
X136010919Y-126870982D01*
X136051024Y-126845174D01*
X136067523Y-126832625D01*
X136069450Y-126829804D01*
X136073212Y-126822495D01*
X136076578Y-126812072D01*
X136079571Y-126796992D01*
X136082214Y-126775709D01*
X136084531Y-126746681D01*
X136086543Y-126708363D01*
X136088274Y-126659211D01*
X136089747Y-126597680D01*
X136090985Y-126522226D01*
X136092011Y-126431306D01*
X136092848Y-126323375D01*
X136093518Y-126196889D01*
X136094046Y-126050303D01*
X136094452Y-125882075D01*
X136094762Y-125690658D01*
X136094997Y-125474511D01*
X136095180Y-125232087D01*
X136095335Y-124961843D01*
X136095395Y-124842599D01*
X136095499Y-124584465D01*
X136095536Y-124353504D01*
X136095485Y-124148182D01*
X136095324Y-123966967D01*
X136095033Y-123808323D01*
X136094591Y-123670718D01*
X136093977Y-123552616D01*
X136093169Y-123452485D01*
X136092146Y-123368791D01*
X136090888Y-123299999D01*
X136089374Y-123244577D01*
X136087582Y-123200989D01*
X136085491Y-123167703D01*
X136083081Y-123143184D01*
X136080330Y-123125898D01*
X136077217Y-123114313D01*
X136073722Y-123106893D01*
X136069822Y-123102105D01*
X136066418Y-123099689D01*
X136041024Y-123084069D01*
X135992812Y-123055431D01*
X135923674Y-123014862D01*
X135835498Y-122963447D01*
X135730178Y-122902272D01*
X135609602Y-122832422D01*
X135475663Y-122754984D01*
X135330250Y-122671043D01*
X135175255Y-122581684D01*
X135012568Y-122487993D01*
X134844081Y-122391057D01*
X134671683Y-122291959D01*
X134497265Y-122191787D01*
X134322719Y-122091626D01*
X134149936Y-121992560D01*
X133980805Y-121895677D01*
X133817217Y-121802062D01*
X133661064Y-121712800D01*
X133514237Y-121628977D01*
X133378625Y-121551679D01*
X133256120Y-121481991D01*
X133148612Y-121420999D01*
X133057993Y-121369788D01*
X132986153Y-121329445D01*
X132934982Y-121301055D01*
X132906372Y-121285703D01*
X132895390Y-121280207D01*
X132855756Y-121263342D01*
X132828563Y-121260139D01*
X132803598Y-121268930D01*
X132763000Y-121290789D01*
X132700398Y-121325429D01*
X132618082Y-121371552D01*
X132517935Y-121428073D01*
X132401841Y-121493907D01*
X132271683Y-121567968D01*
X132129346Y-121649171D01*
X131976713Y-121736431D01*
X131815667Y-121828662D01*
X131648094Y-121924778D01*
X131475876Y-122023695D01*
X131300897Y-122124327D01*
X131125042Y-122225588D01*
X130950194Y-122326393D01*
X130778237Y-122425657D01*
X130611054Y-122522294D01*
X130450530Y-122615219D01*
X130298548Y-122703346D01*
X130156992Y-122785591D01*
X130027746Y-122860866D01*
X129912694Y-122928088D01*
X129813719Y-122986171D01*
X129732706Y-123034029D01*
X129671538Y-123070577D01*
X129632098Y-123094730D01*
X129616272Y-123105401D01*
X129575896Y-123147886D01*
X129362867Y-123147886D01*
X129363388Y-123106562D01*
X129364641Y-123036420D01*
X129365947Y-122992219D01*
X129367296Y-122975671D01*
X129368320Y-122974753D01*
X129387911Y-122962185D01*
X129430812Y-122936380D01*
X129495222Y-122898371D01*
X129579340Y-122849187D01*
X129681364Y-122789858D01*
X129799495Y-122721416D01*
X129931930Y-122644890D01*
X130076870Y-122561312D01*
X130232512Y-122471711D01*
X130397057Y-122377118D01*
X130568702Y-122278564D01*
X130745648Y-122177079D01*
X130926092Y-122073694D01*
X131108235Y-121969438D01*
X131290275Y-121865343D01*
X131470410Y-121762439D01*
X131646841Y-121661756D01*
X131817766Y-121564325D01*
X131981385Y-121471176D01*
X132135895Y-121383340D01*
X132279496Y-121301848D01*
X132410388Y-121227729D01*
X132526769Y-121162014D01*
X132626838Y-121105734D01*
X132708794Y-121059919D01*
X132770837Y-121025600D01*
X132811165Y-121003807D01*
X132827977Y-120995571D01*
X132828998Y-120995642D01*
X132849260Y-121004408D01*
X132892835Y-121026645D01*
X132957920Y-121061327D01*
X133042713Y-121107428D01*
X133145411Y-121163923D01*
X133264212Y-121229787D01*
X133397314Y-121303994D01*
X133542914Y-121385518D01*
X133699210Y-121473334D01*
X133864399Y-121566416D01*
X134036680Y-121663739D01*
X134214250Y-121764278D01*
X134395307Y-121867007D01*
X134578048Y-121970900D01*
X134760671Y-122074931D01*
X134941373Y-122178076D01*
X135118353Y-122279309D01*
X135289807Y-122377604D01*
X135453935Y-122471936D01*
X135608932Y-122561280D01*
X135752997Y-122644609D01*
X135884328Y-122720898D01*
X136001122Y-122789122D01*
X136101577Y-122848255D01*
X136183891Y-122897272D01*
X136246261Y-122935147D01*
X136286885Y-122960855D01*
X136303960Y-122973370D01*
X136307210Y-122978152D01*
X136310543Y-122986252D01*
X136313531Y-122998624D01*
X136316191Y-123016744D01*
X136318543Y-123042089D01*
X136320605Y-123076134D01*
X136322397Y-123120356D01*
X136323937Y-123176230D01*
X136325244Y-123245232D01*
X136326336Y-123328839D01*
X136327234Y-123428526D01*
X136327955Y-123545770D01*
X136328519Y-123682046D01*
X136328944Y-123838830D01*
X136329250Y-124017598D01*
X136329455Y-124219827D01*
X136329527Y-124353504D01*
X136329578Y-124446991D01*
G37*
G36*
X135156506Y-124385396D02*
G01*
X135156372Y-124436545D01*
X135155877Y-124625537D01*
X135155087Y-124873226D01*
X135154514Y-125037006D01*
X135153522Y-125312991D01*
X135152573Y-125561833D01*
X135151647Y-125784965D01*
X135150720Y-125983820D01*
X135149771Y-126159831D01*
X135148777Y-126314430D01*
X135147716Y-126449052D01*
X135146566Y-126565129D01*
X135145305Y-126664094D01*
X135143910Y-126747380D01*
X135142360Y-126816421D01*
X135140631Y-126872649D01*
X135138702Y-126917498D01*
X135136551Y-126952400D01*
X135134155Y-126978789D01*
X135131492Y-126998097D01*
X135128541Y-127011758D01*
X135125278Y-127021206D01*
X135121681Y-127027871D01*
X135113860Y-127039176D01*
X135102535Y-127052663D01*
X135086916Y-127067176D01*
X135064356Y-127084416D01*
X135032208Y-127106079D01*
X134987827Y-127133866D01*
X134928565Y-127169475D01*
X134851775Y-127214605D01*
X134754811Y-127270953D01*
X134635026Y-127340220D01*
X134594900Y-127363359D01*
X134497760Y-127418838D01*
X134421296Y-127461379D01*
X134362196Y-127492599D01*
X134317148Y-127514118D01*
X134282841Y-127527554D01*
X134255963Y-127534527D01*
X134233201Y-127536655D01*
X134222446Y-127536524D01*
X134144010Y-127520636D01*
X134074521Y-127481644D01*
X134022376Y-127424035D01*
X133987862Y-127368521D01*
X133983709Y-126572018D01*
X133983227Y-126487432D01*
X133982201Y-126342371D01*
X133981001Y-126207993D01*
X133979664Y-126086967D01*
X133978230Y-125981961D01*
X133976736Y-125895644D01*
X133975220Y-125830685D01*
X133973721Y-125789752D01*
X133972278Y-125775515D01*
X133972006Y-125775568D01*
X133955770Y-125783822D01*
X133917848Y-125804783D01*
X133861616Y-125836500D01*
X133790452Y-125877022D01*
X133707731Y-125924397D01*
X133616829Y-125976675D01*
X133521123Y-126031905D01*
X133423988Y-126088135D01*
X133328801Y-126143414D01*
X133238939Y-126195791D01*
X133175301Y-126233054D01*
X133157776Y-126243316D01*
X133088690Y-126284036D01*
X133035056Y-126316000D01*
X133000251Y-126337259D01*
X132989282Y-126344048D01*
X132920335Y-126379607D01*
X132861681Y-126393423D01*
X132805758Y-126386121D01*
X132745004Y-126358325D01*
X132725415Y-126347347D01*
X132680058Y-126322604D01*
X132616950Y-126288609D01*
X132539449Y-126247135D01*
X132450914Y-126199957D01*
X132354703Y-126148849D01*
X132254176Y-126095588D01*
X132152690Y-126041946D01*
X132053605Y-125989698D01*
X131960279Y-125940620D01*
X131876070Y-125896486D01*
X131804338Y-125859070D01*
X131748439Y-125830147D01*
X131711734Y-125811492D01*
X131697581Y-125804879D01*
X131696908Y-125808046D01*
X131695527Y-125835090D01*
X131694246Y-125887538D01*
X131693092Y-125962695D01*
X131692089Y-126057863D01*
X131691265Y-126170344D01*
X131690644Y-126297443D01*
X131690252Y-126436460D01*
X131690116Y-126584701D01*
X131690113Y-126657917D01*
X131690053Y-126817862D01*
X131689842Y-126951955D01*
X131689388Y-127062691D01*
X131688598Y-127152563D01*
X131687378Y-127224068D01*
X131685637Y-127279699D01*
X131683280Y-127321952D01*
X131680215Y-127353320D01*
X131676350Y-127376300D01*
X131671591Y-127393384D01*
X131665846Y-127407069D01*
X131659021Y-127419849D01*
X131635287Y-127454305D01*
X131576658Y-127503784D01*
X131505118Y-127530577D01*
X131426112Y-127533123D01*
X131345087Y-127509861D01*
X131324854Y-127499728D01*
X131278596Y-127474790D01*
X131215131Y-127439508D01*
X131139112Y-127396564D01*
X131055188Y-127348641D01*
X130968011Y-127298421D01*
X130882232Y-127248587D01*
X130802503Y-127201821D01*
X130733473Y-127160805D01*
X130679795Y-127128221D01*
X130646119Y-127106753D01*
X130632443Y-127096184D01*
X130592669Y-127053878D01*
X130561697Y-127005810D01*
X130530231Y-126940810D01*
X130530231Y-125318294D01*
X130530231Y-125028847D01*
X131719958Y-125028847D01*
X131719990Y-125143512D01*
X131720394Y-125255813D01*
X131721173Y-125361938D01*
X131722327Y-125458075D01*
X131723858Y-125540412D01*
X131725765Y-125605137D01*
X131728051Y-125648440D01*
X131730716Y-125666507D01*
X131744755Y-125676120D01*
X131782044Y-125697856D01*
X131839513Y-125729944D01*
X131914169Y-125770749D01*
X132003018Y-125818635D01*
X132103069Y-125871968D01*
X132211330Y-125929113D01*
X132311107Y-125981607D01*
X132415493Y-126036700D01*
X132510379Y-126086958D01*
X132592463Y-126130623D01*
X132658442Y-126165939D01*
X132705013Y-126191147D01*
X132728873Y-126204492D01*
X132776590Y-126233054D01*
X132776590Y-125675773D01*
X132776588Y-125663148D01*
X132776327Y-125536981D01*
X132775668Y-125419047D01*
X132774658Y-125312868D01*
X132773349Y-125221965D01*
X132771789Y-125149861D01*
X132770029Y-125100078D01*
X132768119Y-125076136D01*
X132765370Y-125067166D01*
X132757673Y-125054723D01*
X132749044Y-125046044D01*
X132894046Y-125046044D01*
X132894046Y-125261577D01*
X132894152Y-125297441D01*
X132894951Y-125387406D01*
X132896432Y-125495508D01*
X132898472Y-125614272D01*
X132900950Y-125736222D01*
X132903742Y-125853885D01*
X132906332Y-125944595D01*
X132909562Y-126037151D01*
X132912942Y-126115818D01*
X132916283Y-126176729D01*
X132919397Y-126216017D01*
X132922094Y-126229815D01*
X132924336Y-126228843D01*
X132946809Y-126216708D01*
X132990961Y-126191935D01*
X133054050Y-126156089D01*
X133133336Y-126110737D01*
X133226076Y-126057447D01*
X133329529Y-125997784D01*
X133440954Y-125933315D01*
X133951156Y-125637659D01*
X133951156Y-125037102D01*
X133951156Y-124436545D01*
X133903440Y-124464429D01*
X133902684Y-124464870D01*
X133877836Y-124479270D01*
X133830886Y-124506388D01*
X133764987Y-124544408D01*
X133683287Y-124591513D01*
X133588937Y-124645887D01*
X133485086Y-124705715D01*
X133374885Y-124769179D01*
X132894046Y-125046044D01*
X132749044Y-125046044D01*
X132743144Y-125040109D01*
X132719413Y-125021840D01*
X132684112Y-124998432D01*
X132634870Y-124968401D01*
X132569317Y-124930263D01*
X132485085Y-124882536D01*
X132379802Y-124823733D01*
X132251101Y-124752372D01*
X132216736Y-124733387D01*
X132106944Y-124673155D01*
X132005943Y-124618376D01*
X131916538Y-124570532D01*
X131841538Y-124531102D01*
X131783746Y-124501566D01*
X131745971Y-124483403D01*
X131731017Y-124478094D01*
X131730113Y-124480177D01*
X131727558Y-124504663D01*
X131725369Y-124553467D01*
X131723548Y-124622778D01*
X131722095Y-124708783D01*
X131721012Y-124807671D01*
X131720299Y-124915629D01*
X131719958Y-125028847D01*
X130530231Y-125028847D01*
X130530231Y-124360265D01*
X131811814Y-124360265D01*
X131813023Y-124361207D01*
X131833982Y-124374181D01*
X131877234Y-124399328D01*
X131939871Y-124435007D01*
X132018984Y-124479578D01*
X132111662Y-124531400D01*
X132214996Y-124588833D01*
X132326078Y-124650236D01*
X132348608Y-124662647D01*
X132458192Y-124722710D01*
X132559467Y-124777731D01*
X132649538Y-124826174D01*
X132725515Y-124866500D01*
X132784505Y-124897172D01*
X132823614Y-124916653D01*
X132839951Y-124923404D01*
X132840148Y-124923385D01*
X132857436Y-124915535D01*
X132897034Y-124894599D01*
X132956013Y-124862214D01*
X133031446Y-124820017D01*
X133120401Y-124769648D01*
X133219952Y-124712743D01*
X133327168Y-124650942D01*
X133328003Y-124650458D01*
X133436160Y-124587897D01*
X133537386Y-124529411D01*
X133628600Y-124476774D01*
X133706724Y-124431761D01*
X133768679Y-124396145D01*
X133811384Y-124371701D01*
X133831761Y-124360204D01*
X133833305Y-124359342D01*
X133840201Y-124353752D01*
X133841207Y-124346539D01*
X133834152Y-124336252D01*
X133816864Y-124321440D01*
X133787171Y-124300656D01*
X133742901Y-124272449D01*
X133681883Y-124235368D01*
X133601944Y-124187966D01*
X133500912Y-124128791D01*
X133376616Y-124056394D01*
X133278013Y-123999275D01*
X133151743Y-123927086D01*
X133048460Y-123869402D01*
X132967008Y-123825607D01*
X132906233Y-123795088D01*
X132864982Y-123777228D01*
X132842100Y-123771411D01*
X132836458Y-123772233D01*
X132805257Y-123783630D01*
X132754772Y-123806990D01*
X132688231Y-123840470D01*
X132608859Y-123882225D01*
X132519884Y-123930412D01*
X132424532Y-123983185D01*
X132326030Y-124038701D01*
X132227605Y-124095116D01*
X132132483Y-124150585D01*
X132043891Y-124203264D01*
X131965056Y-124251309D01*
X131899204Y-124292876D01*
X131849561Y-124326120D01*
X131819356Y-124349198D01*
X131811814Y-124360265D01*
X130530231Y-124360265D01*
X130530231Y-123695778D01*
X130563266Y-123665822D01*
X130579078Y-123654743D01*
X130618632Y-123629894D01*
X130678617Y-123593488D01*
X130756344Y-123547117D01*
X130849127Y-123492375D01*
X130954277Y-123430854D01*
X131069105Y-123364149D01*
X131190925Y-123293851D01*
X131226104Y-123273611D01*
X131371406Y-123189908D01*
X131525371Y-123101070D01*
X131682308Y-123010387D01*
X131836530Y-122921150D01*
X131982347Y-122836651D01*
X132114070Y-122760181D01*
X132226012Y-122695030D01*
X132307137Y-122647871D01*
X132408247Y-122589495D01*
X132500698Y-122536559D01*
X132581158Y-122490950D01*
X132646294Y-122454555D01*
X132692775Y-122429258D01*
X132717269Y-122416947D01*
X132718644Y-122416381D01*
X132780674Y-122402451D01*
X132864089Y-122401287D01*
X132881074Y-122402386D01*
X132904398Y-122404870D01*
X132927848Y-122409613D01*
X132954229Y-122418009D01*
X132986340Y-122431457D01*
X133026986Y-122451352D01*
X133078967Y-122479091D01*
X133145086Y-122516069D01*
X133228145Y-122563685D01*
X133330946Y-122623334D01*
X133456292Y-122696412D01*
X133518164Y-122732397D01*
X133647979Y-122807009D01*
X133759158Y-122869589D01*
X133850435Y-122919451D01*
X133920543Y-122955911D01*
X133968216Y-122978285D01*
X133992188Y-122985889D01*
X133998586Y-122984910D01*
X134032547Y-122972042D01*
X134088224Y-122945208D01*
X134163286Y-122905621D01*
X134255406Y-122854495D01*
X134362255Y-122793042D01*
X134454698Y-122739193D01*
X134569535Y-122672995D01*
X134663930Y-122620071D01*
X134740710Y-122579375D01*
X134802706Y-122549863D01*
X134852746Y-122530490D01*
X134893661Y-122520210D01*
X134928279Y-122517979D01*
X134959430Y-122522752D01*
X134989943Y-122533483D01*
X135022648Y-122549128D01*
X135075067Y-122582108D01*
X135125640Y-122637977D01*
X135152391Y-122708096D01*
X135153417Y-122725407D01*
X135154417Y-122770971D01*
X135155280Y-122842673D01*
X135156003Y-122938825D01*
X135156585Y-123057735D01*
X135157022Y-123197715D01*
X135157313Y-123357073D01*
X135157457Y-123534120D01*
X135157449Y-123727166D01*
X135157290Y-123934521D01*
X135156976Y-124154494D01*
X135156585Y-124346539D01*
X135156506Y-124385396D01*
G37*
D12*
X138154725Y-120277501D02*
X137645277Y-120277501D01*
X138154725Y-121322501D02*
X137645277Y-121322501D01*
X145800000Y-111700000D02*
X145800000Y-114500000D01*
X146500000Y-115150000D02*
X147100000Y-115150000D01*
X147100000Y-111050000D02*
X146500000Y-111050000D01*
X147800000Y-114500000D02*
X147800000Y-111700000D01*
X148000000Y-111900000D02*
X148300000Y-111600000D01*
X148000000Y-111900000D02*
X148300000Y-112200000D01*
X148300000Y-111600000D02*
X148300000Y-112200000D01*
X145800000Y-111750000D02*
G75*
G02*
X146500000Y-111050000I699999J1D01*
G01*
X146500000Y-115150000D02*
G75*
G02*
X145800000Y-114450000I0J700000D01*
G01*
X147100000Y-111050000D02*
G75*
G02*
X147800000Y-111750000I1J-699999D01*
G01*
X147800000Y-114450000D02*
G75*
G02*
X147100000Y-115150000I-700000J0D01*
G01*
%LPC*%
D14*
X142650000Y-128450000D03*
D15*
X123000000Y-117625000D03*
D16*
X123000000Y-115085000D03*
X123000000Y-112545000D03*
D14*
X122950000Y-108900000D03*
D15*
X123100000Y-123175000D03*
D16*
X125640000Y-123175000D03*
X123100000Y-125715000D03*
X125640000Y-125715000D03*
X123100000Y-128255000D03*
X125640000Y-128255000D03*
X152765000Y-125140000D03*
X150225000Y-125140000D03*
X152765000Y-122600000D03*
X150225000Y-122600000D03*
X152765000Y-120060000D03*
X150225000Y-120060000D03*
X152765000Y-117520000D03*
X150225000Y-117520000D03*
X152765000Y-114980000D03*
X150225000Y-114980000D03*
X152765000Y-112440000D03*
X150225000Y-112440000D03*
X152765000Y-109900000D03*
D15*
X150225000Y-109900000D03*
D17*
X136849998Y-112774999D03*
X136849998Y-113774999D03*
X136849998Y-114775000D03*
X136849998Y-115775001D03*
X136849998Y-116775001D03*
X137849999Y-112774999D03*
X137849999Y-113774999D03*
X137849999Y-114775000D03*
X137849999Y-115775001D03*
X137849999Y-116775001D03*
X138850000Y-112774999D03*
X138850000Y-113774999D03*
X138850000Y-114775000D03*
X138850000Y-115775001D03*
X138850000Y-116775001D03*
D15*
X144025000Y-123800000D03*
D16*
X141485000Y-123800000D03*
D18*
X128300000Y-120062500D03*
X128300000Y-114137500D03*
D19*
X138812501Y-119000001D03*
X136987501Y-119000001D03*
X138812501Y-120800001D03*
X136987501Y-120800001D03*
D20*
X146800000Y-111800000D03*
D21*
X146800000Y-113100000D03*
D22*
X146800000Y-114400000D03*
%LPD*%
M02*
