G04 #@! TF.GenerationSoftware,KiCad,Pcbnew,8.0.2*
G04 #@! TF.CreationDate,2024-08-30T20:49:53-03:00*
G04 #@! TF.ProjectId,ESC_driver,4553435f-6472-4697-9665-722e6b696361,rev?*
G04 #@! TF.SameCoordinates,Original*
G04 #@! TF.FileFunction,Paste,Top*
G04 #@! TF.FilePolarity,Positive*
%FSLAX46Y46*%
G04 Gerber Fmt 4.6, Leading zero omitted, Abs format (unit mm)*
G04 Created by KiCad (PCBNEW 8.0.2) date 2024-08-30 20:49:53*
%MOMM*%
%LPD*%
G01*
G04 APERTURE LIST*
G04 Aperture macros list*
%AMRoundRect*
0 Rectangle with rounded corners*
0 $1 Rounding radius*
0 $2 $3 $4 $5 $6 $7 $8 $9 X,Y pos of 4 corners*
0 Add a 4 corners polygon primitive as box body*
4,1,4,$2,$3,$4,$5,$6,$7,$8,$9,$2,$3,0*
0 Add four circle primitives for the rounded corners*
1,1,$1+$1,$2,$3*
1,1,$1+$1,$4,$5*
1,1,$1+$1,$6,$7*
1,1,$1+$1,$8,$9*
0 Add four rect primitives between the rounded corners*
20,1,$1+$1,$2,$3,$4,$5,0*
20,1,$1+$1,$4,$5,$6,$7,0*
20,1,$1+$1,$6,$7,$8,$9,0*
20,1,$1+$1,$8,$9,$2,$3,0*%
G04 Aperture macros list end*
%ADD10RoundRect,0.237500X0.250000X0.237500X-0.250000X0.237500X-0.250000X-0.237500X0.250000X-0.237500X0*%
%ADD11RoundRect,0.237500X-0.250000X-0.237500X0.250000X-0.237500X0.250000X0.237500X-0.250000X0.237500X0*%
%ADD12RoundRect,0.237500X0.237500X-0.250000X0.237500X0.250000X-0.237500X0.250000X-0.237500X-0.250000X0*%
%ADD13RoundRect,0.237500X-0.237500X0.250000X-0.237500X-0.250000X0.237500X-0.250000X0.237500X0.250000X0*%
%ADD14RoundRect,0.250000X0.550000X-1.412500X0.550000X1.412500X-0.550000X1.412500X-0.550000X-1.412500X0*%
%ADD15R,1.400000X0.449999*%
%ADD16R,3.099999X5.180000*%
G04 APERTURE END LIST*
D10*
X133025000Y-109800000D03*
X131200000Y-109800000D03*
D11*
X134787501Y-108400001D03*
X136612501Y-108400001D03*
D12*
X133200000Y-119275000D03*
X133200000Y-117450000D03*
D11*
X131187500Y-111500000D03*
X133012500Y-111500000D03*
D10*
X138812501Y-122600001D03*
X136987501Y-122600001D03*
D11*
X144137500Y-119600000D03*
X145962500Y-119600000D03*
D13*
X146975000Y-123212500D03*
X146975000Y-125037500D03*
D10*
X145662500Y-115900000D03*
X143837500Y-115900000D03*
X145712500Y-117550000D03*
X143887500Y-117550000D03*
D11*
X136462500Y-126900000D03*
X138287500Y-126900000D03*
X136987501Y-120849999D03*
X138812501Y-120849999D03*
D14*
X131650000Y-127487500D03*
X131650000Y-122412500D03*
D11*
X136462500Y-124850000D03*
X138287500Y-124850000D03*
D15*
X134900000Y-110550000D03*
X134900000Y-111200001D03*
X134900000Y-111850000D03*
X134900000Y-112500001D03*
X134900000Y-113149999D03*
X134900000Y-113800001D03*
X134900000Y-114449999D03*
X134900000Y-115100001D03*
X134900000Y-115749999D03*
X134900000Y-116400001D03*
X134900000Y-117049999D03*
X134900000Y-117700000D03*
X134900000Y-118349999D03*
X134900000Y-119000000D03*
X140800001Y-119000000D03*
X140800001Y-118349999D03*
X140800001Y-117700000D03*
X140800001Y-117049999D03*
X140800001Y-116400001D03*
X140800001Y-115749999D03*
X140800001Y-115100001D03*
X140800001Y-114449999D03*
X140800001Y-113800001D03*
X140800001Y-113149999D03*
X140800001Y-112500001D03*
X140800001Y-111850000D03*
X140800001Y-111200001D03*
X140800001Y-110550000D03*
D16*
X137849999Y-114775000D03*
M02*
