%TF.GenerationSoftware,KiCad,Pcbnew,7.0.6*%
%TF.CreationDate,2023-08-12T00:55:46-03:00*%
%TF.ProjectId,ESC_driver,4553435f-6472-4697-9665-722e6b696361,rev?*%
%TF.SameCoordinates,Original*%
%TF.FileFunction,Drillmap*%
%TF.FilePolarity,Positive*%
%FSLAX45Y45*%
G04 Gerber Fmt 4.5, Leading zero omitted, Abs format (unit mm)*
G04 Created by KiCad (PCBNEW 7.0.6) date 2023-08-12 00:55:46*
%MOMM*%
%LPD*%
G01*
G04 APERTURE LIST*
%ADD10C,0.100000*%
%ADD11C,0.200000*%
%ADD12C,0.020320*%
%ADD13C,0.040000*%
G04 APERTURE END LIST*
D10*
X11990314Y-12924376D02*
G75*
G03*
X12245312Y-13179376I254996J-4D01*
G01*
X12245000Y-10670000D02*
X15240000Y-10670000D01*
X15495000Y-10925000D02*
G75*
G03*
X15240000Y-10670000I-255000J0D01*
G01*
X15240000Y-13179690D02*
G75*
G03*
X15495000Y-12924688I0J255000D01*
G01*
X12245000Y-10670000D02*
G75*
G03*
X11990000Y-10925000I0J-255000D01*
G01*
X15240000Y-13179688D02*
X12245312Y-13179376D01*
X15495000Y-10925000D02*
X15495000Y-12924688D01*
X11990312Y-12924376D02*
X11990000Y-10925000D01*
D11*
D12*
X13654840Y-11337340D02*
X13675160Y-11357660D01*
X13675160Y-11337340D02*
X13654840Y-11357660D01*
X13654840Y-11437340D02*
X13675160Y-11457660D01*
X13675160Y-11437340D02*
X13654840Y-11457660D01*
X13654840Y-11537340D02*
X13675160Y-11557660D01*
X13675160Y-11537340D02*
X13654840Y-11557660D01*
X13654840Y-11637340D02*
X13675160Y-11657660D01*
X13675160Y-11637340D02*
X13654840Y-11657660D01*
X13654840Y-11737340D02*
X13675160Y-11757660D01*
X13675160Y-11737340D02*
X13654840Y-11757660D01*
X13754840Y-11337340D02*
X13775160Y-11357660D01*
X13775160Y-11337340D02*
X13754840Y-11357660D01*
X13754840Y-11437340D02*
X13775160Y-11457660D01*
X13775160Y-11437340D02*
X13754840Y-11457660D01*
X13754840Y-11537340D02*
X13775160Y-11557660D01*
X13775160Y-11537340D02*
X13754840Y-11557660D01*
X13754840Y-11637340D02*
X13775160Y-11657660D01*
X13775160Y-11637340D02*
X13754840Y-11657660D01*
X13754840Y-11737340D02*
X13775160Y-11757660D01*
X13775160Y-11737340D02*
X13754840Y-11757660D01*
X13854840Y-11337340D02*
X13875160Y-11357660D01*
X13875160Y-11337340D02*
X13854840Y-11357660D01*
X13854840Y-11437340D02*
X13875160Y-11457660D01*
X13875160Y-11437340D02*
X13854840Y-11457660D01*
X13854840Y-11537340D02*
X13875160Y-11557660D01*
X13875160Y-11537340D02*
X13854840Y-11557660D01*
X13854840Y-11637340D02*
X13875160Y-11657660D01*
X13875160Y-11637340D02*
X13854840Y-11657660D01*
X13854840Y-11737340D02*
X13875160Y-11757660D01*
X13875160Y-11737340D02*
X13854840Y-11757660D01*
D13*
X12182500Y-12072500D02*
G75*
G03*
X12182500Y-12072500I-20000J0D01*
G01*
X12182500Y-12165000D02*
G75*
G03*
X12182500Y-12165000I-20000J0D01*
G01*
X12275000Y-12067500D02*
G75*
G03*
X12275000Y-12067500I-20000J0D01*
G01*
X12280000Y-12167500D02*
G75*
G03*
X12280000Y-12167500I-20000J0D01*
G01*
X12367500Y-12067500D02*
G75*
G03*
X12367500Y-12067500I-20000J0D01*
G01*
X12370000Y-12167500D02*
G75*
G03*
X12370000Y-12167500I-20000J0D01*
G01*
X12570000Y-11400000D02*
G75*
G03*
X12570000Y-11400000I-20000J0D01*
G01*
X12570000Y-11490000D02*
G75*
G03*
X12570000Y-11490000I-20000J0D01*
G01*
X12610000Y-11790000D02*
G75*
G03*
X12610000Y-11790000I-20000J0D01*
G01*
X12650000Y-11360000D02*
G75*
G03*
X12650000Y-11360000I-20000J0D01*
G01*
X12685000Y-10945000D02*
G75*
G03*
X12685000Y-10945000I-20000J0D01*
G01*
X12690000Y-11750000D02*
G75*
G03*
X12690000Y-11750000I-20000J0D01*
G01*
X12740000Y-11360000D02*
G75*
G03*
X12740000Y-11360000I-20000J0D01*
G01*
X12780000Y-11727450D02*
G75*
G03*
X12780000Y-11727450I-20000J0D01*
G01*
X12790000Y-12820000D02*
G75*
G03*
X12790000Y-12820000I-20000J0D01*
G01*
X12815000Y-10945000D02*
G75*
G03*
X12815000Y-10945000I-20000J0D01*
G01*
X12830000Y-11360000D02*
G75*
G03*
X12830000Y-11360000I-20000J0D01*
G01*
X12910000Y-12950000D02*
G75*
G03*
X12910000Y-12950000I-20000J0D01*
G01*
X12977500Y-10925000D02*
G75*
G03*
X12977500Y-10925000I-20000J0D01*
G01*
X12977500Y-11015000D02*
G75*
G03*
X12977500Y-11015000I-20000J0D01*
G01*
X12977500Y-11105000D02*
G75*
G03*
X12977500Y-11105000I-20000J0D01*
G01*
X12977500Y-11195000D02*
G75*
G03*
X12977500Y-11195000I-20000J0D01*
G01*
X12997500Y-11805000D02*
G75*
G03*
X12997500Y-11805000I-20000J0D01*
G01*
X12997500Y-11895000D02*
G75*
G03*
X12997500Y-11895000I-20000J0D01*
G01*
X13020000Y-12970000D02*
G75*
G03*
X13020000Y-12970000I-20000J0D01*
G01*
X13087500Y-11805000D02*
G75*
G03*
X13087500Y-11805000I-20000J0D01*
G01*
X13087500Y-11895000D02*
G75*
G03*
X13087500Y-11895000I-20000J0D01*
G01*
X13107500Y-10925000D02*
G75*
G03*
X13107500Y-10925000I-20000J0D01*
G01*
X13177500Y-11805000D02*
G75*
G03*
X13177500Y-11805000I-20000J0D01*
G01*
X13177500Y-11895000D02*
G75*
G03*
X13177500Y-11895000I-20000J0D01*
G01*
X13297500Y-10840000D02*
G75*
G03*
X13297500Y-10840000I-20000J0D01*
G01*
X13297500Y-10930000D02*
G75*
G03*
X13297500Y-10930000I-20000J0D01*
G01*
X13360000Y-12830000D02*
G75*
G03*
X13360000Y-12830000I-20000J0D01*
G01*
X13390000Y-13030000D02*
G75*
G03*
X13390000Y-13030000I-20000J0D01*
G01*
X13480000Y-12990000D02*
G75*
G03*
X13480000Y-12990000I-20000J0D01*
G01*
X13560000Y-12945000D02*
G75*
G03*
X13560000Y-12945000I-20000J0D01*
G01*
X13590000Y-12240000D02*
G75*
G03*
X13590000Y-12240000I-20000J0D01*
G01*
X13770000Y-12440000D02*
G75*
G03*
X13770000Y-12440000I-20000J0D01*
G01*
X13895000Y-12905000D02*
G75*
G03*
X13895000Y-12905000I-20000J0D01*
G01*
X14010000Y-12230000D02*
G75*
G03*
X14010000Y-12230000I-20000J0D01*
G01*
X14170000Y-12302450D02*
G75*
G03*
X14170000Y-12302450I-20000J0D01*
G01*
X14235000Y-10950000D02*
G75*
G03*
X14235000Y-10950000I-20000J0D01*
G01*
X14240000Y-11620000D02*
G75*
G03*
X14240000Y-11620000I-20000J0D01*
G01*
X14248946Y-11979640D02*
G75*
G03*
X14248946Y-11979640I-20000J0D01*
G01*
X14259812Y-11880282D02*
G75*
G03*
X14259812Y-11880282I-20000J0D01*
G01*
X14367500Y-10950000D02*
G75*
G03*
X14367500Y-10950000I-20000J0D01*
G01*
X14500000Y-10950000D02*
G75*
G03*
X14500000Y-10950000I-20000J0D01*
G01*
X14632500Y-10950000D02*
G75*
G03*
X14632500Y-10950000I-20000J0D01*
G01*
X14720000Y-12020000D02*
G75*
G03*
X14720000Y-12020000I-20000J0D01*
G01*
X14900000Y-13020000D02*
G75*
G03*
X14900000Y-13020000I-20000J0D01*
G01*
X15032500Y-13020000D02*
G75*
G03*
X15032500Y-13020000I-20000J0D01*
G01*
X15165000Y-13020000D02*
G75*
G03*
X15165000Y-13020000I-20000J0D01*
G01*
X15297500Y-13020000D02*
G75*
G03*
X15297500Y-13020000I-20000J0D01*
G01*
D10*
X12280000Y-11274500D02*
X12280000Y-11374500D01*
X12230000Y-11324500D02*
X12330000Y-11324500D01*
X12280000Y-11528500D02*
X12280000Y-11628500D01*
X12230000Y-11578500D02*
X12330000Y-11578500D01*
X12280000Y-11782500D02*
X12280000Y-11882500D01*
X12230000Y-11832500D02*
X12330000Y-11832500D01*
X12290000Y-12337500D02*
X12290000Y-12437500D01*
X12240000Y-12387500D02*
X12340000Y-12387500D01*
X12290000Y-12591500D02*
X12290000Y-12691500D01*
X12240000Y-12641500D02*
X12340000Y-12641500D01*
X12290000Y-12845500D02*
X12290000Y-12945500D01*
X12240000Y-12895500D02*
X12340000Y-12895500D01*
X12544000Y-12337500D02*
X12544000Y-12437500D01*
X12494000Y-12387500D02*
X12594000Y-12387500D01*
X12544000Y-12591500D02*
X12544000Y-12691500D01*
X12494000Y-12641500D02*
X12594000Y-12641500D01*
X12544000Y-12845500D02*
X12544000Y-12945500D01*
X12494000Y-12895500D02*
X12594000Y-12895500D01*
X14128500Y-12400000D02*
X14128500Y-12500000D01*
X14078500Y-12450000D02*
X14178500Y-12450000D01*
X14382500Y-12400000D02*
X14382500Y-12500000D01*
X14332500Y-12450000D02*
X14432500Y-12450000D01*
X15002500Y-11010000D02*
X15002500Y-11110000D01*
X14952500Y-11060000D02*
X15052500Y-11060000D01*
X15002500Y-11264000D02*
X15002500Y-11364000D01*
X14952500Y-11314000D02*
X15052500Y-11314000D01*
X15002500Y-11518000D02*
X15002500Y-11618000D01*
X14952500Y-11568000D02*
X15052500Y-11568000D01*
X15002500Y-11772000D02*
X15002500Y-11872000D01*
X14952500Y-11822000D02*
X15052500Y-11822000D01*
X15002500Y-12026000D02*
X15002500Y-12126000D01*
X14952500Y-12076000D02*
X15052500Y-12076000D01*
X15002500Y-12280000D02*
X15002500Y-12380000D01*
X14952500Y-12330000D02*
X15052500Y-12330000D01*
X15002500Y-12534000D02*
X15002500Y-12634000D01*
X14952500Y-12584000D02*
X15052500Y-12584000D01*
X15256500Y-11010000D02*
X15256500Y-11110000D01*
X15206500Y-11060000D02*
X15306500Y-11060000D01*
X15256500Y-11264000D02*
X15256500Y-11364000D01*
X15206500Y-11314000D02*
X15306500Y-11314000D01*
X15256500Y-11518000D02*
X15256500Y-11618000D01*
X15206500Y-11568000D02*
X15306500Y-11568000D01*
X15256500Y-11772000D02*
X15256500Y-11872000D01*
X15206500Y-11822000D02*
X15306500Y-11822000D01*
X15256500Y-12026000D02*
X15256500Y-12126000D01*
X15206500Y-12076000D02*
X15306500Y-12076000D01*
X15256500Y-12280000D02*
X15256500Y-12380000D01*
X15206500Y-12330000D02*
X15306500Y-12330000D01*
X15256500Y-12534000D02*
X15256500Y-12634000D01*
X15206500Y-12584000D02*
X15306500Y-12584000D01*
D11*
X12245777Y-13496174D02*
X12245777Y-13296174D01*
X12245777Y-13296174D02*
X12293396Y-13296174D01*
X12293396Y-13296174D02*
X12321967Y-13305697D01*
X12321967Y-13305697D02*
X12341015Y-13324745D01*
X12341015Y-13324745D02*
X12350538Y-13343793D01*
X12350538Y-13343793D02*
X12360062Y-13381888D01*
X12360062Y-13381888D02*
X12360062Y-13410459D01*
X12360062Y-13410459D02*
X12350538Y-13448555D01*
X12350538Y-13448555D02*
X12341015Y-13467602D01*
X12341015Y-13467602D02*
X12321967Y-13486650D01*
X12321967Y-13486650D02*
X12293396Y-13496174D01*
X12293396Y-13496174D02*
X12245777Y-13496174D01*
X12445777Y-13496174D02*
X12445777Y-13362840D01*
X12445777Y-13400936D02*
X12455300Y-13381888D01*
X12455300Y-13381888D02*
X12464824Y-13372364D01*
X12464824Y-13372364D02*
X12483872Y-13362840D01*
X12483872Y-13362840D02*
X12502919Y-13362840D01*
X12569586Y-13496174D02*
X12569586Y-13362840D01*
X12569586Y-13296174D02*
X12560062Y-13305697D01*
X12560062Y-13305697D02*
X12569586Y-13315221D01*
X12569586Y-13315221D02*
X12579110Y-13305697D01*
X12579110Y-13305697D02*
X12569586Y-13296174D01*
X12569586Y-13296174D02*
X12569586Y-13315221D01*
X12693396Y-13496174D02*
X12674348Y-13486650D01*
X12674348Y-13486650D02*
X12664824Y-13467602D01*
X12664824Y-13467602D02*
X12664824Y-13296174D01*
X12798157Y-13496174D02*
X12779110Y-13486650D01*
X12779110Y-13486650D02*
X12769586Y-13467602D01*
X12769586Y-13467602D02*
X12769586Y-13296174D01*
X13026729Y-13496174D02*
X13026729Y-13296174D01*
X13026729Y-13296174D02*
X13093396Y-13439031D01*
X13093396Y-13439031D02*
X13160062Y-13296174D01*
X13160062Y-13296174D02*
X13160062Y-13496174D01*
X13341015Y-13496174D02*
X13341015Y-13391412D01*
X13341015Y-13391412D02*
X13331491Y-13372364D01*
X13331491Y-13372364D02*
X13312443Y-13362840D01*
X13312443Y-13362840D02*
X13274348Y-13362840D01*
X13274348Y-13362840D02*
X13255300Y-13372364D01*
X13341015Y-13486650D02*
X13321967Y-13496174D01*
X13321967Y-13496174D02*
X13274348Y-13496174D01*
X13274348Y-13496174D02*
X13255300Y-13486650D01*
X13255300Y-13486650D02*
X13245777Y-13467602D01*
X13245777Y-13467602D02*
X13245777Y-13448555D01*
X13245777Y-13448555D02*
X13255300Y-13429507D01*
X13255300Y-13429507D02*
X13274348Y-13419983D01*
X13274348Y-13419983D02*
X13321967Y-13419983D01*
X13321967Y-13419983D02*
X13341015Y-13410459D01*
X13436253Y-13362840D02*
X13436253Y-13562840D01*
X13436253Y-13372364D02*
X13455300Y-13362840D01*
X13455300Y-13362840D02*
X13493396Y-13362840D01*
X13493396Y-13362840D02*
X13512443Y-13372364D01*
X13512443Y-13372364D02*
X13521967Y-13381888D01*
X13521967Y-13381888D02*
X13531491Y-13400936D01*
X13531491Y-13400936D02*
X13531491Y-13458078D01*
X13531491Y-13458078D02*
X13521967Y-13477126D01*
X13521967Y-13477126D02*
X13512443Y-13486650D01*
X13512443Y-13486650D02*
X13493396Y-13496174D01*
X13493396Y-13496174D02*
X13455300Y-13496174D01*
X13455300Y-13496174D02*
X13436253Y-13486650D01*
X13617205Y-13477126D02*
X13626729Y-13486650D01*
X13626729Y-13486650D02*
X13617205Y-13496174D01*
X13617205Y-13496174D02*
X13607681Y-13486650D01*
X13607681Y-13486650D02*
X13617205Y-13477126D01*
X13617205Y-13477126D02*
X13617205Y-13496174D01*
X13617205Y-13372364D02*
X13626729Y-13381888D01*
X13626729Y-13381888D02*
X13617205Y-13391412D01*
X13617205Y-13391412D02*
X13607681Y-13381888D01*
X13607681Y-13381888D02*
X13617205Y-13372364D01*
X13617205Y-13372364D02*
X13617205Y-13391412D01*
D12*
X11964680Y-13814530D02*
X11985000Y-13834850D01*
X11985000Y-13814530D02*
X11964680Y-13834850D01*
D11*
X12283872Y-13716174D02*
X12302919Y-13716174D01*
X12302919Y-13716174D02*
X12321967Y-13725697D01*
X12321967Y-13725697D02*
X12331491Y-13735221D01*
X12331491Y-13735221D02*
X12341015Y-13754269D01*
X12341015Y-13754269D02*
X12350538Y-13792364D01*
X12350538Y-13792364D02*
X12350538Y-13839983D01*
X12350538Y-13839983D02*
X12341015Y-13878078D01*
X12341015Y-13878078D02*
X12331491Y-13897126D01*
X12331491Y-13897126D02*
X12321967Y-13906650D01*
X12321967Y-13906650D02*
X12302919Y-13916174D01*
X12302919Y-13916174D02*
X12283872Y-13916174D01*
X12283872Y-13916174D02*
X12264824Y-13906650D01*
X12264824Y-13906650D02*
X12255300Y-13897126D01*
X12255300Y-13897126D02*
X12245777Y-13878078D01*
X12245777Y-13878078D02*
X12236253Y-13839983D01*
X12236253Y-13839983D02*
X12236253Y-13792364D01*
X12236253Y-13792364D02*
X12245777Y-13754269D01*
X12245777Y-13754269D02*
X12255300Y-13735221D01*
X12255300Y-13735221D02*
X12264824Y-13725697D01*
X12264824Y-13725697D02*
X12283872Y-13716174D01*
X12436253Y-13897126D02*
X12445777Y-13906650D01*
X12445777Y-13906650D02*
X12436253Y-13916174D01*
X12436253Y-13916174D02*
X12426729Y-13906650D01*
X12426729Y-13906650D02*
X12436253Y-13897126D01*
X12436253Y-13897126D02*
X12436253Y-13916174D01*
X12521967Y-13735221D02*
X12531491Y-13725697D01*
X12531491Y-13725697D02*
X12550538Y-13716174D01*
X12550538Y-13716174D02*
X12598158Y-13716174D01*
X12598158Y-13716174D02*
X12617205Y-13725697D01*
X12617205Y-13725697D02*
X12626729Y-13735221D01*
X12626729Y-13735221D02*
X12636253Y-13754269D01*
X12636253Y-13754269D02*
X12636253Y-13773316D01*
X12636253Y-13773316D02*
X12626729Y-13801888D01*
X12626729Y-13801888D02*
X12512443Y-13916174D01*
X12512443Y-13916174D02*
X12636253Y-13916174D01*
X12760062Y-13716174D02*
X12779110Y-13716174D01*
X12779110Y-13716174D02*
X12798158Y-13725697D01*
X12798158Y-13725697D02*
X12807681Y-13735221D01*
X12807681Y-13735221D02*
X12817205Y-13754269D01*
X12817205Y-13754269D02*
X12826729Y-13792364D01*
X12826729Y-13792364D02*
X12826729Y-13839983D01*
X12826729Y-13839983D02*
X12817205Y-13878078D01*
X12817205Y-13878078D02*
X12807681Y-13897126D01*
X12807681Y-13897126D02*
X12798158Y-13906650D01*
X12798158Y-13906650D02*
X12779110Y-13916174D01*
X12779110Y-13916174D02*
X12760062Y-13916174D01*
X12760062Y-13916174D02*
X12741015Y-13906650D01*
X12741015Y-13906650D02*
X12731491Y-13897126D01*
X12731491Y-13897126D02*
X12721967Y-13878078D01*
X12721967Y-13878078D02*
X12712443Y-13839983D01*
X12712443Y-13839983D02*
X12712443Y-13792364D01*
X12712443Y-13792364D02*
X12721967Y-13754269D01*
X12721967Y-13754269D02*
X12731491Y-13735221D01*
X12731491Y-13735221D02*
X12741015Y-13725697D01*
X12741015Y-13725697D02*
X12760062Y-13716174D01*
X12893396Y-13716174D02*
X13017205Y-13716174D01*
X13017205Y-13716174D02*
X12950538Y-13792364D01*
X12950538Y-13792364D02*
X12979110Y-13792364D01*
X12979110Y-13792364D02*
X12998158Y-13801888D01*
X12998158Y-13801888D02*
X13007681Y-13811412D01*
X13007681Y-13811412D02*
X13017205Y-13830459D01*
X13017205Y-13830459D02*
X13017205Y-13878078D01*
X13017205Y-13878078D02*
X13007681Y-13897126D01*
X13007681Y-13897126D02*
X12998158Y-13906650D01*
X12998158Y-13906650D02*
X12979110Y-13916174D01*
X12979110Y-13916174D02*
X12921967Y-13916174D01*
X12921967Y-13916174D02*
X12902919Y-13906650D01*
X12902919Y-13906650D02*
X12893396Y-13897126D01*
X13102919Y-13916174D02*
X13102919Y-13782840D01*
X13102919Y-13801888D02*
X13112443Y-13792364D01*
X13112443Y-13792364D02*
X13131491Y-13782840D01*
X13131491Y-13782840D02*
X13160062Y-13782840D01*
X13160062Y-13782840D02*
X13179110Y-13792364D01*
X13179110Y-13792364D02*
X13188634Y-13811412D01*
X13188634Y-13811412D02*
X13188634Y-13916174D01*
X13188634Y-13811412D02*
X13198158Y-13792364D01*
X13198158Y-13792364D02*
X13217205Y-13782840D01*
X13217205Y-13782840D02*
X13245777Y-13782840D01*
X13245777Y-13782840D02*
X13264824Y-13792364D01*
X13264824Y-13792364D02*
X13274348Y-13811412D01*
X13274348Y-13811412D02*
X13274348Y-13916174D01*
X13369586Y-13916174D02*
X13369586Y-13782840D01*
X13369586Y-13801888D02*
X13379110Y-13792364D01*
X13379110Y-13792364D02*
X13398158Y-13782840D01*
X13398158Y-13782840D02*
X13426729Y-13782840D01*
X13426729Y-13782840D02*
X13445777Y-13792364D01*
X13445777Y-13792364D02*
X13455300Y-13811412D01*
X13455300Y-13811412D02*
X13455300Y-13916174D01*
X13455300Y-13811412D02*
X13464824Y-13792364D01*
X13464824Y-13792364D02*
X13483872Y-13782840D01*
X13483872Y-13782840D02*
X13512443Y-13782840D01*
X13512443Y-13782840D02*
X13531491Y-13792364D01*
X13531491Y-13792364D02*
X13541015Y-13811412D01*
X13541015Y-13811412D02*
X13541015Y-13916174D01*
X13931491Y-13706650D02*
X13760062Y-13963793D01*
X14188634Y-13716174D02*
X14207682Y-13716174D01*
X14207682Y-13716174D02*
X14226729Y-13725697D01*
X14226729Y-13725697D02*
X14236253Y-13735221D01*
X14236253Y-13735221D02*
X14245777Y-13754269D01*
X14245777Y-13754269D02*
X14255301Y-13792364D01*
X14255301Y-13792364D02*
X14255301Y-13839983D01*
X14255301Y-13839983D02*
X14245777Y-13878078D01*
X14245777Y-13878078D02*
X14236253Y-13897126D01*
X14236253Y-13897126D02*
X14226729Y-13906650D01*
X14226729Y-13906650D02*
X14207682Y-13916174D01*
X14207682Y-13916174D02*
X14188634Y-13916174D01*
X14188634Y-13916174D02*
X14169586Y-13906650D01*
X14169586Y-13906650D02*
X14160062Y-13897126D01*
X14160062Y-13897126D02*
X14150539Y-13878078D01*
X14150539Y-13878078D02*
X14141015Y-13839983D01*
X14141015Y-13839983D02*
X14141015Y-13792364D01*
X14141015Y-13792364D02*
X14150539Y-13754269D01*
X14150539Y-13754269D02*
X14160062Y-13735221D01*
X14160062Y-13735221D02*
X14169586Y-13725697D01*
X14169586Y-13725697D02*
X14188634Y-13716174D01*
X14341015Y-13897126D02*
X14350539Y-13906650D01*
X14350539Y-13906650D02*
X14341015Y-13916174D01*
X14341015Y-13916174D02*
X14331491Y-13906650D01*
X14331491Y-13906650D02*
X14341015Y-13897126D01*
X14341015Y-13897126D02*
X14341015Y-13916174D01*
X14474348Y-13716174D02*
X14493396Y-13716174D01*
X14493396Y-13716174D02*
X14512443Y-13725697D01*
X14512443Y-13725697D02*
X14521967Y-13735221D01*
X14521967Y-13735221D02*
X14531491Y-13754269D01*
X14531491Y-13754269D02*
X14541015Y-13792364D01*
X14541015Y-13792364D02*
X14541015Y-13839983D01*
X14541015Y-13839983D02*
X14531491Y-13878078D01*
X14531491Y-13878078D02*
X14521967Y-13897126D01*
X14521967Y-13897126D02*
X14512443Y-13906650D01*
X14512443Y-13906650D02*
X14493396Y-13916174D01*
X14493396Y-13916174D02*
X14474348Y-13916174D01*
X14474348Y-13916174D02*
X14455301Y-13906650D01*
X14455301Y-13906650D02*
X14445777Y-13897126D01*
X14445777Y-13897126D02*
X14436253Y-13878078D01*
X14436253Y-13878078D02*
X14426729Y-13839983D01*
X14426729Y-13839983D02*
X14426729Y-13792364D01*
X14426729Y-13792364D02*
X14436253Y-13754269D01*
X14436253Y-13754269D02*
X14445777Y-13735221D01*
X14445777Y-13735221D02*
X14455301Y-13725697D01*
X14455301Y-13725697D02*
X14474348Y-13716174D01*
X14664824Y-13716174D02*
X14683872Y-13716174D01*
X14683872Y-13716174D02*
X14702920Y-13725697D01*
X14702920Y-13725697D02*
X14712443Y-13735221D01*
X14712443Y-13735221D02*
X14721967Y-13754269D01*
X14721967Y-13754269D02*
X14731491Y-13792364D01*
X14731491Y-13792364D02*
X14731491Y-13839983D01*
X14731491Y-13839983D02*
X14721967Y-13878078D01*
X14721967Y-13878078D02*
X14712443Y-13897126D01*
X14712443Y-13897126D02*
X14702920Y-13906650D01*
X14702920Y-13906650D02*
X14683872Y-13916174D01*
X14683872Y-13916174D02*
X14664824Y-13916174D01*
X14664824Y-13916174D02*
X14645777Y-13906650D01*
X14645777Y-13906650D02*
X14636253Y-13897126D01*
X14636253Y-13897126D02*
X14626729Y-13878078D01*
X14626729Y-13878078D02*
X14617205Y-13839983D01*
X14617205Y-13839983D02*
X14617205Y-13792364D01*
X14617205Y-13792364D02*
X14626729Y-13754269D01*
X14626729Y-13754269D02*
X14636253Y-13735221D01*
X14636253Y-13735221D02*
X14645777Y-13725697D01*
X14645777Y-13725697D02*
X14664824Y-13716174D01*
X14845777Y-13801888D02*
X14826729Y-13792364D01*
X14826729Y-13792364D02*
X14817205Y-13782840D01*
X14817205Y-13782840D02*
X14807682Y-13763793D01*
X14807682Y-13763793D02*
X14807682Y-13754269D01*
X14807682Y-13754269D02*
X14817205Y-13735221D01*
X14817205Y-13735221D02*
X14826729Y-13725697D01*
X14826729Y-13725697D02*
X14845777Y-13716174D01*
X14845777Y-13716174D02*
X14883872Y-13716174D01*
X14883872Y-13716174D02*
X14902920Y-13725697D01*
X14902920Y-13725697D02*
X14912443Y-13735221D01*
X14912443Y-13735221D02*
X14921967Y-13754269D01*
X14921967Y-13754269D02*
X14921967Y-13763793D01*
X14921967Y-13763793D02*
X14912443Y-13782840D01*
X14912443Y-13782840D02*
X14902920Y-13792364D01*
X14902920Y-13792364D02*
X14883872Y-13801888D01*
X14883872Y-13801888D02*
X14845777Y-13801888D01*
X14845777Y-13801888D02*
X14826729Y-13811412D01*
X14826729Y-13811412D02*
X14817205Y-13820936D01*
X14817205Y-13820936D02*
X14807682Y-13839983D01*
X14807682Y-13839983D02*
X14807682Y-13878078D01*
X14807682Y-13878078D02*
X14817205Y-13897126D01*
X14817205Y-13897126D02*
X14826729Y-13906650D01*
X14826729Y-13906650D02*
X14845777Y-13916174D01*
X14845777Y-13916174D02*
X14883872Y-13916174D01*
X14883872Y-13916174D02*
X14902920Y-13906650D01*
X14902920Y-13906650D02*
X14912443Y-13897126D01*
X14912443Y-13897126D02*
X14921967Y-13878078D01*
X14921967Y-13878078D02*
X14921967Y-13839983D01*
X14921967Y-13839983D02*
X14912443Y-13820936D01*
X14912443Y-13820936D02*
X14902920Y-13811412D01*
X14902920Y-13811412D02*
X14883872Y-13801888D01*
X15045777Y-13716174D02*
X15064824Y-13716174D01*
X15064824Y-13716174D02*
X15083872Y-13725697D01*
X15083872Y-13725697D02*
X15093396Y-13735221D01*
X15093396Y-13735221D02*
X15102920Y-13754269D01*
X15102920Y-13754269D02*
X15112443Y-13792364D01*
X15112443Y-13792364D02*
X15112443Y-13839983D01*
X15112443Y-13839983D02*
X15102920Y-13878078D01*
X15102920Y-13878078D02*
X15093396Y-13897126D01*
X15093396Y-13897126D02*
X15083872Y-13906650D01*
X15083872Y-13906650D02*
X15064824Y-13916174D01*
X15064824Y-13916174D02*
X15045777Y-13916174D01*
X15045777Y-13916174D02*
X15026729Y-13906650D01*
X15026729Y-13906650D02*
X15017205Y-13897126D01*
X15017205Y-13897126D02*
X15007682Y-13878078D01*
X15007682Y-13878078D02*
X14998158Y-13839983D01*
X14998158Y-13839983D02*
X14998158Y-13792364D01*
X14998158Y-13792364D02*
X15007682Y-13754269D01*
X15007682Y-13754269D02*
X15017205Y-13735221D01*
X15017205Y-13735221D02*
X15026729Y-13725697D01*
X15026729Y-13725697D02*
X15045777Y-13716174D01*
X15188634Y-13716174D02*
X15188634Y-13754269D01*
X15264824Y-13716174D02*
X15264824Y-13754269D01*
X15560063Y-13992364D02*
X15550539Y-13982840D01*
X15550539Y-13982840D02*
X15531491Y-13954269D01*
X15531491Y-13954269D02*
X15521967Y-13935221D01*
X15521967Y-13935221D02*
X15512444Y-13906650D01*
X15512444Y-13906650D02*
X15502920Y-13859031D01*
X15502920Y-13859031D02*
X15502920Y-13820936D01*
X15502920Y-13820936D02*
X15512444Y-13773316D01*
X15512444Y-13773316D02*
X15521967Y-13744745D01*
X15521967Y-13744745D02*
X15531491Y-13725697D01*
X15531491Y-13725697D02*
X15550539Y-13697126D01*
X15550539Y-13697126D02*
X15560063Y-13687602D01*
X15741015Y-13916174D02*
X15626729Y-13916174D01*
X15683872Y-13916174D02*
X15683872Y-13716174D01*
X15683872Y-13716174D02*
X15664824Y-13744745D01*
X15664824Y-13744745D02*
X15645777Y-13763793D01*
X15645777Y-13763793D02*
X15626729Y-13773316D01*
X15921967Y-13716174D02*
X15826729Y-13716174D01*
X15826729Y-13716174D02*
X15817205Y-13811412D01*
X15817205Y-13811412D02*
X15826729Y-13801888D01*
X15826729Y-13801888D02*
X15845777Y-13792364D01*
X15845777Y-13792364D02*
X15893396Y-13792364D01*
X15893396Y-13792364D02*
X15912444Y-13801888D01*
X15912444Y-13801888D02*
X15921967Y-13811412D01*
X15921967Y-13811412D02*
X15931491Y-13830459D01*
X15931491Y-13830459D02*
X15931491Y-13878078D01*
X15931491Y-13878078D02*
X15921967Y-13897126D01*
X15921967Y-13897126D02*
X15912444Y-13906650D01*
X15912444Y-13906650D02*
X15893396Y-13916174D01*
X15893396Y-13916174D02*
X15845777Y-13916174D01*
X15845777Y-13916174D02*
X15826729Y-13906650D01*
X15826729Y-13906650D02*
X15817205Y-13897126D01*
X16169586Y-13916174D02*
X16169586Y-13716174D01*
X16255301Y-13916174D02*
X16255301Y-13811412D01*
X16255301Y-13811412D02*
X16245777Y-13792364D01*
X16245777Y-13792364D02*
X16226729Y-13782840D01*
X16226729Y-13782840D02*
X16198158Y-13782840D01*
X16198158Y-13782840D02*
X16179110Y-13792364D01*
X16179110Y-13792364D02*
X16169586Y-13801888D01*
X16379110Y-13916174D02*
X16360063Y-13906650D01*
X16360063Y-13906650D02*
X16350539Y-13897126D01*
X16350539Y-13897126D02*
X16341015Y-13878078D01*
X16341015Y-13878078D02*
X16341015Y-13820936D01*
X16341015Y-13820936D02*
X16350539Y-13801888D01*
X16350539Y-13801888D02*
X16360063Y-13792364D01*
X16360063Y-13792364D02*
X16379110Y-13782840D01*
X16379110Y-13782840D02*
X16407682Y-13782840D01*
X16407682Y-13782840D02*
X16426729Y-13792364D01*
X16426729Y-13792364D02*
X16436253Y-13801888D01*
X16436253Y-13801888D02*
X16445777Y-13820936D01*
X16445777Y-13820936D02*
X16445777Y-13878078D01*
X16445777Y-13878078D02*
X16436253Y-13897126D01*
X16436253Y-13897126D02*
X16426729Y-13906650D01*
X16426729Y-13906650D02*
X16407682Y-13916174D01*
X16407682Y-13916174D02*
X16379110Y-13916174D01*
X16560063Y-13916174D02*
X16541015Y-13906650D01*
X16541015Y-13906650D02*
X16531491Y-13887602D01*
X16531491Y-13887602D02*
X16531491Y-13716174D01*
X16712444Y-13906650D02*
X16693396Y-13916174D01*
X16693396Y-13916174D02*
X16655301Y-13916174D01*
X16655301Y-13916174D02*
X16636253Y-13906650D01*
X16636253Y-13906650D02*
X16626729Y-13887602D01*
X16626729Y-13887602D02*
X16626729Y-13811412D01*
X16626729Y-13811412D02*
X16636253Y-13792364D01*
X16636253Y-13792364D02*
X16655301Y-13782840D01*
X16655301Y-13782840D02*
X16693396Y-13782840D01*
X16693396Y-13782840D02*
X16712444Y-13792364D01*
X16712444Y-13792364D02*
X16721967Y-13811412D01*
X16721967Y-13811412D02*
X16721967Y-13830459D01*
X16721967Y-13830459D02*
X16626729Y-13849507D01*
X16798158Y-13906650D02*
X16817206Y-13916174D01*
X16817206Y-13916174D02*
X16855301Y-13916174D01*
X16855301Y-13916174D02*
X16874349Y-13906650D01*
X16874349Y-13906650D02*
X16883872Y-13887602D01*
X16883872Y-13887602D02*
X16883872Y-13878078D01*
X16883872Y-13878078D02*
X16874349Y-13859031D01*
X16874349Y-13859031D02*
X16855301Y-13849507D01*
X16855301Y-13849507D02*
X16826729Y-13849507D01*
X16826729Y-13849507D02*
X16807682Y-13839983D01*
X16807682Y-13839983D02*
X16798158Y-13820936D01*
X16798158Y-13820936D02*
X16798158Y-13811412D01*
X16798158Y-13811412D02*
X16807682Y-13792364D01*
X16807682Y-13792364D02*
X16826729Y-13782840D01*
X16826729Y-13782840D02*
X16855301Y-13782840D01*
X16855301Y-13782840D02*
X16874349Y-13792364D01*
X16950539Y-13992364D02*
X16960063Y-13982840D01*
X16960063Y-13982840D02*
X16979110Y-13954269D01*
X16979110Y-13954269D02*
X16988634Y-13935221D01*
X16988634Y-13935221D02*
X16998158Y-13906650D01*
X16998158Y-13906650D02*
X17007682Y-13859031D01*
X17007682Y-13859031D02*
X17007682Y-13820936D01*
X17007682Y-13820936D02*
X16998158Y-13773316D01*
X16998158Y-13773316D02*
X16988634Y-13744745D01*
X16988634Y-13744745D02*
X16979110Y-13725697D01*
X16979110Y-13725697D02*
X16960063Y-13697126D01*
X16960063Y-13697126D02*
X16950539Y-13687602D01*
D13*
X11985000Y-14088690D02*
G75*
G03*
X11985000Y-14088690I-20000J0D01*
G01*
D11*
X12283872Y-13980174D02*
X12302919Y-13980174D01*
X12302919Y-13980174D02*
X12321967Y-13989697D01*
X12321967Y-13989697D02*
X12331491Y-13999221D01*
X12331491Y-13999221D02*
X12341015Y-14018269D01*
X12341015Y-14018269D02*
X12350538Y-14056364D01*
X12350538Y-14056364D02*
X12350538Y-14103983D01*
X12350538Y-14103983D02*
X12341015Y-14142078D01*
X12341015Y-14142078D02*
X12331491Y-14161126D01*
X12331491Y-14161126D02*
X12321967Y-14170650D01*
X12321967Y-14170650D02*
X12302919Y-14180174D01*
X12302919Y-14180174D02*
X12283872Y-14180174D01*
X12283872Y-14180174D02*
X12264824Y-14170650D01*
X12264824Y-14170650D02*
X12255300Y-14161126D01*
X12255300Y-14161126D02*
X12245777Y-14142078D01*
X12245777Y-14142078D02*
X12236253Y-14103983D01*
X12236253Y-14103983D02*
X12236253Y-14056364D01*
X12236253Y-14056364D02*
X12245777Y-14018269D01*
X12245777Y-14018269D02*
X12255300Y-13999221D01*
X12255300Y-13999221D02*
X12264824Y-13989697D01*
X12264824Y-13989697D02*
X12283872Y-13980174D01*
X12436253Y-14161126D02*
X12445777Y-14170650D01*
X12445777Y-14170650D02*
X12436253Y-14180174D01*
X12436253Y-14180174D02*
X12426729Y-14170650D01*
X12426729Y-14170650D02*
X12436253Y-14161126D01*
X12436253Y-14161126D02*
X12436253Y-14180174D01*
X12617205Y-14046840D02*
X12617205Y-14180174D01*
X12569586Y-13970650D02*
X12521967Y-14113507D01*
X12521967Y-14113507D02*
X12645777Y-14113507D01*
X12760062Y-13980174D02*
X12779110Y-13980174D01*
X12779110Y-13980174D02*
X12798158Y-13989697D01*
X12798158Y-13989697D02*
X12807681Y-13999221D01*
X12807681Y-13999221D02*
X12817205Y-14018269D01*
X12817205Y-14018269D02*
X12826729Y-14056364D01*
X12826729Y-14056364D02*
X12826729Y-14103983D01*
X12826729Y-14103983D02*
X12817205Y-14142078D01*
X12817205Y-14142078D02*
X12807681Y-14161126D01*
X12807681Y-14161126D02*
X12798158Y-14170650D01*
X12798158Y-14170650D02*
X12779110Y-14180174D01*
X12779110Y-14180174D02*
X12760062Y-14180174D01*
X12760062Y-14180174D02*
X12741015Y-14170650D01*
X12741015Y-14170650D02*
X12731491Y-14161126D01*
X12731491Y-14161126D02*
X12721967Y-14142078D01*
X12721967Y-14142078D02*
X12712443Y-14103983D01*
X12712443Y-14103983D02*
X12712443Y-14056364D01*
X12712443Y-14056364D02*
X12721967Y-14018269D01*
X12721967Y-14018269D02*
X12731491Y-13999221D01*
X12731491Y-13999221D02*
X12741015Y-13989697D01*
X12741015Y-13989697D02*
X12760062Y-13980174D01*
X12950538Y-13980174D02*
X12969586Y-13980174D01*
X12969586Y-13980174D02*
X12988634Y-13989697D01*
X12988634Y-13989697D02*
X12998158Y-13999221D01*
X12998158Y-13999221D02*
X13007681Y-14018269D01*
X13007681Y-14018269D02*
X13017205Y-14056364D01*
X13017205Y-14056364D02*
X13017205Y-14103983D01*
X13017205Y-14103983D02*
X13007681Y-14142078D01*
X13007681Y-14142078D02*
X12998158Y-14161126D01*
X12998158Y-14161126D02*
X12988634Y-14170650D01*
X12988634Y-14170650D02*
X12969586Y-14180174D01*
X12969586Y-14180174D02*
X12950538Y-14180174D01*
X12950538Y-14180174D02*
X12931491Y-14170650D01*
X12931491Y-14170650D02*
X12921967Y-14161126D01*
X12921967Y-14161126D02*
X12912443Y-14142078D01*
X12912443Y-14142078D02*
X12902919Y-14103983D01*
X12902919Y-14103983D02*
X12902919Y-14056364D01*
X12902919Y-14056364D02*
X12912443Y-14018269D01*
X12912443Y-14018269D02*
X12921967Y-13999221D01*
X12921967Y-13999221D02*
X12931491Y-13989697D01*
X12931491Y-13989697D02*
X12950538Y-13980174D01*
X13102919Y-14180174D02*
X13102919Y-14046840D01*
X13102919Y-14065888D02*
X13112443Y-14056364D01*
X13112443Y-14056364D02*
X13131491Y-14046840D01*
X13131491Y-14046840D02*
X13160062Y-14046840D01*
X13160062Y-14046840D02*
X13179110Y-14056364D01*
X13179110Y-14056364D02*
X13188634Y-14075412D01*
X13188634Y-14075412D02*
X13188634Y-14180174D01*
X13188634Y-14075412D02*
X13198158Y-14056364D01*
X13198158Y-14056364D02*
X13217205Y-14046840D01*
X13217205Y-14046840D02*
X13245777Y-14046840D01*
X13245777Y-14046840D02*
X13264824Y-14056364D01*
X13264824Y-14056364D02*
X13274348Y-14075412D01*
X13274348Y-14075412D02*
X13274348Y-14180174D01*
X13369586Y-14180174D02*
X13369586Y-14046840D01*
X13369586Y-14065888D02*
X13379110Y-14056364D01*
X13379110Y-14056364D02*
X13398158Y-14046840D01*
X13398158Y-14046840D02*
X13426729Y-14046840D01*
X13426729Y-14046840D02*
X13445777Y-14056364D01*
X13445777Y-14056364D02*
X13455300Y-14075412D01*
X13455300Y-14075412D02*
X13455300Y-14180174D01*
X13455300Y-14075412D02*
X13464824Y-14056364D01*
X13464824Y-14056364D02*
X13483872Y-14046840D01*
X13483872Y-14046840D02*
X13512443Y-14046840D01*
X13512443Y-14046840D02*
X13531491Y-14056364D01*
X13531491Y-14056364D02*
X13541015Y-14075412D01*
X13541015Y-14075412D02*
X13541015Y-14180174D01*
X13931491Y-13970650D02*
X13760062Y-14227793D01*
X14188634Y-13980174D02*
X14207682Y-13980174D01*
X14207682Y-13980174D02*
X14226729Y-13989697D01*
X14226729Y-13989697D02*
X14236253Y-13999221D01*
X14236253Y-13999221D02*
X14245777Y-14018269D01*
X14245777Y-14018269D02*
X14255301Y-14056364D01*
X14255301Y-14056364D02*
X14255301Y-14103983D01*
X14255301Y-14103983D02*
X14245777Y-14142078D01*
X14245777Y-14142078D02*
X14236253Y-14161126D01*
X14236253Y-14161126D02*
X14226729Y-14170650D01*
X14226729Y-14170650D02*
X14207682Y-14180174D01*
X14207682Y-14180174D02*
X14188634Y-14180174D01*
X14188634Y-14180174D02*
X14169586Y-14170650D01*
X14169586Y-14170650D02*
X14160062Y-14161126D01*
X14160062Y-14161126D02*
X14150539Y-14142078D01*
X14150539Y-14142078D02*
X14141015Y-14103983D01*
X14141015Y-14103983D02*
X14141015Y-14056364D01*
X14141015Y-14056364D02*
X14150539Y-14018269D01*
X14150539Y-14018269D02*
X14160062Y-13999221D01*
X14160062Y-13999221D02*
X14169586Y-13989697D01*
X14169586Y-13989697D02*
X14188634Y-13980174D01*
X14341015Y-14161126D02*
X14350539Y-14170650D01*
X14350539Y-14170650D02*
X14341015Y-14180174D01*
X14341015Y-14180174D02*
X14331491Y-14170650D01*
X14331491Y-14170650D02*
X14341015Y-14161126D01*
X14341015Y-14161126D02*
X14341015Y-14180174D01*
X14474348Y-13980174D02*
X14493396Y-13980174D01*
X14493396Y-13980174D02*
X14512443Y-13989697D01*
X14512443Y-13989697D02*
X14521967Y-13999221D01*
X14521967Y-13999221D02*
X14531491Y-14018269D01*
X14531491Y-14018269D02*
X14541015Y-14056364D01*
X14541015Y-14056364D02*
X14541015Y-14103983D01*
X14541015Y-14103983D02*
X14531491Y-14142078D01*
X14531491Y-14142078D02*
X14521967Y-14161126D01*
X14521967Y-14161126D02*
X14512443Y-14170650D01*
X14512443Y-14170650D02*
X14493396Y-14180174D01*
X14493396Y-14180174D02*
X14474348Y-14180174D01*
X14474348Y-14180174D02*
X14455301Y-14170650D01*
X14455301Y-14170650D02*
X14445777Y-14161126D01*
X14445777Y-14161126D02*
X14436253Y-14142078D01*
X14436253Y-14142078D02*
X14426729Y-14103983D01*
X14426729Y-14103983D02*
X14426729Y-14056364D01*
X14426729Y-14056364D02*
X14436253Y-14018269D01*
X14436253Y-14018269D02*
X14445777Y-13999221D01*
X14445777Y-13999221D02*
X14455301Y-13989697D01*
X14455301Y-13989697D02*
X14474348Y-13980174D01*
X14731491Y-14180174D02*
X14617205Y-14180174D01*
X14674348Y-14180174D02*
X14674348Y-13980174D01*
X14674348Y-13980174D02*
X14655301Y-14008745D01*
X14655301Y-14008745D02*
X14636253Y-14027793D01*
X14636253Y-14027793D02*
X14617205Y-14037316D01*
X14912443Y-13980174D02*
X14817205Y-13980174D01*
X14817205Y-13980174D02*
X14807682Y-14075412D01*
X14807682Y-14075412D02*
X14817205Y-14065888D01*
X14817205Y-14065888D02*
X14836253Y-14056364D01*
X14836253Y-14056364D02*
X14883872Y-14056364D01*
X14883872Y-14056364D02*
X14902920Y-14065888D01*
X14902920Y-14065888D02*
X14912443Y-14075412D01*
X14912443Y-14075412D02*
X14921967Y-14094459D01*
X14921967Y-14094459D02*
X14921967Y-14142078D01*
X14921967Y-14142078D02*
X14912443Y-14161126D01*
X14912443Y-14161126D02*
X14902920Y-14170650D01*
X14902920Y-14170650D02*
X14883872Y-14180174D01*
X14883872Y-14180174D02*
X14836253Y-14180174D01*
X14836253Y-14180174D02*
X14817205Y-14170650D01*
X14817205Y-14170650D02*
X14807682Y-14161126D01*
X14988634Y-13980174D02*
X15121967Y-13980174D01*
X15121967Y-13980174D02*
X15036253Y-14180174D01*
X15188634Y-13980174D02*
X15188634Y-14018269D01*
X15264824Y-13980174D02*
X15264824Y-14018269D01*
X15560063Y-14256364D02*
X15550539Y-14246840D01*
X15550539Y-14246840D02*
X15531491Y-14218269D01*
X15531491Y-14218269D02*
X15521967Y-14199221D01*
X15521967Y-14199221D02*
X15512444Y-14170650D01*
X15512444Y-14170650D02*
X15502920Y-14123031D01*
X15502920Y-14123031D02*
X15502920Y-14084936D01*
X15502920Y-14084936D02*
X15512444Y-14037316D01*
X15512444Y-14037316D02*
X15521967Y-14008745D01*
X15521967Y-14008745D02*
X15531491Y-13989697D01*
X15531491Y-13989697D02*
X15550539Y-13961126D01*
X15550539Y-13961126D02*
X15560063Y-13951602D01*
X15731491Y-13980174D02*
X15636253Y-13980174D01*
X15636253Y-13980174D02*
X15626729Y-14075412D01*
X15626729Y-14075412D02*
X15636253Y-14065888D01*
X15636253Y-14065888D02*
X15655301Y-14056364D01*
X15655301Y-14056364D02*
X15702920Y-14056364D01*
X15702920Y-14056364D02*
X15721967Y-14065888D01*
X15721967Y-14065888D02*
X15731491Y-14075412D01*
X15731491Y-14075412D02*
X15741015Y-14094459D01*
X15741015Y-14094459D02*
X15741015Y-14142078D01*
X15741015Y-14142078D02*
X15731491Y-14161126D01*
X15731491Y-14161126D02*
X15721967Y-14170650D01*
X15721967Y-14170650D02*
X15702920Y-14180174D01*
X15702920Y-14180174D02*
X15655301Y-14180174D01*
X15655301Y-14180174D02*
X15636253Y-14170650D01*
X15636253Y-14170650D02*
X15626729Y-14161126D01*
X15807682Y-13980174D02*
X15931491Y-13980174D01*
X15931491Y-13980174D02*
X15864824Y-14056364D01*
X15864824Y-14056364D02*
X15893396Y-14056364D01*
X15893396Y-14056364D02*
X15912444Y-14065888D01*
X15912444Y-14065888D02*
X15921967Y-14075412D01*
X15921967Y-14075412D02*
X15931491Y-14094459D01*
X15931491Y-14094459D02*
X15931491Y-14142078D01*
X15931491Y-14142078D02*
X15921967Y-14161126D01*
X15921967Y-14161126D02*
X15912444Y-14170650D01*
X15912444Y-14170650D02*
X15893396Y-14180174D01*
X15893396Y-14180174D02*
X15836253Y-14180174D01*
X15836253Y-14180174D02*
X15817205Y-14170650D01*
X15817205Y-14170650D02*
X15807682Y-14161126D01*
X16169586Y-14180174D02*
X16169586Y-13980174D01*
X16255301Y-14180174D02*
X16255301Y-14075412D01*
X16255301Y-14075412D02*
X16245777Y-14056364D01*
X16245777Y-14056364D02*
X16226729Y-14046840D01*
X16226729Y-14046840D02*
X16198158Y-14046840D01*
X16198158Y-14046840D02*
X16179110Y-14056364D01*
X16179110Y-14056364D02*
X16169586Y-14065888D01*
X16379110Y-14180174D02*
X16360063Y-14170650D01*
X16360063Y-14170650D02*
X16350539Y-14161126D01*
X16350539Y-14161126D02*
X16341015Y-14142078D01*
X16341015Y-14142078D02*
X16341015Y-14084936D01*
X16341015Y-14084936D02*
X16350539Y-14065888D01*
X16350539Y-14065888D02*
X16360063Y-14056364D01*
X16360063Y-14056364D02*
X16379110Y-14046840D01*
X16379110Y-14046840D02*
X16407682Y-14046840D01*
X16407682Y-14046840D02*
X16426729Y-14056364D01*
X16426729Y-14056364D02*
X16436253Y-14065888D01*
X16436253Y-14065888D02*
X16445777Y-14084936D01*
X16445777Y-14084936D02*
X16445777Y-14142078D01*
X16445777Y-14142078D02*
X16436253Y-14161126D01*
X16436253Y-14161126D02*
X16426729Y-14170650D01*
X16426729Y-14170650D02*
X16407682Y-14180174D01*
X16407682Y-14180174D02*
X16379110Y-14180174D01*
X16560063Y-14180174D02*
X16541015Y-14170650D01*
X16541015Y-14170650D02*
X16531491Y-14151602D01*
X16531491Y-14151602D02*
X16531491Y-13980174D01*
X16712444Y-14170650D02*
X16693396Y-14180174D01*
X16693396Y-14180174D02*
X16655301Y-14180174D01*
X16655301Y-14180174D02*
X16636253Y-14170650D01*
X16636253Y-14170650D02*
X16626729Y-14151602D01*
X16626729Y-14151602D02*
X16626729Y-14075412D01*
X16626729Y-14075412D02*
X16636253Y-14056364D01*
X16636253Y-14056364D02*
X16655301Y-14046840D01*
X16655301Y-14046840D02*
X16693396Y-14046840D01*
X16693396Y-14046840D02*
X16712444Y-14056364D01*
X16712444Y-14056364D02*
X16721967Y-14075412D01*
X16721967Y-14075412D02*
X16721967Y-14094459D01*
X16721967Y-14094459D02*
X16626729Y-14113507D01*
X16798158Y-14170650D02*
X16817206Y-14180174D01*
X16817206Y-14180174D02*
X16855301Y-14180174D01*
X16855301Y-14180174D02*
X16874349Y-14170650D01*
X16874349Y-14170650D02*
X16883872Y-14151602D01*
X16883872Y-14151602D02*
X16883872Y-14142078D01*
X16883872Y-14142078D02*
X16874349Y-14123031D01*
X16874349Y-14123031D02*
X16855301Y-14113507D01*
X16855301Y-14113507D02*
X16826729Y-14113507D01*
X16826729Y-14113507D02*
X16807682Y-14103983D01*
X16807682Y-14103983D02*
X16798158Y-14084936D01*
X16798158Y-14084936D02*
X16798158Y-14075412D01*
X16798158Y-14075412D02*
X16807682Y-14056364D01*
X16807682Y-14056364D02*
X16826729Y-14046840D01*
X16826729Y-14046840D02*
X16855301Y-14046840D01*
X16855301Y-14046840D02*
X16874349Y-14056364D01*
X16950539Y-14256364D02*
X16960063Y-14246840D01*
X16960063Y-14246840D02*
X16979110Y-14218269D01*
X16979110Y-14218269D02*
X16988634Y-14199221D01*
X16988634Y-14199221D02*
X16998158Y-14170650D01*
X16998158Y-14170650D02*
X17007682Y-14123031D01*
X17007682Y-14123031D02*
X17007682Y-14084936D01*
X17007682Y-14084936D02*
X16998158Y-14037316D01*
X16998158Y-14037316D02*
X16988634Y-14008745D01*
X16988634Y-14008745D02*
X16979110Y-13989697D01*
X16979110Y-13989697D02*
X16960063Y-13961126D01*
X16960063Y-13961126D02*
X16950539Y-13951602D01*
D10*
X11935000Y-14302690D02*
X11935000Y-14402690D01*
X11885000Y-14352690D02*
X11985000Y-14352690D01*
D11*
X12350538Y-14444174D02*
X12236253Y-14444174D01*
X12293396Y-14444174D02*
X12293396Y-14244174D01*
X12293396Y-14244174D02*
X12274348Y-14272745D01*
X12274348Y-14272745D02*
X12255300Y-14291793D01*
X12255300Y-14291793D02*
X12236253Y-14301316D01*
X12436253Y-14425126D02*
X12445777Y-14434650D01*
X12445777Y-14434650D02*
X12436253Y-14444174D01*
X12436253Y-14444174D02*
X12426729Y-14434650D01*
X12426729Y-14434650D02*
X12436253Y-14425126D01*
X12436253Y-14425126D02*
X12436253Y-14444174D01*
X12569586Y-14244174D02*
X12588634Y-14244174D01*
X12588634Y-14244174D02*
X12607681Y-14253697D01*
X12607681Y-14253697D02*
X12617205Y-14263221D01*
X12617205Y-14263221D02*
X12626729Y-14282269D01*
X12626729Y-14282269D02*
X12636253Y-14320364D01*
X12636253Y-14320364D02*
X12636253Y-14367983D01*
X12636253Y-14367983D02*
X12626729Y-14406078D01*
X12626729Y-14406078D02*
X12617205Y-14425126D01*
X12617205Y-14425126D02*
X12607681Y-14434650D01*
X12607681Y-14434650D02*
X12588634Y-14444174D01*
X12588634Y-14444174D02*
X12569586Y-14444174D01*
X12569586Y-14444174D02*
X12550538Y-14434650D01*
X12550538Y-14434650D02*
X12541015Y-14425126D01*
X12541015Y-14425126D02*
X12531491Y-14406078D01*
X12531491Y-14406078D02*
X12521967Y-14367983D01*
X12521967Y-14367983D02*
X12521967Y-14320364D01*
X12521967Y-14320364D02*
X12531491Y-14282269D01*
X12531491Y-14282269D02*
X12541015Y-14263221D01*
X12541015Y-14263221D02*
X12550538Y-14253697D01*
X12550538Y-14253697D02*
X12569586Y-14244174D01*
X12760062Y-14244174D02*
X12779110Y-14244174D01*
X12779110Y-14244174D02*
X12798158Y-14253697D01*
X12798158Y-14253697D02*
X12807681Y-14263221D01*
X12807681Y-14263221D02*
X12817205Y-14282269D01*
X12817205Y-14282269D02*
X12826729Y-14320364D01*
X12826729Y-14320364D02*
X12826729Y-14367983D01*
X12826729Y-14367983D02*
X12817205Y-14406078D01*
X12817205Y-14406078D02*
X12807681Y-14425126D01*
X12807681Y-14425126D02*
X12798158Y-14434650D01*
X12798158Y-14434650D02*
X12779110Y-14444174D01*
X12779110Y-14444174D02*
X12760062Y-14444174D01*
X12760062Y-14444174D02*
X12741015Y-14434650D01*
X12741015Y-14434650D02*
X12731491Y-14425126D01*
X12731491Y-14425126D02*
X12721967Y-14406078D01*
X12721967Y-14406078D02*
X12712443Y-14367983D01*
X12712443Y-14367983D02*
X12712443Y-14320364D01*
X12712443Y-14320364D02*
X12721967Y-14282269D01*
X12721967Y-14282269D02*
X12731491Y-14263221D01*
X12731491Y-14263221D02*
X12741015Y-14253697D01*
X12741015Y-14253697D02*
X12760062Y-14244174D01*
X12950538Y-14244174D02*
X12969586Y-14244174D01*
X12969586Y-14244174D02*
X12988634Y-14253697D01*
X12988634Y-14253697D02*
X12998158Y-14263221D01*
X12998158Y-14263221D02*
X13007681Y-14282269D01*
X13007681Y-14282269D02*
X13017205Y-14320364D01*
X13017205Y-14320364D02*
X13017205Y-14367983D01*
X13017205Y-14367983D02*
X13007681Y-14406078D01*
X13007681Y-14406078D02*
X12998158Y-14425126D01*
X12998158Y-14425126D02*
X12988634Y-14434650D01*
X12988634Y-14434650D02*
X12969586Y-14444174D01*
X12969586Y-14444174D02*
X12950538Y-14444174D01*
X12950538Y-14444174D02*
X12931491Y-14434650D01*
X12931491Y-14434650D02*
X12921967Y-14425126D01*
X12921967Y-14425126D02*
X12912443Y-14406078D01*
X12912443Y-14406078D02*
X12902919Y-14367983D01*
X12902919Y-14367983D02*
X12902919Y-14320364D01*
X12902919Y-14320364D02*
X12912443Y-14282269D01*
X12912443Y-14282269D02*
X12921967Y-14263221D01*
X12921967Y-14263221D02*
X12931491Y-14253697D01*
X12931491Y-14253697D02*
X12950538Y-14244174D01*
X13102919Y-14444174D02*
X13102919Y-14310840D01*
X13102919Y-14329888D02*
X13112443Y-14320364D01*
X13112443Y-14320364D02*
X13131491Y-14310840D01*
X13131491Y-14310840D02*
X13160062Y-14310840D01*
X13160062Y-14310840D02*
X13179110Y-14320364D01*
X13179110Y-14320364D02*
X13188634Y-14339412D01*
X13188634Y-14339412D02*
X13188634Y-14444174D01*
X13188634Y-14339412D02*
X13198158Y-14320364D01*
X13198158Y-14320364D02*
X13217205Y-14310840D01*
X13217205Y-14310840D02*
X13245777Y-14310840D01*
X13245777Y-14310840D02*
X13264824Y-14320364D01*
X13264824Y-14320364D02*
X13274348Y-14339412D01*
X13274348Y-14339412D02*
X13274348Y-14444174D01*
X13369586Y-14444174D02*
X13369586Y-14310840D01*
X13369586Y-14329888D02*
X13379110Y-14320364D01*
X13379110Y-14320364D02*
X13398158Y-14310840D01*
X13398158Y-14310840D02*
X13426729Y-14310840D01*
X13426729Y-14310840D02*
X13445777Y-14320364D01*
X13445777Y-14320364D02*
X13455300Y-14339412D01*
X13455300Y-14339412D02*
X13455300Y-14444174D01*
X13455300Y-14339412D02*
X13464824Y-14320364D01*
X13464824Y-14320364D02*
X13483872Y-14310840D01*
X13483872Y-14310840D02*
X13512443Y-14310840D01*
X13512443Y-14310840D02*
X13531491Y-14320364D01*
X13531491Y-14320364D02*
X13541015Y-14339412D01*
X13541015Y-14339412D02*
X13541015Y-14444174D01*
X13931491Y-14234650D02*
X13760062Y-14491793D01*
X14188634Y-14244174D02*
X14207682Y-14244174D01*
X14207682Y-14244174D02*
X14226729Y-14253697D01*
X14226729Y-14253697D02*
X14236253Y-14263221D01*
X14236253Y-14263221D02*
X14245777Y-14282269D01*
X14245777Y-14282269D02*
X14255301Y-14320364D01*
X14255301Y-14320364D02*
X14255301Y-14367983D01*
X14255301Y-14367983D02*
X14245777Y-14406078D01*
X14245777Y-14406078D02*
X14236253Y-14425126D01*
X14236253Y-14425126D02*
X14226729Y-14434650D01*
X14226729Y-14434650D02*
X14207682Y-14444174D01*
X14207682Y-14444174D02*
X14188634Y-14444174D01*
X14188634Y-14444174D02*
X14169586Y-14434650D01*
X14169586Y-14434650D02*
X14160062Y-14425126D01*
X14160062Y-14425126D02*
X14150539Y-14406078D01*
X14150539Y-14406078D02*
X14141015Y-14367983D01*
X14141015Y-14367983D02*
X14141015Y-14320364D01*
X14141015Y-14320364D02*
X14150539Y-14282269D01*
X14150539Y-14282269D02*
X14160062Y-14263221D01*
X14160062Y-14263221D02*
X14169586Y-14253697D01*
X14169586Y-14253697D02*
X14188634Y-14244174D01*
X14341015Y-14425126D02*
X14350539Y-14434650D01*
X14350539Y-14434650D02*
X14341015Y-14444174D01*
X14341015Y-14444174D02*
X14331491Y-14434650D01*
X14331491Y-14434650D02*
X14341015Y-14425126D01*
X14341015Y-14425126D02*
X14341015Y-14444174D01*
X14474348Y-14244174D02*
X14493396Y-14244174D01*
X14493396Y-14244174D02*
X14512443Y-14253697D01*
X14512443Y-14253697D02*
X14521967Y-14263221D01*
X14521967Y-14263221D02*
X14531491Y-14282269D01*
X14531491Y-14282269D02*
X14541015Y-14320364D01*
X14541015Y-14320364D02*
X14541015Y-14367983D01*
X14541015Y-14367983D02*
X14531491Y-14406078D01*
X14531491Y-14406078D02*
X14521967Y-14425126D01*
X14521967Y-14425126D02*
X14512443Y-14434650D01*
X14512443Y-14434650D02*
X14493396Y-14444174D01*
X14493396Y-14444174D02*
X14474348Y-14444174D01*
X14474348Y-14444174D02*
X14455301Y-14434650D01*
X14455301Y-14434650D02*
X14445777Y-14425126D01*
X14445777Y-14425126D02*
X14436253Y-14406078D01*
X14436253Y-14406078D02*
X14426729Y-14367983D01*
X14426729Y-14367983D02*
X14426729Y-14320364D01*
X14426729Y-14320364D02*
X14436253Y-14282269D01*
X14436253Y-14282269D02*
X14445777Y-14263221D01*
X14445777Y-14263221D02*
X14455301Y-14253697D01*
X14455301Y-14253697D02*
X14474348Y-14244174D01*
X14607682Y-14244174D02*
X14731491Y-14244174D01*
X14731491Y-14244174D02*
X14664824Y-14320364D01*
X14664824Y-14320364D02*
X14693396Y-14320364D01*
X14693396Y-14320364D02*
X14712443Y-14329888D01*
X14712443Y-14329888D02*
X14721967Y-14339412D01*
X14721967Y-14339412D02*
X14731491Y-14358459D01*
X14731491Y-14358459D02*
X14731491Y-14406078D01*
X14731491Y-14406078D02*
X14721967Y-14425126D01*
X14721967Y-14425126D02*
X14712443Y-14434650D01*
X14712443Y-14434650D02*
X14693396Y-14444174D01*
X14693396Y-14444174D02*
X14636253Y-14444174D01*
X14636253Y-14444174D02*
X14617205Y-14434650D01*
X14617205Y-14434650D02*
X14607682Y-14425126D01*
X14826729Y-14444174D02*
X14864824Y-14444174D01*
X14864824Y-14444174D02*
X14883872Y-14434650D01*
X14883872Y-14434650D02*
X14893396Y-14425126D01*
X14893396Y-14425126D02*
X14912443Y-14396555D01*
X14912443Y-14396555D02*
X14921967Y-14358459D01*
X14921967Y-14358459D02*
X14921967Y-14282269D01*
X14921967Y-14282269D02*
X14912443Y-14263221D01*
X14912443Y-14263221D02*
X14902920Y-14253697D01*
X14902920Y-14253697D02*
X14883872Y-14244174D01*
X14883872Y-14244174D02*
X14845777Y-14244174D01*
X14845777Y-14244174D02*
X14826729Y-14253697D01*
X14826729Y-14253697D02*
X14817205Y-14263221D01*
X14817205Y-14263221D02*
X14807682Y-14282269D01*
X14807682Y-14282269D02*
X14807682Y-14329888D01*
X14807682Y-14329888D02*
X14817205Y-14348936D01*
X14817205Y-14348936D02*
X14826729Y-14358459D01*
X14826729Y-14358459D02*
X14845777Y-14367983D01*
X14845777Y-14367983D02*
X14883872Y-14367983D01*
X14883872Y-14367983D02*
X14902920Y-14358459D01*
X14902920Y-14358459D02*
X14912443Y-14348936D01*
X14912443Y-14348936D02*
X14921967Y-14329888D01*
X15093396Y-14310840D02*
X15093396Y-14444174D01*
X15045777Y-14234650D02*
X14998158Y-14377507D01*
X14998158Y-14377507D02*
X15121967Y-14377507D01*
X15188634Y-14244174D02*
X15188634Y-14282269D01*
X15264824Y-14244174D02*
X15264824Y-14282269D01*
X15560063Y-14520364D02*
X15550539Y-14510840D01*
X15550539Y-14510840D02*
X15531491Y-14482269D01*
X15531491Y-14482269D02*
X15521967Y-14463221D01*
X15521967Y-14463221D02*
X15512444Y-14434650D01*
X15512444Y-14434650D02*
X15502920Y-14387031D01*
X15502920Y-14387031D02*
X15502920Y-14348936D01*
X15502920Y-14348936D02*
X15512444Y-14301316D01*
X15512444Y-14301316D02*
X15521967Y-14272745D01*
X15521967Y-14272745D02*
X15531491Y-14253697D01*
X15531491Y-14253697D02*
X15550539Y-14225126D01*
X15550539Y-14225126D02*
X15560063Y-14215602D01*
X15626729Y-14263221D02*
X15636253Y-14253697D01*
X15636253Y-14253697D02*
X15655301Y-14244174D01*
X15655301Y-14244174D02*
X15702920Y-14244174D01*
X15702920Y-14244174D02*
X15721967Y-14253697D01*
X15721967Y-14253697D02*
X15731491Y-14263221D01*
X15731491Y-14263221D02*
X15741015Y-14282269D01*
X15741015Y-14282269D02*
X15741015Y-14301316D01*
X15741015Y-14301316D02*
X15731491Y-14329888D01*
X15731491Y-14329888D02*
X15617205Y-14444174D01*
X15617205Y-14444174D02*
X15741015Y-14444174D01*
X15921967Y-14244174D02*
X15826729Y-14244174D01*
X15826729Y-14244174D02*
X15817205Y-14339412D01*
X15817205Y-14339412D02*
X15826729Y-14329888D01*
X15826729Y-14329888D02*
X15845777Y-14320364D01*
X15845777Y-14320364D02*
X15893396Y-14320364D01*
X15893396Y-14320364D02*
X15912444Y-14329888D01*
X15912444Y-14329888D02*
X15921967Y-14339412D01*
X15921967Y-14339412D02*
X15931491Y-14358459D01*
X15931491Y-14358459D02*
X15931491Y-14406078D01*
X15931491Y-14406078D02*
X15921967Y-14425126D01*
X15921967Y-14425126D02*
X15912444Y-14434650D01*
X15912444Y-14434650D02*
X15893396Y-14444174D01*
X15893396Y-14444174D02*
X15845777Y-14444174D01*
X15845777Y-14444174D02*
X15826729Y-14434650D01*
X15826729Y-14434650D02*
X15817205Y-14425126D01*
X16169586Y-14444174D02*
X16169586Y-14244174D01*
X16255301Y-14444174D02*
X16255301Y-14339412D01*
X16255301Y-14339412D02*
X16245777Y-14320364D01*
X16245777Y-14320364D02*
X16226729Y-14310840D01*
X16226729Y-14310840D02*
X16198158Y-14310840D01*
X16198158Y-14310840D02*
X16179110Y-14320364D01*
X16179110Y-14320364D02*
X16169586Y-14329888D01*
X16379110Y-14444174D02*
X16360063Y-14434650D01*
X16360063Y-14434650D02*
X16350539Y-14425126D01*
X16350539Y-14425126D02*
X16341015Y-14406078D01*
X16341015Y-14406078D02*
X16341015Y-14348936D01*
X16341015Y-14348936D02*
X16350539Y-14329888D01*
X16350539Y-14329888D02*
X16360063Y-14320364D01*
X16360063Y-14320364D02*
X16379110Y-14310840D01*
X16379110Y-14310840D02*
X16407682Y-14310840D01*
X16407682Y-14310840D02*
X16426729Y-14320364D01*
X16426729Y-14320364D02*
X16436253Y-14329888D01*
X16436253Y-14329888D02*
X16445777Y-14348936D01*
X16445777Y-14348936D02*
X16445777Y-14406078D01*
X16445777Y-14406078D02*
X16436253Y-14425126D01*
X16436253Y-14425126D02*
X16426729Y-14434650D01*
X16426729Y-14434650D02*
X16407682Y-14444174D01*
X16407682Y-14444174D02*
X16379110Y-14444174D01*
X16560063Y-14444174D02*
X16541015Y-14434650D01*
X16541015Y-14434650D02*
X16531491Y-14415602D01*
X16531491Y-14415602D02*
X16531491Y-14244174D01*
X16712444Y-14434650D02*
X16693396Y-14444174D01*
X16693396Y-14444174D02*
X16655301Y-14444174D01*
X16655301Y-14444174D02*
X16636253Y-14434650D01*
X16636253Y-14434650D02*
X16626729Y-14415602D01*
X16626729Y-14415602D02*
X16626729Y-14339412D01*
X16626729Y-14339412D02*
X16636253Y-14320364D01*
X16636253Y-14320364D02*
X16655301Y-14310840D01*
X16655301Y-14310840D02*
X16693396Y-14310840D01*
X16693396Y-14310840D02*
X16712444Y-14320364D01*
X16712444Y-14320364D02*
X16721967Y-14339412D01*
X16721967Y-14339412D02*
X16721967Y-14358459D01*
X16721967Y-14358459D02*
X16626729Y-14377507D01*
X16798158Y-14434650D02*
X16817206Y-14444174D01*
X16817206Y-14444174D02*
X16855301Y-14444174D01*
X16855301Y-14444174D02*
X16874349Y-14434650D01*
X16874349Y-14434650D02*
X16883872Y-14415602D01*
X16883872Y-14415602D02*
X16883872Y-14406078D01*
X16883872Y-14406078D02*
X16874349Y-14387031D01*
X16874349Y-14387031D02*
X16855301Y-14377507D01*
X16855301Y-14377507D02*
X16826729Y-14377507D01*
X16826729Y-14377507D02*
X16807682Y-14367983D01*
X16807682Y-14367983D02*
X16798158Y-14348936D01*
X16798158Y-14348936D02*
X16798158Y-14339412D01*
X16798158Y-14339412D02*
X16807682Y-14320364D01*
X16807682Y-14320364D02*
X16826729Y-14310840D01*
X16826729Y-14310840D02*
X16855301Y-14310840D01*
X16855301Y-14310840D02*
X16874349Y-14320364D01*
X16950539Y-14520364D02*
X16960063Y-14510840D01*
X16960063Y-14510840D02*
X16979110Y-14482269D01*
X16979110Y-14482269D02*
X16988634Y-14463221D01*
X16988634Y-14463221D02*
X16998158Y-14434650D01*
X16998158Y-14434650D02*
X17007682Y-14387031D01*
X17007682Y-14387031D02*
X17007682Y-14348936D01*
X17007682Y-14348936D02*
X16998158Y-14301316D01*
X16998158Y-14301316D02*
X16988634Y-14272745D01*
X16988634Y-14272745D02*
X16979110Y-14253697D01*
X16979110Y-14253697D02*
X16960063Y-14225126D01*
X16960063Y-14225126D02*
X16950539Y-14215602D01*
M02*
