M48
; DRILL file {KiCad 8.0.2} date 2024-08-30T20:49:56-0300
; FORMAT={-:-/ absolute / metric / decimal}
; #@! TF.CreationDate,2024-08-30T20:49:56-03:00
; #@! TF.GenerationSoftware,Kicad,Pcbnew,8.0.2
; #@! TF.FileFunction,Plated,1,2,PTH
FMAT,2
METRIC
; #@! TA.AperFunction,Plated,PTH,ComponentDrill
T1C0.203
; #@! TA.AperFunction,Plated,PTH,ViaDrill
T2C0.400
; #@! TA.AperFunction,Plated,PTH,ComponentDrill
T3C1.000
%
G90
G05
T1
X136.85Y-112.775
X136.85Y-113.775
X136.85Y-114.775
X136.85Y-115.775
X136.85Y-116.775
X137.85Y-112.775
X137.85Y-113.775
X137.85Y-114.775
X137.85Y-115.775
X137.85Y-116.775
X138.85Y-112.775
X138.85Y-113.775
X138.85Y-114.775
X138.85Y-115.775
X138.85Y-116.775
T2
X121.825Y-120.025
X121.825Y-120.95
X122.75Y-119.975
X122.8Y-120.975
X123.675Y-119.975
X123.7Y-120.975
X125.7Y-113.3
X125.7Y-114.2
X126.1Y-117.2
X126.5Y-112.9
X126.85Y-108.75
X126.9Y-116.8
X127.4Y-112.9
X127.8Y-116.574
X128.15Y-108.75
X128.3Y-112.9
X129.1Y-128.8
X129.775Y-108.55
X129.775Y-109.45
X129.775Y-110.35
X129.775Y-111.25
X129.975Y-117.35
X129.975Y-118.25
X130.2Y-129.0
X130.8Y-108.55
X130.875Y-117.35
X130.875Y-118.25
X131.55Y-106.85
X131.775Y-117.35
X131.775Y-118.25
X132.5Y-106.95
X133.096Y-127.0
X133.858Y-122.35
X133.9Y-129.032
X134.874Y-128.524
X135.89Y-128.27
X138.95Y-128.35
X139.1Y-123.75
X140.1Y-121.6
X140.775Y-119.975
X141.7Y-122.325
X142.35Y-108.8
X142.4Y-115.5
X142.489Y-119.096
X142.598Y-118.103
X143.675Y-108.8
X145.0Y-108.8
X146.325Y-108.8
X147.325Y-119.25
X147.8Y-117.225
X148.2Y-110.875
X148.35Y-125.575
X148.4Y-109.125
X148.425Y-127.625
X149.0Y-129.5
X150.325Y-129.5
X151.65Y-129.5
X152.975Y-129.5
T3
X123.0Y-112.545
X123.0Y-115.085
X123.0Y-117.625
X123.1Y-123.175
X123.1Y-125.715
X123.1Y-128.255
X125.64Y-123.175
X125.64Y-125.715
X125.64Y-128.255
X141.485Y-123.8
X144.025Y-123.8
X150.225Y-109.9
X150.225Y-112.44
X150.225Y-114.98
X150.225Y-117.52
X150.225Y-120.06
X150.225Y-122.6
X150.225Y-125.14
X152.765Y-109.9
X152.765Y-112.44
X152.765Y-114.98
X152.765Y-117.52
X152.765Y-120.06
X152.765Y-122.6
X152.765Y-125.14
M30
